<svg width="144" height="182" viewBox="0 0 144 182" fill="none" xmlns="http://www.w3.org/2000/svg">
<path d="M17.8062 96.3081L23.4228 106.872L40.2131 114.125C42.0065 117.004 47.705 117.224 48.1195 115.363C48.5846 113.275 41.199 109.913 41.199 109.913L27.1534 100.887L25.9245 93.1165L17.8062 96.3081Z" fill="#ED9DA0"/>
<path d="M18.4686 167.197L17.4329 175.068L23.4403 175.462L24.0611 167.196L18.4686 167.197Z" fill="#ED9DA0"/>
<path d="M19.2967 173.888C18.7596 173.349 18.2642 172.773 17.8142 172.166C16.9542 171.034 16.1901 176.84 16.1901 176.84C16.1901 176.84 15.3614 179.202 15.5694 180.383C15.7773 181.564 20.5406 181.564 21.3696 181.368C22.1986 181.171 26.3408 181.368 26.3408 181.368H32.5553C37.9412 179.006 32.5553 177.431 32.5553 177.431C30.898 177.235 25.3053 172.314 25.3053 172.314L24.0623 170.15C23.2338 169.953 22.4051 172.905 22.4051 172.905L19.2967 173.888Z" fill="#090814"/>
<path d="M2.93221 167.295L1.89575 175.167L7.9032 175.56L8.52398 167.294L2.93221 167.295Z" fill="#ED9DA0"/>
<path d="M3.76143 173.987C3.22442 173.447 2.72897 172.872 2.27896 172.265C1.41799 171.133 0.654192 176.939 0.654192 176.939C0.654192 176.939 -0.174301 179.104 0.0334203 180.285C0.241142 181.465 5.00465 181.464 5.83363 181.269C6.6626 181.075 10.8049 181.466 10.8049 181.466H17.0193C22.4053 179.105 17.0193 177.53 17.0193 177.53C15.3621 177.333 9.76936 172.413 9.76936 172.413L8.52637 170.248C7.69787 170.051 6.86914 173.003 6.86914 173.003L3.76143 173.987Z" fill="#090814"/>
<path d="M9.7684 116.52C8.93966 117.504 9.35415 120.849 9.35415 120.849C9.35415 120.849 7.90415 131.674 8.52565 132.658C9.14714 133.642 8.1114 134.429 7.48919 135.807C6.86698 137.185 6.24597 140.53 6.24597 140.53C2.72448 143.285 2.93149 155.881 2.93149 155.881L1.68994 167.099C2.10419 168.279 7.9044 168.476 8.73338 168.279C9.56236 168.083 12.0478 150.37 12.0478 150.37L17.6406 140.333C17.6406 140.333 17.2263 167.098 17.2263 168.28C17.2263 169.462 22.8191 168.87 24.0621 168.87C25.305 168.87 25.305 149.189 25.305 149.189L26.548 144.072L33.1767 120.653V117.897L32.1403 116.519C32.1403 116.519 10.5969 115.536 9.7684 116.52Z" fill="#090814"/>
<path d="M22.0936 68.5974C20.7921 71.3513 21.5626 75.1985 24.1665 79.4217L13.6018 74.6986L15.2591 73.321L14.8458 69.3855L22.0936 68.5974Z" fill="#ED9DA0"/>
<path d="M18.8824 71.8452C22.429 71.8452 25.3041 69.1136 25.3041 65.744C25.3041 62.3744 22.429 59.6428 18.8824 59.6428C15.3358 59.6428 12.4607 62.3744 12.4607 65.744C12.4607 69.1136 15.3358 71.8452 18.8824 71.8452Z" fill="#ED9DA0"/>
<path d="M22.0941 74.8953C23.4775 75.6768 24.305 77.1125 24.7802 78.5736C25.6594 81.2784 26.1886 84.0748 26.356 86.9012L26.8574 95.3625L33.0719 117.799C27.6864 122.128 24.5801 121.144 17.3289 117.602C10.0778 114.059 9.24999 118.783 9.24999 118.783C9.24999 118.783 8.62921 118.586 9.24999 117.996C9.87077 117.406 9.25 117.996 8.62922 117.406C8.00844 116.817 8.62922 117.406 8.83646 116.817C9.0437 116.227 8.83646 116.62 8.62922 116.423C8.42198 116.226 9.45771 114.454 9.45771 114.454L7.80119 99.6924L5.72827 78.8313C8.21401 75.8791 15.2565 73.3206 15.2565 73.3206L21.6792 77.6503C23.7521 78.4375 22.0934 75.2886 22.0934 75.2886L22.0941 74.8953Z" fill="#E6E6E6"/>
<path d="M2.31142 91.3284L1.48291 103.137L12.0486 117.504C12.0486 120.849 13.9128 121.637 13.9128 121.637C14.6189 120.566 15.242 119.448 15.777 118.291C16.8135 116.126 15.1563 114.355 15.1563 114.355L7.90629 99.7914L11.0135 92.5098L2.31142 91.3284Z" fill="#ED9DA0"/>
<path d="M5.83145 78.9299C2.30997 80.1108 1.68848 92.9034 1.68848 92.9034C5.83145 90.7384 10.8027 94.281 10.8027 94.281C10.8027 94.281 11.8392 90.9353 13.0814 86.6058C13.4568 85.3879 13.5016 84.0995 13.2119 82.8607C12.9221 81.6219 12.3071 80.4729 11.4242 79.5206C11.4242 79.5206 9.35413 77.7494 5.83145 78.9299Z" fill="#E6E6E6"/>
<path d="M12.9795 67.6131C13.797 66.9918 14.9122 68.1212 14.9122 68.1212L15.5662 62.5289C15.5662 62.5289 19.6536 62.9948 22.2697 62.3735C24.8858 61.7522 25.2943 64.6258 25.2943 64.6258C25.4291 63.4659 25.4565 62.2969 25.3762 61.1324C25.2126 59.7348 23.0869 58.3373 19.3267 57.4043C15.5664 56.4713 13.6046 60.512 13.6046 60.512C10.9894 61.7524 12.162 68.2347 12.9795 67.6131Z" fill="#090814"/>
<path d="M143.378 43.1238H142.327V15.8092C142.327 11.6163 140.574 7.59526 137.454 4.63047C134.333 1.66569 130.101 6.0162e-05 125.688 0H64.7801C60.367 0 56.1346 1.6656 53.014 4.63039C49.8935 7.59519 48.1404 11.6163 48.1404 15.8092V165.657C48.1404 169.85 49.8935 173.871 53.014 176.836C56.1346 179.801 60.367 181.466 64.7801 181.466H125.688C130.101 181.466 134.333 179.801 137.454 176.836C140.575 173.871 142.328 169.85 142.328 165.657V62.5642H143.378L143.378 43.1238Z" fill="#090814"/>
<path d="M126.362 4.11377H118.413C118.778 4.96557 118.918 5.88976 118.819 6.80489C118.72 7.72003 118.386 8.59801 117.846 9.36148C117.306 10.1249 116.576 10.7505 115.721 11.1829C114.867 11.6153 113.913 11.8414 112.945 11.8412H78.0489C77.0806 11.8414 76.1272 11.6153 75.2725 11.1829C74.4179 10.7505 73.6884 10.1249 73.1482 9.36148C72.608 8.59801 72.2737 7.72003 72.1748 6.80489C72.076 5.88976 72.2156 4.96557 72.5813 4.11377H65.1575C61.8618 4.11377 58.7012 5.35762 56.3708 7.57168C54.0404 9.78575 52.7312 12.7887 52.7312 15.9198V165.549C52.7312 168.68 54.0403 171.683 56.3706 173.897C58.7009 176.111 61.8615 177.354 65.157 177.355H126.36C129.656 177.355 132.816 176.111 135.147 173.897C137.477 171.683 138.786 168.68 138.786 165.548V15.9198C138.786 12.7889 137.477 9.78614 135.147 7.5721C132.817 5.35806 129.657 4.11407 126.362 4.11377Z" fill="white"/>
<path d="M116.957 42.1479H60.1875C59.66 42.1479 59.2324 42.5542 59.2324 43.0553V71.4733C59.2324 71.9745 59.66 72.3807 60.1875 72.3807H116.957C117.484 72.3807 117.912 71.9745 117.912 71.4733V43.0553C117.912 42.5542 117.484 42.1479 116.957 42.1479Z" fill="#166D86"/>
<path d="M121.786 42.1479H138.786V72.3807H121.786C121.533 72.3807 121.29 72.2851 121.111 72.1149C120.931 71.9448 120.831 71.714 120.831 71.4733V43.0553C120.831 42.8147 120.931 42.5839 121.111 42.4137C121.29 42.2435 121.533 42.1479 121.786 42.1479Z" fill="#166D86"/>
<path d="M66.5608 17.071C68.001 17.071 69.409 17.4768 70.6065 18.2371C71.8041 18.9973 72.7375 20.0779 73.2886 21.3421C73.8398 22.6063 73.984 23.9974 73.703 25.3395C73.4221 26.6816 72.7285 27.9144 71.7101 28.882C70.6916 29.8496 69.3941 30.5086 67.9815 30.7755C66.5688 31.0425 65.1046 30.9055 63.774 30.3818C62.4433 29.8582 61.306 28.9714 60.5058 27.8336C59.7057 26.6958 59.2786 25.3582 59.2786 23.9898C59.2786 22.1548 60.0458 20.395 61.4115 19.0975C62.7771 17.8 64.6294 17.071 66.5608 17.071Z" fill="#166D86"/>
<path d="M115.865 20.4736H131.384C131.638 20.4736 131.881 20.5692 132.06 20.7394C132.239 20.9096 132.339 21.1404 132.339 21.381V26.1447C132.339 26.3854 132.239 26.6162 132.06 26.7863C131.881 26.9565 131.638 27.0521 131.384 27.0521H115.865C115.612 27.0521 115.369 26.9565 115.19 26.7863C115.011 26.6162 114.91 26.3854 114.91 26.1447V21.381C114.91 21.1404 115.011 20.9096 115.19 20.7394C115.369 20.5692 115.612 20.4736 115.865 20.4736Z" fill="#E6E6E6"/>
<path d="M60.2336 83.5361H75.5143C75.7676 83.5361 76.0105 83.6317 76.1896 83.8019C76.3687 83.9721 76.4693 84.2029 76.4693 84.4435V88.9804C76.4693 89.221 76.3687 89.4518 76.1896 89.622C76.0105 89.7921 75.7676 89.8877 75.5143 89.8877H60.2336C59.9803 89.8877 59.7374 89.7921 59.5583 89.622C59.3792 89.4518 59.2786 89.221 59.2786 88.9804V84.4435C59.2786 84.2029 59.3792 83.9721 59.5583 83.8019C59.7374 83.6317 59.9803 83.5361 60.2336 83.5361Z" fill="#166D86"/>
<path d="M81.0061 83.5361H96.2868C96.54 83.5361 96.783 83.6317 96.9621 83.8019C97.1412 83.9721 97.2418 84.2029 97.2418 84.4435V88.9804C97.2418 89.221 97.1412 89.4518 96.9621 89.622C96.783 89.7921 96.54 89.8877 96.2868 89.8877H81.0061C80.7528 89.8877 80.5099 89.7921 80.3308 89.622C80.1516 89.4518 80.051 89.221 80.051 88.9804V84.4435C80.051 84.2029 80.1516 83.9721 80.3308 83.8019C80.5099 83.6317 80.7528 83.5361 81.0061 83.5361Z" fill="#E6E6E6"/>
<path d="M101.778 83.5361H117.059C117.312 83.5361 117.555 83.6317 117.734 83.8019C117.913 83.9721 118.014 84.2029 118.014 84.4435V88.9804C118.014 89.221 117.913 89.4518 117.734 89.622C117.555 89.7921 117.312 89.8877 117.059 89.8877H101.778C101.525 89.8877 101.282 89.7921 101.103 89.622C100.924 89.4518 100.823 89.221 100.823 88.9804V84.4435C100.823 84.2029 100.924 83.9721 101.103 83.8019C101.282 83.6317 101.525 83.5361 101.778 83.5361Z" fill="#E6E6E6"/>
<path d="M116.957 42.1479H60.1875C59.66 42.1479 59.2324 42.5542 59.2324 43.0553V71.4733C59.2324 71.9745 59.66 72.3807 60.1875 72.3807H116.957C117.484 72.3807 117.912 71.9745 117.912 71.4733V43.0553C117.912 42.5542 117.484 42.1479 116.957 42.1479Z" fill="#166D86"/>
<path d="M60.1875 42.1479H116.957C117.21 42.1479 117.453 42.2435 117.632 42.4137C117.811 42.5839 117.912 42.8147 117.912 43.0553V71.4733C117.912 71.714 117.811 71.9448 117.632 72.1149C117.453 72.2851 117.21 72.3807 116.957 72.3807H60.1875C59.9342 72.3807 59.6913 72.2851 59.5121 72.1149C59.333 71.9448 59.2324 71.714 59.2324 71.4733V43.0553C59.2324 42.8147 59.333 42.5839 59.5121 42.4137C59.6913 42.2435 59.9342 42.1479 60.1875 42.1479Z" fill="#166D86"/>
<path d="M60.1875 96.6528H131.261C131.515 96.6528 131.757 96.7484 131.937 96.9186C132.116 97.0888 132.216 97.3196 132.216 97.5602V146.939C132.216 147.18 132.116 147.411 131.937 147.581C131.757 147.751 131.515 147.847 131.261 147.847H60.1875C59.9342 147.847 59.6913 147.751 59.5121 147.581C59.333 147.411 59.2324 147.18 59.2324 146.939V97.5602C59.2324 97.3196 59.333 97.0888 59.5121 96.9186C59.6913 96.7484 59.9342 96.6528 60.1875 96.6528Z" fill="#F2F2F2"/>
<path d="M60.2336 154.311H80.2895C80.5428 154.311 80.7857 154.407 80.9648 154.577C81.1439 154.747 81.2445 154.978 81.2445 155.219V168.376C81.2445 168.616 81.1439 168.847 80.9648 169.017C80.7857 169.187 80.5428 169.283 80.2895 169.283H60.2336C59.9803 169.283 59.7374 169.187 59.5583 169.017C59.3792 168.847 59.2786 168.616 59.2786 168.376V155.219C59.2786 154.978 59.3792 154.747 59.5583 154.577C59.7374 154.407 59.9803 154.311 60.2336 154.311Z" fill="#F2F2F2"/>
<path d="M111.328 154.311H131.384C131.638 154.311 131.88 154.407 132.06 154.577C132.239 154.747 132.339 154.978 132.339 155.219V168.376C132.339 168.616 132.239 168.847 132.06 169.017C131.88 169.187 131.638 169.283 131.384 169.283H111.328C111.075 169.283 110.832 169.187 110.653 169.017C110.474 168.847 110.373 168.616 110.373 168.376V155.219C110.373 154.978 110.474 154.747 110.653 154.577C110.832 154.407 111.075 154.311 111.328 154.311Z" fill="#F2F2F2"/>
<path d="M86.0197 154.311H105.837C106.09 154.311 106.333 154.407 106.512 154.577C106.691 154.747 106.792 154.978 106.792 155.219V168.376C106.792 168.616 106.691 168.847 106.512 169.017C106.333 169.187 106.09 169.283 105.837 169.283H86.0197C85.7664 169.283 85.5235 169.187 85.3444 169.017C85.1653 168.847 85.0647 168.616 85.0647 168.376V155.219C85.0647 154.978 85.1653 154.747 85.3444 154.577C85.5235 154.407 85.7664 154.311 86.0197 154.311Z" fill="#F2F2F2"/>
</svg>
