<svg width="183" height="134" viewBox="0 0 183 134" fill="none" xmlns="http://www.w3.org/2000/svg">
<path d="M29.6301 133.621C29.6301 133.81 29.7392 133.962 29.8749 133.962H151.939C152.076 133.962 152.183 133.81 152.183 133.621C152.183 133.432 152.074 133.28 151.939 133.28H29.8749C29.7392 133.28 29.6301 133.432 29.6301 133.621Z" fill="#CCCCCC"/>
<path d="M73.9699 132.497H69.6118V133.228H73.9699V132.497Z" fill="#B6B3C5"/>
<path d="M112.551 132.62H108.193V133.35H112.551V132.62Z" fill="#B6B3C5"/>
<path d="M97.3309 99.9817C97.0883 101.376 96.3323 102.644 95.1975 103.559C94.0628 104.473 92.6232 104.975 91.1353 104.975C89.6473 104.975 88.2077 104.473 87.073 103.559C85.9383 102.644 85.1822 101.376 84.9396 99.9817H69.0884V132.619H113.183V99.9817H97.3309Z" fill="#D6D6E3"/>
<path d="M113.31 130.033H69.2166V131.169H113.31V130.033Z" fill="#090814"/>
<path d="M179.812 100.835H2.45816C1.80644 100.834 1.18161 100.588 0.720778 100.15C0.259941 99.712 0.000724538 99.1183 0 98.4991L0 2.33568C0.000664166 1.71645 0.259854 1.12276 0.720697 0.684877C1.18154 0.246996 1.8064 0.000688476 2.45816 0H179.812C180.464 0.000745613 181.089 0.247042 181.549 0.684864C182.01 1.12269 182.269 1.71629 182.27 2.33546V98.4991C182.269 99.1183 182.01 99.7119 181.549 100.15C181.089 100.588 180.464 100.834 179.812 100.835Z" fill="#090814"/>
<path d="M177.684 3.69653H4.12988V96.7372H177.684V3.69653Z" fill="white"/>
<path d="M96.3889 54.5052C95.6542 54.5052 94.9267 54.3677 94.2479 54.1006C93.5691 53.8334 92.9524 53.4418 92.4329 52.9482C91.9134 52.4545 91.5013 51.8685 91.2203 51.2236C90.9392 50.5786 90.7946 49.8874 90.7947 49.1893V47.7641C90.7947 46.3545 91.3841 45.0026 92.4332 44.0058C93.4823 43.0091 94.9053 42.4491 96.3889 42.4491C96.4344 42.448 96.4796 42.4555 96.5219 42.4712C96.5642 42.487 96.6027 42.5106 96.6353 42.5407C96.6678 42.5709 96.6937 42.6069 96.7113 42.6467C96.729 42.6864 96.7381 42.7292 96.7381 42.7723C96.7381 42.8155 96.729 42.8582 96.7113 42.898C96.6937 42.9378 96.6678 42.9738 96.6353 43.0039C96.6027 43.034 96.5642 43.0577 96.5219 43.0734C96.4796 43.0892 96.4344 43.0967 96.3889 43.0956C95.0858 43.0956 93.836 43.5874 92.9145 44.4629C91.993 45.3384 91.4754 46.5258 91.4754 47.7639V49.1893C91.4754 50.4275 91.9931 51.6149 92.9146 52.4904C93.8361 53.3659 95.0859 53.8577 96.3891 53.8577C97.6923 53.8577 98.9421 53.3659 99.8636 52.4904C100.785 51.6149 101.303 50.4275 101.303 49.1893V46.623C101.302 46.5799 101.31 46.537 101.326 46.4968C101.343 46.4566 101.368 46.4199 101.399 46.389C101.431 46.3581 101.469 46.3335 101.511 46.3167C101.553 46.3 101.598 46.2913 101.643 46.2913C101.688 46.2913 101.733 46.3 101.775 46.3167C101.817 46.3335 101.855 46.3581 101.887 46.389C101.918 46.4199 101.943 46.4566 101.96 46.4968C101.976 46.537 101.984 46.5799 101.983 46.623V49.1893C101.983 49.8874 101.839 50.5786 101.558 51.2236C101.277 51.8685 100.865 52.4545 100.345 52.9482C99.8255 53.4418 99.2088 53.8334 98.53 54.1006C97.8512 54.3677 97.1237 54.5052 96.3889 54.5052Z" fill="black"/>
<path d="M85.8815 54.5054C85.1468 54.5054 84.4192 54.3679 83.7404 54.1007C83.0617 53.8336 82.4449 53.442 81.9254 52.9483C81.4059 52.4547 80.9939 51.8687 80.7128 51.2237C80.4317 50.5788 80.2871 49.8875 80.2872 49.1895V46.6232C80.286 46.5801 80.294 46.5371 80.3105 46.4969C80.3271 46.4567 80.352 46.4201 80.3837 46.3892C80.4154 46.3583 80.4533 46.3337 80.4952 46.3169C80.537 46.3001 80.582 46.2915 80.6275 46.2915C80.6729 46.2915 80.7179 46.3001 80.7597 46.3169C80.8016 46.3337 80.8395 46.3583 80.8712 46.3892C80.9029 46.4201 80.9278 46.4567 80.9444 46.4969C80.9609 46.5371 80.9689 46.5801 80.9677 46.6232V49.1895C80.9677 50.4276 81.4854 51.6151 82.4069 52.4906C83.3284 53.3661 84.5782 53.8579 85.8814 53.8579C87.1846 53.8579 88.4344 53.3661 89.3559 52.4906C90.2774 51.6151 90.7951 50.4276 90.7951 49.1895V47.7643C90.7951 47.1512 90.668 46.5442 90.421 45.9778C90.1741 45.4114 89.8122 44.8968 89.3559 44.4633C88.8996 44.0298 88.358 43.6859 87.7618 43.4513C87.1657 43.2167 86.5268 43.096 85.8815 43.096C85.7928 43.0938 85.7085 43.0588 85.6465 42.9984C85.5846 42.938 85.55 42.857 85.55 42.7727C85.55 42.6884 85.5846 42.6074 85.6465 42.547C85.7085 42.4867 85.7928 42.4516 85.8815 42.4495C87.3651 42.4495 88.7879 43.0095 89.837 44.0062C90.8861 45.0029 91.4755 46.3547 91.4755 47.7643V49.1895C91.4757 49.8875 91.331 50.5787 91.05 51.2237C90.7689 51.8686 90.3569 52.4546 89.8374 52.9483C89.3179 53.4419 88.7012 53.8335 88.0225 54.1007C87.3437 54.3678 86.6162 54.5054 85.8815 54.5054Z" fill="black"/>
<path d="M101.643 37.8186C101.553 37.8186 101.466 37.7845 101.402 37.7239C101.338 37.6633 101.303 37.581 101.303 37.4953V33.502C101.303 32.2639 100.785 31.0765 99.8634 30.201C98.942 29.3255 97.6921 28.8336 96.3889 28.8336C95.0858 28.8336 93.8359 29.3255 92.9144 30.201C91.9929 31.0765 91.4753 32.2639 91.4753 33.502C91.4764 33.5452 91.4685 33.5881 91.4519 33.6283C91.4354 33.6685 91.4105 33.7052 91.3788 33.7361C91.3471 33.767 91.3092 33.7916 91.2673 33.8084C91.2254 33.8251 91.1805 33.8338 91.135 33.8338C91.0896 33.8338 91.0446 33.8251 91.0027 33.8084C90.9609 33.7916 90.923 33.767 90.8913 33.7361C90.8596 33.7052 90.8347 33.6685 90.8181 33.6283C90.8015 33.5881 90.7936 33.5452 90.7948 33.502C90.7901 32.8012 90.9313 32.1064 91.2103 31.4577C91.4893 30.8089 91.9007 30.219 92.4206 29.7218C92.9405 29.2247 93.5588 28.8301 94.2399 28.5609C94.9209 28.2917 95.6513 28.1531 96.3889 28.1531C97.1266 28.1531 97.857 28.2917 98.538 28.5609C99.2191 28.8301 99.8374 29.2247 100.357 29.7218C100.877 30.219 101.289 30.8089 101.568 31.4577C101.847 32.1064 101.988 32.8012 101.983 33.502V37.4953C101.983 37.581 101.947 37.6632 101.883 37.7238C101.82 37.7845 101.733 37.8186 101.643 37.8186Z" fill="black"/>
<path d="M91.1353 48.0869C91.045 48.0869 90.9585 48.0529 90.8946 47.9922C90.8308 47.9316 90.795 47.8493 90.795 47.7636V33.5018C90.795 32.2637 90.2773 31.0762 89.3558 30.2007C88.4343 29.3252 87.1845 28.8334 85.8813 28.8334C84.5781 28.8334 83.3283 29.3252 82.4068 30.2007C81.4853 31.0762 80.9676 32.2637 80.9676 33.5018V37.495C80.9653 37.5793 80.9284 37.6594 80.8649 37.7182C80.8013 37.7771 80.7161 37.81 80.6273 37.81C80.5386 37.81 80.4534 37.7771 80.3898 37.7182C80.3263 37.6594 80.2894 37.5793 80.2871 37.495V33.5018C80.2872 32.4506 80.6153 31.4231 81.23 30.5491C81.8447 29.6751 82.7183 28.9939 83.7405 28.5916C84.7627 28.1893 85.8874 28.0841 86.9726 28.2891C88.0577 28.4941 89.0545 29.0003 89.8369 29.7435C90.358 30.2359 90.7711 30.8216 91.0524 31.4667C91.3336 32.1118 91.4774 32.8035 91.4754 33.5018V47.7636C91.4754 47.8493 91.4396 47.9315 91.3758 47.9921C91.312 48.0528 91.2255 48.0869 91.1353 48.0869Z" fill="black"/>
<path d="M98.3708 47.3741C98.3254 47.3752 98.2802 47.3677 98.2379 47.3519C98.1956 47.3362 98.1571 47.3126 98.1245 47.2824C98.092 47.2523 98.0661 47.2163 98.0484 47.1765C98.0308 47.1368 98.0217 47.094 98.0217 47.0509C98.0217 47.0077 98.0308 46.965 98.0484 46.9252C98.0661 46.8854 98.092 46.8494 98.1245 46.8193C98.1571 46.7891 98.1956 46.7655 98.2379 46.7498C98.2802 46.734 98.3254 46.7265 98.3708 46.7276C99.674 46.7276 100.924 46.2358 101.845 45.3603C102.767 44.4848 103.285 43.2973 103.285 42.0592C103.285 40.821 102.767 39.6336 101.845 38.7581C100.924 37.8826 99.674 37.3907 98.3708 37.3907H97.6204C97.5316 37.3886 97.4473 37.3536 97.3854 37.2932C97.3235 37.2328 97.2888 37.1518 97.2888 37.0675C97.2888 36.9832 97.3235 36.9022 97.3854 36.8418C97.4473 36.7814 97.5316 36.7464 97.6204 36.7442H98.3708C99.1085 36.7398 99.8398 36.8739 100.523 37.139C101.205 37.4041 101.826 37.7949 102.35 38.2889C102.873 38.7829 103.288 39.3703 103.572 40.0174C103.855 40.6644 104.001 41.3583 104.001 42.0592C104.001 42.76 103.855 43.4539 103.572 44.101C103.288 44.748 102.873 45.3355 102.35 45.8295C101.826 46.3234 101.205 46.7142 100.523 46.9793C99.8398 47.2444 99.1085 47.3786 98.3708 47.3741Z" fill="black"/>
<path d="M96.8178 37.3906C96.7723 37.3917 96.7271 37.3842 96.6848 37.3685C96.6425 37.3527 96.604 37.3291 96.5714 37.299C96.5389 37.2688 96.513 37.2328 96.4954 37.1931C96.4777 37.1533 96.4686 37.1105 96.4686 37.0674C96.4686 37.0242 96.4777 36.9815 96.4954 36.9417C96.513 36.9019 96.5389 36.8659 96.5714 36.8358C96.604 36.8057 96.6425 36.782 96.6848 36.7663C96.7271 36.7505 96.7723 36.743 96.8178 36.7441C97.1694 36.7472 97.5182 36.6841 97.844 36.5584C98.1699 36.4327 98.4662 36.2469 98.7161 36.0117C98.9659 35.7765 99.1642 35.4967 99.2995 35.1883C99.4348 34.8799 99.5045 34.5491 99.5045 34.215C99.5045 33.8809 99.4348 33.5501 99.2995 33.2417C99.1642 32.9333 98.9659 32.6535 98.7161 32.4183C98.4662 32.1832 98.1699 31.9974 97.844 31.8717C97.5182 31.746 97.1694 31.6828 96.8178 31.6859H96.3889C96.3002 31.6837 96.2159 31.6487 96.154 31.5883C96.092 31.528 96.0574 31.447 96.0574 31.3627C96.0574 31.2784 96.092 31.1974 96.154 31.137C96.2159 31.0766 96.3002 31.0416 96.3889 31.0394H96.8178C97.259 31.036 97.6966 31.1155 98.1054 31.2736C98.5141 31.4316 98.8858 31.665 99.1991 31.9602C99.5124 32.2554 99.7611 32.6067 99.9308 32.9937C100.101 33.3807 100.188 33.7958 100.188 34.215C100.188 34.6343 100.101 35.0494 99.9308 35.4364C99.7611 35.8234 99.5124 36.1746 99.1991 36.4698C98.8858 36.7651 98.5141 36.9984 98.1054 37.1565C97.6966 37.3145 97.259 37.3941 96.8178 37.3906Z" fill="black"/>
<path d="M96.8178 52.7553H96.389C96.3435 52.7564 96.2983 52.7488 96.256 52.7331C96.2137 52.7174 96.1752 52.6937 96.1426 52.6636C96.1101 52.6335 96.0842 52.5975 96.0666 52.5577C96.0489 52.5179 96.0398 52.4752 96.0398 52.432C96.0398 52.3888 96.0489 52.3461 96.0666 52.3063C96.0842 52.2666 96.1101 52.2306 96.1426 52.2004C96.1752 52.1703 96.2137 52.1467 96.256 52.1309C96.2983 52.1152 96.3435 52.1076 96.389 52.1088H96.8178C97.5195 52.1026 98.1903 51.8334 98.6842 51.3598C99.1782 50.8862 99.4553 50.2464 99.4553 49.5797C99.4553 48.9129 99.1782 48.2732 98.6842 47.7995C98.1903 47.3259 97.5195 47.0567 96.8178 47.0506C96.7291 47.0484 96.6448 47.0134 96.5829 46.953C96.5209 46.8926 96.4863 46.8116 96.4863 46.7273C96.4863 46.643 96.5209 46.562 96.5829 46.5016C96.6448 46.4412 96.7291 46.4062 96.8178 46.4041C97.6995 46.411 98.5426 46.7486 99.1635 47.3434C99.7844 47.9382 100.133 48.742 100.133 49.5797C100.133 50.4174 99.7844 51.2211 99.1635 51.8159C98.5426 52.4107 97.6995 52.7483 96.8178 52.7553Z" fill="black"/>
<path d="M83.8994 47.3741C82.4219 47.3651 81.0081 46.8012 79.9667 45.8055C78.9253 44.8097 78.3408 43.4629 78.3408 42.0592C78.3408 40.6554 78.9253 39.3087 79.9667 38.3129C81.0081 37.3171 82.4219 36.7532 83.8994 36.7442H84.6499C84.6953 36.7431 84.7405 36.7507 84.7828 36.7664C84.8251 36.7822 84.8637 36.8058 84.8962 36.8359C84.9287 36.866 84.9546 36.902 84.9723 36.9418C84.9899 36.9816 84.999 37.0243 84.999 37.0675C84.999 37.1107 84.9899 37.1534 84.9723 37.1932C84.9546 37.2329 84.9287 37.269 84.8962 37.2991C84.8637 37.3292 84.8251 37.3528 84.7828 37.3686C84.7405 37.3843 84.6953 37.3919 84.6499 37.3907H83.8994C82.5962 37.3907 81.3464 37.8826 80.4249 38.7581C79.5034 39.6336 78.9857 40.821 78.9857 42.0592C78.9857 43.2973 79.5034 44.4848 80.4249 45.3603C81.3464 46.2358 82.5962 46.7276 83.8994 46.7276C83.9881 46.7298 84.0724 46.7648 84.1343 46.8252C84.1962 46.8856 84.2309 46.9665 84.2309 47.0509C84.2309 47.1352 84.1962 47.2161 84.1343 47.2765C84.0724 47.3369 83.9881 47.3719 83.8994 47.3741Z" fill="black"/>
<path d="M85.4521 37.3906C84.5705 37.3837 83.7274 37.0461 83.1065 36.4513C82.4856 35.8565 82.1372 35.0527 82.1372 34.215C82.1372 33.3773 82.4856 32.5735 83.1065 31.9787C83.7274 31.384 84.5705 31.0463 85.4521 31.0394H85.881C85.9264 31.0383 85.9716 31.0458 86.0139 31.0616C86.0562 31.0773 86.0948 31.1009 86.1273 31.1311C86.1599 31.1612 86.1857 31.1972 86.2034 31.237C86.2211 31.2768 86.2302 31.3195 86.2302 31.3627C86.2302 31.4058 86.2211 31.4486 86.2034 31.4883C86.1857 31.5281 86.1599 31.5641 86.1273 31.5943C86.0948 31.6244 86.0562 31.648 86.0139 31.6638C85.9716 31.6795 85.9264 31.687 85.881 31.6859H85.4521C84.7504 31.6921 84.0796 31.9613 83.5857 32.4349C83.0918 32.9085 82.8147 33.5483 82.8147 34.215C82.8147 34.8818 83.0918 35.5215 83.5857 35.9951C84.0796 36.4688 84.7504 36.738 85.4521 36.7441C85.5409 36.7463 85.6252 36.7813 85.6871 36.8417C85.749 36.9021 85.7837 36.9831 85.7837 37.0674C85.7837 37.1517 85.749 37.2327 85.6871 37.293C85.6252 37.3534 85.5409 37.3884 85.4521 37.3906Z" fill="black"/>
<path d="M85.8812 52.7553H85.4524C84.5707 52.7483 83.7276 52.4107 83.1067 51.8159C82.4858 51.2211 82.1375 50.4174 82.1375 49.5797C82.1375 48.742 82.4858 47.9382 83.1067 47.3434C83.7276 46.7486 84.5707 46.411 85.4524 46.4041C85.5411 46.4062 85.6254 46.4412 85.6873 46.5016C85.7493 46.562 85.7839 46.643 85.7839 46.7273C85.7839 46.8116 85.7493 46.8926 85.6873 46.953C85.6254 47.0134 85.5411 47.0484 85.4524 47.0506C84.7507 47.0567 84.0799 47.3259 83.586 47.7995C83.092 48.2732 82.8149 48.9129 82.8149 49.5797C82.8149 50.2464 83.092 50.8862 83.586 51.3598C84.0799 51.8334 84.7507 52.1026 85.4524 52.1088H85.8812C85.9267 52.1076 85.9719 52.1152 86.0142 52.1309C86.0565 52.1467 86.095 52.1703 86.1276 52.2004C86.1601 52.2306 86.186 52.2666 86.2036 52.3063C86.2213 52.3461 86.2304 52.3888 86.2304 52.432C86.2304 52.4752 86.2213 52.5179 86.2036 52.5577C86.186 52.5975 86.1601 52.6335 86.1276 52.6636C86.095 52.6937 86.0565 52.7174 86.0142 52.7331C85.9719 52.7488 85.9267 52.7564 85.8812 52.7553Z" fill="black"/>
<path d="M83.6906 60.8132H78.5605C78.1114 60.8132 77.7473 61.1592 77.7473 61.5859C77.7473 62.0126 78.1114 62.3585 78.5605 62.3585H83.6906C84.1397 62.3585 84.5038 62.0126 84.5038 61.5859C84.5038 61.1592 84.1397 60.8132 83.6906 60.8132Z" fill="#166D86"/>
<path d="M107.088 60.8132H106.337C105.888 60.8132 105.524 61.1592 105.524 61.5859C105.524 62.0126 105.888 62.3585 106.337 62.3585H107.088C107.537 62.3585 107.901 62.0126 107.901 61.5859C107.901 61.1592 107.537 60.8132 107.088 60.8132Z" fill="#166D86"/>
<path d="M111.843 60.8132H111.092C110.643 60.8132 110.279 61.1592 110.279 61.5859C110.279 62.0126 110.643 62.3585 111.092 62.3585H111.843C112.292 62.3585 112.656 62.0126 112.656 61.5859C112.656 61.1592 112.292 60.8132 111.843 60.8132Z" fill="#166D86"/>
<path d="M102.208 60.8132H87.6941C87.245 60.8132 86.8809 61.1592 86.8809 61.5859C86.8809 62.0126 87.245 62.3585 87.6941 62.3585H102.208C102.657 62.3585 103.021 62.0126 103.021 61.5859C103.021 61.1592 102.657 60.8132 102.208 60.8132Z" fill="#166D86"/>
<path d="M75.1825 70.7988H70.0525C69.6034 70.7988 69.2393 71.1447 69.2393 71.5715C69.2393 71.9982 69.6034 72.3441 70.0525 72.3441H75.1825C75.6317 72.3441 75.9958 71.9982 75.9958 71.5715C75.9958 71.1447 75.6317 70.7988 75.1825 70.7988Z" fill="#166D86"/>
<path d="M98.5798 70.7988H97.8291C97.38 70.7988 97.0159 71.1447 97.0159 71.5715C97.0159 71.9982 97.38 72.3441 97.8291 72.3441H98.5798C99.029 72.3441 99.393 71.9982 99.393 71.5715C99.393 71.1447 99.029 70.7988 98.5798 70.7988Z" fill="#166D86"/>
<path d="M103.334 70.7988H102.584C102.135 70.7988 101.771 71.1447 101.771 71.5715C101.771 71.9982 102.135 72.3441 102.584 72.3441H103.334C103.784 72.3441 104.148 71.9982 104.148 71.5715C104.148 71.1447 103.784 70.7988 103.334 70.7988Z" fill="#166D86"/>
<path d="M93.7003 70.7988H79.1863C78.7371 70.7988 78.373 71.1447 78.373 71.5715C78.373 71.9982 78.7371 72.3441 79.1863 72.3441H93.7003C94.1494 72.3441 94.5135 71.9982 94.5135 71.5715C94.5135 71.1447 94.1494 70.7988 93.7003 70.7988Z" fill="#166D86"/>
<path d="M103.084 64.2605H97.9543C97.5052 64.2605 97.1411 64.6064 97.1411 65.0331C97.1411 65.4598 97.5052 65.8058 97.9543 65.8058H103.084C103.534 65.8058 103.898 65.4598 103.898 65.0331C103.898 64.6064 103.534 64.2605 103.084 64.2605Z" fill="#166D86"/>
<path d="M75.1825 64.2605H70.0525C69.6034 64.2605 69.2393 64.6064 69.2393 65.0331C69.2393 65.4598 69.6034 65.8058 70.0525 65.8058H75.1825C75.6317 65.8058 75.9958 65.4598 75.9958 65.0331C75.9958 64.6064 75.6317 64.2605 75.1825 64.2605Z" fill="#166D86"/>
<path d="M70.8032 60.8132H70.0525C69.6034 60.8132 69.2393 61.1592 69.2393 61.5859C69.2393 62.0126 69.6034 62.3585 70.0525 62.3585H70.8032C71.2523 62.3585 71.6164 62.0126 71.6164 61.5859C71.6164 61.1592 71.2523 60.8132 70.8032 60.8132Z" fill="#166D86"/>
<path d="M70.803 67.5889H70.0522C69.6031 67.5889 69.239 67.9348 69.239 68.3615C69.239 68.7882 69.6031 69.1341 70.0522 69.1341H70.803C71.2521 69.1341 71.6162 68.7882 71.6162 68.3615C71.6162 67.9348 71.2521 67.5889 70.803 67.5889Z" fill="#166D86"/>
<path d="M94.0755 64.2605H79.5615C79.1124 64.2605 78.7483 64.6064 78.7483 65.0331C78.7483 65.4598 79.1124 65.8058 79.5615 65.8058H94.0755C94.5246 65.8058 94.8887 65.4598 94.8887 65.0331C94.8887 64.6064 94.5246 64.2605 94.0755 64.2605Z" fill="#166D86"/>
<path d="M89.0707 67.5889H83.9407C83.4915 67.5889 83.1274 67.9348 83.1274 68.3615C83.1274 68.7882 83.4915 69.1341 83.9407 69.1341H89.0707C89.5199 69.1341 89.884 68.7882 89.884 68.3615C89.884 67.9348 89.5199 67.5889 89.0707 67.5889Z" fill="#166D86"/>
<path d="M79.9369 67.5889H74.8069C74.3577 67.5889 73.9937 67.9348 73.9937 68.3615C73.9937 68.7882 74.3577 69.1341 74.8069 69.1341H79.9369C80.3861 69.1341 80.7502 68.7882 80.7502 68.3615C80.7502 67.9348 80.3861 67.5889 79.9369 67.5889Z" fill="#166D86"/>
<path d="M75.063 60.8132H74.3122C73.8631 60.8132 73.499 61.1592 73.499 61.5859C73.499 62.0126 73.8631 62.3585 74.3122 62.3585H75.063C75.5121 62.3585 75.8762 62.0126 75.8762 61.5859C75.8762 61.1592 75.5121 60.8132 75.063 60.8132Z" fill="#166D86"/>
<path d="M112.218 67.5889H111.467C111.018 67.5889 110.654 67.9348 110.654 68.3615C110.654 68.7882 111.018 69.1341 111.467 69.1341H112.218C112.667 69.1341 113.031 68.7882 113.031 68.3615C113.031 67.9348 112.667 67.5889 112.218 67.5889Z" fill="#166D86"/>
<path d="M107.463 67.5889H92.9492C92.5001 67.5889 92.136 67.9348 92.136 68.3615C92.136 68.7882 92.5001 69.1341 92.9492 69.1341H107.463C107.912 69.1341 108.276 68.7882 108.276 68.3615C108.276 67.9348 107.912 67.5889 107.463 67.5889Z" fill="#166D86"/>
<path d="M51.2722 88.7549H33.6654C33.5721 88.7548 33.4826 88.7195 33.4165 88.6568C33.3505 88.594 33.3134 88.509 33.3132 88.4203V85.2682H33.4542V88.4212C33.4543 88.4744 33.4766 88.5255 33.5162 88.5632C33.5558 88.6008 33.6096 88.622 33.6657 88.6221H51.2724C51.3285 88.622 51.3822 88.6008 51.4219 88.5632C51.4615 88.5255 51.4838 88.4744 51.4839 88.4212V85.2461H51.6249V88.4212C51.6245 88.5098 51.5872 88.5947 51.5211 88.6572C51.455 88.7198 51.3655 88.7549 51.2722 88.7549Z" fill="#3F3D56"/>
<path d="M57.655 85.2012H16.281V85.3347H57.655V85.2012Z" fill="#3F3D56"/>
<path d="M16.284 86.4094C16.9533 86.4094 17.496 85.8939 17.496 85.2579C17.496 84.622 16.9533 84.1064 16.284 84.1064C15.6146 84.1064 15.072 84.622 15.072 85.2579C15.072 85.8939 15.6146 86.4094 16.284 86.4094Z" fill="#166D86"/>
<path d="M28.5999 86.4094C29.2693 86.4094 29.8119 85.8939 29.8119 85.2579C29.8119 84.622 29.2693 84.1064 28.5999 84.1064C27.9306 84.1064 27.3879 84.622 27.3879 85.2579C27.3879 85.8939 27.9306 86.4094 28.5999 86.4094Z" fill="#166D86"/>
<path d="M36.9588 89.7937C37.6281 89.7937 38.1708 89.2781 38.1708 88.6422C38.1708 88.0063 37.6281 87.4907 36.9588 87.4907C36.2894 87.4907 35.7468 88.0063 35.7468 88.6422C35.7468 89.2781 36.2894 89.7937 36.9588 89.7937Z" fill="#3F3D56"/>
<path d="M43.3128 89.7937C43.9822 89.7937 44.5248 89.2781 44.5248 88.6422C44.5248 88.0063 43.9822 87.4907 43.3128 87.4907C42.6434 87.4907 42.1008 88.0063 42.1008 88.6422C42.1008 89.2781 42.6434 89.7937 43.3128 89.7937Z" fill="#CCCCCC"/>
<path d="M40.2337 86.4094C40.9031 86.4094 41.4457 85.8939 41.4457 85.2579C41.4457 84.622 40.9031 84.1064 40.2337 84.1064C39.5643 84.1064 39.0217 84.622 39.0217 85.2579C39.0217 85.8939 39.5643 86.4094 40.2337 86.4094Z" fill="#166D86"/>
<path d="M57.4886 86.4094C58.1579 86.4094 58.7006 85.8939 58.7006 85.2579C58.7006 84.622 58.1579 84.1064 57.4886 84.1064C56.8192 84.1064 56.2766 84.622 56.2766 85.2579C56.2766 85.8939 56.8192 86.4094 57.4886 86.4094Z" fill="#166D86"/>
<path d="M51.554 86.4094C52.2234 86.4094 52.766 85.8939 52.766 85.2579C52.766 84.622 52.2234 84.1064 51.554 84.1064C50.8847 84.1064 50.342 84.622 50.342 85.2579C50.342 85.8939 50.8847 86.4094 51.554 86.4094Z" fill="#166D86"/>
<path d="M20.0422 85.3352C20.0235 85.3352 20.0055 85.3282 19.9923 85.3156C19.9791 85.3031 19.9717 85.286 19.9717 85.2683V81.964C19.9718 81.8753 20.0089 81.7903 20.075 81.7275C20.141 81.6648 20.2305 81.6295 20.3239 81.6294H23.7536C23.7723 81.6294 23.7902 81.6365 23.8034 81.649C23.8166 81.6616 23.8241 81.6786 23.8241 81.6964C23.8241 81.7141 23.8166 81.7312 23.8034 81.7437C23.7902 81.7563 23.7723 81.7633 23.7536 81.7633H20.325C20.269 81.7634 20.2152 81.7846 20.1756 81.8222C20.1359 81.8599 20.1136 81.911 20.1136 81.9642V85.2685C20.1136 85.2862 20.1061 85.3033 20.0929 85.3158C20.0797 85.3284 20.0618 85.3354 20.0431 85.3354L20.0422 85.3352Z" fill="#3F3D56"/>
<path d="M23.9149 82.8227C24.5842 82.8227 25.1268 82.3072 25.1268 81.6713C25.1268 81.0353 24.5842 80.5198 23.9149 80.5198C23.2455 80.5198 22.7029 81.0353 22.7029 81.6713C22.7029 82.3072 23.2455 82.8227 23.9149 82.8227Z" fill="#E6E6E6"/>
<path d="M47.1681 85.2683H47.0271V81.964C47.0272 81.8753 47.0644 81.7903 47.1304 81.7275C47.1964 81.6648 47.2859 81.6295 47.3793 81.6294H50.809V81.7633H47.3804C47.3244 81.7634 47.2706 81.7846 47.231 81.8222C47.1913 81.8599 47.169 81.911 47.169 81.9642L47.1681 85.2683Z" fill="#3F3D56"/>
<path d="M50.9705 82.8227C51.6399 82.8227 52.1825 82.3072 52.1825 81.6713C52.1825 81.0353 51.6399 80.5198 50.9705 80.5198C50.3012 80.5198 49.7585 81.0353 49.7585 81.6713C49.7585 82.3072 50.3012 82.8227 50.9705 82.8227Z" fill="#E6E6E6"/>
<path d="M130.374 73.2244C129.867 73.2244 129.455 73.396 129.455 73.6067V73.9125C129.455 74.1233 129.867 74.2948 130.374 74.2948H151.687C152.194 74.2948 152.606 74.1231 152.606 73.9125V73.6067C152.606 73.3958 152.194 73.2244 151.687 73.2244H130.374Z" fill="#F2F2F2"/>
<path d="M170.429 81.4558C171.341 81.4558 172.082 81.8351 172.082 82.301V88.879C172.082 89.3453 171.34 89.7242 170.429 89.7242H131.109C130.196 89.7242 129.455 89.3449 129.455 88.879V82.3015C129.455 81.8351 130.197 81.4562 131.109 81.4562" fill="#F2F2F2"/>
<path d="M130.374 75.3054C129.867 75.3054 129.455 75.5163 129.455 75.7753C129.455 76.0343 129.867 76.2452 130.374 76.2452H163.079C163.586 76.2452 163.998 76.0343 163.998 75.7753C163.998 75.5163 163.586 75.3054 163.079 75.3054H130.374Z" fill="#F2F2F2"/>
<path d="M130.374 77.2561C129.867 77.2561 129.455 77.467 129.455 77.726C129.455 77.985 129.867 78.1958 130.374 78.1958H163.079C163.586 78.1958 163.998 77.985 163.998 77.726C163.998 77.467 163.586 77.2561 163.079 77.2561H130.374Z" fill="#F2F2F2"/>
<path d="M27.2237 11.7478H15.4556C15.3537 11.7478 15.256 11.7093 15.184 11.6409C15.112 11.5725 15.0715 11.4797 15.0715 11.3829C15.0715 11.2862 15.112 11.1934 15.184 11.1249C15.256 11.0565 15.3537 11.0181 15.4556 11.0181H27.2237C27.3256 11.0181 27.4233 11.0565 27.4953 11.1249C27.5673 11.1934 27.6078 11.2862 27.6078 11.3829C27.6078 11.4797 27.5673 11.5725 27.4953 11.6409C27.4233 11.7093 27.3256 11.7478 27.2237 11.7478Z" fill="#166D86"/>
<path d="M20.5564 13.1882H15.4556C15.3537 13.1882 15.256 13.1498 15.184 13.0814C15.112 13.0129 15.0715 12.9201 15.0715 12.8234C15.0715 12.7266 15.112 12.6338 15.184 12.5654C15.256 12.4969 15.3537 12.4585 15.4556 12.4585H20.5564C20.6583 12.4585 20.756 12.4969 20.828 12.5654C20.9 12.6338 20.9405 12.7266 20.9405 12.8234C20.9405 12.9201 20.9 13.0129 20.828 13.0814C20.756 13.1498 20.6583 13.1882 20.5564 13.1882Z" fill="#166D86"/>
<path d="M31.1323 13.5521C31.9747 13.5521 32.6575 12.9034 32.6575 12.1031C32.6575 11.3028 31.9747 10.6541 31.1323 10.6541C30.29 10.6541 29.6072 11.3028 29.6072 12.1031C29.6072 12.9034 30.29 13.5521 31.1323 13.5521Z" fill="#166D86"/>
<path d="M30.879 12.6241H30.8692C30.8406 12.6227 30.8126 12.6155 30.7872 12.603C30.7617 12.5904 30.7395 12.5728 30.7219 12.5513L30.4668 12.2405C30.4507 12.2208 30.4389 12.1983 30.4319 12.1743C30.425 12.1503 30.4231 12.1252 30.4264 12.1005C30.4296 12.0758 30.438 12.0519 30.4509 12.0303C30.4639 12.0086 30.4813 11.9896 30.502 11.9744L30.5111 11.9674C30.5318 11.9521 30.5554 11.9408 30.5807 11.9342C30.606 11.9276 30.6324 11.9258 30.6584 11.9289C30.6844 11.932 30.7096 11.9399 30.7324 11.9523C30.7551 11.9646 30.7751 11.9811 30.7912 12.0008C30.8041 12.0165 30.8204 12.0294 30.8389 12.0385C30.8575 12.0477 30.878 12.0529 30.8989 12.0539C30.9198 12.0549 30.9407 12.0515 30.9602 12.0441C30.9796 12.0367 30.9971 12.0254 31.0116 12.011L31.5287 11.4908C31.5651 11.4544 31.6153 11.4331 31.6682 11.4317C31.7211 11.4303 31.7724 11.4489 31.8109 11.4835L31.8193 11.4911C31.8384 11.5082 31.8537 11.5287 31.8644 11.5514C31.8751 11.5741 31.881 11.5987 31.8817 11.6236C31.8824 11.6485 31.878 11.6733 31.8686 11.6965C31.8592 11.7198 31.8451 11.7411 31.8271 11.7591L31.0239 12.5645C31.0052 12.5832 30.9828 12.5981 30.9579 12.6083C30.933 12.6184 30.9061 12.6237 30.879 12.6237V12.6241Z" fill="white"/>
<path d="M27.2237 19.459H15.4556C15.3537 19.459 15.256 19.4205 15.184 19.3521C15.112 19.2837 15.0715 19.1909 15.0715 19.0941C15.0715 18.9973 15.112 18.9045 15.184 18.8361C15.256 18.7677 15.3537 18.7292 15.4556 18.7292H27.2237C27.3256 18.7292 27.4233 18.7677 27.4953 18.8361C27.5673 18.9045 27.6078 18.9973 27.6078 19.0941C27.6078 19.1909 27.5673 19.2837 27.4953 19.3521C27.4233 19.4205 27.3256 19.459 27.2237 19.459Z" fill="#166D86"/>
<path d="M20.5564 20.8994H15.4556C15.3537 20.8994 15.256 20.861 15.184 20.7925C15.112 20.7241 15.0715 20.6313 15.0715 20.5345C15.0715 20.4378 15.112 20.345 15.184 20.2765C15.256 20.2081 15.3537 20.1697 15.4556 20.1697H20.5564C20.6583 20.1697 20.756 20.2081 20.828 20.2765C20.9 20.345 20.9405 20.4378 20.9405 20.5345C20.9405 20.6313 20.9 20.7241 20.828 20.7925C20.756 20.861 20.6583 20.8994 20.5564 20.8994Z" fill="#166D86"/>
<path d="M31.1323 21.2633C31.9747 21.2633 32.6575 20.6146 32.6575 19.8143C32.6575 19.014 31.9747 18.3652 31.1323 18.3652C30.29 18.3652 29.6072 19.014 29.6072 19.8143C29.6072 20.6146 30.29 21.2633 31.1323 21.2633Z" fill="#E6E6E6"/>
<path d="M30.879 20.3353H30.8692C30.8406 20.3339 30.8126 20.3267 30.7872 20.3141C30.7617 20.3016 30.7395 20.2839 30.7219 20.2625L30.4668 19.9517C30.4507 19.932 30.4389 19.9095 30.4319 19.8855C30.425 19.8615 30.4231 19.8364 30.4264 19.8117C30.4296 19.787 30.438 19.7631 30.4509 19.7415C30.4639 19.7198 30.4813 19.7008 30.502 19.6855L30.5111 19.6786C30.5318 19.6633 30.5554 19.652 30.5807 19.6454C30.606 19.6388 30.6324 19.637 30.6584 19.6401C30.6844 19.6432 30.7096 19.6511 30.7324 19.6635C30.7551 19.6758 30.7751 19.6923 30.7912 19.712C30.8041 19.7277 30.8204 19.7405 30.8389 19.7497C30.8575 19.7589 30.878 19.7641 30.8989 19.7651C30.9198 19.7661 30.9407 19.7627 30.9602 19.7553C30.9796 19.7479 30.9971 19.7366 31.0116 19.7222L31.5287 19.202C31.5651 19.1655 31.6153 19.1443 31.6682 19.1429C31.7211 19.1415 31.7724 19.1601 31.8109 19.1946L31.8193 19.2022C31.8384 19.2193 31.8537 19.2398 31.8644 19.2626C31.8751 19.2853 31.881 19.3098 31.8817 19.3347C31.8824 19.3596 31.878 19.3844 31.8686 19.4077C31.8592 19.431 31.8451 19.4523 31.8271 19.4703L31.0239 20.2757C31.0052 20.2944 30.9828 20.3093 30.9579 20.3194C30.933 20.3296 30.9061 20.3349 30.879 20.3348V20.3353Z" fill="white"/>
<path d="M27.2237 27.1702H15.4556C15.3537 27.1702 15.256 27.1317 15.184 27.0633C15.112 26.9949 15.0715 26.9021 15.0715 26.8053C15.0715 26.7085 15.112 26.6157 15.184 26.5473C15.256 26.4789 15.3537 26.4404 15.4556 26.4404H27.2237C27.3256 26.4404 27.4233 26.4789 27.4953 26.5473C27.5673 26.6157 27.6078 26.7085 27.6078 26.8053C27.6078 26.9021 27.5673 26.9949 27.4953 27.0633C27.4233 27.1317 27.3256 27.1702 27.2237 27.1702Z" fill="#166D86"/>
<path d="M20.5564 28.6106H15.4556C15.3537 28.6106 15.256 28.5721 15.184 28.5037C15.112 28.4353 15.0715 28.3425 15.0715 28.2457C15.0715 28.149 15.112 28.0562 15.184 27.9877C15.256 27.9193 15.3537 27.8809 15.4556 27.8809H20.5564C20.6583 27.8809 20.756 27.9193 20.828 27.9877C20.9 28.0562 20.9405 28.149 20.9405 28.2457C20.9405 28.3425 20.9 28.4353 20.828 28.5037C20.756 28.5721 20.6583 28.6106 20.5564 28.6106Z" fill="#166D86"/>
<path d="M31.1323 28.9743C31.9747 28.9743 32.6575 28.3255 32.6575 27.5252C32.6575 26.7249 31.9747 26.0762 31.1323 26.0762C30.29 26.0762 29.6072 26.7249 29.6072 27.5252C29.6072 28.3255 30.29 28.9743 31.1323 28.9743Z" fill="#E6E6E6"/>
<path d="M30.879 28.046H30.8692C30.8406 28.0446 30.8126 28.0374 30.7872 28.0248C30.7617 28.0123 30.7395 27.9946 30.7219 27.9732L30.4668 27.6624C30.4507 27.6427 30.4389 27.6202 30.4319 27.5962C30.425 27.5722 30.4231 27.5471 30.4264 27.5224C30.4296 27.4977 30.438 27.4738 30.4509 27.4522C30.4639 27.4305 30.4813 27.4115 30.502 27.3962L30.5111 27.3893C30.5318 27.374 30.5554 27.3627 30.5807 27.3561C30.606 27.3495 30.6324 27.3477 30.6584 27.3508C30.6844 27.3539 30.7096 27.3618 30.7324 27.3741C30.7551 27.3865 30.7751 27.403 30.7912 27.4227C30.8041 27.4384 30.8204 27.4512 30.8389 27.4604C30.8575 27.4696 30.878 27.4748 30.8989 27.4758C30.9198 27.4767 30.9407 27.4734 30.9602 27.466C30.9796 27.4586 30.9971 27.4473 31.0116 27.4329L31.5287 26.9127C31.5651 26.8762 31.6153 26.855 31.6682 26.8536C31.7211 26.8522 31.7724 26.8708 31.8109 26.9053L31.8193 26.9129C31.8384 26.93 31.8537 26.9505 31.8644 26.9733C31.8751 26.996 31.881 27.0205 31.8817 27.0454C31.8824 27.0703 31.878 27.0951 31.8686 27.1184C31.8592 27.1417 31.8451 27.1629 31.8271 27.181L31.0239 27.9864C31.0052 28.0051 30.9828 28.02 30.9579 28.0301C30.933 28.0403 30.9061 28.0456 30.879 28.0455V28.046Z" fill="white"/>
<path d="M27.2237 34.8811H15.4556C15.3537 34.8811 15.256 34.8426 15.184 34.7742C15.112 34.7058 15.0715 34.613 15.0715 34.5162C15.0715 34.4195 15.112 34.3267 15.184 34.2582C15.256 34.1898 15.3537 34.1514 15.4556 34.1514H27.2237C27.3256 34.1514 27.4233 34.1898 27.4953 34.2582C27.5673 34.3267 27.6078 34.4195 27.6078 34.5162C27.6078 34.613 27.5673 34.7058 27.4953 34.7742C27.4233 34.8426 27.3256 34.8811 27.2237 34.8811Z" fill="#E6E6E6"/>
<path d="M20.5564 36.3215H15.4556C15.3537 36.3215 15.256 36.2831 15.184 36.2147C15.112 36.1462 15.0715 36.0534 15.0715 35.9567C15.0715 35.8599 15.112 35.7671 15.184 35.6987C15.256 35.6302 15.3537 35.5918 15.4556 35.5918H20.5564C20.6583 35.5918 20.756 35.6302 20.828 35.6987C20.9 35.7671 20.9405 35.8599 20.9405 35.9567C20.9405 36.0534 20.9 36.1462 20.828 36.2147C20.756 36.2831 20.6583 36.3215 20.5564 36.3215Z" fill="#E6E6E6"/>
<path d="M31.1323 36.6854C31.9747 36.6854 32.6575 36.0367 32.6575 35.2364C32.6575 34.4361 31.9747 33.7874 31.1323 33.7874C30.29 33.7874 29.6072 34.4361 29.6072 35.2364C29.6072 36.0367 30.29 36.6854 31.1323 36.6854Z" fill="#E6E6E6"/>
<path d="M30.879 35.7574H30.8692C30.8406 35.756 30.8126 35.7488 30.7872 35.7363C30.7617 35.7237 30.7395 35.7061 30.7219 35.6846L30.4668 35.3738C30.4507 35.3541 30.4389 35.3316 30.4319 35.3076C30.425 35.2836 30.4231 35.2585 30.4264 35.2338C30.4296 35.2091 30.438 35.1852 30.4509 35.1636C30.4639 35.1419 30.4813 35.1229 30.502 35.1077L30.5111 35.1007C30.5318 35.0854 30.5554 35.0741 30.5807 35.0675C30.606 35.0609 30.6324 35.0591 30.6584 35.0622C30.6844 35.0653 30.7096 35.0732 30.7324 35.0856C30.7551 35.0979 30.7751 35.1144 30.7912 35.1341C30.8041 35.1498 30.8204 35.1627 30.8389 35.1718C30.8575 35.181 30.878 35.1862 30.8989 35.1872C30.9198 35.1882 30.9407 35.1848 30.9602 35.1774C30.9796 35.17 30.9971 35.1587 31.0116 35.1443L31.5287 34.6241C31.5651 34.5877 31.6153 34.5664 31.6682 34.565C31.7211 34.5636 31.7724 34.5822 31.8109 34.6168L31.8193 34.6244C31.8384 34.6415 31.8537 34.662 31.8644 34.6847C31.8751 34.7074 31.881 34.732 31.8817 34.7569C31.8824 34.7818 31.878 34.8066 31.8686 34.8298C31.8592 34.8531 31.8451 34.8744 31.8271 34.8924L31.0239 35.6978C31.0052 35.7165 30.9828 35.7314 30.9579 35.7416C30.933 35.7517 30.9061 35.757 30.879 35.757V35.7574Z" fill="white"/>
<path d="M27.2237 42.5923H15.4556C15.3537 42.5923 15.256 42.5538 15.184 42.4854C15.112 42.417 15.0715 42.3242 15.0715 42.2274C15.0715 42.1306 15.112 42.0378 15.184 41.9694C15.256 41.901 15.3537 41.8625 15.4556 41.8625H27.2237C27.3256 41.8625 27.4233 41.901 27.4953 41.9694C27.5673 42.0378 27.6078 42.1306 27.6078 42.2274C27.6078 42.3242 27.5673 42.417 27.4953 42.4854C27.4233 42.5538 27.3256 42.5923 27.2237 42.5923Z" fill="#E6E6E6"/>
<path d="M20.5564 44.0327H15.4556C15.3537 44.0327 15.256 43.9943 15.184 43.9258C15.112 43.8574 15.0715 43.7646 15.0715 43.6678C15.0715 43.5711 15.112 43.4783 15.184 43.4098C15.256 43.3414 15.3537 43.303 15.4556 43.303H20.5564C20.6583 43.303 20.756 43.3414 20.828 43.4098C20.9 43.4783 20.9405 43.5711 20.9405 43.6678C20.9405 43.7646 20.9 43.8574 20.828 43.9258C20.756 43.9943 20.6583 44.0327 20.5564 44.0327Z" fill="#E6E6E6"/>
<path d="M31.1323 44.3969C31.9747 44.3969 32.6575 43.7481 32.6575 42.9478C32.6575 42.1475 31.9747 41.4988 31.1323 41.4988C30.29 41.4988 29.6072 42.1475 29.6072 42.9478C29.6072 43.7481 30.29 44.3969 31.1323 44.3969Z" fill="#E6E6E6"/>
<path d="M30.879 43.4686H30.8692C30.8406 43.4672 30.8126 43.46 30.7872 43.4474C30.7617 43.4349 30.7395 43.4173 30.7219 43.3958L30.4668 43.085C30.4507 43.0653 30.4389 43.0428 30.4319 43.0188C30.425 42.9948 30.4231 42.9697 30.4264 42.945C30.4296 42.9203 30.438 42.8964 30.4509 42.8748C30.4639 42.8531 30.4813 42.8341 30.502 42.8188L30.5111 42.8119C30.5318 42.7966 30.5554 42.7853 30.5807 42.7787C30.606 42.7721 30.6324 42.7703 30.6584 42.7734C30.6844 42.7765 30.7096 42.7844 30.7324 42.7968C30.7551 42.8091 30.7751 42.8256 30.7912 42.8453C30.8041 42.861 30.8204 42.8738 30.8389 42.883C30.8575 42.8922 30.878 42.8974 30.8989 42.8984C30.9198 42.8994 30.9407 42.896 30.9602 42.8886C30.9796 42.8812 30.9971 42.8699 31.0116 42.8555L31.5287 42.3353C31.5651 42.2988 31.6153 42.2776 31.6682 42.2762C31.7211 42.2748 31.7724 42.2934 31.8109 42.3279L31.8193 42.3355C31.8384 42.3526 31.8537 42.3731 31.8644 42.3959C31.8751 42.4186 31.881 42.4431 31.8817 42.468C31.8824 42.4929 31.878 42.5177 31.8686 42.541C31.8592 42.5643 31.8451 42.5856 31.8271 42.6036L31.0239 43.409C31.0052 43.4277 30.9828 43.4426 30.9579 43.4527C30.933 43.4629 30.9061 43.4682 30.879 43.4681V43.4686Z" fill="white"/>
<path d="M172.013 21.2624H149.804C149.786 21.2624 149.768 21.2556 149.755 21.2435C149.743 21.2313 149.735 21.2148 149.735 21.1976C149.735 20.742 172.083 21.1613 172.083 21.1976C172.083 21.2062 172.081 21.2148 172.078 21.2227C172.074 21.2306 172.069 21.2378 172.063 21.2438C172.056 21.2499 172.048 21.2546 172.04 21.2578C172.032 21.261 172.023 21.2626 172.013 21.2624Z" fill="#090814"/>
<path d="M154.548 20.5369H152.529C152.474 20.5366 152.422 20.516 152.384 20.4795C152.345 20.443 152.324 20.3935 152.323 20.3419V17.6963C152.324 17.6446 152.345 17.5952 152.384 17.5587C152.422 17.5222 152.474 17.5015 152.529 17.5012H154.548C154.603 17.5015 154.655 17.5222 154.693 17.5587C154.732 17.5952 154.753 17.6446 154.754 17.6963V20.3404C154.754 20.3923 154.732 20.4421 154.694 20.4789C154.655 20.5158 154.603 20.5366 154.548 20.5369Z" fill="#166D86"/>
<path d="M158.233 20.537H156.213C156.158 20.5367 156.106 20.5161 156.068 20.4796C156.029 20.4431 156.008 20.3936 156.007 20.342V15.186C156.008 15.1344 156.029 15.0849 156.068 15.0484C156.106 15.0119 156.158 14.9913 156.213 14.991H158.233C158.287 14.9913 158.339 15.0119 158.377 15.0484C158.416 15.0849 158.438 15.1344 158.438 15.186V20.3402C158.438 20.3922 158.417 20.4421 158.378 20.479C158.34 20.5159 158.287 20.5367 158.233 20.537Z" fill="#166D86"/>
<path d="M161.916 20.5369H159.896C159.841 20.5366 159.789 20.516 159.751 20.4795C159.712 20.443 159.691 20.3935 159.69 20.3419V17.6963C159.691 17.6446 159.712 17.5952 159.751 17.5587C159.789 17.5222 159.841 17.5015 159.896 17.5012H161.916C161.97 17.5015 162.022 17.5222 162.061 17.5587C162.099 17.5952 162.121 17.6446 162.121 17.6963V20.3404C162.121 20.3923 162.1 20.4421 162.061 20.4789C162.023 20.5158 161.97 20.5366 161.916 20.5369Z" fill="#166D86"/>
<path d="M165.6 20.5369H163.58C163.527 20.5378 163.475 20.5186 163.437 20.4835C163.398 20.4485 163.376 20.4005 163.375 20.3499V14.1868C163.376 14.1362 163.398 14.0882 163.437 14.0532C163.475 14.0182 163.527 13.999 163.58 13.9998H165.6C165.653 13.999 165.704 14.0182 165.743 14.0532C165.781 14.0882 165.804 14.1362 165.805 14.1868V20.3499C165.804 20.4005 165.781 20.4485 165.743 20.4835C165.704 20.5186 165.653 20.5378 165.6 20.5369Z" fill="#166D86"/>
<path d="M169.284 20.5373H167.264C167.209 20.5371 167.157 20.5164 167.119 20.4799C167.08 20.4434 167.059 20.3939 167.058 20.3423V12.4131C167.059 12.3614 167.08 12.312 167.119 12.2755C167.157 12.2389 167.209 12.2183 167.264 12.218H169.284C169.338 12.2183 169.39 12.2389 169.428 12.2755C169.467 12.312 169.489 12.3614 169.489 12.4131V20.3412C169.489 20.393 169.467 20.4428 169.429 20.4795C169.39 20.5163 169.338 20.5371 169.284 20.5373Z" fill="#166D86"/>
</svg>
