<svg width="349" height="456" viewBox="0 0 349 456" fill="none" xmlns="http://www.w3.org/2000/svg">
<g clip-path="url(#clip0_568_884)">
<path d="M229.308 53.1562H17.2679C12.6899 53.1618 8.3009 54.9828 5.06374 58.22C1.82657 61.4571 0.00551233 65.8461 0 70.4241L0 191.14C0.00551233 195.718 1.82657 200.107 5.06374 203.344C8.3009 206.581 12.6899 208.402 17.2679 208.407H229.308C233.886 208.402 238.275 206.581 241.512 203.344C244.749 200.107 246.57 195.718 246.575 191.14V70.4241C246.57 65.8461 244.749 61.4571 241.512 58.22C238.275 54.9828 233.886 53.1618 229.308 53.1562ZM245.053 191.14C245.053 195.316 243.394 199.321 240.442 202.274C237.489 205.226 233.484 206.885 229.308 206.885H17.2679C15.2001 206.885 13.1526 206.478 11.2422 205.687C9.33185 204.895 7.59604 203.736 6.13391 202.274C4.67177 200.811 3.51195 199.076 2.72065 197.165C1.92934 195.255 1.52207 193.207 1.52207 191.14V173.153C1.52207 141.731 14.0042 111.597 36.2225 89.3787C58.4408 67.1604 88.5752 54.6783 119.997 54.6783H229.308C233.484 54.6783 237.489 56.3372 240.442 59.2902C243.394 62.2431 245.053 66.2481 245.053 70.4241V191.14Z" fill="#166D86"/>
<path d="M130.572 118.009H37.8376V119.531H130.572V118.009Z" fill="#0FACAC"/>
<path d="M187.571 134.152H38.001V135.674H187.571V134.152Z" fill="#0FACAC"/>
<path d="M131.659 124.694C135.022 124.694 137.747 121.968 137.747 118.605C137.747 115.243 135.022 112.517 131.659 112.517C128.297 112.517 125.571 115.243 125.571 118.605C125.571 121.968 128.297 124.694 131.659 124.694Z" fill="#0FACAC"/>
<path d="M37.2907 124.694C40.6531 124.694 43.379 121.968 43.379 118.605C43.379 115.243 40.6531 112.517 37.2907 112.517C33.9282 112.517 31.2024 115.243 31.2024 118.605C31.2024 121.968 33.9282 124.694 37.2907 124.694Z" fill="#0FACAC"/>
<path d="M130.572 149.972H37.8376V151.494H130.572V149.972Z" fill="#0FACAC"/>
<path d="M131.659 156.657C135.022 156.657 137.747 153.931 137.747 150.569C137.747 147.206 135.022 144.48 131.659 144.48C128.297 144.48 125.571 147.206 125.571 150.569C125.571 153.931 128.297 156.657 131.659 156.657Z" fill="#0FACAC"/>
<path d="M37.2907 156.657C40.6531 156.657 43.379 153.931 43.379 150.569C43.379 147.206 40.6531 144.48 37.2907 144.48C33.9282 144.48 31.2024 147.206 31.2024 150.569C31.2024 153.931 33.9282 156.657 37.2907 156.657Z" fill="#0FACAC"/>
<path d="M130.572 165.954H37.8376V167.476H130.572V165.954Z" fill="#0FACAC"/>
<path d="M131.659 172.638C135.022 172.638 137.747 169.913 137.747 166.55C137.747 163.188 135.022 160.462 131.659 160.462C128.297 160.462 125.571 163.188 125.571 166.55C125.571 169.913 128.297 172.638 131.659 172.638Z" fill="#0FACAC"/>
<path d="M37.2907 172.638C40.6531 172.638 43.379 169.913 43.379 166.55C43.379 163.188 40.6531 160.462 37.2907 160.462C33.9282 160.462 31.2024 163.188 31.2024 166.55C31.2024 169.913 33.9282 172.638 37.2907 172.638Z" fill="#0FACAC"/>
<path d="M38.0517 140.675C41.4141 140.675 44.1399 137.949 44.1399 134.587C44.1399 131.224 41.4141 128.499 38.0517 128.499C34.6892 128.499 31.9634 131.224 31.9634 134.587C31.9634 137.949 34.6892 140.675 38.0517 140.675Z" fill="#0FACAC"/>
<path d="M189.093 140.655C192.456 140.655 195.182 137.929 195.182 134.566C195.182 131.204 192.456 128.478 189.093 128.478C185.731 128.478 183.005 131.204 183.005 134.566C183.005 137.929 185.731 140.655 189.093 140.655Z" fill="#0FACAC"/>
<path d="M187.571 182.098H38.001V183.62H187.571V182.098Z" fill="#0FACAC"/>
<path d="M38.0517 188.62C41.4141 188.62 44.1399 185.894 44.1399 182.532C44.1399 179.169 41.4141 176.443 38.0517 176.443C34.6892 176.443 31.9634 179.169 31.9634 182.532C31.9634 185.894 34.6892 188.62 38.0517 188.62Z" fill="#0FACAC"/>
<path d="M189.093 188.6C192.456 188.6 195.182 185.875 195.182 182.512C195.182 179.15 192.456 176.424 189.093 176.424C185.731 176.424 183.005 179.15 183.005 182.512C183.005 185.875 185.731 188.6 189.093 188.6Z" fill="#0FACAC"/>
<path d="M221.716 68.126H194.523C191.397 68.126 188.863 70.66 188.863 73.7858V100.979C188.863 104.105 191.397 106.639 194.523 106.639H221.716C224.842 106.639 227.376 104.105 227.376 100.979V73.7858C227.376 70.66 224.842 68.126 221.716 68.126Z" fill="#3F3D56"/>
<path d="M210.95 72.9229H216.919C218.42 72.9229 219.86 73.5192 220.921 74.5806C221.983 75.642 222.579 77.0816 222.579 78.5827V96.1824C222.579 97.6835 221.983 99.1231 220.921 100.184C219.86 101.246 218.42 101.842 216.919 101.842H199.319C197.818 101.842 196.379 101.246 195.317 100.184C194.256 99.1231 193.66 97.6835 193.66 96.1824V90.2131C193.66 87.9425 194.107 85.6941 194.976 83.5964C195.845 81.4986 197.118 79.5926 198.724 77.987C200.329 76.3815 202.235 75.1079 204.333 74.239C206.431 73.3701 208.679 72.9229 210.95 72.9229Z" fill="#166D86"/>
<path d="M206.978 67.2145C206.828 67.3645 206.709 67.5424 206.628 67.7383C206.547 67.9342 206.505 68.1441 206.505 68.3561C206.505 68.5681 206.547 68.778 206.628 68.9739C206.709 69.1698 206.828 69.3477 206.978 69.4976C207.09 69.6072 207.219 69.6994 207.358 69.7715V73.6506H208.88V69.7715C209.02 69.6994 209.148 69.6072 209.261 69.4976C209.564 69.1949 209.734 68.7843 209.734 68.3561C209.734 67.9279 209.564 67.5173 209.261 67.2145C208.958 66.9118 208.547 66.7417 208.119 66.7417C207.691 66.7417 207.28 66.9118 206.978 67.2145Z" fill="#3F3D56"/>
<path d="M210.783 67.2145C210.633 67.3645 210.514 67.5424 210.433 67.7383C210.352 67.9342 210.31 68.1441 210.31 68.3561C210.31 68.5681 210.352 68.778 210.433 68.9739C210.514 69.1698 210.633 69.3477 210.783 69.4976C210.895 69.6072 211.024 69.6994 211.163 69.7715V73.6506H212.685V69.7715C212.825 69.6994 212.953 69.6072 213.066 69.4976C213.369 69.1949 213.539 68.7843 213.539 68.3561C213.539 67.9279 213.369 67.5173 213.066 67.2145C212.763 66.9118 212.352 66.7417 211.924 66.7417C211.496 66.7417 211.085 66.9118 210.783 67.2145Z" fill="#3F3D56"/>
<path d="M214.588 67.2145C214.438 67.3645 214.319 67.5424 214.238 67.7383C214.157 67.9342 214.115 68.1441 214.115 68.3561C214.115 68.5681 214.157 68.778 214.238 68.9739C214.319 69.1698 214.438 69.3477 214.588 69.4976C214.701 69.6072 214.829 69.6994 214.969 69.7715V73.6506H216.491V69.7715C216.631 69.6994 216.759 69.6072 216.871 69.4976C217.174 69.1949 217.344 68.7843 217.344 68.3561C217.344 67.9279 217.174 67.5173 216.871 67.2145C216.569 66.9118 216.158 66.7417 215.73 66.7417C215.302 66.7417 214.891 66.9118 214.588 67.2145Z" fill="#3F3D56"/>
<path d="M208.88 104.867V100.988H207.358V104.867C207.219 104.939 207.09 105.032 206.978 105.141C206.752 105.367 206.598 105.655 206.536 105.968C206.474 106.281 206.506 106.606 206.628 106.901C206.75 107.196 206.957 107.448 207.222 107.625C207.488 107.803 207.8 107.897 208.119 107.897C208.439 107.897 208.751 107.803 209.016 107.625C209.282 107.448 209.489 107.196 209.611 106.901C209.733 106.606 209.765 106.281 209.703 105.968C209.64 105.655 209.487 105.367 209.261 105.141C209.148 105.032 209.02 104.939 208.88 104.867Z" fill="#3F3D56"/>
<path d="M205.075 104.867V100.988H203.553V104.867C203.413 104.939 203.285 105.032 203.173 105.141C202.947 105.367 202.793 105.655 202.731 105.968C202.668 106.281 202.7 106.606 202.823 106.901C202.945 107.196 203.152 107.448 203.417 107.625C203.683 107.803 203.995 107.897 204.314 107.897C204.633 107.897 204.946 107.803 205.211 107.625C205.477 107.448 205.683 107.196 205.806 106.901C205.928 106.606 205.96 106.281 205.897 105.968C205.835 105.655 205.681 105.367 205.456 105.141C205.343 105.032 205.215 104.939 205.075 104.867Z" fill="#3F3D56"/>
<path d="M201.27 104.867V100.988H199.748V104.867C199.609 104.939 199.48 105.032 199.368 105.141C199.142 105.367 198.988 105.655 198.926 105.968C198.864 106.281 198.895 106.606 199.018 106.901C199.14 107.196 199.347 107.448 199.612 107.625C199.878 107.803 200.19 107.897 200.509 107.897C200.828 107.897 201.141 107.803 201.406 107.625C201.672 107.448 201.878 107.196 202.001 106.901C202.123 106.606 202.155 106.281 202.093 105.968C202.03 105.655 201.877 105.367 201.651 105.141C201.538 105.032 201.41 104.939 201.27 104.867Z" fill="#3F3D56"/>
<path d="M225.56 81.2315C225.786 81.4573 226.074 81.6111 226.387 81.6734C226.7 81.7357 227.025 81.7037 227.32 81.5815C227.615 81.4593 227.867 81.2524 228.044 80.9869C228.222 80.7214 228.316 80.4093 228.316 80.09C228.316 79.7707 228.222 79.4586 228.044 79.1931C227.867 78.9276 227.615 78.7207 227.32 78.5985C227.025 78.4763 226.7 78.4443 226.387 78.5066C226.074 78.5689 225.786 78.7227 225.56 78.9484C225.451 79.0611 225.359 79.1893 225.287 79.3289H221.407V80.851H225.287C225.359 80.9906 225.451 81.1189 225.56 81.2315Z" fill="#3F3D56"/>
<path d="M225.56 82.7536C225.451 82.8663 225.359 82.9945 225.287 83.1341H221.407V84.6562H225.287C225.359 84.7958 225.451 84.924 225.56 85.0367C225.786 85.2625 226.074 85.4162 226.387 85.4785C226.7 85.5408 227.025 85.5089 227.32 85.3867C227.615 85.2645 227.867 85.0576 228.044 84.7921C228.222 84.5266 228.316 84.2145 228.316 83.8952C228.316 83.5759 228.222 83.2637 228.044 82.9982C227.867 82.7328 227.615 82.5258 227.32 82.4037C227.025 82.2815 226.7 82.2495 226.387 82.3118C226.074 82.3741 225.786 82.5278 225.56 82.7536Z" fill="#3F3D56"/>
<path d="M225.56 86.5588C225.451 86.6715 225.359 86.7997 225.287 86.9393H221.407V88.4614H225.287C225.359 88.601 225.451 88.7292 225.56 88.8419C225.786 89.0677 226.074 89.2214 226.387 89.2837C226.7 89.346 227.025 89.314 227.32 89.1918C227.615 89.0697 227.867 88.8627 228.044 88.5972C228.222 88.3318 228.316 88.0196 228.316 87.7003C228.316 87.381 228.222 87.0689 228.044 86.8034C227.867 86.5379 227.615 86.331 227.32 86.2088C227.025 86.0866 226.7 86.0547 226.387 86.117C226.074 86.1792 225.786 86.333 225.56 86.5588Z" fill="#3F3D56"/>
<path d="M225.56 90.3635C225.451 90.4761 225.359 90.6044 225.287 90.744H221.407V92.2661H225.287C225.359 92.4057 225.451 92.5339 225.56 92.6466C225.786 92.8724 226.074 93.0261 226.387 93.0884C226.7 93.1507 227.025 93.1187 227.32 92.9965C227.615 92.8743 227.867 92.6674 228.044 92.4019C228.222 92.1364 228.316 91.8243 228.316 91.505C228.316 91.1857 228.222 90.8736 228.044 90.6081C227.867 90.3426 227.615 90.1357 227.32 90.0135C227.025 89.8913 226.7 89.8594 226.387 89.9216C226.074 89.9839 225.786 90.1377 225.56 90.3635Z" fill="#3F3D56"/>
<path d="M225.56 94.1686C225.451 94.2813 225.359 94.4095 225.287 94.5492H221.407V96.0712H225.287C225.359 96.2109 225.451 96.3391 225.56 96.4518C225.786 96.6775 226.074 96.8313 226.387 96.8936C226.7 96.9559 227.025 96.9239 227.32 96.8017C227.615 96.6795 227.867 96.4726 228.044 96.2071C228.222 95.9416 228.316 95.6295 228.316 95.3102C228.316 94.9909 228.222 94.6788 228.044 94.4133C227.867 94.1478 227.615 93.9409 227.32 93.8187C227.025 93.6965 226.7 93.6645 226.387 93.7268C226.074 93.7891 225.786 93.9429 225.56 94.1686Z" fill="#3F3D56"/>
<path d="M190.678 94.1686C190.452 93.9429 190.165 93.7891 189.851 93.7268C189.538 93.6645 189.214 93.6965 188.919 93.8187C188.624 93.9409 188.372 94.1478 188.194 94.4133C188.017 94.6788 187.922 94.9909 187.922 95.3102C187.922 95.6295 188.017 95.9416 188.194 96.2071C188.372 96.4726 188.624 96.6795 188.919 96.8017C189.214 96.9239 189.538 96.9559 189.851 96.8936C190.165 96.8313 190.452 96.6775 190.678 96.4518C190.788 96.3391 190.88 96.2109 190.952 96.0712H194.831V94.5492H190.952C190.88 94.4095 190.788 94.2813 190.678 94.1686Z" fill="#3F3D56"/>
<path d="M190.678 90.3635C190.452 90.1377 190.165 89.9839 189.851 89.9216C189.538 89.8594 189.214 89.8913 188.919 90.0135C188.624 90.1357 188.372 90.3426 188.194 90.6081C188.017 90.8736 187.922 91.1857 187.922 91.505C187.922 91.8243 188.017 92.1364 188.194 92.4019C188.372 92.6674 188.624 92.8743 188.919 92.9965C189.214 93.1187 189.538 93.1507 189.851 93.0884C190.165 93.0261 190.452 92.8724 190.678 92.6466C190.788 92.5339 190.88 92.4057 190.952 92.2661H194.831V90.744H190.952C190.88 90.6044 190.788 90.4761 190.678 90.3635Z" fill="#3F3D56"/>
<path d="M326.79 80.2515L307.46 169.361L310.862 193.143C319.431 201.271 312.091 241.164 305.623 249.147C305.623 249.147 291.188 214.643 269.819 214.384C263.814 214.315 257.947 214.429 252.772 214.856C249.054 215.1 245.364 215.667 241.744 216.553C221.957 221.88 224.507 215.023 224.507 215.023L240.466 91.1111L252.483 78.7294L262.109 68.8129L266.485 57.9986L296.592 55.4189L301.41 66.7044L311.806 68.2421L319.241 69.3376C320.471 69.5201 321.651 69.9533 322.707 70.6104C323.764 71.2675 324.674 72.1344 325.382 73.1576C326.089 74.1807 326.58 75.3382 326.822 76.5584C327.064 77.7786 327.053 79.0356 326.79 80.2515Z" fill="#2F2E41"/>
<path d="M311.805 68.2419L300.133 81.5562L296.49 82.4801L295.591 86.7381L269.994 115.936L257.736 89.8911L253.872 87.8074L254.914 83.8949L252.483 78.729L255.394 74.1087L259.2 70.3035L262.109 68.8127L266.485 57.9984L296.592 55.4185L301.41 66.7046L306.384 65.7373L311.805 68.2419Z" fill="#166D86"/>
<path d="M209.978 232.629L217.132 210.918L230.105 213.274L221.725 235.96C222.241 237.287 222.377 238.731 222.117 240.131C221.857 241.53 221.212 242.83 220.254 243.883C219.296 244.936 218.064 245.701 216.695 246.092C215.326 246.483 213.875 246.484 212.506 246.096C211.136 245.708 209.902 244.945 208.942 243.894C207.982 242.843 207.334 241.545 207.072 240.145C206.809 238.746 206.942 237.302 207.456 235.974C207.969 234.646 208.843 233.488 209.978 232.629Z" fill="#FFB6B6"/>
<path d="M246.46 89.5698L240.466 91.1109L225.387 160.086L222.123 163.35L223.476 166.321L222.123 171.546L212.176 221.157L234.203 229.928L256.638 127.538L246.46 89.5698Z" fill="#2F2E41"/>
<path d="M280.469 443.216L270.327 443.215L265.502 404.094L280.471 404.095L280.469 443.216Z" fill="#FFB6B6"/>
<path d="M280.826 453.797L249.637 453.795V453.401C249.637 450.181 250.916 447.094 253.193 444.817C255.469 442.541 258.557 441.262 261.776 441.262H261.777L267.474 436.939L278.104 441.262L280.826 441.262L280.826 453.797Z" fill="#2F2E41"/>
<path d="M224.913 443.216L214.771 443.215L209.946 404.094L224.915 404.095L224.913 443.216Z" fill="#FFB6B6"/>
<path d="M225.271 453.797L194.082 453.795V453.401C194.082 450.181 195.361 447.094 197.637 444.817C199.914 442.541 203.002 441.262 206.221 441.262H206.222L211.919 436.939L222.549 441.262L225.271 441.262L225.271 453.797Z" fill="#2F2E41"/>
<path d="M307.328 442.032C307.682 442.048 308.032 441.955 308.331 441.766C308.63 441.577 308.864 441.3 309.001 440.973C309.137 440.646 309.17 440.286 309.095 439.94C309.02 439.594 308.84 439.279 308.58 439.039L308.461 438.568C308.477 438.531 308.493 438.493 308.508 438.455C308.865 437.614 309.462 436.896 310.225 436.392C310.988 435.889 311.883 435.622 312.797 435.626C313.711 435.629 314.603 435.902 315.363 436.411C316.122 436.921 316.713 437.643 317.064 438.487C318.463 441.857 320.244 445.233 320.683 448.796C320.876 450.371 320.795 451.968 320.442 453.515C323.728 446.346 325.435 438.554 325.446 430.668C325.447 428.689 325.337 426.712 325.117 424.745C324.935 423.133 324.682 421.532 324.36 419.942C322.598 411.319 318.816 403.236 313.325 396.358C310.667 394.908 308.517 392.678 307.166 389.968C306.676 388.994 306.33 387.954 306.138 386.881C306.438 386.921 307.269 382.354 307.043 382.074C307.46 381.44 308.208 381.125 308.665 380.506C310.934 377.429 314.061 377.966 315.694 382.148C319.181 383.908 319.215 386.827 317.075 389.634C315.714 391.42 315.527 393.837 314.332 395.749C314.455 395.906 314.583 396.058 314.706 396.216C316.952 399.104 318.91 402.206 320.551 405.476C320.152 401.812 320.629 398.106 321.941 394.662C323.272 391.453 325.765 388.75 327.961 385.975C328.542 385.23 329.331 384.673 330.228 384.376C331.125 384.079 332.09 384.054 333.001 384.306C333.912 384.557 334.728 385.072 335.346 385.787C335.964 386.502 336.356 387.384 336.473 388.322C336.477 388.363 336.482 388.403 336.486 388.444C336.16 388.628 335.841 388.824 335.528 389.03C335.136 389.292 334.832 389.667 334.656 390.105C334.48 390.543 334.44 391.024 334.542 391.485C334.644 391.946 334.883 392.365 335.228 392.688C335.572 393.01 336.006 393.221 336.473 393.293L336.52 393.301C336.404 394.476 336.199 395.641 335.906 396.786C338.723 407.681 332.641 411.649 323.957 411.827C323.765 411.925 323.578 412.024 323.386 412.117C325.035 416.79 326.07 421.658 326.463 426.598C326.686 429.512 326.673 432.44 326.424 435.352L326.439 435.249C327.068 432.011 328.796 429.088 331.33 426.976C335.093 423.884 340.411 422.746 344.471 420.261C344.903 419.984 345.405 419.836 345.918 419.834C346.43 419.833 346.933 419.979 347.366 420.254C347.799 420.529 348.144 420.922 348.361 421.386C348.577 421.851 348.657 422.368 348.59 422.876L348.573 422.985C347.968 423.231 347.378 423.515 346.808 423.835C346.482 424.019 346.163 424.215 345.85 424.421C345.458 424.683 345.154 425.058 344.978 425.496C344.802 425.934 344.763 426.415 344.865 426.876C344.967 427.337 345.206 427.756 345.55 428.079C345.895 428.401 346.328 428.612 346.795 428.684L346.843 428.692C346.877 428.697 346.907 428.702 346.941 428.707C345.907 431.176 344.455 433.449 342.65 435.426C340.888 444.937 333.323 445.839 325.23 443.069H325.225C324.337 446.928 323.05 450.684 321.386 454.276H307.672C307.623 454.124 307.578 453.967 307.534 453.814C308.804 453.894 310.078 453.818 311.329 453.588C310.311 452.34 309.294 451.081 308.276 449.833C308.254 449.81 308.232 449.785 308.212 449.759C307.696 449.12 307.175 448.486 306.659 447.847L306.659 447.846C306.631 445.888 306.857 443.933 307.328 442.032Z" fill="#166D86"/>
<path d="M153.941 454.317C153.941 454.436 153.964 454.554 154.009 454.664C154.055 454.774 154.121 454.874 154.205 454.958C154.29 455.043 154.39 455.109 154.5 455.155C154.61 455.2 154.728 455.223 154.847 455.223H347.609C347.849 455.223 348.08 455.127 348.25 454.958C348.419 454.788 348.515 454.557 348.515 454.317C348.515 454.077 348.419 453.847 348.25 453.677C348.08 453.507 347.849 453.412 347.609 453.412H154.847C154.728 453.411 154.61 453.434 154.5 453.48C154.39 453.525 154.29 453.592 154.205 453.676C154.121 453.76 154.055 453.86 154.009 453.97C153.964 454.08 153.941 454.198 153.941 454.317Z" fill="#CCCCCC"/>
<path d="M306.128 201.389L227.182 205.173L205.873 302.953L211.961 318.963L203.363 326.563L211.961 337.228L209.745 392.464L204.545 405.89L208.528 422.783L226.615 421.872L242.664 335.938L240.173 326.012L246.143 317.31L253.337 278.791L258.438 316.118L257.559 332.735L262.243 350.365L264.845 425.827L282.702 426.057L286.542 418.48L282.348 408.323L286.542 401.222C286.542 401.222 299.869 338.14 292.631 324.525L304.982 256.361L303.479 246.073L308.381 237.603L314.677 202.855L306.128 201.389Z" fill="#2F2E41"/>
<path d="M234.725 89.5489L255.3 99.5116L251.248 112.059L229.871 100.752C228.487 101.088 227.037 101.031 225.684 100.589C224.331 100.146 223.129 99.3347 222.212 98.2459C221.294 97.1572 220.699 95.8342 220.493 94.4257C220.286 93.0172 220.477 91.5789 221.043 90.2727C221.609 88.9665 222.528 87.8441 223.697 87.0317C224.866 86.2192 226.238 85.749 227.66 85.6738C229.081 85.5986 230.496 85.9214 231.744 86.606C232.992 87.2905 234.025 88.3097 234.725 89.5489Z" fill="#FFB6B6"/>
<path d="M297.835 146.415C295.118 144.982 293.022 142.602 291.941 139.727L239.552 113.653L249.277 91.9878L295.869 113.653L310.705 70.6309L313.567 71.1716C317.038 71.8273 320.115 73.8132 322.142 76.7058C324.169 79.5983 324.986 83.1685 324.418 86.6547L316.151 137.398C315.819 139.363 315.025 141.222 313.834 142.821C312.642 144.419 311.089 145.712 309.3 146.592C307.512 147.473 305.539 147.916 303.546 147.885C301.553 147.854 299.595 147.351 297.835 146.415Z" fill="#2F2E41"/>
<path d="M269.818 214.384C263.477 220.882 257.711 219.017 252.771 214.856L263.015 198.736L269.818 214.384Z" fill="#166D86"/>
<path d="M278.311 53.2652C290.36 53.2652 300.127 43.4977 300.127 31.449C300.127 19.4002 290.36 9.63281 278.311 9.63281C266.263 9.63281 256.495 19.4002 256.495 31.449C256.495 43.4977 266.263 53.2652 278.311 53.2652Z" fill="#FFB6B6"/>
<path d="M303.503 40.5631C302.693 39.805 301.694 39.2792 300.611 39.041C301.798 39.6876 301.95 41.1569 301.927 42.6485C301.927 42.922 301.912 43.1889 301.904 43.4549C300.418 45.7215 298.508 47.6801 296.28 49.2236C296.28 49.2236 288.966 51.9712 285.36 52.2752C287.247 49.5432 289.903 44.6574 291.79 41.9328C292.854 40.5562 293.689 39.0168 294.263 37.3741C294.541 36.5476 294.618 35.6664 294.485 34.8044C294.353 33.9424 294.016 33.1248 293.502 32.4199C292.963 31.774 292.233 31.3142 291.418 31.1055C290.603 30.8968 289.743 30.9499 288.959 31.2571C288.176 31.5643 287.508 32.1102 287.052 32.8174C286.596 33.5247 286.374 34.3575 286.417 35.198C285.078 34.6421 286.121 32.4593 285.131 31.3854C283.632 29.76 283.41 28.2178 285.687 27.1001C286.955 26.4773 284.073 24.7337 282.703 24.3376C281.316 24.0119 279.875 23.9939 278.48 24.2848C274.454 24.9009 270.519 26.3011 266.44 26.2253C265.622 26.209 264.807 26.1197 264.005 25.9585C264.781 23.7375 264.773 21.3175 263.982 19.1018C263.084 21.1095 261.82 22.9319 260.253 24.4751C258.563 23.5172 257.309 21.9419 256.755 20.0798L256.76 20.0686C256.947 19.9647 257.129 19.8567 257.308 19.7446C257.559 19.5783 257.753 19.3381 257.863 19.057C257.972 18.776 257.992 18.4679 257.919 18.1752C257.847 17.8825 257.685 17.6195 257.457 17.4223C257.229 17.2252 256.945 17.1036 256.645 17.0744L256.6 17.0699C256.761 15.9787 257.095 14.9202 257.589 13.9343C258.031 13.0556 258.561 12.2243 259.172 11.4535C259.757 11.5095 260.346 11.5045 260.93 11.4386L260.969 11.4351C261.238 11.4026 261.491 11.2847 261.688 11.0985C261.886 10.9124 262.02 10.6678 262.068 10.4005C262.117 10.1332 262.08 9.85732 261.96 9.61312C261.841 9.36893 261.647 9.16926 261.406 9.04333C261.364 9.01999 261.322 8.99645 261.28 8.9727L261.279 8.96787C262.44 7.73201 263.671 6.43688 265.291 5.92114C266.835 5.4336 268.815 5.8981 269.522 7.36665C273.472 3.08954 280.23 -2.98313 283.868 1.68193C287.559 6.42627 294.431 5.04657 298.944 10.7762C297.833 11.424 296.858 12.2823 296.074 13.3026C297.505 13.0861 298.959 13.0553 300.398 13.2112C300.727 13.8445 300.903 14.5462 300.912 15.2598C300.921 15.9735 300.763 16.6794 300.45 17.321C301.76 18.6075 304.377 20.9055 302.658 21.2555C304.315 24.1776 305.256 27.4513 305.403 30.8076C305.55 34.164 304.899 37.5074 303.503 40.5631Z" fill="#2F2E41"/>
<path d="M191.377 74.2142C194.739 74.2142 197.465 71.4883 197.465 68.1259C197.465 64.7634 194.739 62.0376 191.377 62.0376C188.014 62.0376 185.288 64.7634 185.288 68.1259C185.288 71.4883 188.014 74.2142 191.377 74.2142Z" fill="#166D86"/>
</g>
<defs>
<clipPath id="clip0_568_884">
<rect width="348.621" height="455.223" fill="white"/>
</clipPath>
</defs>
</svg>
