<svg width="197" height="197" viewBox="0 0 197 197" fill="none" xmlns="http://www.w3.org/2000/svg">
<g filter="url(#filter0_d_882_1214)">
<circle cx="98.4148" cy="87.4148" r="54.4148" fill="#166D86"/>
</g>
<g clip-path="url(#clip0_882_1214)">
<path d="M86.3547 85.3892C89.4747 91.5208 94.4905 96.5367 100.633 99.6567L105.4 94.8792C105.995 94.2833 106.851 94.11 107.599 94.3483C110.025 95.15 112.636 95.5833 115.334 95.5833C116.536 95.5833 117.5 96.5475 117.5 97.75V105.333C117.5 106.536 116.536 107.5 115.334 107.5C94.9888 107.5 78.5005 91.0117 78.5005 70.6667C78.5005 69.4642 79.4755 68.5 80.6672 68.5H88.2505C89.453 68.5 90.4172 69.4642 90.4172 70.6667C90.4172 73.3642 90.8505 75.975 91.6522 78.4017C91.8905 79.1492 91.7172 80.005 91.1213 80.6008L86.3547 85.3892Z" fill="#98FF98"/>
</g>
<defs>
<filter id="filter0_d_882_1214" x="0.46817" y="0.351128" width="195.893" height="195.893" filterUnits="userSpaceOnUse" color-interpolation-filters="sRGB">
<feFlood flood-opacity="0" result="BackgroundImageFix"/>
<feColorMatrix in="SourceAlpha" type="matrix" values="0 0 0 0 0 0 0 0 0 0 0 0 0 0 0 0 0 0 127 0" result="hardAlpha"/>
<feOffset dy="10.883"/>
<feGaussianBlur stdDeviation="21.7659"/>
<feColorMatrix type="matrix" values="0 0 0 0 0.212 0 0 0 0 0.238778 0 0 0 0 0.533333 0 0 0 0.06 0"/>
<feBlend mode="normal" in2="BackgroundImageFix" result="effect1_dropShadow_882_1214"/>
<feBlend mode="normal" in="SourceGraphic" in2="effect1_dropShadow_882_1214" result="shape"/>
</filter>
<clipPath id="clip0_882_1214">
<rect width="52" height="52" fill="white" transform="translate(72 62)"/>
</clipPath>
</defs>
</svg>
