<svg width="79" height="79" viewBox="0 0 79 79" fill="none" xmlns="http://www.w3.org/2000/svg">
<circle cx="39.5" cy="39.5" r="39.5" fill="#98FF98" fill-opacity="0.25"/>
<g clip-path="url(#clip0_366_786)">
<path d="M31.4675 38.0558C33.7427 42.5272 37.4004 46.1849 41.8797 48.4601L45.3557 44.9762C45.7902 44.5417 46.4143 44.4153 46.9594 44.5891C48.729 45.1737 50.6329 45.4897 52.6 45.4897C53.4769 45.4897 54.18 46.1928 54.18 47.0697V52.5997C54.18 53.4766 53.4769 54.1797 52.6 54.1797C37.7638 54.1797 25.74 42.1559 25.74 27.3197C25.74 26.4428 26.451 25.7397 27.32 25.7397H32.85C33.7269 25.7397 34.43 26.4428 34.43 27.3197C34.43 29.2868 34.746 31.1907 35.3306 32.9603C35.5044 33.5054 35.378 34.1295 34.9435 34.564L31.4675 38.0558Z" fill="#0FACAC"/>
</g>
<defs>
<clipPath id="clip0_366_786">
<rect width="37.92" height="37.92" fill="white" transform="translate(21 21)"/>
</clipPath>
</defs>
</svg>
