<svg width="310" height="310" viewBox="0 0 310 310" fill="none" xmlns="http://www.w3.org/2000/svg">
<path d="M23.6844 144.779L22.0231 142.925C25.241 140.164 28.6053 137.489 32.0105 134.964L33.56 136.908C30.1896 139.401 26.8665 142.049 23.6844 144.779ZM44.0111 129.753L42.5795 127.73C46.1791 125.453 49.9152 123.273 53.6831 121.252L54.9912 123.349C51.264 125.347 47.5694 127.502 44.0111 129.753ZM66.4693 117.714L65.2928 115.554C69.2198 113.798 73.273 112.155 77.3408 110.67L78.3839 112.885C74.3594 114.353 70.349 115.975 66.4693 117.714ZM90.6804 108.874L89.776 106.615C93.9585 105.409 98.2553 104.329 102.549 103.405L103.313 105.702C99.0687 106.617 94.8184 107.684 90.6826 108.876L90.6804 108.874ZM116.219 103.372L115.602 101.05C119.974 100.411 124.443 99.9085 128.883 99.5584L129.353 101.896C124.963 102.245 120.546 102.747 116.22 103.374L116.219 103.372ZM142.658 101.277L142.342 98.9363C146.827 98.8726 151.392 98.9535 155.913 99.178L156.089 101.516C151.61 101.297 147.094 101.216 142.659 101.279L142.658 101.277ZM169.562 102.611L169.54 100.281C174.07 100.792 178.66 101.455 183.179 102.252L183.05 104.56C178.579 103.772 174.04 103.118 169.561 102.612L169.562 102.611ZM196.49 107.354L196.771 105.076C201.269 106.155 205.805 107.39 210.254 108.748L209.824 110.984C205.425 109.642 200.936 108.422 196.49 107.354ZM222.993 115.44L223.572 113.254C227.958 114.884 232.366 116.675 236.677 118.577L235.952 120.704C231.691 118.824 227.333 117.054 222.995 115.442L222.993 115.44ZM248.63 126.743L249.499 124.684C253.707 126.844 257.919 129.162 262.015 131.576L261.01 133.552C256.96 131.172 252.794 128.88 248.632 126.745L248.63 126.743ZM273.008 141.104L274.153 139.209C278.108 141.859 282.047 144.665 285.862 147.55L284.587 149.353C280.816 146.5 276.919 143.725 273.009 141.105L273.008 141.104Z" fill="#166D86"/>
<path d="M21.3614 159.084L21.091 156.738L9.54667 156.662L9.04029 145.137L6.67878 144.957L7.29413 158.998L21.3614 159.084Z" fill="#166D86"/>
<path d="M289.99 163.775L289.766 161.43L301.341 161.765L299.415 150.214L301.748 150.117L304.096 164.191L289.99 163.775Z" fill="#166D86"/>
</svg>
