<svg width="79" height="80" viewBox="0 0 79 80" fill="none" xmlns="http://www.w3.org/2000/svg">
<circle cx="39.5" cy="40" r="39.5" fill="#98FF98" fill-opacity="0.25"/>
<g clip-path="url(#clip0_366_787)">
<path d="M52.4115 55.8308H30.6371C30.3163 55.8308 30.0086 55.7033 29.7817 55.4765C29.5549 55.2496 29.4274 54.9419 29.4274 54.6211V40.1048C29.4274 39.784 29.5549 39.4763 29.7817 39.2495C30.0086 39.0226 30.3163 38.8952 30.6371 38.8952C30.9579 38.8952 31.2656 39.0226 31.4925 39.2495C31.7194 39.4763 31.8468 39.784 31.8468 40.1048V53.4114H51.2018V28.008C51.2018 27.6871 51.0744 27.3795 50.8475 27.1526C50.6206 26.9257 50.3129 26.7983 49.9921 26.7983H28.2177C27.8969 26.7983 27.5892 26.6708 27.3624 26.444C27.1355 26.2171 27.0081 25.9094 27.0081 25.5886C27.0081 25.2678 27.1355 24.9601 27.3624 24.7332C27.5892 24.5064 27.8969 24.3789 28.2177 24.3789H49.9921C50.9546 24.3789 51.8777 24.7613 52.5583 25.4418C53.2388 26.1224 53.6212 27.0455 53.6212 28.008V54.6211C53.6212 54.9419 53.4937 55.2496 53.2669 55.4765C53.04 55.7033 52.7323 55.8308 52.4115 55.8308Z" fill="#0FACAC"/>
<path d="M30.6373 41.3145H25.7986C25.4777 41.3145 25.17 41.1871 24.9432 40.9602C24.7163 40.7334 24.5889 40.4257 24.5889 40.1048V28.008C24.5889 27.0455 24.9712 26.1224 25.6518 25.4418C26.3324 24.7613 27.2554 24.3789 28.2179 24.3789C29.1804 24.3789 30.1035 24.7613 30.7841 25.4418C31.4646 26.1224 31.847 27.0455 31.847 28.008V40.1048C31.847 40.4257 31.7195 40.7334 31.4927 40.9602C31.2658 41.1871 30.9581 41.3145 30.6373 41.3145ZM27.0082 38.8952H29.4276V28.008C29.4276 27.6871 29.3002 27.3795 29.0733 27.1526C28.8464 26.9257 28.5388 26.7983 28.2179 26.7983C27.8971 26.7983 27.5894 26.9257 27.3626 27.1526C27.1357 27.3795 27.0082 27.6871 27.0082 28.008V38.8952Z" fill="#0FACAC"/>
<path d="M42.7342 43.7338H35.476C35.1552 43.7338 34.8475 43.6064 34.6207 43.3795C34.3938 43.1527 34.2664 42.845 34.2664 42.5241C34.2664 42.2033 34.3938 41.8956 34.6207 41.6688C34.8475 41.4419 35.1552 41.3145 35.476 41.3145H42.7342C43.055 41.3145 43.3627 41.4419 43.5895 41.6688C43.8164 41.8956 43.9439 42.2033 43.9439 42.5241C43.9439 42.845 43.8164 43.1527 43.5895 43.3795C43.3627 43.6064 43.055 43.7338 42.7342 43.7338Z" fill="#0FACAC"/>
<path d="M47.5729 48.5727H35.476C35.1552 48.5727 34.8475 48.4452 34.6207 48.2184C34.3938 47.9915 34.2664 47.6838 34.2664 47.363C34.2664 47.0422 34.3938 46.7345 34.6207 46.5076C34.8475 46.2808 35.1552 46.1533 35.476 46.1533H47.5729C47.8937 46.1533 48.2014 46.2808 48.4283 46.5076C48.6552 46.7345 48.7826 47.0422 48.7826 47.363C48.7826 47.6838 48.6552 47.9915 48.4283 48.2184C48.2014 48.4452 47.8937 48.5727 47.5729 48.5727Z" fill="#0FACAC"/>
<path d="M45.1535 38.8954H35.476C35.1552 38.8954 34.8475 38.768 34.6207 38.5411C34.3938 38.3143 34.2664 38.0066 34.2664 37.6858C34.2664 37.3649 34.3938 37.0572 34.6207 36.8304C34.8475 36.6035 35.1552 36.4761 35.476 36.4761H45.1535C45.4744 36.4761 45.7821 36.6035 46.0089 36.8304C46.2358 37.0572 46.3632 37.3649 46.3632 37.6858C46.3632 38.0066 46.2358 38.3143 46.0089 38.5411C45.7821 38.768 45.4744 38.8954 45.1535 38.8954Z" fill="#0FACAC"/>
<path d="M47.5729 30.4273H35.476C35.1552 30.4273 34.8475 30.2999 34.6207 30.073C34.3938 29.8462 34.2664 29.5385 34.2664 29.2177V25.5886C34.2664 25.2678 34.3938 24.9601 34.6207 24.7332C34.8475 24.5064 35.1552 24.3789 35.476 24.3789H47.5729C47.8937 24.3789 48.2014 24.5064 48.4283 24.7332C48.6552 24.9601 48.7826 25.2678 48.7826 25.5886V29.2177C48.7826 29.5385 48.6552 29.8462 48.4283 30.073C48.2014 30.2999 47.8937 30.4273 47.5729 30.4273ZM36.6857 28.008H46.3632V26.7983H36.6857V28.008Z" fill="#0FACAC"/>
</g>
<defs>
<clipPath id="clip0_366_787">
<rect width="38.71" height="38.71" fill="white" transform="translate(19.75 20.75)"/>
</clipPath>
</defs>
</svg>
