<svg width="183" height="142" viewBox="0 0 183 142" fill="none" xmlns="http://www.w3.org/2000/svg">
<g clip-path="url(#clip0_346_903)">
<path d="M30.5354 141.489C30.5354 141.688 30.6444 141.848 30.7802 141.848H152.844C152.981 141.848 153.089 141.688 153.089 141.489C153.089 141.29 152.98 141.13 152.844 141.13H30.7802C30.6444 141.131 30.5354 141.29 30.5354 141.489Z" fill="#CCCCCC"/>
<path d="M74.7002 140.306H70.342V141.075H74.7002V140.306Z" fill="#B6B3C5"/>
<path d="M113.282 140.434H108.924V141.203H113.282V140.434Z" fill="#B6B3C5"/>
<path d="M98.0612 106.082C97.8185 107.55 97.0625 108.885 95.9278 109.847C94.7931 110.81 93.3534 111.338 91.8655 111.338C90.3775 111.338 88.9379 110.81 87.8032 109.847C86.6685 108.885 85.9124 107.55 85.6698 106.082H69.8186V140.434H113.913V106.082H98.0612Z" fill="#D6D6E3"/>
<path d="M114.041 137.712H69.947V138.908H114.041V137.712Z" fill="#090814"/>
<path d="M180.542 106.98H3.18863C2.5369 106.979 1.91208 106.72 1.45125 106.259C0.99041 105.798 0.731193 105.174 0.730469 104.522L0.730469 3.30629C0.731133 2.65452 0.990323 2.02964 1.45117 1.56876C1.91201 1.10787 2.53686 0.848625 3.18863 0.8479H180.542C181.194 0.848685 181.819 1.10792 182.28 1.56874C182.741 2.02957 183 2.65435 183.001 3.30606V104.522C183 105.174 182.741 105.798 182.28 106.259C181.819 106.72 181.194 106.979 180.542 106.98Z" fill="#090814"/>
<path d="M178.847 4.95386H5.29272V102.883H178.847V4.95386Z" fill="white"/>
<path d="M90.2742 40.2331C90.5285 40.3346 90.9683 40.5266 90.9683 40.1646C90.9683 40.0129 90.844 40.0008 90.7261 39.9616C90.2833 39.801 89.9051 39.5003 89.6489 39.105C89.1861 38.4218 89.0786 37.7398 89.0786 36.9224C89.0786 35.113 91.5712 34.7857 91.5712 32.9761C91.5712 32.2831 91.1346 32.08 91.1346 31.8848C91.1346 31.7605 91.1739 31.7605 91.2984 31.7605C91.7492 31.7605 92.3756 32.5112 92.5665 32.8782C92.673 33.0684 92.7202 33.2862 92.7018 33.5035C92.7018 33.8986 92.6625 34.3046 92.6625 34.7038C92.6625 36.2262 94.461 35.8202 94.461 35.0868C94.461 34.7485 94.258 34.4321 94.258 34.1046C94.258 34.0653 94.258 34.0361 94.2983 34.0361C94.4893 34.0361 94.8276 34.4727 94.9236 34.6064C95.2446 35.1405 95.4106 35.7535 95.4027 36.3766C95.4027 38.2035 93.7395 39.1397 93.7395 39.5348C93.7395 39.5905 93.9033 39.9714 94.4215 39.6441C95.3414 39.161 96.1088 38.4315 96.6376 37.5371C97.1665 36.6427 97.436 35.6188 97.416 34.5799C97.416 32.6855 96.9248 31.3268 95.6054 29.9223C95.3871 29.691 94.6811 28.9697 94.3374 28.9697C93.8747 28.9697 94.7434 30.019 94.7434 30.7289C94.749 30.8215 94.7349 30.9142 94.702 31.0009C94.6691 31.0876 94.6181 31.1663 94.5525 31.2318C94.4868 31.2973 94.408 31.3482 94.3213 31.3809C94.2345 31.4137 94.1418 31.4277 94.0492 31.4219C93.3945 31.4219 93.2319 29.9901 93.1532 29.5448C92.8259 27.6382 92.4308 26.2631 90.534 25.3662C89.948 25.0847 88.4757 24.7006 88.4757 25.2428C88.4757 25.3781 88.6286 25.4729 88.7356 25.5297C89.2538 25.8452 89.841 26.7367 89.841 27.6841C89.841 30.2846 86.5867 32.6569 86.5867 35.3635C86.5758 37.6355 88.1712 39.457 90.2687 40.2242L90.2742 40.2331Z" fill="#166D86"/>
<path d="M53.4738 60.8399C53.4068 60.84 53.3427 60.8667 53.2954 60.914C53.248 60.9613 53.2214 61.0255 53.2213 61.0924V65.3874C53.2213 65.4544 53.248 65.5186 53.2954 65.566C53.3427 65.6134 53.407 65.6401 53.474 65.6401H68.1271C68.1942 65.6401 68.2584 65.6134 68.3058 65.566C68.3532 65.5186 68.3798 65.4544 68.3799 65.3874V61.0924C68.3798 61.0254 68.3532 60.9612 68.3058 60.9138C68.2584 60.8664 68.1942 60.8397 68.1271 60.8397H53.4738M53.4738 60.5872H68.1271C68.1935 60.5872 68.2592 60.6002 68.3205 60.6256C68.3818 60.651 68.4375 60.6882 68.4844 60.7351C68.5313 60.7821 68.5686 60.8378 68.5939 60.8991C68.6193 60.9604 68.6324 61.0261 68.6324 61.0924V65.3874C68.6324 65.4537 68.6193 65.5194 68.5939 65.5807C68.5686 65.642 68.5313 65.6977 68.4844 65.7446C68.4375 65.7916 68.3818 65.8288 68.3205 65.8542C68.2592 65.8796 68.1935 65.8926 68.1271 65.8926H53.4738C53.3398 65.8926 53.2113 65.8394 53.1165 65.7446C53.0217 65.6499 52.9685 65.5214 52.9685 65.3874V61.0924C52.9685 60.9584 53.0217 60.8299 53.1165 60.7351C53.2113 60.6404 53.3398 60.5872 53.4738 60.5872Z" fill="#707070"/>
<path d="M68.8852 60.8399C68.8182 60.84 68.7541 60.8667 68.7067 60.914C68.6594 60.9613 68.6328 61.0255 68.6326 61.0924V65.3874C68.6327 65.4544 68.6593 65.5186 68.7067 65.566C68.7541 65.6134 68.8184 65.6401 68.8854 65.6401H84.0438C84.1108 65.6401 84.1751 65.6134 84.2224 65.566C84.2698 65.5186 84.2965 65.4544 84.2965 65.3874V61.0924C84.2965 61.0254 84.2698 60.9612 84.2224 60.9138C84.1751 60.8664 84.1108 60.8397 84.0438 60.8397H68.8852M68.8852 60.5872H84.0438C84.1778 60.5872 84.3063 60.6404 84.4011 60.7351C84.4958 60.8299 84.5491 60.9584 84.5491 61.0924V65.3874C84.5491 65.5214 84.4958 65.6499 84.4011 65.7446C84.3063 65.8394 84.1778 65.8926 84.0438 65.8926H68.8852C68.7511 65.8926 68.6226 65.8394 68.5279 65.7446C68.4331 65.6499 68.3799 65.5214 68.3799 65.3874V61.0924C68.3799 60.9584 68.4331 60.8299 68.5279 60.7351C68.6226 60.6404 68.7511 60.5872 68.8852 60.5872Z" fill="#707070"/>
<path d="M84.8017 60.8399C84.7347 60.84 84.6706 60.8667 84.6232 60.914C84.5759 60.9613 84.5493 61.0255 84.5491 61.0924V65.3874C84.5492 65.4544 84.5758 65.5186 84.6232 65.566C84.6706 65.6134 84.7349 65.6401 84.8019 65.6401H99.455C99.522 65.6401 99.5863 65.6134 99.6337 65.566C99.6811 65.5186 99.7077 65.4544 99.7078 65.3874V61.0924C99.7077 61.0254 99.6811 60.9612 99.6337 60.9138C99.5863 60.8664 99.522 60.8397 99.455 60.8397H84.8017M84.8017 60.5872H99.455C99.5214 60.5872 99.5871 60.6002 99.6484 60.6256C99.7097 60.651 99.7654 60.6882 99.8123 60.7351C99.8592 60.7821 99.8964 60.8378 99.9218 60.8991C99.9472 60.9604 99.9603 61.0261 99.9603 61.0924V65.3874C99.9603 65.4537 99.9472 65.5194 99.9218 65.5807C99.8964 65.642 99.8592 65.6977 99.8123 65.7446C99.7654 65.7916 99.7097 65.8288 99.6484 65.8542C99.5871 65.8796 99.5214 65.8926 99.455 65.8926H84.8017C84.6677 65.8926 84.5391 65.8394 84.4444 65.7446C84.3496 65.6499 84.2964 65.5214 84.2964 65.3874V61.0924C84.2964 60.9584 84.3496 60.8299 84.4444 60.7351C84.5391 60.6404 84.6677 60.5872 84.8017 60.5872Z" fill="#707070"/>
<path d="M100.213 60.8399C100.146 60.84 100.082 60.8667 100.035 60.914C99.9873 60.9613 99.9606 61.0255 99.9605 61.0924V65.3874C99.9606 65.4544 99.9872 65.5186 100.035 65.566C100.082 65.6134 100.146 65.6401 100.213 65.6401H115.119C115.186 65.6401 115.25 65.6134 115.298 65.566C115.345 65.5186 115.372 65.4544 115.372 65.3874V61.0924C115.372 61.0255 115.345 60.9613 115.298 60.9139C115.25 60.8666 115.186 60.84 115.119 60.8399H100.213ZM100.213 60.5872H115.119C115.253 60.5872 115.382 60.6404 115.476 60.7351C115.571 60.8299 115.624 60.9584 115.624 61.0924V65.3874C115.624 65.5214 115.571 65.6499 115.476 65.7446C115.382 65.8394 115.253 65.8926 115.119 65.8926H100.213C100.079 65.8926 99.9505 65.8394 99.8558 65.7446C99.761 65.6499 99.7078 65.5214 99.7078 65.3874V61.0924C99.7078 60.9584 99.761 60.8299 99.8558 60.7351C99.9505 60.6404 100.079 60.5872 100.213 60.5872Z" fill="#707070"/>
<path d="M115.877 60.8399C115.81 60.84 115.746 60.8667 115.698 60.914C115.651 60.9613 115.624 61.0255 115.624 61.0924V65.3874C115.624 65.4544 115.651 65.5186 115.698 65.566C115.746 65.6134 115.81 65.6401 115.877 65.6401H130.53C130.597 65.6401 130.661 65.6134 130.709 65.566C130.756 65.5186 130.783 65.4544 130.783 65.3874V61.0924C130.783 61.0254 130.756 60.9612 130.709 60.9138C130.661 60.8664 130.597 60.8397 130.53 60.8397H115.877M115.877 60.5872H130.53C130.597 60.5872 130.662 60.6002 130.724 60.6256C130.785 60.651 130.841 60.6882 130.887 60.7351C130.934 60.7821 130.972 60.8378 130.997 60.8991C131.022 60.9604 131.035 61.0261 131.035 61.0924V65.3874C131.035 65.4537 131.022 65.5194 130.997 65.5807C130.972 65.642 130.934 65.6977 130.887 65.7446C130.841 65.7916 130.785 65.8288 130.724 65.8542C130.662 65.8796 130.597 65.8926 130.53 65.8926H115.877C115.743 65.8926 115.614 65.8394 115.52 65.7446C115.425 65.6499 115.372 65.5214 115.372 65.3874V61.0924C115.372 60.9584 115.425 60.8299 115.52 60.7351C115.614 60.6404 115.743 60.5872 115.877 60.5872Z" fill="#707070"/>
<path d="M61.0531 65.8929C60.9862 65.893 60.922 65.9197 60.8747 65.967C60.8274 66.0143 60.8007 66.0785 60.8006 66.1454V70.4403C60.8007 70.5074 60.8273 70.5716 60.8747 70.619C60.9221 70.6664 60.9863 70.693 61.0534 70.6931H75.7065C75.7735 70.693 75.8378 70.6664 75.8851 70.619C75.9325 70.5716 75.9592 70.5074 75.9592 70.4403V66.1454C75.9592 66.0784 75.9325 66.0141 75.8851 65.9668C75.8378 65.9194 75.7735 65.8927 75.7065 65.8927H61.0531M61.0531 65.6401H75.7065C75.7728 65.6401 75.8385 65.6532 75.8998 65.6786C75.9611 65.704 76.0168 65.7412 76.0638 65.7881C76.1107 65.835 76.1479 65.8907 76.1733 65.952C76.1987 66.0134 76.2118 66.0791 76.2118 66.1454V70.4403C76.2118 70.5067 76.1987 70.5724 76.1733 70.6337C76.1479 70.695 76.1107 70.7507 76.0638 70.7976C76.0168 70.8445 75.9611 70.8818 75.8998 70.9072C75.8385 70.9325 75.7728 70.9456 75.7065 70.9456H61.0531C60.9191 70.9456 60.7906 70.8924 60.6958 70.7976C60.6011 70.7029 60.5479 70.5743 60.5479 70.4403V66.1454C60.5479 66.0114 60.6011 65.8829 60.6958 65.7881C60.7906 65.6934 60.9191 65.6401 61.0531 65.6401Z" fill="#707070"/>
<path d="M76.4645 65.8929C76.3976 65.893 76.3334 65.9197 76.2861 65.967C76.2387 66.0143 76.2121 66.0785 76.212 66.1454V70.4403C76.212 70.5074 76.2387 70.5716 76.2861 70.619C76.3335 70.6664 76.3977 70.693 76.4647 70.6931H91.3706C91.4376 70.693 91.5019 70.6664 91.5493 70.619C91.5967 70.5716 91.6233 70.5074 91.6234 70.4403V66.1454C91.6232 66.0784 91.5966 66.0142 91.5492 65.9669C91.5018 65.9196 91.4376 65.8929 91.3706 65.8929H76.4645ZM76.4645 65.6401H91.3706C91.5046 65.6401 91.6331 65.6934 91.7279 65.7881C91.8226 65.8829 91.8759 66.0114 91.8759 66.1454V70.4403C91.8759 70.5743 91.8226 70.7029 91.7279 70.7976C91.6331 70.8924 91.5046 70.9456 91.3706 70.9456H76.4645C76.3305 70.9456 76.202 70.8924 76.1072 70.7976C76.0125 70.7029 75.9592 70.5743 75.9592 70.4403V66.1454C75.9592 66.0114 76.0125 65.8829 76.1072 65.7881C76.202 65.6934 76.3305 65.6401 76.4645 65.6401Z" fill="#707070"/>
<path d="M92.119 65.8929C92.0527 65.8937 91.9894 65.9207 91.9429 65.968C91.8964 66.0153 91.8706 66.0791 91.871 66.1454V70.4403C91.8705 70.5067 91.8964 70.5705 91.9428 70.6179C91.9893 70.6653 92.0526 70.6923 92.119 70.6931H106.747C106.813 70.6923 106.877 70.6653 106.923 70.6179C106.97 70.5705 106.995 70.5067 106.995 70.4403V66.1454C106.995 66.0791 106.97 66.0153 106.923 65.968C106.877 65.9207 106.813 65.8937 106.747 65.8929H92.119ZM92.119 65.6401H106.747C106.88 65.6414 107.007 65.6953 107.1 65.7901C107.193 65.8848 107.244 66.0127 107.243 66.1454V70.4403C107.244 70.5731 107.193 70.7009 107.1 70.7957C107.007 70.8904 106.88 70.9443 106.747 70.9456H92.119C91.9862 70.9443 91.8594 70.8904 91.7664 70.7957C91.6734 70.7009 91.6219 70.5731 91.6231 70.4403V66.1454C91.6219 66.0127 91.6734 65.8848 91.7664 65.7901C91.8594 65.6953 91.9862 65.6414 92.119 65.6401Z" fill="#707070"/>
<path d="M53.2213 65.8929V70.6931H60.5478V65.8929H53.2213ZM52.9685 65.6401H60.8006V70.9456H52.9685V65.6401Z" fill="#707070"/>
<path d="M107.54 65.8929C107.473 65.893 107.409 65.9197 107.361 65.967C107.314 66.0143 107.287 66.0785 107.287 66.1454V70.4403C107.287 70.5074 107.314 70.5716 107.361 70.619C107.409 70.6664 107.473 70.693 107.54 70.6931H122.951C123.018 70.693 123.083 70.6664 123.13 70.619C123.177 70.5716 123.204 70.5074 123.204 70.4403V66.1454C123.204 66.0784 123.177 66.0141 123.13 65.9668C123.083 65.9194 123.018 65.8927 122.951 65.8927H107.54M107.54 65.6401H122.951C123.085 65.6401 123.214 65.6934 123.308 65.7881C123.403 65.8829 123.456 66.0114 123.456 66.1454V70.4403C123.456 70.5067 123.443 70.5724 123.418 70.6337C123.392 70.695 123.355 70.7507 123.308 70.7976C123.261 70.8445 123.206 70.8818 123.144 70.9072C123.083 70.9325 123.017 70.9456 122.951 70.9456H107.54C107.406 70.9456 107.277 70.8924 107.182 70.7976C107.088 70.7029 107.034 70.5743 107.034 70.4403V66.1454C107.034 66.0114 107.088 65.8829 107.182 65.7881C107.277 65.6934 107.406 65.6401 107.54 65.6401Z" fill="#707070"/>
<path d="M123.709 65.8929C123.642 65.893 123.578 65.9197 123.53 65.967C123.483 66.0143 123.456 66.0785 123.456 66.1454V70.4403C123.456 70.5074 123.483 70.5716 123.53 70.619C123.578 70.6664 123.642 70.693 123.709 70.6931H130.53C130.597 70.693 130.661 70.6664 130.708 70.619C130.756 70.5716 130.782 70.5074 130.782 70.4403V66.1454C130.782 66.0784 130.756 66.0141 130.708 65.9668C130.661 65.9194 130.597 65.8927 130.53 65.8927H123.709M123.709 65.6401H130.529C130.596 65.6401 130.662 65.6532 130.723 65.6786C130.784 65.704 130.84 65.7412 130.887 65.7881C130.934 65.835 130.971 65.8907 130.996 65.952C131.022 66.0134 131.035 66.0791 131.035 66.1454V70.4403C131.035 70.5067 131.022 70.5724 130.996 70.6337C130.971 70.695 130.934 70.7507 130.887 70.7976C130.84 70.8445 130.784 70.8818 130.723 70.9072C130.662 70.9325 130.596 70.9456 130.529 70.9456H123.709C123.575 70.9456 123.446 70.8924 123.352 70.7976C123.257 70.7029 123.204 70.5743 123.204 70.4403V66.1454C123.204 66.0114 123.257 65.8829 123.352 65.7881C123.446 65.6934 123.575 65.6401 123.709 65.6401Z" fill="#707070"/>
<path d="M61.0531 55.7869C60.9862 55.7871 60.922 55.8137 60.8747 55.861C60.8274 55.9084 60.8007 55.9725 60.8006 56.0395V60.3344C60.8007 60.4014 60.8273 60.4657 60.8747 60.513C60.9221 60.5604 60.9863 60.5871 61.0534 60.5871H75.7065C75.7735 60.5871 75.8378 60.5604 75.8851 60.513C75.9325 60.4657 75.9592 60.4014 75.9592 60.3344V56.0395C75.9592 55.9724 75.9325 55.9082 75.8851 55.8608C75.8378 55.8134 75.7735 55.7868 75.7065 55.7867H61.0531M61.0531 55.5342H75.7065C75.7728 55.5342 75.8385 55.5472 75.8998 55.5726C75.9611 55.598 76.0168 55.6353 76.0638 55.6822C76.1107 55.7291 76.1479 55.7848 76.1733 55.8461C76.1987 55.9074 76.2118 55.9731 76.2118 56.0395V60.3344C76.2118 60.4007 76.1987 60.4664 76.1733 60.5277C76.1479 60.589 76.1107 60.6447 76.0638 60.6917C76.0168 60.7386 75.9611 60.7758 75.8998 60.8012C75.8385 60.8266 75.7728 60.8397 75.7065 60.8397H61.0531C60.9191 60.8397 60.7906 60.7864 60.6958 60.6917C60.6011 60.5969 60.5479 60.4684 60.5479 60.3344V56.0395C60.5479 55.9054 60.6011 55.7769 60.6958 55.6822C60.7906 55.5874 60.9191 55.5342 61.0531 55.5342Z" fill="#707070"/>
<path d="M76.4645 55.7869C76.3976 55.7871 76.3334 55.8137 76.2861 55.861C76.2387 55.9084 76.2121 55.9725 76.212 56.0395V60.3344C76.212 60.4014 76.2387 60.4657 76.2861 60.513C76.3335 60.5604 76.3977 60.5871 76.4647 60.5871H91.3706C91.4376 60.5871 91.5019 60.5604 91.5493 60.513C91.5967 60.4657 91.6233 60.4014 91.6234 60.3344V56.0395C91.6232 55.9725 91.5966 55.9083 91.5492 55.8609C91.5018 55.8136 91.4376 55.787 91.3706 55.7869H76.4645ZM76.4645 55.5342H91.3706C91.5046 55.5342 91.6331 55.5874 91.7279 55.6822C91.8226 55.7769 91.8759 55.9054 91.8759 56.0395V60.3344C91.8759 60.4684 91.8226 60.5969 91.7279 60.6917C91.6331 60.7864 91.5046 60.8397 91.3706 60.8397H76.4645C76.3305 60.8397 76.202 60.7864 76.1072 60.6917C76.0125 60.5969 75.9592 60.4684 75.9592 60.3344V56.0395C75.9592 55.9054 76.0125 55.7769 76.1072 55.6822C76.202 55.5874 76.3305 55.5342 76.4645 55.5342Z" fill="#707070"/>
<path d="M92.119 55.7869C92.0527 55.7877 91.9894 55.8147 91.9429 55.862C91.8964 55.9093 91.8706 55.9731 91.871 56.0395V60.3344C91.8705 60.4007 91.8964 60.4646 91.9428 60.512C91.9893 60.5593 92.0526 60.5863 92.119 60.5871H106.747C106.813 60.5863 106.877 60.5593 106.923 60.512C106.97 60.4646 106.995 60.4007 106.995 60.3344V56.0395C106.995 55.9731 106.97 55.9093 106.923 55.862C106.877 55.8147 106.813 55.7877 106.747 55.7869H92.119ZM92.119 55.5342H106.747C106.88 55.5354 107.007 55.5894 107.1 55.6841C107.193 55.7789 107.244 55.9067 107.243 56.0395V60.3344C107.244 60.4671 107.193 60.5949 107.1 60.6897C107.007 60.7845 106.88 60.8384 106.747 60.8397H92.119C91.9862 60.8384 91.8594 60.7845 91.7664 60.6897C91.6734 60.5949 91.6219 60.4671 91.6231 60.3344V56.0395C91.6219 55.9067 91.6734 55.7789 91.7664 55.6841C91.8594 55.5894 91.9862 55.5354 92.119 55.5342Z" fill="#707070"/>
<path d="M53.2213 55.7869V60.5871H60.5478V55.7869H53.2213ZM52.9685 55.5342H60.8006V60.8397H52.9685V55.5342Z" fill="#707070"/>
<path d="M107.54 55.7869C107.473 55.7871 107.409 55.8137 107.361 55.861C107.314 55.9084 107.287 55.9725 107.287 56.0395V60.3344C107.287 60.4014 107.314 60.4657 107.361 60.513C107.409 60.5604 107.473 60.5871 107.54 60.5871H122.951C123.018 60.5871 123.083 60.5604 123.13 60.513C123.177 60.4657 123.204 60.4014 123.204 60.3344V56.0395C123.204 55.9724 123.177 55.9082 123.13 55.8608C123.083 55.8134 123.018 55.7868 122.951 55.7867H107.54M107.54 55.5342H122.951C123.085 55.5342 123.214 55.5874 123.308 55.6822C123.403 55.7769 123.456 55.9054 123.456 56.0395V60.3344C123.456 60.4007 123.443 60.4664 123.418 60.5277C123.392 60.589 123.355 60.6447 123.308 60.6917C123.261 60.7386 123.206 60.7758 123.144 60.8012C123.083 60.8266 123.017 60.8397 122.951 60.8397H107.54C107.406 60.8397 107.277 60.7864 107.182 60.6917C107.088 60.5969 107.034 60.4684 107.034 60.3344V56.0395C107.034 55.9054 107.088 55.7769 107.182 55.6822C107.277 55.5874 107.406 55.5342 107.54 55.5342Z" fill="#707070"/>
<path d="M123.709 55.7869C123.642 55.7871 123.578 55.8137 123.53 55.861C123.483 55.9084 123.456 55.9725 123.456 56.0395V60.3344C123.456 60.4014 123.483 60.4657 123.53 60.513C123.578 60.5604 123.642 60.5871 123.709 60.5871H130.53C130.597 60.5871 130.661 60.5604 130.708 60.513C130.756 60.4657 130.782 60.4014 130.782 60.3344V56.0395C130.782 55.9724 130.756 55.9082 130.708 55.8608C130.661 55.8134 130.597 55.7868 130.53 55.7867H123.709M123.709 55.5342H130.529C130.596 55.5342 130.662 55.5472 130.723 55.5726C130.784 55.598 130.84 55.6353 130.887 55.6822C130.934 55.7291 130.971 55.7848 130.996 55.8461C131.022 55.9074 131.035 55.9731 131.035 56.0395V60.3344C131.035 60.4007 131.022 60.4664 130.996 60.5277C130.971 60.589 130.934 60.6447 130.887 60.6917C130.84 60.7386 130.784 60.7758 130.723 60.8012C130.662 60.8266 130.596 60.8397 130.529 60.8397H123.709C123.575 60.8397 123.446 60.7864 123.352 60.6917C123.257 60.5969 123.204 60.4684 123.204 60.3344V56.0395C123.204 55.9054 123.257 55.7769 123.352 55.6822C123.446 55.5874 123.575 55.5342 123.709 55.5342Z" fill="#707070"/>
<path d="M53.4738 50.734C53.4068 50.7341 53.3427 50.7607 53.2954 50.808C53.248 50.8554 53.2214 50.9195 53.2213 50.9865V55.2814C53.2213 55.3484 53.248 55.4127 53.2954 55.4601C53.3427 55.5074 53.407 55.5341 53.474 55.5342H68.1271C68.1942 55.5341 68.2584 55.5074 68.3058 55.4601C68.3532 55.4127 68.3798 55.3484 68.3799 55.2814V50.9865C68.3798 50.9195 68.3532 50.8552 68.3058 50.8078C68.2584 50.7604 68.1942 50.7338 68.1271 50.7337H53.4738M53.4738 50.4812H68.1271C68.1935 50.4812 68.2592 50.4943 68.3205 50.5197C68.3818 50.5451 68.4375 50.5823 68.4844 50.6292C68.5313 50.6761 68.5686 50.7318 68.5939 50.7931C68.6193 50.8544 68.6324 50.9201 68.6324 50.9865V55.2814C68.6324 55.3478 68.6193 55.4135 68.5939 55.4748C68.5686 55.5361 68.5313 55.5918 68.4844 55.6387C68.4375 55.6856 68.3818 55.7228 68.3205 55.7482C68.2592 55.7736 68.1935 55.7867 68.1271 55.7867H53.4738C53.3398 55.7867 53.2113 55.7334 53.1165 55.6387C53.0217 55.5439 52.9685 55.4154 52.9685 55.2814V50.9865C52.9685 50.8525 53.0217 50.7239 53.1165 50.6292C53.2113 50.5344 53.3398 50.4812 53.4738 50.4812Z" fill="#707070"/>
<path d="M68.8852 50.734C68.8182 50.7341 68.7541 50.7607 68.7067 50.808C68.6594 50.8554 68.6328 50.9195 68.6326 50.9865V55.2814C68.6327 55.3484 68.6593 55.4127 68.7067 55.4601C68.7541 55.5074 68.8184 55.5341 68.8854 55.5342H84.0438C84.1108 55.5341 84.1751 55.5074 84.2224 55.4601C84.2698 55.4127 84.2965 55.3484 84.2965 55.2814V50.9865C84.2965 50.9195 84.2698 50.8552 84.2224 50.8078C84.1751 50.7604 84.1108 50.7338 84.0438 50.7337H68.8852M68.8852 50.4812H84.0438C84.1778 50.4812 84.3063 50.5344 84.4011 50.6292C84.4958 50.7239 84.5491 50.8525 84.5491 50.9865V55.2814C84.5491 55.4154 84.4958 55.5439 84.4011 55.6387C84.3063 55.7334 84.1778 55.7867 84.0438 55.7867H68.8852C68.7511 55.7867 68.6226 55.7334 68.5279 55.6387C68.4331 55.5439 68.3799 55.4154 68.3799 55.2814V50.9865C68.3799 50.8525 68.4331 50.7239 68.5279 50.6292C68.6226 50.5344 68.7511 50.4812 68.8852 50.4812Z" fill="#707070"/>
<path d="M84.8017 50.734C84.7347 50.7341 84.6706 50.7607 84.6232 50.808C84.5759 50.8554 84.5493 50.9195 84.5491 50.9865V55.2814C84.5492 55.3484 84.5758 55.4127 84.6232 55.4601C84.6706 55.5074 84.7349 55.5341 84.8019 55.5342H99.455C99.522 55.5341 99.5863 55.5074 99.6337 55.4601C99.6811 55.4127 99.7077 55.3484 99.7078 55.2814V50.9865C99.7077 50.9195 99.6811 50.8552 99.6337 50.8078C99.5863 50.7604 99.522 50.7338 99.455 50.7337H84.8017M84.8017 50.4812H99.455C99.5214 50.4812 99.5871 50.4943 99.6484 50.5197C99.7097 50.5451 99.7654 50.5823 99.8123 50.6292C99.8592 50.6761 99.8964 50.7318 99.9218 50.7931C99.9472 50.8544 99.9603 50.9201 99.9603 50.9865V55.2814C99.9603 55.3478 99.9472 55.4135 99.9218 55.4748C99.8964 55.5361 99.8592 55.5918 99.8123 55.6387C99.7654 55.6856 99.7097 55.7228 99.6484 55.7482C99.5871 55.7736 99.5214 55.7867 99.455 55.7867H84.8017C84.6677 55.7867 84.5391 55.7334 84.4444 55.6387C84.3496 55.5439 84.2964 55.4154 84.2964 55.2814V50.9865C84.2964 50.8525 84.3496 50.7239 84.4444 50.6292C84.5391 50.5344 84.6677 50.4812 84.8017 50.4812Z" fill="#707070"/>
<path d="M100.213 50.734C100.146 50.7341 100.082 50.7607 100.035 50.808C99.9873 50.8554 99.9606 50.9195 99.9605 50.9865V55.2814C99.9606 55.3484 99.9872 55.4127 100.035 55.4601C100.082 55.5074 100.146 55.5341 100.213 55.5342H115.119C115.186 55.5341 115.25 55.5074 115.298 55.4601C115.345 55.4127 115.372 55.3484 115.372 55.2814V50.9865C115.372 50.9195 115.345 50.8553 115.298 50.808C115.25 50.7606 115.186 50.734 115.119 50.734H100.213ZM100.213 50.4812H115.119C115.253 50.4812 115.382 50.5344 115.476 50.6292C115.571 50.7239 115.624 50.8525 115.624 50.9865V55.2814C115.624 55.4154 115.571 55.5439 115.476 55.6387C115.382 55.7334 115.253 55.7867 115.119 55.7867H100.213C100.079 55.7867 99.9505 55.7334 99.8558 55.6387C99.761 55.5439 99.7078 55.4154 99.7078 55.2814V50.9865C99.7078 50.8525 99.761 50.7239 99.8558 50.6292C99.9505 50.5344 100.079 50.4812 100.213 50.4812Z" fill="#707070"/>
<path d="M115.877 50.734C115.81 50.7341 115.746 50.7607 115.698 50.808C115.651 50.8554 115.624 50.9195 115.624 50.9865V55.2814C115.624 55.3484 115.651 55.4127 115.698 55.4601C115.746 55.5074 115.81 55.5341 115.877 55.5342H130.53C130.597 55.5341 130.661 55.5074 130.709 55.4601C130.756 55.4127 130.783 55.3484 130.783 55.2814V50.9865C130.783 50.9195 130.756 50.8552 130.709 50.8078C130.661 50.7604 130.597 50.7338 130.53 50.7337H115.877M115.877 50.4812H130.53C130.597 50.4812 130.662 50.4943 130.724 50.5197C130.785 50.5451 130.841 50.5823 130.887 50.6292C130.934 50.6761 130.972 50.7318 130.997 50.7931C131.022 50.8544 131.035 50.9201 131.035 50.9865V55.2814C131.035 55.3478 131.022 55.4135 130.997 55.4748C130.972 55.5361 130.934 55.5918 130.887 55.6387C130.841 55.6856 130.785 55.7228 130.724 55.7482C130.662 55.7736 130.597 55.7867 130.53 55.7867H115.877C115.743 55.7867 115.614 55.7334 115.52 55.6387C115.425 55.5439 115.372 55.4154 115.372 55.2814V50.9865C115.372 50.8525 115.425 50.7239 115.52 50.6292C115.614 50.5344 115.743 50.4812 115.877 50.4812Z" fill="#707070"/>
<path d="M53.4738 40.6282C53.4068 40.6284 53.3427 40.655 53.2954 40.7023C53.248 40.7497 53.2214 40.8138 53.2213 40.8808V45.1757C53.2213 45.2427 53.248 45.307 53.2954 45.3543C53.3427 45.4017 53.407 45.4284 53.474 45.4284H68.1271C68.1942 45.4284 68.2584 45.4017 68.3058 45.3543C68.3532 45.307 68.3798 45.2427 68.3799 45.1757V40.8808C68.3798 40.8137 68.3532 40.7495 68.3058 40.7021C68.2584 40.6547 68.1942 40.6281 68.1271 40.628H53.4738M53.4738 40.3755H68.1271C68.1935 40.3755 68.2592 40.3886 68.3205 40.4139C68.3818 40.4393 68.4375 40.4766 68.4844 40.5235C68.5313 40.5704 68.5686 40.6261 68.5939 40.6874C68.6193 40.7487 68.6324 40.8144 68.6324 40.8808V45.1757C68.6324 45.242 68.6193 45.3077 68.5939 45.3691C68.5686 45.4304 68.5313 45.4861 68.4844 45.533C68.4375 45.5799 68.3818 45.6171 68.3205 45.6425C68.2592 45.6679 68.1935 45.681 68.1271 45.681H53.4738C53.3398 45.681 53.2113 45.6277 53.1165 45.533C53.0217 45.4382 52.9685 45.3097 52.9685 45.1757V40.8808C52.9685 40.7468 53.0217 40.6182 53.1165 40.5235C53.2113 40.4287 53.3398 40.3755 53.4738 40.3755Z" fill="#707070"/>
<path d="M68.8852 40.6282C68.8182 40.6284 68.7541 40.655 68.7067 40.7023C68.6594 40.7497 68.6328 40.8138 68.6326 40.8808V45.1757C68.6327 45.2427 68.6593 45.307 68.7067 45.3543C68.7541 45.4017 68.8184 45.4284 68.8854 45.4284H84.0438C84.1108 45.4284 84.1751 45.4017 84.2224 45.3543C84.2698 45.307 84.2965 45.2427 84.2965 45.1757V40.8808C84.2965 40.8137 84.2698 40.7495 84.2224 40.7021C84.1751 40.6547 84.1108 40.6281 84.0438 40.628H68.8852M68.8852 40.3755H84.0438C84.1778 40.3755 84.3063 40.4287 84.4011 40.5235C84.4958 40.6182 84.5491 40.7468 84.5491 40.8808V45.1757C84.5491 45.3097 84.4958 45.4382 84.4011 45.533C84.3063 45.6277 84.1778 45.681 84.0438 45.681H68.8852C68.7511 45.681 68.6226 45.6277 68.5279 45.533C68.4331 45.4382 68.3799 45.3097 68.3799 45.1757V40.8808C68.3799 40.7468 68.4331 40.6182 68.5279 40.5235C68.6226 40.4287 68.7511 40.3755 68.8852 40.3755Z" fill="#707070"/>
<path d="M84.8017 40.6282C84.7347 40.6284 84.6706 40.655 84.6232 40.7023C84.5759 40.7497 84.5493 40.8138 84.5491 40.8808V45.1757C84.5492 45.2427 84.5758 45.307 84.6232 45.3543C84.6706 45.4017 84.7349 45.4284 84.8019 45.4284H99.455C99.522 45.4284 99.5863 45.4017 99.6337 45.3543C99.6811 45.307 99.7077 45.2427 99.7078 45.1757V40.8808C99.7077 40.8137 99.6811 40.7495 99.6337 40.7021C99.5863 40.6547 99.522 40.6281 99.455 40.628H84.8017M84.8017 40.3755H99.455C99.5214 40.3755 99.5871 40.3886 99.6484 40.4139C99.7097 40.4393 99.7654 40.4766 99.8123 40.5235C99.8592 40.5704 99.8964 40.6261 99.9218 40.6874C99.9472 40.7487 99.9603 40.8144 99.9603 40.8808V45.1757C99.9603 45.242 99.9472 45.3077 99.9218 45.3691C99.8964 45.4304 99.8592 45.4861 99.8123 45.533C99.7654 45.5799 99.7097 45.6171 99.6484 45.6425C99.5871 45.6679 99.5214 45.681 99.455 45.681H84.8017C84.6677 45.681 84.5391 45.6277 84.4444 45.533C84.3496 45.4382 84.2964 45.3097 84.2964 45.1757V40.8808C84.2964 40.7468 84.3496 40.6182 84.4444 40.5235C84.5391 40.4287 84.6677 40.3755 84.8017 40.3755Z" fill="#707070"/>
<path d="M100.213 40.6282C100.146 40.6284 100.082 40.655 100.035 40.7023C99.9873 40.7497 99.9606 40.8138 99.9605 40.8808V45.1757C99.9606 45.2427 99.9872 45.307 100.035 45.3543C100.082 45.4017 100.146 45.4284 100.213 45.4284H115.119C115.186 45.4284 115.25 45.4017 115.298 45.3543C115.345 45.307 115.372 45.2427 115.372 45.1757V40.8808C115.372 40.8138 115.345 40.7496 115.298 40.7023C115.25 40.6549 115.186 40.6283 115.119 40.6282H100.213ZM100.213 40.3755H115.119C115.253 40.3755 115.382 40.4287 115.476 40.5235C115.571 40.6182 115.624 40.7468 115.624 40.8808V45.1757C115.624 45.3097 115.571 45.4382 115.476 45.533C115.382 45.6277 115.253 45.681 115.119 45.681H100.213C100.079 45.681 99.9505 45.6277 99.8558 45.533C99.761 45.4382 99.7078 45.3097 99.7078 45.1757V40.8808C99.7078 40.7468 99.761 40.6182 99.8558 40.5235C99.9505 40.4287 100.079 40.3755 100.213 40.3755Z" fill="#707070"/>
<path d="M115.877 40.6282C115.81 40.6284 115.746 40.655 115.698 40.7023C115.651 40.7497 115.624 40.8138 115.624 40.8808V45.1757C115.624 45.2427 115.651 45.307 115.698 45.3543C115.746 45.4017 115.81 45.4284 115.877 45.4284H130.53C130.597 45.4284 130.661 45.4017 130.709 45.3543C130.756 45.307 130.783 45.2427 130.783 45.1757V40.8808C130.783 40.8137 130.756 40.7495 130.709 40.7021C130.661 40.6547 130.597 40.6281 130.53 40.628H115.877M115.877 40.3755H130.53C130.597 40.3755 130.662 40.3886 130.724 40.4139C130.785 40.4393 130.841 40.4766 130.887 40.5235C130.934 40.5704 130.972 40.6261 130.997 40.6874C131.022 40.7487 131.035 40.8144 131.035 40.8808V45.1757C131.035 45.242 131.022 45.3077 130.997 45.3691C130.972 45.4304 130.934 45.4861 130.887 45.533C130.841 45.5799 130.785 45.6171 130.724 45.6425C130.662 45.6679 130.597 45.681 130.53 45.681H115.877C115.743 45.681 115.614 45.6277 115.52 45.533C115.425 45.4382 115.372 45.3097 115.372 45.1757V40.8808C115.372 40.7468 115.425 40.6182 115.52 40.5235C115.614 40.4287 115.743 40.3755 115.877 40.3755Z" fill="#707070"/>
<path d="M61.0531 45.6812C60.9862 45.6813 60.922 45.708 60.8747 45.7553C60.8274 45.8026 60.8007 45.8668 60.8006 45.9337V50.2287C60.8007 50.2957 60.8273 50.3599 60.8747 50.4073C60.9221 50.4547 60.9863 50.4814 61.0534 50.4814H75.7065C75.7735 50.4814 75.8378 50.4547 75.8851 50.4073C75.9325 50.3599 75.9592 50.2957 75.9592 50.2287V45.9337C75.9592 45.8667 75.9325 45.8025 75.8851 45.7551C75.8378 45.7077 75.7735 45.681 75.7065 45.681H61.0531M61.0531 45.4285H75.7065C75.7728 45.4285 75.8385 45.4415 75.8998 45.4669C75.9611 45.4923 76.0168 45.5295 76.0638 45.5765C76.1107 45.6234 76.1479 45.6791 76.1733 45.7404C76.1987 45.8017 76.2118 45.8674 76.2118 45.9337V50.2287C76.2118 50.295 76.1987 50.3607 76.1733 50.422C76.1479 50.4833 76.1107 50.539 76.0638 50.586C76.0168 50.6329 75.9611 50.6701 75.8998 50.6955C75.8385 50.7209 75.7728 50.7339 75.7065 50.7339H61.0531C60.9191 50.7339 60.7906 50.6807 60.6958 50.586C60.6011 50.4912 60.5479 50.3627 60.5479 50.2287V45.9337C60.5479 45.7997 60.6011 45.6712 60.6958 45.5765C60.7906 45.4817 60.9191 45.4285 61.0531 45.4285Z" fill="#707070"/>
<path d="M76.4645 45.6812C76.3976 45.6813 76.3334 45.708 76.2861 45.7553C76.2387 45.8026 76.2121 45.8668 76.212 45.9337V50.2287C76.212 50.2957 76.2387 50.3599 76.2861 50.4073C76.3335 50.4547 76.3977 50.4814 76.4647 50.4814H91.3706C91.4376 50.4814 91.5019 50.4547 91.5493 50.4073C91.5967 50.3599 91.6233 50.2957 91.6234 50.2287V45.9337C91.6232 45.8668 91.5966 45.8026 91.5492 45.7552C91.5018 45.7079 91.4376 45.6813 91.3706 45.6812H76.4645ZM76.4645 45.4285H91.3706C91.5046 45.4285 91.6331 45.4817 91.7279 45.5765C91.8226 45.6712 91.8759 45.7997 91.8759 45.9337V50.2287C91.8759 50.3627 91.8226 50.4912 91.7279 50.586C91.6331 50.6807 91.5046 50.7339 91.3706 50.7339H76.4645C76.3305 50.7339 76.202 50.6807 76.1072 50.586C76.0125 50.4912 75.9592 50.3627 75.9592 50.2287V45.9337C75.9592 45.7997 76.0125 45.6712 76.1072 45.5765C76.202 45.4817 76.3305 45.4285 76.4645 45.4285Z" fill="#707070"/>
<path d="M92.119 45.6812C92.0527 45.682 91.9894 45.709 91.9429 45.7563C91.8964 45.8036 91.8706 45.8674 91.871 45.9337V50.2287C91.8705 50.295 91.8964 50.3589 91.9428 50.4062C91.9893 50.4536 92.0526 50.4806 92.119 50.4814H106.747C106.813 50.4806 106.877 50.4536 106.923 50.4062C106.97 50.3589 106.995 50.295 106.995 50.2287V45.9337C106.995 45.8674 106.97 45.8036 106.923 45.7563C106.877 45.709 106.813 45.682 106.747 45.6812H92.119ZM92.119 45.4285H106.747C106.88 45.4297 107.007 45.4837 107.1 45.5784C107.193 45.6732 107.244 45.801 107.243 45.9337V50.2287C107.244 50.3614 107.193 50.4892 107.1 50.584C107.007 50.6787 106.88 50.7327 106.747 50.7339H92.119C91.9862 50.7327 91.8594 50.6787 91.7664 50.584C91.6734 50.4892 91.6219 50.3614 91.6231 50.2287V45.9337C91.6219 45.801 91.6734 45.6732 91.7664 45.5784C91.8594 45.4837 91.9862 45.4297 92.119 45.4285Z" fill="#707070"/>
<path d="M53.2213 45.6812V50.4814H60.5478V45.6812H53.2213ZM52.9685 45.4285H60.8006V50.7339H52.9685V45.4285Z" fill="#707070"/>
<path d="M107.54 45.6812C107.473 45.6813 107.409 45.708 107.361 45.7553C107.314 45.8026 107.287 45.8668 107.287 45.9337V50.2287C107.287 50.2957 107.314 50.3599 107.361 50.4073C107.409 50.4547 107.473 50.4814 107.54 50.4814H122.951C123.018 50.4814 123.083 50.4547 123.13 50.4073C123.177 50.3599 123.204 50.2957 123.204 50.2287V45.9337C123.204 45.8667 123.177 45.8025 123.13 45.7551C123.083 45.7077 123.018 45.681 122.951 45.681H107.54M107.54 45.4285H122.951C123.085 45.4285 123.214 45.4817 123.308 45.5765C123.403 45.6712 123.456 45.7997 123.456 45.9337V50.2287C123.456 50.295 123.443 50.3607 123.418 50.422C123.392 50.4833 123.355 50.539 123.308 50.586C123.261 50.6329 123.206 50.6701 123.144 50.6955C123.083 50.7209 123.017 50.7339 122.951 50.7339H107.54C107.406 50.7339 107.277 50.6807 107.182 50.586C107.088 50.4912 107.034 50.3627 107.034 50.2287V45.9337C107.034 45.7997 107.088 45.6712 107.182 45.5765C107.277 45.4817 107.406 45.4285 107.54 45.4285Z" fill="#707070"/>
<path d="M123.709 45.6812C123.642 45.6813 123.578 45.708 123.53 45.7553C123.483 45.8026 123.456 45.8668 123.456 45.9337V50.2287C123.456 50.2957 123.483 50.3599 123.53 50.4073C123.578 50.4547 123.642 50.4814 123.709 50.4814H130.53C130.597 50.4814 130.661 50.4547 130.708 50.4073C130.756 50.3599 130.782 50.2957 130.782 50.2287V45.9337C130.782 45.8667 130.756 45.8025 130.708 45.7551C130.661 45.7077 130.597 45.681 130.53 45.681H123.709M123.709 45.4285H130.529C130.596 45.4285 130.662 45.4415 130.723 45.4669C130.784 45.4923 130.84 45.5295 130.887 45.5765C130.934 45.6234 130.971 45.6791 130.996 45.7404C131.022 45.8017 131.035 45.8674 131.035 45.9337V50.2287C131.035 50.295 131.022 50.3607 130.996 50.422C130.971 50.4833 130.934 50.539 130.887 50.586C130.84 50.6329 130.784 50.6701 130.723 50.6955C130.662 50.7209 130.596 50.7339 130.529 50.7339H123.709C123.575 50.7339 123.446 50.6807 123.352 50.586C123.257 50.4912 123.204 50.3627 123.204 50.2287V45.9337C123.204 45.7997 123.257 45.6712 123.352 45.5765C123.446 45.4817 123.575 45.4285 123.709 45.4285Z" fill="#707070"/>
<path d="M131.101 82.8581C130.731 82.857 130.363 82.8095 130.006 82.7167L129.935 82.6973L129.87 82.6647C127.592 81.5466 125.574 79.9626 123.947 78.0153C122.649 76.4326 121.637 74.6355 120.956 72.705C120.143 70.3937 119.751 67.9549 119.801 65.5051C119.801 65.4537 119.802 65.4138 119.802 65.3867C119.788 64.8261 119.941 64.274 120.241 63.8002C120.541 63.3264 120.974 62.952 121.487 62.7246C122.269 62.3984 129.379 59.4783 129.892 59.2673C130.86 58.7825 131.892 59.1872 132.057 59.2579C132.427 59.4094 138.999 62.0973 140.419 62.7736C141.883 63.4705 142.273 64.7226 142.273 65.3527C142.3 68.0634 141.801 70.7536 140.805 73.2748C140.019 75.2213 138.904 77.0182 137.509 78.5874C134.817 81.6158 132.125 82.6893 132.1 82.6989C131.779 82.8093 131.44 82.8632 131.101 82.8581ZM130.468 81.2901C130.836 81.3818 131.22 81.3828 131.589 81.2931C132.033 81.1309 134.286 79.9625 136.392 77.5933C139.301 74.3198 140.777 70.2049 140.779 65.3627C140.773 65.2646 140.704 64.5643 139.777 64.1238C138.385 63.4607 131.554 60.6674 131.485 60.6394L131.466 60.6314C131.176 60.5078 130.849 60.4997 130.553 60.6086L130.49 60.638C130.414 60.6693 122.868 63.7686 122.063 64.104C121.823 64.2182 121.623 64.4008 121.487 64.6289C121.351 64.857 121.286 65.1202 121.299 65.3853C121.299 65.4193 121.299 65.4688 121.297 65.5329C121.233 68.8472 121.999 76.9997 130.468 81.2901Z" fill="#3F3D56"/>
<path d="M130.206 59.9467C130.206 59.9467 122.591 63.0744 121.775 63.4141C121.398 63.5837 121.081 63.862 120.863 64.2132C120.645 64.5645 120.536 64.9728 120.552 65.3859C120.552 66.2019 119.94 76.8479 130.206 81.9953C130.206 81.9953 131.138 82.2531 131.845 81.9953C132.552 81.7376 141.527 77.3861 141.527 65.3519C141.527 65.3519 141.527 64.1281 140.099 63.4481C138.671 62.7681 131.768 59.9465 131.768 59.9465C131.768 59.9465 130.921 59.5729 130.206 59.9467Z" fill="#166D86"/>
<path opacity="0.2" d="M131.022 62.3945V79.0802C131.022 79.0802 138.705 75.382 138.637 65.6593L131.022 62.3945Z" fill="black"/>
</g>
<defs>
<clipPath id="clip0_346_903">
<rect width="182.27" height="141" fill="white" transform="translate(0.730469 0.8479)"/>
</clipPath>
</defs>
</svg>
