<svg width="191" height="132" viewBox="0 0 191 132" fill="none" xmlns="http://www.w3.org/2000/svg">
<g clip-path="url(#clip0_346_1047)">
<path d="M187.265 0.345459H3.73558C2.87045 0.353869 2.04398 0.705084 1.43748 1.32206C0.830967 1.93904 0.493936 2.7714 0.500334 3.63655V128.326C0.495329 129.19 0.833028 130.021 1.43943 130.637C2.04584 131.252 2.87152 131.602 3.73558 131.61H187.265C188.129 131.602 188.955 131.252 189.561 130.637C190.167 130.021 190.505 129.19 190.5 128.326V3.63655C190.506 2.77148 190.17 1.9392 189.563 1.32223C188.957 0.705265 188.13 0.353994 187.265 0.345459H187.265Z" fill="#090814"/>
<path d="M181.841 0.997314H3.93006C3.09759 0.998888 2.29975 1.33066 1.71162 1.91982C1.12348 2.50898 0.793093 3.30739 0.792969 4.13986V123.208C0.794163 124.04 1.12507 124.837 1.71312 125.425C2.30118 126.013 3.09842 126.344 3.93006 126.345H181.841C182.673 126.344 183.47 126.013 184.058 125.425C184.646 124.837 184.977 124.04 184.978 123.208V4.1401C184.978 3.3079 184.648 2.5097 184.06 1.92057C183.472 1.33145 182.675 0.999501 181.843 0.99755L181.841 0.997314Z" fill="white"/>
<path d="M134.711 50.8095H134.71C134.51 50.8095 134.349 50.7544 134.35 50.6869L134.53 31.972C134.53 31.9045 134.693 31.8501 134.892 31.8501H134.893C135.093 31.8501 135.254 31.9052 135.253 31.9727L135.072 50.6881C135.072 50.7548 134.91 50.8095 134.711 50.8095Z" fill="#D6D6E3"/>
<path d="M88.4525 94.4903H88.4514C88.2517 94.4903 88.0906 94.419 88.0913 94.3318L88.2719 70.7879C88.2719 70.701 88.4342 70.6304 88.6334 70.6304H88.6346C88.8342 70.6304 88.9954 70.7017 88.9946 70.7889L88.814 94.3325C88.8133 94.4199 88.6517 94.4903 88.4525 94.4903Z" fill="#D6D6E3"/>
<path d="M54.1205 60.9283H54.1193C53.9197 60.9283 53.7586 60.8807 53.759 60.8232L53.9396 45.0313C53.9396 44.9738 54.102 44.9272 54.3011 44.927H54.3023C54.5019 44.927 54.6631 44.9745 54.6624 45.032L54.4817 60.8239C54.4813 60.8817 54.3197 60.9283 54.1205 60.9283Z" fill="#D6D6E3"/>
<path d="M39.1984 75.4561C39.8943 71.6988 44.1655 69.9662 47.6279 70.2602C52.5748 70.6809 56.7031 73.9377 61.3073 75.473C63.5322 76.215 65.9259 76.6223 68.2573 76.1953C70.0953 75.8167 71.7995 74.9563 73.1954 73.7022C75.8724 71.4143 77.6822 68.2941 80.361 66.0085C81.7937 64.7185 83.6058 63.9273 85.5258 63.7534C87.8896 63.5963 90.2044 64.3974 92.2753 65.4712C96.3913 67.6042 99.7615 70.9982 104.145 72.6444C106.158 73.4205 108.341 73.6461 110.47 73.298C112.595 72.8745 114.616 72.0359 116.416 70.8301C120.191 68.4455 123.302 65.1363 127.271 63.0449C129.222 62.0166 131.39 61.2299 133.62 61.215C135.774 61.2178 137.846 62.0471 139.407 63.5319C142.413 66.265 144.783 70.5775 149.374 70.6533C150.331 70.671 151.273 70.4124 152.087 69.9085C152.68 69.5423 152.135 68.604 151.541 68.9724C149.669 70.1295 147.416 69.4001 145.71 68.277C143.894 67.0818 142.604 65.2549 141.122 63.6985C139.648 62.1523 137.931 60.8499 135.812 60.3675C133.696 59.9493 131.504 60.1324 129.486 60.896C125.15 62.407 121.867 65.517 118.269 68.223C114.722 70.8898 110.58 73.197 106.004 72.0864C101.447 70.9806 97.99 67.5298 94.0497 65.2136C90.2398 62.9746 85.5698 61.5446 81.4673 63.9007C78.3673 65.681 76.4074 68.825 74.0265 71.387C72.8517 72.6508 71.5415 73.8253 69.9547 74.5433C67.7497 75.5415 65.2576 75.4245 62.9607 74.8332C58.1695 73.5998 54.1283 70.3738 49.2495 69.4087C45.628 68.6924 41.3419 69.595 39.1314 72.7963C38.6426 73.5099 38.3097 74.3184 38.1544 75.1693C38.028 75.8514 39.0727 76.1437 39.2001 75.4576L39.1984 75.4561Z" fill="#3F3D56"/>
<path d="M54.3011 77.8233C56.8957 77.8233 58.9991 75.7199 58.9991 73.1253C58.9991 70.5306 56.8957 68.4272 54.3011 68.4272C51.7064 68.4272 49.603 70.5306 49.603 73.1253C49.603 75.7199 51.7064 77.8233 54.3011 77.8233Z" fill="#166D86"/>
<path d="M88.0913 67.8848C90.686 67.8848 92.7894 65.7814 92.7894 63.1868C92.7894 60.5921 90.686 58.4888 88.0913 58.4888C85.4967 58.4888 83.3933 60.5921 83.3933 63.1868C83.3933 65.7814 85.4967 67.8848 88.0913 67.8848Z" fill="#166D86"/>
<path d="M134.349 64.6326C136.944 64.6326 139.047 62.5292 139.047 59.9346C139.047 57.3399 136.944 55.2366 134.349 55.2366C131.755 55.2366 129.651 57.3399 129.651 59.9346C129.651 62.5292 131.755 64.6326 134.349 64.6326Z" fill="#166D86"/>
<path d="M59.256 40.0881H48.9511C48.6055 40.0888 48.2641 40.0125 47.9517 39.8648C47.6392 39.717 47.3636 39.5015 47.1449 39.2339C46.9208 38.9604 46.7605 38.6404 46.6755 38.2972C46.5905 37.954 46.5831 37.5962 46.6537 37.2497C47.4815 33.1302 47.4815 28.8872 46.6537 24.7677C46.5831 24.4212 46.5905 24.0633 46.6755 23.72C46.7604 23.3768 46.9208 23.0568 47.1449 22.7832C47.3591 22.5213 47.6278 22.3093 47.9323 22.1619C48.2368 22.0145 48.5698 21.9353 48.9081 21.9298C52.0409 20.3955 55.5343 20.3955 59.2921 21.9298C59.8526 21.9386 60.3916 22.1473 60.8119 22.5182C61.2322 22.8891 61.5063 23.3979 61.5848 23.953C62.2211 28.6352 62.2211 33.382 61.5848 38.0642C61.5055 38.6255 61.2263 39.1393 60.7984 39.5111C60.3706 39.883 59.8228 40.0878 59.256 40.0881Z" fill="#E6E6E6"/>
<path d="M140.636 29.1617H130.331C129.764 29.1613 129.217 28.9563 128.789 28.5846C128.361 28.2128 128.081 27.6992 128.002 27.138C127.366 22.4558 127.366 17.7089 128.002 13.0266C128.081 12.4721 128.354 11.9638 128.774 11.593C129.193 11.2221 129.732 11.013 130.291 11.0032C133.534 9.54992 137.025 9.55016 140.671 11.0032C141.011 11.0077 141.345 11.0865 141.651 11.234C141.957 11.3815 142.227 11.5942 142.442 11.8571C142.666 12.1306 142.826 12.4506 142.911 12.7938C142.996 13.137 143.004 13.4949 142.933 13.8413C142.105 17.9608 142.105 22.2038 142.933 26.3234C143.004 26.6698 142.996 27.0276 142.911 27.3709C142.826 27.7141 142.666 28.0341 142.442 28.3076C142.223 28.5752 141.948 28.7907 141.635 28.9384C141.323 29.0861 140.981 29.1624 140.636 29.1617Z" fill="#166D86"/>
<path d="M139.557 16.384H130.882C130.738 16.384 130.601 16.3269 130.499 16.2252C130.397 16.1236 130.34 15.9857 130.34 15.8419C130.34 15.6981 130.397 15.5602 130.499 15.4586C130.601 15.3569 130.738 15.2998 130.882 15.2998H139.557C139.7 15.2998 139.838 15.3569 139.94 15.4586C140.042 15.5602 140.099 15.6981 140.099 15.8419C140.099 15.9857 140.042 16.1236 139.94 16.2252C139.838 16.3269 139.7 16.384 139.557 16.384Z" fill="white"/>
<path d="M139.557 20.7207H130.882C130.738 20.7207 130.601 20.6636 130.499 20.5619C130.397 20.4602 130.34 20.3223 130.34 20.1786C130.34 20.0348 130.397 19.8969 130.499 19.7952C130.601 19.6936 130.738 19.6365 130.882 19.6365H139.557C139.7 19.6365 139.838 19.6936 139.94 19.7952C140.042 19.8969 140.099 20.0348 140.099 20.1786C140.099 20.3223 140.042 20.4602 139.94 20.5619C139.838 20.6636 139.7 20.7207 139.557 20.7207Z" fill="white"/>
<path d="M139.557 25.0576H130.882C130.738 25.0576 130.601 25.0005 130.499 24.8988C130.397 24.7971 130.34 24.6593 130.34 24.5155C130.34 24.3717 130.397 24.2338 130.499 24.1322C130.601 24.0305 130.738 23.9734 130.882 23.9734H139.557C139.7 23.9734 139.838 24.0305 139.94 24.1322C140.042 24.2338 140.099 24.3717 140.099 24.5155C140.099 24.6593 140.042 24.7971 139.94 24.8988C139.838 25.0005 139.7 25.0576 139.557 25.0576Z" fill="white"/>
<path d="M59.4136 26.5988H50.7391C50.5953 26.5988 50.4575 26.5417 50.3558 26.4401C50.2541 26.3384 50.197 26.2005 50.197 26.0567C50.197 25.913 50.2541 25.7751 50.3558 25.6734C50.4575 25.5718 50.5953 25.5146 50.7391 25.5146H59.4136C59.5574 25.5146 59.6953 25.5718 59.797 25.6734C59.8986 25.7751 59.9557 25.913 59.9557 26.0567C59.9557 26.2005 59.8986 26.3384 59.797 26.4401C59.6953 26.5417 59.5574 26.5988 59.4136 26.5988Z" fill="white"/>
<path d="M59.4136 30.9355H50.7391C50.5953 30.9355 50.4575 30.8784 50.3558 30.7767C50.2541 30.6751 50.197 30.5372 50.197 30.3934C50.197 30.2496 50.2541 30.1118 50.3558 30.0101C50.4575 29.9084 50.5953 29.8513 50.7391 29.8513H59.4136C59.5574 29.8513 59.6953 29.9084 59.797 30.0101C59.8986 30.1118 59.9557 30.2496 59.9557 30.3934C59.9557 30.5372 59.8986 30.6751 59.797 30.7767C59.6953 30.8784 59.5574 30.9355 59.4136 30.9355Z" fill="white"/>
<path d="M59.4136 35.2719H50.7391C50.5953 35.2719 50.4575 35.2148 50.3558 35.1132C50.2541 35.0115 50.197 34.8736 50.197 34.7298C50.197 34.5861 50.2541 34.4482 50.3558 34.3465C50.4575 34.2449 50.5953 34.1877 50.7391 34.1877H59.4136C59.5574 34.1877 59.6953 34.2449 59.797 34.3465C59.8986 34.4482 59.9557 34.5861 59.9557 34.7298C59.9557 34.8736 59.8986 35.0115 59.797 35.1132C59.6953 35.2148 59.5574 35.2719 59.4136 35.2719Z" fill="white"/>
<path d="M94.0494 117.534H83.7445C83.1777 117.533 82.6301 117.328 82.2023 116.957C81.7744 116.585 81.4951 116.071 81.4155 115.51C80.7792 110.828 80.7792 106.081 81.4155 101.399C81.4938 100.846 81.7663 100.338 82.1843 99.9678C82.6022 99.597 83.1384 99.387 83.697 99.3753C87.0525 97.5734 90.5496 97.5729 94.0926 99.3753C94.4307 99.381 94.7634 99.4603 95.0677 99.6078C95.372 99.7552 95.6404 99.9672 95.8544 100.229C96.0785 100.502 96.2389 100.822 96.3238 101.166C96.4088 101.509 96.4162 101.867 96.3456 102.213C95.5178 106.333 95.5178 110.576 96.3456 114.696C96.4162 115.042 96.4088 115.4 96.3238 115.743C96.2389 116.086 96.0785 116.406 95.8544 116.68C95.6358 116.947 95.3604 117.163 95.0481 117.31C94.7359 117.458 94.3948 117.534 94.0494 117.534Z" fill="#166D86"/>
<path d="M93.3841 103.772H84.7096C84.5658 103.772 84.4279 103.715 84.3263 103.613C84.2246 103.512 84.1675 103.374 84.1675 103.23C84.1675 103.086 84.2246 102.948 84.3263 102.847C84.4279 102.745 84.5658 102.688 84.7096 102.688H93.3841C93.5279 102.688 93.6658 102.745 93.7674 102.847C93.8691 102.948 93.9262 103.086 93.9262 103.23C93.9262 103.374 93.8691 103.512 93.7674 103.613C93.6658 103.715 93.5279 103.772 93.3841 103.772Z" fill="white"/>
<path d="M93.3841 108.109H84.7096C84.5658 108.109 84.4279 108.052 84.3263 107.95C84.2246 107.848 84.1675 107.711 84.1675 107.567C84.1675 107.423 84.2246 107.285 84.3263 107.183C84.4279 107.082 84.5658 107.025 84.7096 107.025H93.3841C93.5279 107.025 93.6658 107.082 93.7674 107.183C93.8691 107.285 93.9262 107.423 93.9262 107.567C93.9262 107.711 93.8691 107.848 93.7674 107.95C93.6658 108.052 93.5279 108.109 93.3841 108.109Z" fill="white"/>
<path d="M93.3841 112.446H84.7096C84.5658 112.446 84.4279 112.388 84.3263 112.287C84.2246 112.185 84.1675 112.047 84.1675 111.903C84.1675 111.76 84.2246 111.622 84.3263 111.52C84.4279 111.418 84.5658 111.361 84.7096 111.361H93.3841C93.5279 111.361 93.6658 111.418 93.7674 111.52C93.8691 111.622 93.9262 111.76 93.9262 111.903C93.9262 112.047 93.8691 112.185 93.7674 112.287C93.6658 112.388 93.5279 112.446 93.3841 112.446Z" fill="white"/>
<path d="M165.567 77.3538L168.443 78.7166C167.263 77.0698 166.246 74.4981 165.702 72.4519C164.781 74.3582 163.295 76.6905 161.824 78.0844L164.865 77.3023C162.991 86.4842 155.945 93.0759 147.875 93.0759V93.7751C156.305 93.7741 163.655 86.9063 165.567 77.3538Z" fill="#3F3D56"/>
<path d="M156.605 65.9778H174.781C175.552 65.9778 176.179 67.0156 176.179 68.2911C176.179 69.5667 175.552 70.6045 174.781 70.6045H156.605C155.834 70.6045 155.207 69.5667 155.207 68.2911C155.207 67.0156 155.834 65.9778 156.605 65.9778Z" fill="#166D86"/>
<path d="M149.172 102.132L140.979 109.416C140.471 109.867 139.806 110.097 139.129 110.058C138.451 110.018 137.817 109.711 137.366 109.205C133.961 106.5 131.168 103.453 129.152 99.9675C128.702 99.4601 128.472 98.7948 128.511 98.1175C128.551 97.4403 128.858 96.8064 129.364 96.3551L137.557 89.0704C138.064 88.6201 138.729 88.3895 139.407 88.4292C140.084 88.4689 140.718 88.7757 141.169 89.2822L149.383 98.5192C149.833 99.0267 150.064 99.692 150.024 100.369C149.984 101.047 149.677 101.68 149.171 102.132H149.172Z" fill="white"/>
<path d="M149.172 102.132L140.979 109.416C140.471 109.867 139.806 110.097 139.129 110.058C138.451 110.018 137.817 109.711 137.366 109.205C133.481 106.826 130.571 103.853 129.152 99.9675C128.702 99.4601 128.472 98.7948 128.511 98.1175C128.551 97.4403 128.858 96.8064 129.364 96.3551L137.557 89.0704C138.064 88.6201 138.729 88.3895 139.407 88.4292C140.084 88.4689 140.718 88.7757 141.169 89.2822L149.383 98.5192C149.833 99.0267 150.064 99.692 150.024 100.369C149.984 101.047 149.677 101.68 149.171 102.132H149.172ZM129.598 96.618C129.161 97.0074 128.896 97.5546 128.862 98.1393C128.827 98.724 129.026 99.2983 129.415 99.7363C131.232 103.422 134.033 106.459 137.629 108.973C138.019 109.411 138.566 109.676 139.15 109.71C139.735 109.744 140.309 109.545 140.747 109.156L148.94 101.87C149.378 101.481 149.642 100.934 149.677 100.349C149.711 99.7644 149.512 99.1901 149.123 98.7522L140.909 89.5151C140.52 89.0777 139.973 88.8127 139.388 88.7784C138.803 88.7441 138.229 88.9432 137.791 89.3321L129.598 96.618Z" fill="#3F3D56"/>
<path d="M141.724 95.4238L134.975 101.426C134.907 101.488 134.827 101.537 134.741 101.568C134.654 101.599 134.562 101.613 134.47 101.608C134.378 101.604 134.287 101.581 134.204 101.541C134.121 101.501 134.047 101.445 133.985 101.376C133.924 101.307 133.877 101.227 133.847 101.139C133.817 101.052 133.805 100.96 133.811 100.868C133.818 100.776 133.842 100.686 133.883 100.604C133.924 100.521 133.982 100.448 134.051 100.388L140.801 94.3853C140.869 94.3229 140.949 94.2747 141.035 94.2434C141.122 94.2121 141.214 94.1984 141.306 94.203C141.398 94.2077 141.489 94.2306 141.572 94.2705C141.655 94.3104 141.729 94.3664 141.79 94.4354C141.852 94.5043 141.899 94.5847 141.928 94.6719C141.958 94.7591 141.971 94.8514 141.964 94.9434C141.958 95.0354 141.934 95.1253 141.893 95.2078C141.851 95.2902 141.794 95.3637 141.724 95.4238Z" fill="#166D86"/>
<path d="M144.28 98.2969L137.531 104.299C137.463 104.36 137.383 104.408 137.297 104.438C137.21 104.469 137.119 104.482 137.027 104.476C136.936 104.471 136.846 104.448 136.764 104.408C136.681 104.369 136.607 104.313 136.546 104.244C136.486 104.176 136.439 104.096 136.409 104.01C136.379 103.923 136.367 103.831 136.372 103.74C136.378 103.648 136.401 103.559 136.442 103.477C136.482 103.395 136.538 103.321 136.607 103.261L143.357 97.2583C143.424 97.1959 143.504 97.1477 143.591 97.1164C143.678 97.0851 143.77 97.0714 143.862 97.0761C143.954 97.0807 144.044 97.1037 144.127 97.1436C144.21 97.1835 144.285 97.2395 144.346 97.3084C144.407 97.3773 144.454 97.4577 144.484 97.5449C144.514 97.6322 144.526 97.7245 144.52 97.8165C144.514 97.9085 144.489 97.9983 144.448 98.0808C144.407 98.1633 144.35 98.2367 144.28 98.2969H144.28Z" fill="#166D86"/>
<path d="M139.169 92.55L132.42 98.5523C132.352 98.6147 132.272 98.6629 132.186 98.6942C132.099 98.7255 132.007 98.7392 131.915 98.7346C131.823 98.7299 131.732 98.707 131.649 98.6671C131.566 98.6272 131.492 98.5712 131.43 98.5022C131.369 98.4333 131.322 98.3529 131.292 98.2657C131.262 98.1785 131.25 98.0862 131.256 97.9942C131.263 97.9022 131.287 97.8123 131.328 97.7298C131.369 97.6474 131.427 97.5739 131.497 97.5138L138.246 91.5115C138.314 91.4491 138.394 91.4009 138.48 91.3696C138.567 91.3383 138.659 91.3246 138.751 91.3293C138.843 91.3339 138.934 91.3569 139.017 91.3967C139.1 91.4366 139.174 91.4927 139.235 91.5616C139.297 91.6305 139.344 91.7109 139.374 91.7981C139.403 91.8854 139.416 91.9777 139.409 92.0697C139.403 92.1617 139.379 92.2515 139.338 92.334C139.296 92.4165 139.239 92.4899 139.169 92.55Z" fill="#166D86"/>
<path d="M28.693 67.6369L30.334 66.5784C29.661 67.8575 29.0809 69.8552 28.7705 71.4449C28.2448 69.9641 27.3973 68.1522 26.5584 67.0699L28.2933 67.6776C27.2238 60.545 23.2048 55.4244 18.6016 55.4244V54.8813C23.4094 54.8813 27.6019 60.2163 28.693 67.6369Z" fill="#3F3D56"/>
<path d="M14.2172 80.5336H32.3936C33.1645 80.5336 33.7917 79.529 33.7917 78.2944C33.7917 77.0598 33.1645 76.0552 32.3936 76.0552H14.2172C13.4463 76.0552 12.8191 77.0598 12.8191 78.2944C12.8191 79.529 13.4458 80.5336 14.2172 80.5336Z" fill="#166D86"/>
<path d="M13.0113 52.2069H23.974C24.6523 52.2061 25.3026 51.9363 25.7822 51.4567C26.2618 50.9771 26.5316 50.3268 26.5324 49.6485V37.2879C26.5316 36.6096 26.2618 35.9593 25.7822 35.4797C25.3026 35 24.6523 34.7302 23.974 34.7295H13.0113C12.3331 34.7304 11.683 35.0003 11.2035 35.4799C10.7241 35.9595 10.4544 36.6097 10.4536 37.2879V49.6487C10.4544 50.3268 10.7241 50.977 11.2036 51.4565C11.6831 51.9361 12.3332 52.2059 13.0113 52.2069Z" fill="white"/>
<path d="M13.0112 52.2069H23.9739C24.6522 52.206 25.3024 51.9362 25.782 51.4566C26.2615 50.977 26.5313 50.3267 26.532 49.6485V37.2879C26.5313 36.6096 26.2615 35.9593 25.7819 35.4797C25.3023 35 24.652 34.7302 23.9737 34.7295H13.0112C12.333 34.7303 11.6828 35.0001 11.2032 35.4797C10.7237 35.9592 10.4539 36.6094 10.4531 37.2876C9.2246 41.1767 9.34937 45.3205 10.4531 49.6485C10.4538 50.3267 10.7236 50.977 11.2031 51.4566C11.6827 51.9362 12.333 52.206 13.0112 52.2069ZM23.9739 35.0791C24.5596 35.0795 25.1212 35.3123 25.5353 35.7264C25.9495 36.1406 26.1823 36.7022 26.1827 37.2879V49.6487C26.1823 50.2344 25.9495 50.796 25.5353 51.2102C25.1212 51.6243 24.5596 51.8571 23.9739 51.8575H13.0112C12.4255 51.8571 11.8639 51.6243 11.4498 51.2102C11.0356 50.796 10.8028 50.2344 10.8024 49.6487V37.2879C10.8028 36.7022 11.0356 36.1406 11.4498 35.7264C11.8639 35.3123 12.4255 35.0795 13.0112 35.0791H23.9739Z" fill="#3F3D56"/>
<path d="M14.1179 42.2447H23.1506C23.3326 42.2413 23.5061 42.1666 23.6336 42.0367C23.7612 41.9068 23.8326 41.732 23.8326 41.5499C23.8326 41.3678 23.7612 41.193 23.6336 41.0631C23.5061 40.9332 23.3326 40.8585 23.1506 40.8551H14.1179C14.0256 40.8534 13.9339 40.8701 13.8481 40.9043C13.7623 40.9384 13.6841 40.9893 13.6183 41.054C13.5524 41.1187 13.5 41.1959 13.4643 41.281C13.4286 41.3661 13.4102 41.4576 13.4102 41.5499C13.4102 41.6422 13.4286 41.7336 13.4643 41.8188C13.5 41.9039 13.5524 41.9811 13.6183 42.0458C13.6841 42.1105 13.7623 42.1614 13.8481 42.1955C13.9339 42.2297 14.0256 42.2464 14.1179 42.2447Z" fill="#F2F2F2"/>
<path d="M14.1179 46.0897H23.1506C23.3326 46.0863 23.5061 46.0116 23.6336 45.8817C23.7612 45.7517 23.8326 45.5769 23.8326 45.3949C23.8326 45.2128 23.7612 45.038 23.6336 44.9081C23.5061 44.7781 23.3326 44.7034 23.1506 44.7001H14.1179C14.0256 44.6984 13.9339 44.7151 13.8481 44.7492C13.7623 44.7834 13.6841 44.8343 13.6183 44.899C13.5524 44.9637 13.5 45.0408 13.4643 45.126C13.4286 45.2111 13.4102 45.3025 13.4102 45.3949C13.4102 45.4872 13.4286 45.5786 13.4643 45.6638C13.5 45.7489 13.5524 45.8261 13.6183 45.8908C13.6841 45.9555 13.7623 46.0064 13.8481 46.0405C13.9339 46.0747 14.0256 46.0914 14.1179 46.0897Z" fill="#F2F2F2"/>
</g>
<defs>
<clipPath id="clip0_346_1047">
<rect width="190" height="131.265" fill="white" transform="translate(0.5 0.345459)"/>
</clipPath>
</defs>
</svg>
