<svg width="197" height="197" viewBox="0 0 197 197" fill="none" xmlns="http://www.w3.org/2000/svg">
<g filter="url(#filter0_d_761_1204)">
<circle cx="98.4148" cy="87.4148" r="54.4148" fill="#166D86"/>
</g>
<g clip-path="url(#clip0_761_1204)">
<path d="M107.937 87.4148H89.9804V93.6725H107.937V87.4148ZM116.261 72.6506L107.105 63.0685C106.684 62.6285 106.114 62.384 105.515 62.384H104.944V74.8994H116.916V74.303C116.916 73.687 116.682 73.0906 116.261 72.6506ZM101.952 75.6816V62.384H83.2466C82.0027 62.384 81.002 63.4302 81.002 64.7307V110.099C81.002 111.399 82.0027 112.446 83.2466 112.446H114.671C115.915 112.446 116.916 111.399 116.916 110.099V78.0283H104.196C102.962 78.0283 101.952 76.9723 101.952 75.6816ZM86.9876 69.4239C86.9876 68.9918 87.3224 68.6417 87.7358 68.6417H95.2178C95.6312 68.6417 95.966 68.9918 95.966 69.4239V70.9884C95.966 71.4205 95.6312 71.7706 95.2178 71.7706H87.7358C87.3224 71.7706 86.9876 71.4205 86.9876 70.9884V69.4239ZM86.9876 75.6816C86.9876 75.2495 87.3224 74.8994 87.7358 74.8994H95.2178C95.6312 74.8994 95.966 75.2495 95.966 75.6816V77.2461C95.966 77.6782 95.6312 78.0283 95.2178 78.0283H87.7358C87.3224 78.0283 86.9876 77.6782 86.9876 77.2461V75.6816ZM110.93 105.406C110.93 105.838 110.595 106.188 110.182 106.188H102.7C102.286 106.188 101.952 105.838 101.952 105.406V103.841C101.952 103.409 102.286 103.059 102.7 103.059H110.182C110.595 103.059 110.93 103.409 110.93 103.841V105.406ZM110.93 85.8504V95.237C110.93 96.1013 110.26 96.8014 109.434 96.8014H88.484C87.6572 96.8014 86.9876 96.1013 86.9876 95.237V85.8504C86.9876 84.9861 87.6572 84.286 88.484 84.286H109.434C110.26 84.286 110.93 84.9861 110.93 85.8504Z" fill="#98FF98"/>
</g>
<defs>
<filter id="filter0_d_761_1204" x="0.46817" y="0.351128" width="195.893" height="195.893" filterUnits="userSpaceOnUse" color-interpolation-filters="sRGB">
<feFlood flood-opacity="0" result="BackgroundImageFix"/>
<feColorMatrix in="SourceAlpha" type="matrix" values="0 0 0 0 0 0 0 0 0 0 0 0 0 0 0 0 0 0 127 0" result="hardAlpha"/>
<feOffset dy="10.883"/>
<feGaussianBlur stdDeviation="21.7659"/>
<feColorMatrix type="matrix" values="0 0 0 0 0.212 0 0 0 0 0.238778 0 0 0 0 0.533333 0 0 0 0.06 0"/>
<feBlend mode="normal" in2="BackgroundImageFix" result="effect1_dropShadow_761_1204"/>
<feBlend mode="normal" in="SourceGraphic" in2="effect1_dropShadow_761_1204" result="shape"/>
</filter>
<clipPath id="clip0_761_1204">
<rect width="35.9138" height="50.0616" fill="white" transform="translate(81.002 62.384)"/>
</clipPath>
</defs>
</svg>
