<svg width="26" height="27" viewBox="0 0 26 27" fill="none" xmlns="http://www.w3.org/2000/svg">
<g clip-path="url(#clip0_346_1206)">
<path d="M25.7931 13.2933C25.7931 6.24689 20.0809 0.534668 13.0345 0.534668C5.9881 0.534668 0.275879 6.24689 0.275879 13.2933C0.275879 19.6614 4.9415 24.9398 11.041 25.8969V16.9813H7.80147V13.2933H11.041V10.4824C11.041 7.28478 12.9458 5.5185 15.8601 5.5185C17.2556 5.5185 18.7161 5.7677 18.7161 5.7677V8.90751H17.1073C15.5224 8.90751 15.028 9.89107 15.028 10.901V13.2933H18.5666L18.0009 16.9813H15.028V25.8969C21.1275 24.9398 25.7931 19.6614 25.7931 13.2933Z" fill="#ACAEB4"/>
</g>
<defs>
<clipPath id="clip0_346_1206">
<rect width="25.5172" height="25.5172" fill="white" transform="translate(0.275879 0.534668)"/>
</clipPath>
</defs>
</svg>
