<svg width="244" height="163" viewBox="0 0 244 163" fill="none" xmlns="http://www.w3.org/2000/svg">
<g clip-path="url(#clip0_608_3912)">
<path d="M43.9189 125.294C43.576 124.716 42.0928 125.335 41.8201 124.81C41.5484 124.288 42.9265 123.492 43.7138 121.673C43.8558 121.345 44.7505 119.279 44.0882 118.641C42.8327 117.432 37.0875 122.42 35.077 120.788C34.6357 120.43 34.3274 119.715 32.992 118.554C32.4608 118.092 32.1395 117.883 31.8286 117.961C31.3875 118.071 31.3525 118.661 30.8795 119.821C30.17 121.561 29.7505 121.456 29.3371 122.844C29.0303 123.875 29.1004 124.474 28.7393 124.59C28.2283 124.756 27.758 123.662 27.1105 123.76C26.4497 123.86 26.0502 125.133 25.9241 126.086C25.6873 127.874 26.3443 129.054 26.7085 130.294C27.1043 131.643 27.3392 133.693 26.4252 136.596L17.3789 162.068C19.3761 156.842 25.1588 142.513 27.5886 137.189C28.2901 135.652 29.0646 134.093 30.6549 133.477C32.186 132.885 34.2888 133.239 36.9696 132.593C37.2827 132.518 38.1515 132.297 38.2608 131.786C38.3513 131.364 37.8402 131.128 37.9187 130.733C38.024 130.203 39.029 130.196 40.264 129.584C41.1348 129.153 41.6773 128.639 42.1439 128.198C42.2845 128.065 44.3753 126.063 43.9189 125.294Z" fill="#F2F2F2"/>
<path d="M8.32691 138.704C7.94424 138.705 7.8201 139.611 7.48392 139.594C7.14894 139.576 7.15562 138.671 6.48971 137.76C6.36963 137.595 5.61287 136.56 5.10858 136.701C4.15273 136.968 4.94472 141.225 3.56296 141.741C3.25973 141.854 2.81957 141.799 1.86405 142.119C1.48392 142.246 1.28882 142.343 1.23721 142.518C1.164 142.766 1.44368 142.954 1.87697 143.521C2.52676 144.371 2.35409 144.546 2.91657 145.149C3.33412 145.597 3.64858 145.736 3.60172 145.946C3.53542 146.245 2.86292 146.16 2.72415 146.506C2.58255 146.859 3.0923 147.422 3.52384 147.759C4.33368 148.391 5.10273 148.409 5.81712 148.588C6.59348 148.783 7.66828 149.26 8.83013 150.546L18.7297 162.332C16.739 159.845 11.3708 152.874 9.45697 150.146C8.9045 149.358 8.36231 148.529 8.51899 147.571C8.66982 146.649 9.45024 145.72 9.90676 144.219C9.96009 144.043 10.1023 143.553 9.88302 143.352C9.70175 143.186 9.43856 143.369 9.26701 143.216C9.0369 143.011 9.32367 142.517 9.37945 141.734C9.41878 141.183 9.32328 140.769 9.24116 140.412C9.2164 140.305 8.83631 138.702 8.32691 138.704Z" fill="#F2F2F2"/>
<path d="M15.962 140.417L15.7314 138.36L15.8368 138.204C16.3242 137.483 16.5727 136.779 16.5756 136.11C16.5761 136.004 16.5712 135.898 16.5662 135.789C16.5463 135.36 16.5215 134.827 16.7997 134.205C16.9558 133.859 17.394 133.056 18.0529 133.156C18.2303 133.18 18.3644 133.262 18.4663 133.357C18.4812 133.333 18.4966 133.31 18.513 133.284C18.7182 132.971 18.8807 132.837 19.0372 132.708C19.1574 132.608 19.2817 132.506 19.4764 132.264C19.5619 132.158 19.6285 132.064 19.6846 131.986C19.8551 131.748 20.0777 131.465 20.4702 131.47C20.8896 131.49 21.1092 131.837 21.2548 132.066C21.5146 132.475 21.6324 132.77 21.7104 132.966C21.7387 133.037 21.771 133.118 21.7874 133.143C21.9226 133.341 23.0212 133.156 23.4351 133.088C24.3647 132.933 25.1692 132.799 25.5006 133.385C25.7381 133.804 25.5617 134.358 24.9605 135.076C24.7732 135.3 24.5739 135.47 24.397 135.603C24.5436 135.69 24.6748 135.824 24.728 136.035C24.8532 136.533 24.4244 137.033 23.454 137.522C23.213 137.644 22.8885 137.807 22.4339 137.885C22.2197 137.922 22.0269 137.931 21.862 137.936C21.8585 138.031 21.8361 138.134 21.778 138.241C21.6076 138.553 21.2528 138.702 20.7181 138.667C20.1298 138.636 19.6454 138.524 19.2181 138.425C18.8449 138.34 18.5234 138.267 18.271 138.284C17.803 138.322 17.4422 138.696 17.0189 139.182L15.962 140.417Z" fill="#F2F2F2"/>
<path d="M17.0318 128.17L15.0995 128.914L14.9219 128.852C14.1004 128.564 13.3558 128.502 12.7081 128.669C12.6052 128.695 12.5036 128.727 12.4001 128.759C11.9898 128.888 11.4799 129.047 10.8076 128.936C10.4326 128.873 9.54469 128.652 9.4737 127.99C9.45274 127.813 9.49753 127.662 9.56398 127.54C9.53713 127.531 9.51014 127.522 9.481 127.513C9.12615 127.394 8.95517 127.271 8.7905 127.152C8.66387 127.061 8.53335 126.967 8.2494 126.84C8.12486 126.785 8.01762 126.744 7.92744 126.71C7.65447 126.605 7.32404 126.462 7.22929 126.081C7.14214 125.671 7.42192 125.37 7.60704 125.171C7.93717 124.816 8.19279 124.628 8.36237 124.503C8.42439 124.457 8.49406 124.406 8.51394 124.383C8.67191 124.202 8.2135 123.187 8.04315 122.805C7.65738 121.945 7.32356 121.201 7.80665 120.732C8.15206 120.397 8.73318 120.426 9.58068 120.826C9.84448 120.95 10.0594 121.1 10.2331 121.237C10.2805 121.073 10.377 120.912 10.5673 120.807C11.0181 120.56 11.6104 120.848 12.3295 121.662C12.5088 121.864 12.7488 122.136 12.94 122.556C13.0299 122.753 13.0875 122.937 13.1341 123.096C13.2273 123.075 13.3329 123.07 13.4505 123.1C13.7965 123.185 14.0307 123.49 14.1317 124.016C14.2512 124.593 14.2654 125.089 14.2786 125.527C14.2906 125.91 14.302 126.239 14.3824 126.479C14.5376 126.922 14.9915 127.175 15.569 127.461L17.0318 128.17Z" fill="#F2F2F2"/>
<path d="M15.962 122.11L15.7314 120.054L15.8368 119.898C16.3242 119.177 16.5727 118.473 16.5756 117.804C16.5761 117.698 16.5712 117.592 16.5662 117.483C16.5463 117.054 16.5215 116.521 16.7997 115.899C16.9558 115.553 17.394 114.75 18.0529 114.85C18.2303 114.874 18.3644 114.956 18.4663 115.051C18.4812 115.027 18.4966 115.003 18.513 114.978C18.7182 114.665 18.8807 114.531 19.0372 114.402C19.1574 114.302 19.2817 114.2 19.4764 113.958C19.5619 113.851 19.6285 113.758 19.6846 113.68C19.8551 113.442 20.0777 113.159 20.4702 113.164C20.8896 113.184 21.1092 113.531 21.2548 113.76C21.5146 114.169 21.6324 114.464 21.7104 114.66C21.7387 114.731 21.771 114.812 21.7874 114.837C21.9226 115.035 23.0212 114.849 23.4351 114.782C24.3647 114.627 25.1692 114.493 25.5006 115.079C25.7381 115.498 25.5617 116.052 24.9605 116.77C24.7732 116.994 24.5739 117.164 24.397 117.297C24.5436 117.384 24.6748 117.518 24.728 117.729C24.8532 118.227 24.4244 118.727 23.454 119.215C23.213 119.338 22.8885 119.5 22.4339 119.579C22.2197 119.616 22.0269 119.625 21.862 119.63C21.8585 119.725 21.8361 119.828 21.778 119.934C21.6076 120.247 21.2528 120.396 20.7181 120.36C20.1298 120.33 19.6454 120.217 19.2181 120.119C18.8449 120.034 18.5234 119.961 18.271 119.978C17.803 120.016 17.4422 120.39 17.0189 120.876L15.962 122.11Z" fill="#F2F2F2"/>
<path d="M18.0674 162.036L17.6361 161.766L17.1333 161.824C17.1253 161.777 17.098 161.67 17.0568 161.502C16.8317 160.582 16.1455 157.784 15.5731 153.376C15.1736 150.299 14.9475 147.136 14.9008 143.973C14.8541 140.805 15.0041 138.406 15.1244 136.478C15.2153 135.024 15.3256 133.64 15.4339 132.291C15.7221 128.688 15.9939 125.285 15.7917 121.517C15.747 120.675 15.653 118.925 14.6295 117.061C14.0357 115.981 13.2178 115.021 12.1982 114.211L12.8323 113.415C13.9577 114.31 14.8625 115.373 15.5219 116.573C16.6568 118.639 16.7591 120.546 16.8083 121.463C17.014 125.298 16.7392 128.734 16.4481 132.372C16.3407 133.716 16.2304 135.094 16.14 136.542C16.0207 138.452 15.8722 140.829 15.9184 143.957C15.9641 147.082 16.1877 150.207 16.5817 153.245C17.1472 157.597 17.8234 160.354 18.0455 161.26C18.1638 161.743 18.1886 161.845 18.0674 162.036Z" fill="#F2F2F2"/>
<path d="M10.3312 115.827C10.2894 115.827 10.2472 115.826 10.2045 115.823C9.33792 115.776 8.53547 115.258 7.81897 114.282C7.48308 113.824 7.31115 113.3 6.9683 112.256C6.91514 112.095 6.65675 111.279 6.49974 110.156C6.39688 109.422 6.4098 109.115 6.55539 108.844C6.71688 108.542 6.97824 108.331 7.27239 108.189C7.25948 108.092 7.2699 107.992 7.31215 107.889C7.48555 107.465 7.94666 107.521 8.1961 107.548C8.3223 107.564 8.47981 107.585 8.64975 107.576C8.91707 107.563 9.06068 107.483 9.2783 107.364C9.4865 107.25 9.74537 107.108 10.1295 107.029C10.8867 106.871 11.5212 107.086 11.7304 107.156C12.831 107.523 13.3736 108.378 14.0016 109.368C14.1269 109.567 14.5567 110.29 14.8404 111.281C15.0451 111.996 15.0163 112.314 14.9547 112.55C14.8294 113.036 14.5338 113.314 13.783 113.928C12.9989 114.57 12.6054 114.892 12.2675 115.088C11.481 115.542 10.9871 115.827 10.3312 115.827Z" fill="#F2F2F2"/>
<path d="M237.722 161.571C237.722 161.76 237.569 161.912 237.381 161.912H0.960938V161.23H237.381C237.569 161.23 237.722 161.383 237.722 161.571Z" fill="#E6E6E6"/>
<path d="M169.47 53.8108C169.47 53.8108 156.744 55.3405 158.89 45.2847C161.037 35.2289 173.208 16.6553 173.208 16.6553L180.115 20.5263L172.186 39.2585L175.599 41.9499L169.47 53.8108Z" fill="#A0616A"/>
<path d="M211.174 41.5684L209.381 56.3082L164.445 56.0883L173.47 40.4131L211.174 41.5684Z" fill="#166D86"/>
<path d="M184.472 17.4385C187.222 13.6002 187.442 9.05141 184.964 7.27834C182.487 5.50527 178.249 7.17939 175.499 11.0176C172.749 14.8558 172.528 19.4046 175.006 21.1777C177.484 22.9508 181.722 21.2767 184.472 17.4385Z" fill="#A0616A"/>
<path d="M206.854 97.7647V161.733H209.612V97.7647H206.854Z" fill="#3F3D56"/>
<path d="M193.611 97.7647V161.733H196.37V97.7647H193.611Z" fill="#3F3D56"/>
<path d="M119.395 57.5086V161.733H122.154V57.5086H119.395Z" fill="#898A8D" fill-opacity="0.1"/>
<path d="M163.814 97.7647V161.733H166.573V97.7647H163.814Z" fill="#3F3D56"/>
<path d="M153.256 97.7647V161.733H156.015V97.7647H153.256Z" fill="#3F3D56"/>
<path d="M204.37 96.3853H151.091L140.871 110.873L193.886 114.032L204.37 96.3853Z" fill="#3F3D56"/>
<path d="M106.813 46.8169L107.055 36.3101L74.8998 38.7819L74.7354 45.9015L106.813 46.8169Z" fill="#A0616A"/>
<path d="M85.0494 37.5258L83.5115 41.2236L81.3027 41.294C81.3027 41.294 83.8888 42.0855 84.6072 46.7819L82.485 47.4176C82.485 47.4176 80.447 49.3179 76.6371 49.1336L66.4221 48.2796L66.3828 44.7207L73.4429 43.9054C73.4429 43.9054 75.016 42.8711 67.2285 38.6187C67.2285 38.6187 64.6488 37.0421 66.9689 29.2568C67.2878 28.1868 68.251 27.4183 69.368 27.3941C69.9843 27.3808 70.5619 27.6021 70.7925 28.3672C71.3794 30.3149 70.7856 32.2565 72.3985 33.4723C74.0114 34.688 85.0494 37.5258 85.0494 37.5258Z" fill="#2F2E41"/>
<path d="M200.384 86.9858C200.384 86.9858 189.29 105.844 164.184 102.446C158.21 101.637 152.954 98.0872 149.959 92.8578C144.171 82.7502 135.382 65.0522 138.232 55.0309L95.7712 46.932L92.4258 36.6264L138.379 30.6607C142.444 30.133 146.425 32.1084 148.462 35.6632L170.847 74.7318L177.52 75.46L200.384 86.9858Z" fill="#2F2E41"/>
<path d="M107.65 51.1182L107.046 40.626L75.1934 45.6752L75.6026 52.7849L107.65 51.1182Z" fill="#A0616A"/>
<path d="M85.2115 43.6077L83.9762 47.4171L81.7803 47.6649C81.7803 47.6649 84.4217 48.2459 85.5159 52.8693L83.4518 53.6736C83.4518 53.6736 81.5733 55.7316 77.7609 55.8542L67.5103 55.8243L67.1846 52.2801L74.1562 50.8997C74.1562 50.8997 75.6409 49.7423 67.5363 46.1298C67.5363 46.1298 64.838 44.7658 66.5239 36.8192C66.7556 35.727 67.6539 34.8835 68.7652 34.7696C69.3786 34.7068 69.9721 34.8809 70.2635 35.625C71.0053 37.5192 70.5697 39.5023 72.2752 40.5844C73.9808 41.6666 85.2115 43.6077 85.2115 43.6077Z" fill="#2F2E41"/>
<path d="M204.152 83.6326C204.152 83.6326 194.611 103.322 169.314 101.953C163.294 101.627 157.769 98.5115 154.363 93.5398C147.78 83.9303 137.595 66.9964 139.628 56.7784L96.6535 52.1197L92.4893 42.1165L137.813 32.4754C141.822 31.6226 145.95 33.2715 148.266 36.651L173.724 73.7932L180.434 73.9825L204.152 83.6326Z" fill="#2F2E41"/>
<path d="M175.07 0.489746L172.863 2.14411L184.451 18.1363L186.658 17.5848L175.07 0.489746Z" fill="#3F3D56"/>
<path d="M205.2 36.0021L217.891 35.4507L223.409 60.2661C223.409 60.2661 211.821 103.831 198.026 102.177C198.026 102.177 189.474 95.8349 189.474 93.6291C189.474 91.4232 177.886 85.9087 177.886 85.9087L175.127 76.534L183.404 63.8506C183.404 63.8506 186.715 53.9244 197.75 48.4099L205.2 36.0021Z" fill="#166D86"/>
<path d="M132.639 55.3018H19.7969V58.059H74.9762V161.732H77.7352V58.059H132.639V55.3018Z" fill="#898A8D" fill-opacity="0.1"/>
<path d="M211.82 33.7961C220.048 33.7961 226.719 27.1299 226.719 18.9068C226.719 10.6837 220.048 4.01758 211.82 4.01758C203.592 4.01758 196.922 10.6837 196.922 18.9068C196.922 27.1299 203.592 33.7961 211.82 33.7961Z" fill="#A0616A"/>
<path d="M159.873 37.9321L149.467 42.068L169.883 69.0893L177.056 63.5747L159.873 37.9321Z" fill="#E6E6E6"/>
<path d="M200.508 89.7698C200.508 89.7698 196.645 101.984 188.369 95.877C180.092 89.7698 168.193 71.0204 168.193 71.0204L174.574 66.333L188.369 81.2874L192.231 79.2922L200.508 89.7698Z" fill="#A0616A"/>
<path d="M206.576 46.7549L219.268 54.4752L200.507 95.2828L188.367 78.7392L206.576 46.7549Z" fill="#166D86"/>
<path d="M173.056 71.2531C175.695 69.7303 175.92 65.1816 173.558 61.0934C171.197 57.0052 167.142 54.9255 164.503 56.4483C161.864 57.9711 161.639 62.5197 164.001 66.608C166.363 70.6962 170.417 72.7759 173.056 71.2531Z" fill="#A0616A"/>
<path d="M213.448 63.987C217.272 51.4596 221.375 47.4951 225.689 49.9772C228.973 51.8665 229.961 56.1669 228.037 59.4287C223.132 67.7431 213.024 86.793 215.13 99.419C215.13 99.419 218.441 117.065 191.955 117.065C165.468 117.065 140.086 110.999 140.086 110.999L153.881 108.794L185.252 111.033C192.419 111.545 198.46 105.416 197.503 98.2984C197.471 98.0635 197.434 97.8259 197.39 97.5858C195.817 88.9413 213.448 63.987 213.448 63.987Z" fill="#3F3D56"/>
<path d="M206.236 12.7348C205.019 16.1405 207.694 19.6768 211.304 19.4362L211.39 19.4305C213.817 22.4625 213.884 26.7515 211.553 29.8578C211.362 33.8614 211.989 37.862 213.397 41.615L217.354 52.1595L223.445 49.3187L226.336 57.0295L243.343 48.2736L233.036 25.0961L229.89 12.5217C227.652 3.5756 218.521 -1.80922 209.603 0.558132L202.761 2.37441C197.356 3.80932 194.245 9.46512 195.929 14.795L206.236 12.7348Z" fill="#2F2E41"/>
</g>
<defs>
<clipPath id="clip0_608_3912">
<rect width="242.382" height="162.333" fill="white" transform="translate(0.960938)"/>
</clipPath>
</defs>
</svg>
