<svg width="26" height="27" viewBox="0 0 26 27" fill="none" xmlns="http://www.w3.org/2000/svg">
<g clip-path="url(#clip0_346_1208)">
<path fill-rule="evenodd" clip-rule="evenodd" d="M13.0689 0.534668C6.02234 0.534668 0.310303 6.25563 0.310303 13.315C0.310303 18.9607 3.96565 23.7515 9.03592 25.4408C9.67385 25.5581 9.90606 25.1639 9.90606 24.8245C9.90606 24.5222 9.89585 23.7171 9.88947 22.6517C6.34003 23.4236 5.5911 20.9383 5.5911 20.9383C5.01185 19.4608 4.17489 19.0678 4.17489 19.0678C3.01641 18.2768 4.26292 18.2921 4.26292 18.2921C5.54261 18.3814 6.21627 19.6088 6.21627 19.6088C7.35434 21.5609 9.20306 20.9969 9.92903 20.6703C10.0464 19.8448 10.3756 19.2822 10.7405 18.9632C7.90806 18.6404 4.92892 17.5432 4.92892 12.6464C4.92892 11.2519 5.42651 10.11 6.24179 9.21691C6.11037 8.89412 5.67275 7.59401 6.36682 5.83587C6.36682 5.83587 7.43854 5.49139 9.87544 7.14491C10.9162 6.86105 11.9901 6.71647 13.0689 6.71494C14.1534 6.72005 15.2443 6.86167 16.2637 7.14491C18.6993 5.49139 19.7685 5.8346 19.7685 5.8346C20.4651 7.59401 20.0262 8.89412 19.8961 9.21691C20.7126 10.11 21.2076 11.2519 21.2076 12.6464C21.2076 17.5559 18.2234 18.6366 15.3821 18.953C15.8401 19.3473 16.2471 20.1268 16.2471 21.3197C16.2471 23.0268 16.2318 24.406 16.2318 24.8245C16.2318 25.1665 16.4614 25.5645 17.1096 25.4395C19.6502 24.5874 21.8588 22.9583 23.4232 20.7827C24.9875 18.607 25.8286 15.9947 25.8275 13.315C25.8275 6.25563 20.1142 0.534668 13.0689 0.534668Z" fill="#ACAEB4"/>
</g>
<defs>
<clipPath id="clip0_346_1208">
<rect width="25.5172" height="25.5172" fill="white" transform="translate(0.310303 0.534668)"/>
</clipPath>
</defs>
</svg>
