<svg width="197" height="200" viewBox="0 0 197 200" fill="none" xmlns="http://www.w3.org/2000/svg">
<g filter="url(#filter0_d_557_848)">
<ellipse cx="98.4148" cy="88.9148" rx="54.4148" ry="55.9148" fill="#166D86"/>
</g>
<path d="M121.135 103.584C121.028 102.294 120.583 101.054 119.844 99.991C119.106 98.9275 118.1 98.0773 116.929 97.5258L112.718 95.5431L114.994 90.8432C115.614 89.5614 115.937 88.1557 115.937 86.7316C115.937 85.3074 115.614 83.9018 114.994 82.6199L108.948 70.1322C104.517 60.982 91.4831 60.982 87.0526 70.1321L81.0059 82.6204C80.3853 83.9022 80.0629 85.3079 80.063 86.7321C80.0631 88.1563 80.3856 89.562 81.0064 90.8437L83.2825 95.5431L79.0712 97.5258C77.8998 98.0773 76.8943 98.9276 76.1559 99.991C75.4175 101.054 74.9722 102.294 74.8647 103.584L74.4838 108.159C74.4565 108.486 74.4975 108.816 74.604 109.126C74.7106 109.437 74.8804 109.722 75.1028 109.964C75.3252 110.206 75.5954 110.398 75.8962 110.53C76.1969 110.662 76.5218 110.731 76.8503 110.731H119.15C119.479 110.731 119.803 110.662 120.104 110.53C120.405 110.399 120.675 110.206 120.897 109.964C121.12 109.722 121.29 109.437 121.396 109.126C121.503 108.816 121.544 108.486 121.516 108.159L121.135 103.584ZM109.391 87.4346C109.39 90.2743 108.329 93.0112 106.415 95.1087C104.5 97.2062 101.872 98.5129 99.0439 98.7725V95.9781C99.0439 95.7012 98.9339 95.4358 98.7382 95.24C98.5424 95.0443 98.2769 94.9343 98.0001 94.9343C97.7233 94.9343 97.4578 95.0443 97.262 95.24C97.0663 95.4358 96.9563 95.7012 96.9563 95.9781V98.7725C94.1286 98.5129 91.4998 97.2062 89.5857 95.1087C87.6715 93.0112 86.6101 90.2743 86.6095 87.4346V81.4566C86.6095 81.0575 86.6881 80.6622 86.8408 80.2934C86.9936 79.9247 87.2175 79.5896 87.4997 79.3073C87.782 79.0251 88.117 78.8012 88.4858 78.6484C88.8546 78.4957 89.2498 78.4171 89.649 78.4171H106.351C106.75 78.4171 107.146 78.4957 107.514 78.6484C107.883 78.8012 108.218 79.0251 108.5 79.3073C108.783 79.5896 109.007 79.9247 109.159 80.2934C109.312 80.6622 109.391 81.0575 109.391 81.4566V87.4346Z" fill="#98FF98"/>
<path d="M104.942 89.1092C104.677 89.0305 104.391 89.0604 104.147 89.1923C103.904 89.3242 103.722 89.5474 103.643 89.8128C103.555 90.108 103.374 90.3668 103.127 90.5509C102.88 90.7349 102.58 90.8343 102.271 90.8343C101.963 90.8343 101.663 90.7349 101.416 90.5509C101.169 90.3668 100.988 90.108 100.9 89.8128C100.86 89.6813 100.796 89.5588 100.709 89.4523C100.623 89.3458 100.517 89.2574 100.396 89.192C100.275 89.1267 100.143 89.0857 100.007 89.0715C99.8702 89.0573 99.7323 89.0701 99.6009 89.1092C99.3353 89.1881 99.1121 89.3693 98.9801 89.6128C98.9148 89.7334 98.8738 89.8657 98.8596 90.0021C98.8454 90.1385 98.8582 90.2764 98.8973 90.4079C99.1142 91.1343 99.5597 91.7713 100.168 92.2243C100.776 92.6772 101.513 92.9218 102.271 92.9218C103.03 92.9218 103.767 92.6772 104.375 92.2243C104.983 91.7713 105.429 91.1343 105.646 90.4079C105.724 90.1424 105.694 89.8565 105.562 89.613C105.431 89.3696 105.207 89.1884 104.942 89.1092Z" fill="#98FF98"/>
<path d="M96.3991 89.109C96.2676 89.0698 96.1297 89.0568 95.9932 89.071C95.8568 89.0851 95.7244 89.126 95.6038 89.1914C95.4832 89.2567 95.3766 89.3452 95.2902 89.4518C95.2038 89.5584 95.1393 89.681 95.1004 89.8126C95.0121 90.1078 94.8309 90.3666 94.5837 90.5507C94.3366 90.7347 94.0366 90.8341 93.7285 90.8341C93.4204 90.8341 93.1204 90.7347 92.8733 90.5507C92.6261 90.3666 92.4449 90.1078 92.3566 89.8126C92.3175 89.6811 92.2529 89.5586 92.1665 89.4521C92.0801 89.3456 91.9735 89.2572 91.853 89.1918C91.7324 89.1265 91.6001 89.0856 91.4637 89.0714C91.3272 89.0571 91.1894 89.0699 91.0579 89.109C90.9264 89.1481 90.8039 89.2127 90.6974 89.2991C90.5909 89.3855 90.5025 89.4921 90.4371 89.6126C90.3718 89.7332 90.3309 89.8655 90.3167 90.0019C90.3024 90.1384 90.3152 90.2762 90.3543 90.4077C90.5712 91.1341 91.0167 91.7711 91.6246 92.2241C92.2326 92.677 92.9704 92.9216 93.7285 92.9216C94.4866 92.9216 95.2244 92.677 95.8324 92.2241C96.4403 91.7711 96.8858 91.1341 97.1027 90.4077C97.1813 90.1422 97.1514 89.8563 97.0195 89.6129C96.8876 89.3694 96.6645 89.1882 96.3991 89.109Z" fill="#98FF98"/>
<path d="M104.645 83.9873H100.848C100.71 83.9869 100.574 84.0135 100.447 84.0658C100.32 84.1181 100.205 84.1949 100.107 84.2918C100.01 84.3888 99.933 84.504 99.8803 84.6309C99.8276 84.7577 99.8005 84.8937 99.8005 85.0311C99.8005 85.1684 99.8276 85.3044 99.8803 85.4313C99.933 85.5581 100.01 85.6733 100.107 85.7703C100.205 85.8673 100.32 85.9441 100.447 85.9963C100.574 86.0486 100.71 86.0753 100.848 86.0748H104.645C104.782 86.0753 104.918 86.0486 105.045 85.9963C105.172 85.9441 105.287 85.8673 105.385 85.7703C105.482 85.6733 105.559 85.5581 105.612 85.4313C105.664 85.3044 105.692 85.1684 105.692 85.0311C105.692 84.8937 105.664 84.7577 105.612 84.6309C105.559 84.504 105.482 84.3888 105.385 84.2918C105.287 84.1949 105.172 84.1181 105.045 84.0658C104.918 84.0135 104.782 83.9869 104.645 83.9873Z" fill="#98FF98"/>
<path d="M91.3554 86.0748H95.1523C95.2897 86.0753 95.4257 86.0486 95.5528 85.9963C95.6798 85.9441 95.7952 85.8673 95.8925 85.7703C95.9898 85.6733 96.067 85.5581 96.1196 85.4313C96.1723 85.3044 96.1994 85.1684 96.1994 85.0311C96.1994 84.8937 96.1723 84.7577 96.1196 84.6309C96.067 84.504 95.9898 84.3888 95.8925 84.2918C95.7952 84.1949 95.6798 84.1181 95.5528 84.0658C95.4257 84.0135 95.2897 83.9869 95.1523 83.9873H91.3554C91.2181 83.9869 91.082 84.0135 90.955 84.0658C90.828 84.1181 90.7125 84.1949 90.6152 84.2918C90.518 84.3888 90.4408 84.504 90.3881 84.6309C90.3355 84.7577 90.3083 84.8937 90.3083 85.0311C90.3083 85.1684 90.3355 85.3044 90.3881 85.4313C90.4408 85.5581 90.518 85.6733 90.6152 85.7703C90.7125 85.8673 90.828 85.9441 90.955 85.9963C91.082 86.0486 91.2181 86.0753 91.3554 86.0748Z" fill="#98FF98"/>
<defs>
<filter id="filter0_d_557_848" x="0.46817" y="0.351128" width="195.893" height="198.893" filterUnits="userSpaceOnUse" color-interpolation-filters="sRGB">
<feFlood flood-opacity="0" result="BackgroundImageFix"/>
<feColorMatrix in="SourceAlpha" type="matrix" values="0 0 0 0 0 0 0 0 0 0 0 0 0 0 0 0 0 0 127 0" result="hardAlpha"/>
<feOffset dy="10.883"/>
<feGaussianBlur stdDeviation="21.7659"/>
<feColorMatrix type="matrix" values="0 0 0 0 0.212 0 0 0 0 0.238778 0 0 0 0 0.533333 0 0 0 0.06 0"/>
<feBlend mode="normal" in2="BackgroundImageFix" result="effect1_dropShadow_557_848"/>
<feBlend mode="normal" in="SourceGraphic" in2="effect1_dropShadow_557_848" result="shape"/>
</filter>
</defs>
</svg>
