<svg width="49" height="49" viewBox="0 0 49 49" fill="none" xmlns="http://www.w3.org/2000/svg">
<circle cx="24.5" cy="24.5" r="24.5" fill="#166D86"/>
<path d="M13.445 29.5207C12.5875 30.0158 12.2938 31.1122 12.7888 31.9696C13.2838 32.827 14.3802 33.1208 15.2377 32.6258L14.3413 31.0732L13.445 29.5207ZM36.773 19.586C37.0293 18.6297 36.4617 17.6467 35.5054 17.3904L19.921 13.2146C18.9647 12.9584 17.9817 13.5259 17.7254 14.4822C17.4692 15.4386 18.0367 16.4215 18.9931 16.6778L32.8458 20.3896L29.134 34.2424C28.8778 35.1988 29.4453 36.1818 30.4016 36.438C31.358 36.6943 32.341 36.1267 32.5972 35.1704L36.773 19.586ZM14.3413 31.0732L15.2377 32.6258L35.9378 20.6745L35.0414 19.122L34.1451 17.5695L13.445 29.5207L14.3413 31.0732Z" fill="#98FF98"/>
</svg>
