<svg width="43" height="43" viewBox="0 0 43 43" fill="none" xmlns="http://www.w3.org/2000/svg">
<circle cx="21.2692" cy="21.49" r="21.027" fill="#155B6F"/>
<path fill-rule="evenodd" clip-rule="evenodd" d="M17.1181 10.0631C18.2281 10.0115 18.582 10 21.4097 10C24.2374 10 24.5913 10.0124 25.7004 10.0631C26.8095 10.1137 27.5666 10.2925 28.229 10.5515C28.9227 10.8162 29.552 11.2301 30.0725 11.7653C30.6024 12.29 31.0112 12.9247 31.2724 13.6262C31.5298 14.2952 31.7058 15.0599 31.7569 16.1781C31.808 17.3011 31.8194 17.6586 31.8194 20.5135C31.8194 23.3693 31.8071 23.7268 31.7569 24.8479C31.7068 25.9662 31.5298 26.7308 31.2724 27.3998C31.0112 28.1015 30.6017 28.7371 30.0725 29.2626C29.552 29.7979 28.9227 30.2108 28.229 30.4746C27.5666 30.7345 26.8095 30.9123 25.7023 30.9639C24.5913 31.0155 24.2374 31.027 21.4097 31.027C18.582 31.027 18.2281 31.0146 17.1181 30.9639C16.0109 30.9133 15.2538 30.7345 14.5913 30.4746C13.8967 30.2107 13.2673 29.7972 12.7469 29.2626C12.2173 28.7376 11.8075 28.1022 11.546 27.4008C11.2896 26.7317 11.1136 25.9671 11.0625 24.8489C11.0114 23.7258 11 23.3684 11 20.5135C11 17.6576 11.0123 17.3002 11.0625 16.18C11.1126 15.0599 11.2896 14.2952 11.546 13.6262C11.8079 12.9247 12.218 12.2894 12.7479 11.7644C13.2675 11.2296 13.8962 10.8157 14.5904 10.5515C15.2528 10.2925 16.0109 10.1147 17.1181 10.0631ZM25.6162 11.9555C24.5184 11.9049 24.1891 11.8943 21.4097 11.8943C18.6303 11.8943 18.301 11.9049 17.2032 11.9555C16.1878 12.0023 15.637 12.1734 15.2699 12.3177C14.7844 12.5089 14.4371 12.7354 14.0728 13.1034C13.7274 13.4427 13.4616 13.8559 13.2949 14.3124C13.152 14.6833 12.9826 15.2395 12.9362 16.2651C12.886 17.3738 12.8756 17.7064 12.8756 20.5135C12.8756 23.3206 12.886 23.6532 12.9362 24.7619C12.9826 25.7874 13.152 26.3437 13.2949 26.7145C13.4614 27.1704 13.7273 27.5843 14.0728 27.9236C14.4087 28.2725 14.8185 28.541 15.2699 28.7092C15.637 28.8536 16.1878 29.0246 17.2032 29.0715C18.301 29.1221 18.6294 29.1326 21.4097 29.1326C24.19 29.1326 24.5184 29.1221 25.6162 29.0715C26.6316 29.0246 27.1824 28.8536 27.5495 28.7092C28.035 28.5181 28.3823 28.2916 28.7466 27.9236C29.0921 27.5843 29.358 27.1704 29.5245 26.7145C29.6674 26.3437 29.8368 25.7874 29.8832 24.7619C29.9333 23.6532 29.9438 23.3206 29.9438 20.5135C29.9438 17.7064 29.9333 17.3738 29.8832 16.2651C29.8368 15.2395 29.6674 14.6833 29.5245 14.3124C29.3353 13.8221 29.111 13.4714 28.7466 13.1034C28.4106 12.7546 28.0016 12.4862 27.5495 12.3177C27.1824 12.1734 26.6316 12.0023 25.6162 11.9555ZM20.0801 23.7545C20.8226 24.0667 21.6495 24.1088 22.4194 23.8737C23.1893 23.6386 23.8545 23.1408 24.3013 22.4654C24.7482 21.79 24.949 20.9788 24.8695 20.1705C24.79 19.3621 24.4351 18.6067 23.8654 18.0333C23.5023 17.6667 23.0631 17.386 22.5797 17.2114C22.0962 17.0369 21.5804 16.9727 21.0695 17.0236C20.5585 17.0745 20.0651 17.2392 19.6247 17.5058C19.1843 17.7724 18.808 18.1343 18.5227 18.5655C18.2374 18.9966 18.0504 19.4863 17.975 19.9993C17.8996 20.5122 17.9377 21.0356 18.0867 21.5319C18.2356 22.0281 18.4917 22.4849 18.8363 22.8692C19.181 23.2535 19.6058 23.5559 20.0801 23.7545ZM17.6262 16.6923C18.1231 16.1905 18.7129 15.7925 19.3621 15.5209C20.0113 15.2493 20.707 15.1095 21.4097 15.1095C22.1124 15.1095 22.8081 15.2493 23.4573 15.5209C24.1065 15.7925 24.6963 16.1905 25.1932 16.6923C25.69 17.1941 26.0841 17.7898 26.353 18.4455C26.6219 19.1011 26.7603 19.8038 26.7603 20.5135C26.7603 21.2232 26.6219 21.9259 26.353 22.5815C26.0841 23.2371 25.69 23.8329 25.1932 24.3347C24.1897 25.3481 22.8288 25.9175 21.4097 25.9175C19.9906 25.9175 18.6297 25.3481 17.6262 24.3347C16.6228 23.3212 16.0591 21.9467 16.0591 20.5135C16.0591 19.0803 16.6228 17.7058 17.6262 16.6923ZM27.947 15.9143C28.0701 15.797 28.1687 15.656 28.2369 15.4995C28.305 15.343 28.3414 15.1743 28.3439 15.0034C28.3464 14.8325 28.3148 14.6628 28.2512 14.5044C28.1876 14.346 28.0931 14.2021 27.9734 14.0812C27.8538 13.9603 27.7113 13.8649 27.5544 13.8006C27.3976 13.7364 27.2296 13.7045 27.0603 13.707C26.8911 13.7095 26.7241 13.7463 26.5691 13.8152C26.4142 13.884 26.2746 13.9836 26.1584 14.1079C25.9325 14.3497 25.8089 14.671 25.8137 15.0034C25.8185 15.3358 25.9513 15.6533 26.1841 15.8884C26.4169 16.1234 26.7312 16.2577 27.0603 16.2625C27.3895 16.2674 27.7075 16.1425 27.947 15.9143Z" fill="white"/>
</svg>
