<svg width="433" height="477" viewBox="0 0 433 477" fill="none" xmlns="http://www.w3.org/2000/svg">
<path opacity="0.1" d="M317.323 362.891C248.283 394.284 159.368 392.059 159.368 392.059H63.1455V373.686C102.356 362.741 156.572 355.975 216.5 355.975C250.23 355.857 283.925 358.169 317.323 362.891Z" fill="black"/>
<path opacity="0.1" d="M433 416.114C433 449.341 336.056 476.254 216.5 476.254C96.9438 476.254 0 449.341 0 416.114C0 399.547 24.116 384.54 63.1483 373.686V392.058H159.368C159.368 392.058 248.283 394.284 317.323 362.891C386.091 372.934 433 392.991 433 416.114Z" fill="black"/>
<path d="M244.15 41.6567H152.032V133.939H244.15V41.6567Z" fill="#090814"/>
<path d="M186.29 106.918C186.29 106.918 193.915 133.604 180.57 135.511C172.289 136.801 164.442 140.071 157.695 145.042L182.476 177.447H228.226L256.819 148.854C256.819 148.854 218.695 120.261 226.32 103.105C233.944 85.9489 186.29 106.918 186.29 106.918Z" fill="#ED9DA0"/>
<path d="M197.727 438.597L241.571 453.845L272.067 455.752L270.161 429.065L207.258 410.461L197.727 438.597Z" fill="#ED9DA0"/>
<path d="M253.962 432.875C253.962 432.875 253.962 459.562 257.774 459.562C261.587 459.562 313.054 453.841 328.304 459.562C343.554 465.282 366.427 444.316 354.99 432.875C343.553 421.434 324.897 404.282 313.257 408.094C301.616 411.906 253.961 421.438 253.961 421.438L253.962 432.875Z" fill="#2F2E41"/>
<path d="M113.856 408.098C113.856 408.098 90.9815 453.847 106.231 457.659C121.481 461.471 138.637 455.752 140.543 453.846C142.45 451.94 169.136 444.315 172.949 448.126C176.762 451.936 176.761 432.876 176.761 432.876L113.856 408.098Z" fill="#2F2E41"/>
<path d="M132.917 345.192C132.917 345.192 96.6993 394.754 123.387 408.097C150.074 421.44 277.789 421.441 287.32 408.097C296.851 394.753 300.663 352.817 287.32 349.004C273.976 345.192 132.917 345.192 132.917 345.192Z" fill="#2F2E41"/>
<path opacity="0.2" d="M132.917 345.192C132.917 345.192 96.6993 394.754 123.387 408.097C150.074 421.44 277.789 421.441 287.32 408.097C296.851 394.753 300.663 352.817 287.32 349.004C273.976 345.192 132.917 345.192 132.917 345.192Z" fill="black"/>
<path d="M201.54 120.257C225.754 120.257 245.383 100.628 245.383 76.4146C245.383 52.2009 225.754 32.5718 201.54 32.5718C177.326 32.5718 157.697 52.2009 157.697 76.4146C157.697 100.628 177.326 120.257 201.54 120.257Z" fill="#ED9DA0"/>
<path d="M132.918 145.042L171.042 137.417C171.042 137.417 180.573 167.916 211.072 162.198C241.571 156.48 249.196 137.417 249.196 137.417C249.196 137.417 272.07 146.948 273.976 146.948C275.883 146.948 300.664 156.479 300.664 162.198C300.664 167.917 272.071 225.103 272.071 225.103L275.883 328.038L134.824 324.225L144.355 223.197L132.918 145.042Z" fill="#166D86"/>
<path d="M111.949 194.605C111.949 194.605 100.512 295.634 108.137 303.259C115.761 310.883 146.26 331.852 146.26 331.852V308.977L131.011 280.384L146.261 213.67L111.949 194.605Z" fill="#ED9DA0"/>
<path d="M309.241 191.742C309.241 191.742 302.569 295.631 302.569 299.443C302.569 303.255 285.413 316.599 279.697 316.599C273.981 316.599 270.166 307.068 270.166 307.068L283.51 291.818L273.976 213.664L309.241 191.742Z" fill="#ED9DA0"/>
<path d="M291.132 337.568C291.132 337.568 376.911 289.913 378.816 337.568C380.722 385.224 334.974 404.283 334.974 404.283C334.974 404.283 216.789 439.72 212.02 426.768C207.251 413.816 197.723 392.845 205.349 390.94C212.974 389.034 222.504 385.219 226.317 389.034C230.13 392.848 277.788 360.443 277.788 360.443L291.132 337.568Z" fill="#2F2E41"/>
<path opacity="0.2" d="M331.162 331.849C331.162 331.849 314.007 339.473 308.288 345.19C302.57 350.907 277.786 360.442 277.786 360.442" stroke="black" stroke-width="1.48584" stroke-miterlimit="10"/>
<path d="M144.355 148.854L132.914 145.041C132.914 145.041 90.9772 188.884 104.321 200.321C117.664 211.758 125.289 215.571 129.102 219.383C132.914 223.195 151.976 225.103 151.976 225.103L144.355 148.854Z" fill="#166D86"/>
<path d="M283.509 158.386L300.664 162.198C300.664 162.198 314.008 190.791 317.82 194.604C321.632 198.417 312.099 196.51 306.382 204.135C300.666 211.759 294.941 225.103 283.508 225.103C272.074 225.103 256.821 206.041 256.821 206.041L283.509 158.386Z" fill="#166D86"/>
<path d="M136.73 354.726C136.73 354.726 64.2951 303.258 39.5135 341.382C14.7318 379.506 146.261 430.974 165.323 438.598C184.385 446.223 201.541 453.848 201.541 453.848C201.541 453.848 218.697 411.912 218.697 404.287C218.697 396.663 205.353 396.663 201.541 396.663C197.729 396.663 180.573 392.85 176.76 387.132C172.947 381.414 136.73 354.726 136.73 354.726Z" fill="#2F2E41"/>
<path opacity="0.2" d="M96.6992 341.38C96.6992 341.38 115.761 356.63 132.917 360.442C150.074 364.254 155.792 373.786 155.792 373.786" stroke="black" stroke-width="1.48584" stroke-miterlimit="10"/>
<path d="M123.58 269.709L125.103 350.419C125.154 353.085 126.256 355.623 128.169 357.479C130.083 359.336 132.652 360.361 135.319 360.332L285.514 358.644C288.073 358.616 290.526 357.616 292.378 355.849C294.229 354.081 295.34 351.676 295.487 349.121L300.047 270.099C300.126 268.725 299.924 267.35 299.453 266.057C298.981 264.764 298.251 263.582 297.307 262.581C296.363 261.581 295.224 260.784 293.96 260.239C292.697 259.694 291.336 259.413 289.96 259.413H133.683C132.34 259.413 131.01 259.68 129.772 260.2C128.533 260.72 127.411 261.481 126.47 262.439C125.529 263.398 124.789 264.534 124.293 265.782C123.796 267.03 123.554 268.364 123.579 269.707L123.58 269.709Z" fill="#090814"/>
<path d="M120.112 136.885C124.203 127.857 129.7 119.387 132.32 109.828C135.46 98.3723 134.237 86.2508 133.863 74.3782C133.266 63.8779 134.161 53.346 136.52 43.0967C138.917 32.7988 144.295 23.4355 151.983 16.177C171.959 -1.65314 191.564 -2.93689 215.956 4.48712C225.572 7.41423 235.816 12.9869 238.2 22.7518C238.56 24.2265 238.72 25.7451 239.124 27.2094C241.121 34.4796 248.559 39.0805 251.242 46.1264C254.713 55.2398 249.361 65.1504 248.662 74.8774C247.844 86.2337 253.427 96.9615 258.929 106.929C262.198 112.855 265.602 119.167 265.277 125.927C265.006 129.626 263.882 133.211 261.993 136.403C258.487 142.186 253.57 146.985 247.702 150.348C241.835 153.712 235.209 155.53 228.447 155.632C224.051 155.984 219.656 154.947 215.882 152.666C209.929 148.567 208.185 140.313 209.425 133.192C210.665 126.071 214.279 119.632 217.112 112.985C217.981 110.944 218.765 108.869 219.489 106.773C228.271 101.871 235.039 94.0234 238.596 84.616C242.154 75.2086 242.273 64.8467 238.933 55.36C235.592 45.8733 229.007 37.8721 220.34 32.7694C211.673 27.6667 201.481 25.7907 191.565 27.4727C181.649 29.1546 172.646 34.2863 166.147 41.9616C159.647 49.6369 156.069 59.3621 156.043 69.4197C156.018 79.4773 159.547 89.2204 166.008 96.9285C172.469 104.637 181.445 109.814 191.353 111.546C193.488 122.304 192.518 133.448 188.555 143.675C184.951 151.996 180.425 159.886 175.063 167.199C172.87 170.948 169.948 174.218 166.468 176.817C164.175 178.175 161.713 179.227 159.146 179.944C148.379 183.407 153.996 186.193 142.794 184.636C131.593 183.079 120.498 176.322 116.681 165.675C113.335 156.337 116.022 145.911 120.112 136.885Z" fill="#090814"/>
<path d="M196.365 69.5299C222.062 69.5299 242.894 57.7254 242.894 43.1637C242.894 28.602 222.062 16.7974 196.365 16.7974C170.668 16.7974 149.837 28.602 149.837 43.1637C149.837 57.7254 170.668 69.5299 196.365 69.5299Z" fill="#090814"/>
</svg>
