<svg width="20" height="21" viewBox="0 0 20 21" fill="none" xmlns="http://www.w3.org/2000/svg">
<circle cx="9.99296" cy="10.4267" r="9.99686" fill="#155B6F"/>
<g clip-path="url(#clip0_1172_1290)">
<path d="M14.0313 5.65955H5.92856C5.54042 5.65955 5.22656 5.96598 5.22656 6.34483V14.481C5.22656 14.8599 5.54042 15.1681 5.92856 15.1681H14.0313C14.4194 15.1681 14.7352 14.8599 14.7352 14.4829V6.34483C14.7352 5.96598 14.4194 5.65955 14.0313 5.65955ZM8.04757 13.7623H6.63614V9.22341H8.04757V13.7623ZM7.34185 8.60498C6.88871 8.60498 6.52285 8.23913 6.52285 7.78784C6.52285 7.33655 6.88871 6.97069 7.34185 6.97069C7.79314 6.97069 8.159 7.33655 8.159 7.78784C8.159 8.23727 7.79314 8.60498 7.34185 8.60498ZM13.3293 13.7623H11.9197V11.556C11.9197 11.0304 11.9104 10.3526 11.1862 10.3526C10.4526 10.3526 10.3411 10.9264 10.3411 11.5188V13.7623H8.93343V9.22341H10.2854V9.8437H10.304C10.4916 9.48713 10.9522 9.11013 11.6374 9.11013C13.0656 9.11013 13.3293 10.0498 13.3293 11.2718V13.7623Z" fill="white"/>
</g>
<defs>
<clipPath id="clip0_1172_1290">
<rect width="9.5086" height="9.5086" fill="white" transform="translate(5.22656 5.65955)"/>
</clipPath>
</defs>
</svg>
