<svg width="26" height="27" viewBox="0 0 26 27" fill="none" xmlns="http://www.w3.org/2000/svg">
<g clip-path="url(#clip0_346_1210)">
<path d="M23.9733 0.534668H2.22886C1.18724 0.534668 0.344971 1.357 0.344971 2.3737V24.2079C0.344971 25.2246 1.18724 26.0519 2.22886 26.0519H23.9733C25.015 26.0519 25.8622 25.2246 25.8622 24.2129V2.3737C25.8622 1.357 25.015 0.534668 23.9733 0.534668ZM7.91542 22.2791H4.1277V10.0986H7.91542V22.2791ZM6.02156 8.43903C4.8055 8.43903 3.82369 7.45722 3.82369 6.24614C3.82369 5.03507 4.8055 4.05326 6.02156 4.05326C7.23263 4.05326 8.21445 5.03507 8.21445 6.24614C8.21445 7.45223 7.23263 8.43903 6.02156 8.43903ZM22.0894 22.2791H18.3067V16.3583C18.3067 14.9479 18.2818 13.1288 16.3381 13.1288C14.3695 13.1288 14.0705 14.6688 14.0705 16.2587V22.2791H10.2927V10.0986H13.9209V11.7632H13.9708C14.4741 10.8064 15.7101 9.79463 17.5492 9.79463C21.3817 9.79463 22.0894 12.3165 22.0894 15.5958V22.2791Z" fill="#ACAEB4"/>
</g>
<defs>
<clipPath id="clip0_346_1210">
<rect width="25.5172" height="25.5172" fill="white" transform="translate(0.344971 0.534668)"/>
</clipPath>
</defs>
</svg>
