<svg width="35" height="34" viewBox="0 0 35 34" fill="none" xmlns="http://www.w3.org/2000/svg">
<path d="M17.769 2.39343C14.7029 2.39705 11.7634 3.61665 9.59537 5.78469C7.42733 7.95274 6.20773 10.8922 6.20411 13.9583C6.20044 16.4639 7.01889 18.9015 8.5339 20.8972C8.5339 20.8972 8.84931 21.3125 8.90082 21.3724L17.769 31.8312L26.6413 21.3671C26.6876 21.3114 27.004 20.8972 27.004 20.8972L27.0051 20.894C28.5193 18.8992 29.3374 16.4627 29.3338 13.9583C29.3302 10.8922 28.1106 7.95274 25.9425 5.78469C23.7745 3.61665 20.835 2.39705 17.769 2.39343ZM17.769 18.1637C16.9372 18.1637 16.1241 17.917 15.4326 17.4549C14.741 16.9928 14.202 16.336 13.8837 15.5676C13.5654 14.7992 13.4821 13.9536 13.6444 13.1378C13.8066 12.3221 14.2072 11.5727 14.7953 10.9846C15.3834 10.3965 16.1328 9.99595 16.9485 9.83368C17.7643 9.67142 18.6099 9.7547 19.3783 10.073C20.1467 10.3913 20.8035 10.9303 21.2656 11.6219C21.7277 12.3135 21.9744 13.1265 21.9744 13.9583C21.973 15.0732 21.5294 16.142 20.7411 16.9304C19.9527 17.7188 18.8839 18.1623 17.769 18.1637Z" fill="white"/>
</svg>
