<svg width="197" height="197" viewBox="0 0 197 197" fill="none" xmlns="http://www.w3.org/2000/svg">
<g filter="url(#filter0_d_557_850)">
<circle cx="98.8664" cy="87.4148" r="54.4148" fill="#166D86"/>
</g>
<path fill-rule="evenodd" clip-rule="evenodd" d="M94.0226 64.7193C94.2659 64.8131 94.521 64.8893 94.7819 64.948C95.1572 65.03 95.5531 65.077 95.9606 65.077C97.1276 65.077 98.2094 64.7076 99.092 64.0828C99.3971 63.8663 99.6754 63.6226 99.9276 63.3529L100.869 61.7843C100.423 61.6202 99.948 61.5117 99.4556 61.4707H99.4527H99.4352L99.4264 61.4678H99.4177H99.3972L99.3794 61.4649H99.3648H99.359L99.3414 61.4621H99.3355H99.321H99.3063H99.3034L99.2476 61.4589H99.2447L99.2272 61.456H99.2125H99.2097H99.1892H99.1833H99.1715H99.1538H99.1509L99.1334 61.4532H99.1216H99.1129H99.0954H99.0926H99.075H99.0604H99.0575H99.037H99.031H99.0192H98.9987H98.946H98.9285H98.8904L98.8581 61.456H98.8347H98.7905H98.7818L98.7262 61.4589H98.7204L98.6732 61.4621L98.6498 61.4649H98.6199L98.5819 61.4678L98.5644 61.4707L98.5144 61.4736H98.5115L98.4442 61.4824L98.4061 61.4851L98.3768 61.4881L98.3534 61.4909L98.3093 61.4968H98.3005L98.2449 61.5055H98.242L98.1952 61.5114L98.1745 61.5143L98.1422 61.5201L98.107 61.5261L98.0396 61.5379H98.0367L97.9841 61.5466L97.9723 61.5494L97.934 61.5583L97.9048 61.561L97.8404 61.5757L97.8315 61.5786L97.7788 61.5905H97.773L97.7084 61.6052L97.6761 61.6139L97.5792 61.6403H97.5764L97.3859 61.696L97.3771 61.6988C96.5327 61.9629 95.776 62.4291 95.1633 63.0418C94.6852 63.5203 94.2954 64.0888 94.0226 64.7193ZM100.353 64.1033C100.109 64.3409 99.8484 64.5608 99.5728 64.7574C98.5524 65.4816 97.3064 65.9065 95.9606 65.9065C95.5002 65.9065 95.0457 65.854 94.6031 65.7571C94.3128 65.6927 94.0255 65.6048 93.7499 65.5021C93.6357 65.9418 93.5738 66.4023 93.5738 66.8773C93.5738 68.3754 94.1807 69.7329 95.1629 70.7122C96.1422 71.6945 97.4999 72.3014 98.998 72.3014C100.496 72.3014 101.854 71.6916 102.833 70.7122C103.815 69.7329 104.422 68.3755 104.422 66.8773C104.422 66.5047 104.387 66.1411 104.314 65.7894L104.296 65.7833L100.353 64.1033ZM101.687 62.1655C101.485 62.6258 101.229 63.054 100.93 63.4497L103.991 64.7516L103.983 64.7282L103.971 64.7045L103.962 64.6813L103.95 64.6608V64.6578L103.941 64.6373L103.93 64.614L103.921 64.5906L103.909 64.5699L103.877 64.5026L103.868 64.4821L103.865 64.4792L103.857 64.4585L103.845 64.435L103.839 64.4234L103.833 64.4117L103.821 64.3912L103.798 64.3472L103.786 64.3236L103.763 64.2826L103.751 64.2593L103.745 64.2505L103.739 64.2388L103.715 64.1946L103.683 64.1361L103.677 64.1303L103.666 64.1098L103.654 64.089L103.648 64.0801L103.639 64.0655L103.628 64.045L103.616 64.0245H103.613L103.601 64.004L103.587 63.9832L103.581 63.9686L103.575 63.9598L103.56 63.9393L103.548 63.9188L103.546 63.9159L103.534 63.8984L103.522 63.8779L103.51 63.8602L103.507 63.8573L103.493 63.8368L103.478 63.8163L103.472 63.8075L103.463 63.7958L103.452 63.7753L103.437 63.7577V63.7549L103.422 63.7371L103.408 63.7165L103.399 63.702L103.393 63.696L103.378 63.6755L103.364 63.655L103.361 63.6492L103.349 63.6375L103.334 63.6168L103.323 63.5991L103.32 63.5964L103.305 63.5759L103.29 63.5583L103.282 63.5466L103.276 63.5378L103.261 63.5204L103.244 63.4997L103.241 63.4967L103.229 63.482L103.214 63.4615L103.202 63.447L103.2 63.4441L103.182 63.4236L103.167 63.406L103.159 63.3973L103.147 63.3796L103.126 63.3562L103.117 63.3475L103.106 63.3329L103.085 63.3094L103.076 63.2977L103.065 63.286L103.044 63.2623L103.032 63.2507L103.024 63.2389L102.959 63.1715L102.944 63.1541L102.939 63.1482L102.918 63.1246L102.856 63.0631L102.833 63.0426C102.493 62.7021 102.109 62.4058 101.687 62.1655ZM98.9601 78.4673H102.367L102.267 75.5176L101.912 75.8374L101.907 75.8401L101.904 75.8431L101.898 75.8489L101.895 75.8519L101.889 75.8547L101.886 75.8606L101.88 75.8635L99.0364 78.4086C99.0127 78.4321 98.9864 78.4497 98.9601 78.4673ZM95.5737 75.6086L95.4241 78.4673H98.5586C98.532 78.4498 98.5058 78.4321 98.4822 78.4088L95.5737 75.6086ZM103.059 75.3682L103.176 78.8543C103.182 79.0712 103.009 79.2561 102.792 79.262L95.0047 79.2648C94.7848 79.2648 94.6061 79.0859 94.6061 78.8658L94.7906 75.3418L88.3373 78.1535V83.777H109.45V78.1535L103.059 75.3682ZM101.232 72.7205C100.54 72.9872 99.7869 73.1311 98.9981 73.1311C98.1449 73.1311 97.3327 72.9609 96.591 72.6503V75.4823L98.7693 77.5789L101.232 75.3769V72.7205ZM109.858 84.5747H109.849H87.9387H87.9271H75.9235V86.2136H121.865V84.5747H109.858ZM84.8955 89.9108C84.2532 89.2687 83.3649 88.8701 82.3828 88.8701C81.4065 88.8701 80.5209 89.2658 79.8789 89.9021C79.2076 90.5735 78.8321 91.4707 78.8321 92.4235C78.8321 93.4028 79.231 94.2913 79.873 94.9332C80.5151 95.5782 81.4035 95.9742 82.3828 95.9742C83.3534 95.9742 84.2327 95.587 84.8722 94.9566C85.5581 94.212 85.9366 93.4554 85.9366 92.4234C85.9363 91.4412 85.5375 90.5529 84.8955 89.9108ZM81.9458 100.349L79.7322 98.2227L75.2669 100.167V103.776H89.355V100.167L84.8809 98.2169L84.4527 98.6012L84.4468 98.6041L84.444 98.6099L84.4381 98.6129L84.4353 98.6156L84.4294 98.6216L84.4265 98.6245L84.4206 98.6274L82.4972 100.348C82.3446 100.495 82.0985 100.498 81.9458 100.349ZM101.992 89.9108C101.35 89.2687 100.461 88.8701 99.4819 88.8701C98.5057 88.8701 97.6202 89.2658 96.9779 89.9021C96.3037 90.5735 95.9284 91.4707 95.9284 92.4235C95.9284 93.4028 96.3271 94.2913 96.9691 94.9332C97.6114 95.5782 98.4996 95.9742 99.4818 95.9742C100.449 95.9742 101.329 95.587 101.971 94.9566C102.654 94.212 103.033 93.4554 103.033 92.4234C103.033 91.4412 102.634 90.5529 101.992 89.9108ZM99.0422 100.349L96.8284 98.2227L92.366 100.167V103.776H106.454V100.167L101.977 98.2169L101.549 98.6012L101.546 98.6041L101.54 98.6099L101.537 98.6129L101.531 98.6156L101.529 98.6216L101.523 98.6245L101.52 98.6274L99.5934 100.348C99.4409 100.495 99.1975 100.498 99.0422 100.349ZM100.872 98.1409V96.5811C100.435 96.7246 99.9657 96.8039 99.4819 96.8039C98.9514 96.8039 98.4441 96.71 97.972 96.5369V98.214L99.3295 99.5188L100.872 98.1409ZM119.065 89.9108C118.423 89.2687 117.534 88.8701 116.555 88.8701C115.576 88.8701 114.693 89.2658 114.048 89.9021C113.377 90.5735 113.001 91.4707 113.001 92.4235C113.001 93.4028 113.4 94.2913 114.042 94.9332C114.684 95.5782 115.573 95.9742 116.555 95.9742C117.522 95.9742 118.402 95.587 119.044 94.9566C119.727 94.212 120.106 93.4554 120.106 92.4234C120.105 91.4412 119.707 90.5529 119.065 89.9108ZM116.115 100.349L113.901 98.2227L109.439 100.167V103.776H123.524V100.167L119.05 98.2169L118.622 98.6012L118.616 98.6041L118.613 98.6099L118.61 98.6129L118.604 98.6156L118.601 98.6216L118.596 98.6245L118.593 98.6274L116.666 100.348C116.514 100.495 116.27 100.498 116.115 100.349ZM117.945 98.1409V96.5811C117.505 96.7246 117.039 96.8039 116.555 96.8039C116.024 96.8039 115.517 96.71 115.045 96.5369V98.214L116.399 99.5188L117.945 98.1409ZM78.882 80.2295C78.882 79.772 78.0844 79.7134 78.0844 80.2705C78.099 80.5344 78.1343 80.8394 78.1694 81.1032C78.2897 81.6955 79.0489 81.4463 78.9639 81.0093C78.9259 80.7572 78.9025 80.4845 78.882 80.2295ZM78.8615 77.1038C78.8615 76.5087 78.067 76.5936 78.067 77.0481L78.023 77.8603C78.023 78.4174 78.8203 78.3791 78.8203 77.8866L78.8615 77.1038ZM79.3277 74.0164C79.436 73.471 78.6474 73.3509 78.5507 73.8347C78.4892 74.0988 78.4364 74.3655 78.3837 74.6322C78.3454 74.8258 78.4628 75.0104 78.6212 75.072C78.8703 75.1746 79.1196 75.0191 79.1664 74.7816C79.2163 74.5267 79.269 74.2716 79.3277 74.0164ZM80.2775 71.0435C80.474 70.545 79.7322 70.2578 79.5386 70.7386C79.436 70.9906 79.3394 71.2428 79.2455 71.4979C79.1634 71.7032 79.2923 71.932 79.4625 71.9991C79.7 72.0932 79.9139 71.9759 79.9961 71.7677C80.084 71.5243 80.1779 71.2839 80.2775 71.0435ZM81.6849 68.2524C81.9575 67.7979 81.2686 67.3933 81.0017 67.839L80.5942 68.5425C80.3596 68.9325 80.9372 69.4046 81.2803 68.9502L81.6849 68.2524ZM83.5115 65.7191C83.5965 65.6341 83.6347 65.4524 83.5819 65.3235C83.4646 65.033 83.1332 64.9744 82.9044 65.2031C82.7286 65.4083 82.5526 65.6224 82.3884 65.8364C82.063 66.2672 82.7139 66.7305 83.0188 66.3231L83.5115 65.7191ZM85.7135 63.5023C86.1357 63.0803 85.5111 62.5789 85.1915 62.8985C84.9952 63.0686 84.7695 63.259 84.5846 63.4409C84.1918 63.8338 84.781 64.3733 85.133 64.0215C85.3234 63.8455 85.517 63.6726 85.7135 63.5023ZM88.235 61.6554C88.6688 61.3944 88.2555 60.7112 87.8157 60.9779C87.5927 61.1276 87.3553 61.2684 87.1295 61.4208C86.7016 61.6759 87.109 62.3619 87.5782 62.0805C87.7922 61.9338 88.0121 61.7932 88.235 61.6554ZM91.0145 60.2304C91.4836 60.0429 91.205 59.2951 90.7095 59.4916C90.4602 59.5914 90.2053 59.7086 89.959 59.823C89.8212 59.8786 89.6981 60.0691 89.7331 60.2421C89.786 60.5062 90.0264 60.6528 90.2962 60.5443L91.0145 60.2304ZM93.9786 59.2599C94.0228 59.2512 94.0841 59.2219 94.1165 59.1983C94.4594 58.9405 94.2397 58.3951 93.791 58.486C93.5301 58.5475 93.2661 58.6179 93.0052 58.6911C92.498 58.8964 92.7121 59.5622 93.2251 59.4594C93.4742 59.3889 93.7265 59.3187 93.9786 59.2599ZM97.066 58.7702C97.5352 58.7702 97.5615 57.9757 97.0455 57.9757C96.7787 57.9818 96.4591 58.0228 96.1923 58.0549C95.6001 58.1751 95.8463 58.9344 96.2862 58.8466C96.5471 58.8171 96.8051 58.7907 97.066 58.7702ZM100.188 58.7674C100.792 58.7674 100.699 57.9727 100.25 57.9727L99.4409 57.9258C98.8779 57.9258 98.9191 58.7233 99.4116 58.7233L100.188 58.7674ZM103.276 59.2512C103.827 59.3626 103.938 58.5708 103.46 58.4773L102.663 58.3011C102.138 58.1985 102.03 58.9902 102.513 59.0841L103.276 59.2512ZM106.246 60.2188C106.742 60.4151 107.029 59.6705 106.548 59.48L105.792 59.1839C105.328 58.9963 105.006 59.7291 105.519 59.9314C105.762 60.0223 106.006 60.1189 106.246 60.2188ZM109.029 61.6407C109.48 61.9133 109.888 61.2273 109.442 60.9576C109.21 60.8167 108.979 60.679 108.741 60.5471C108.612 60.4707 108.427 60.4854 108.319 60.5706C108.073 60.7524 108.099 61.0923 108.351 61.2449C108.58 61.3711 108.806 61.5058 109.029 61.6407ZM111.547 63.4819C111.872 63.8074 112.485 63.2945 112.066 62.875C111.861 62.6992 111.65 62.529 111.438 62.3561C111.001 62.0278 110.544 62.6816 110.946 62.9837C111.151 63.1449 111.351 63.312 111.547 63.4819ZM113.752 65.6958C114.18 66.1206 114.676 65.4934 114.359 65.1767L113.819 64.5668C113.424 64.1711 112.89 64.7634 113.236 65.1095C113.412 65.2996 113.585 65.4991 113.752 65.6958ZM115.584 68.226C115.851 68.6656 116.537 68.2611 116.267 67.8154C116.141 67.5927 115.945 67.2731 115.79 67.0766C115.444 66.7277 114.91 67.1412 115.165 67.5662C115.309 67.7832 115.449 68.0032 115.584 68.226ZM116.997 71.0112C117.179 71.4717 117.933 71.2021 117.733 70.7062C117.631 70.4541 117.522 70.2079 117.411 69.9615C117.229 69.5101 116.476 69.7711 116.684 70.2928C116.795 70.5305 116.898 70.7708 116.997 71.0112ZM117.95 73.9844C118.047 74.4682 118.836 74.3479 118.724 73.7996C118.666 73.5387 118.595 73.2776 118.525 73.0168C118.32 72.5035 117.654 72.7176 117.757 73.2307C117.824 73.4798 117.892 73.7323 117.95 73.9844ZM118.423 77.0745C118.423 77.5319 119.217 77.5995 119.217 77.0247C119.199 76.752 119.173 76.4762 119.141 76.2037C119.024 75.6085 118.264 75.8578 118.349 76.2946C118.378 76.5527 118.405 76.8136 118.423 77.0745ZM118.408 80.1971C118.408 80.804 119.202 80.7074 119.202 80.2616L119.255 79.4495C119.255 78.8836 118.458 78.9335 118.458 79.4172L118.408 80.1971ZM93.3894 109.074C93.1695 109.074 92.9905 108.898 92.9905 108.678C92.9905 108.456 93.1695 108.277 93.3894 108.277H118.739C118.959 108.277 119.138 108.456 119.138 108.678C119.138 108.898 118.959 109.074 118.739 109.074H93.3894ZM121.334 109.074C121.114 109.074 120.935 108.898 120.935 108.678C120.935 108.456 121.114 108.277 121.334 108.277H124.503C124.723 108.277 124.902 108.456 124.902 108.678C124.902 108.898 124.723 109.074 124.503 109.074H121.334ZM70.4965 109.018C70.2766 109.018 70.0979 108.84 70.0979 108.62C70.0979 108.4 70.2766 108.221 70.4965 108.221H82.5089C82.7288 108.221 82.9075 108.4 82.9075 108.62C82.9075 108.84 82.7288 109.018 82.5089 109.018H70.4965ZM71.9391 107.168C71.7192 107.168 71.5405 106.989 71.5405 106.769C71.5405 106.55 71.7192 106.371 71.9391 106.371H108.571C108.791 106.371 108.97 106.55 108.97 106.769C108.97 106.989 108.791 107.168 108.571 107.168H71.9391ZM83.7724 98.1409V96.5811C83.3356 96.7246 82.8694 96.8039 82.3827 96.8039C81.8521 96.8039 81.3448 96.71 80.8756 96.5369V98.214L82.2303 99.5188L83.7724 98.1409Z" fill="#98FF98"/>
<defs>
<filter id="filter0_d_557_850" x="0.91983" y="0.351128" width="195.893" height="195.893" filterUnits="userSpaceOnUse" color-interpolation-filters="sRGB">
<feFlood flood-opacity="0" result="BackgroundImageFix"/>
<feColorMatrix in="SourceAlpha" type="matrix" values="0 0 0 0 0 0 0 0 0 0 0 0 0 0 0 0 0 0 127 0" result="hardAlpha"/>
<feOffset dy="10.883"/>
<feGaussianBlur stdDeviation="21.7659"/>
<feColorMatrix type="matrix" values="0 0 0 0 0.212 0 0 0 0 0.238778 0 0 0 0 0.533333 0 0 0 0.06 0"/>
<feBlend mode="normal" in2="BackgroundImageFix" result="effect1_dropShadow_557_850"/>
<feBlend mode="normal" in="SourceGraphic" in2="effect1_dropShadow_557_850" result="shape"/>
</filter>
</defs>
</svg>
