<svg width="356" height="528" viewBox="0 0 356 528" fill="none" xmlns="http://www.w3.org/2000/svg">
<path opacity="0.2" d="M356 7.99999C356 3.58171 352.418 0 348 0H50C22.3858 0 0 22.3858 0 50V520C0 524.418 3.58173 528 8 528H348C352.418 528 356 524.418 356 520V7.99999Z" fill="#0FACAC"/>
<g opacity="0.1">
<mask id="mask0_1058_1286" style="mask-type:alpha" maskUnits="userSpaceOnUse" x="281" y="0" width="75" height="234">
<path d="M301.172 0.546875H305.925C333.425 0.547129 355.718 22.8407 355.718 50.3408V213.767C355.718 224.698 346.856 233.559 335.925 233.56H301.172C290.24 233.56 281.378 224.698 281.378 213.767V20.3408C281.378 9.40906 290.24 0.546875 301.172 0.546875Z" fill="url(#paint0_linear_1058_1286)" stroke="black" stroke-width="0.41257"/>
</mask>
<g mask="url(#mask0_1058_1286)">
<path d="M348.849 57.6646C352.387 57.6646 355.776 59.3455 358.877 62.4214C361.979 65.4982 364.781 69.9611 367.14 75.4917C371.856 86.5524 374.778 101.848 374.778 118.752C374.778 135.657 371.856 150.952 367.14 162.012C364.781 167.543 361.979 172.006 358.877 175.083C355.776 178.158 352.387 179.839 348.849 179.839C345.31 179.839 341.922 178.158 338.821 175.083C335.719 172.006 332.916 167.543 330.558 162.012C325.841 150.952 322.919 135.657 322.919 118.752C322.919 101.848 325.841 86.5524 330.558 75.4917C332.916 69.961 335.719 65.4982 338.821 62.4214C341.922 59.3457 345.31 57.6646 348.849 57.6646Z" stroke="#166D86" stroke-width="0.41257"/>
<path d="M346.786 43.9546C350.752 43.9547 354.547 45.8387 358.019 49.2817C361.491 52.7259 364.627 57.7202 367.266 63.9077C372.542 76.2819 375.811 93.3912 375.811 112.3C375.811 131.209 372.542 148.319 367.266 160.693C364.627 166.88 361.491 171.875 358.019 175.319C354.547 178.762 350.752 180.646 346.786 180.646C342.82 180.646 339.024 178.762 335.553 175.319C332.081 171.875 328.944 166.88 326.306 160.693C321.029 148.319 317.761 131.209 317.761 112.3C317.761 93.3912 321.029 76.2819 326.306 63.9077C328.944 57.7202 332.081 52.7259 335.553 49.2817C339.024 45.8385 342.82 43.9546 346.786 43.9546Z" stroke="#166D86" stroke-width="0.41257"/>
<path d="M345.066 32.2603C349.412 32.2603 353.57 34.3255 357.37 38.0952C361.171 41.8658 364.604 47.332 367.491 54.103C373.266 67.6448 376.842 86.3674 376.842 107.058C376.842 127.749 373.265 146.47 367.491 160.012C364.604 166.783 361.171 172.25 357.37 176.021C353.57 179.791 349.412 181.855 345.066 181.855C340.721 181.855 336.563 179.791 332.763 176.021C328.961 172.25 325.528 166.783 322.641 160.012C316.866 146.47 313.29 127.748 313.29 107.058C313.29 86.3674 316.866 67.6448 322.641 54.103C325.528 47.3318 328.961 41.8658 332.763 38.0952C336.563 34.3254 340.721 32.2603 345.066 32.2603Z" stroke="#166D86" stroke-width="0.41257"/>
<path d="M343.347 18.9531C348.025 18.9532 352.499 21.1761 356.587 25.2314C360.676 29.2877 364.369 35.1673 367.474 42.4492C373.684 57.0126 377.529 77.1468 377.529 99.3965C377.529 121.646 373.684 141.779 367.474 156.343C364.368 163.625 360.676 169.505 356.587 173.562C352.499 177.617 348.025 179.839 343.347 179.839C338.669 179.839 334.194 177.617 330.105 173.562C326.016 169.505 322.324 163.625 319.219 156.343C313.009 141.779 309.163 121.646 309.163 99.3965C309.163 77.1468 313.009 57.0126 319.219 42.4492C322.324 35.1673 326.016 29.2877 330.105 25.2314C334.194 21.176 338.669 18.9531 343.347 18.9531Z" stroke="#166D86" stroke-width="0.41257"/>
<path d="M341.713 6.0498C346.711 6.04986 351.49 8.42513 355.856 12.7559C360.223 17.0876 364.166 23.366 367.481 31.1406C374.111 46.6891 378.217 68.1836 378.217 91.9365C378.217 115.689 374.111 137.184 367.481 152.732C364.166 160.507 360.223 166.786 355.856 171.118C351.49 175.449 346.711 177.823 341.713 177.823C336.714 177.823 331.934 175.449 327.568 171.118C323.201 166.786 319.26 160.507 315.944 152.732C309.314 137.184 305.208 115.689 305.208 91.9365C305.208 68.1836 309.314 46.6891 315.944 31.1406C319.259 23.3661 323.201 17.0876 327.568 12.7559C331.935 8.42494 336.714 6.0498 341.713 6.0498Z" stroke="#166D86" stroke-width="0.41257"/>
<path d="M338.962 -10.8862C344.459 -10.8862 349.714 -8.27435 354.512 -3.51514C359.311 1.24515 363.642 8.14418 367.284 16.6851C374.568 33.7661 379.078 57.3779 379.078 83.4692C379.078 109.56 374.568 133.172 367.284 150.252C363.642 158.793 359.311 165.692 354.512 170.453C349.714 175.212 344.459 177.824 338.962 177.824C333.465 177.824 328.21 175.212 323.412 170.453C318.613 165.692 314.282 158.793 310.641 150.252C303.357 133.172 298.847 109.56 298.847 83.4692C298.847 57.3778 303.357 33.7661 310.641 16.6851C314.283 8.1442 318.613 1.24514 323.412 -3.51514C328.21 -8.27446 333.465 -10.8861 338.962 -10.8862Z" stroke="#166D86" stroke-width="0.41257"/>
</g>
</g>
<g opacity="0.1">
<mask id="mask1_1058_1286" style="mask-type:alpha" maskUnits="userSpaceOnUse" x="0" y="30" width="136" height="241">
<path d="M135.742 50.8848L135.742 220.604C135.742 248.124 113.433 270.433 85.9141 270.433L20 270.433C9.04951 270.432 0.17197 261.555 0.171871 250.604L0.171875 50.8848C0.171875 39.9342 9.04946 31.0569 20 31.0566L115.914 31.0566C126.865 31.0566 135.742 39.934 135.742 50.8848Z" fill="#FF7F50" stroke="#166D86" stroke-width="0.343808"/>
</mask>
<g mask="url(#mask1_1058_1286)">
<path d="M102.484 248.826C102.484 271.953 98.4922 292.883 92.0449 308.024C88.8212 315.595 84.9871 321.711 80.7383 325.931C76.4901 330.151 71.8368 332.467 66.9678 332.467C62.0988 332.467 57.4454 330.151 53.1973 325.931C48.9484 321.711 45.1144 315.595 41.8906 308.024C35.4434 292.883 31.4512 271.953 31.4512 248.826C31.4512 225.699 35.4434 204.769 41.8906 189.627C45.1144 182.056 48.9483 175.94 53.1973 171.719C57.4454 167.499 62.0988 165.183 66.9678 165.183C71.8367 165.183 76.4901 167.499 80.7383 171.719C84.9872 175.94 88.8211 182.056 92.0449 189.627C98.4922 204.769 102.484 225.699 102.484 248.826Z" stroke="#166D86" stroke-width="0.343808"/>
<path d="M117.275 236.695C117.275 264.999 112.39 290.616 104.498 309.15C100.552 318.417 95.8573 325.906 90.6533 331.076C85.4501 336.244 79.7465 339.085 73.7754 339.085C67.8044 339.085 62.1015 336.244 56.8984 331.076C51.6944 325.906 46.9998 318.417 43.0537 309.15C35.1618 290.616 30.2764 264.999 30.2764 236.695C30.2764 208.391 35.1619 182.775 43.0537 164.241C46.9998 154.973 51.6944 147.484 56.8984 142.315C62.1015 137.147 67.8044 134.305 73.7754 134.305C79.7466 134.305 85.4501 137.147 90.6533 142.315C95.8573 147.484 100.552 154.973 104.498 164.241C112.39 182.775 117.275 208.391 117.275 236.695Z" stroke="#166D86" stroke-width="0.343808"/>
<path d="M125.023 231.181C125.023 261.617 119.77 289.164 111.283 309.095C107.04 319.061 101.991 327.114 96.3936 332.674C90.797 338.234 84.6614 341.291 78.2363 341.291C71.8114 341.291 65.6755 338.233 60.0791 332.674C54.4821 327.114 49.4338 319.061 45.1904 309.095C36.7037 289.164 31.4502 261.617 31.4502 231.181C31.4502 200.745 36.7037 173.199 45.1904 153.268C49.4339 143.302 54.4819 135.248 60.0791 129.688C65.6755 124.129 71.8114 121.072 78.2363 121.072C84.6613 121.072 90.7971 124.129 96.3936 129.688C101.991 135.248 107.04 143.302 111.283 153.268C119.77 173.199 125.023 200.745 125.023 231.181Z" stroke="#166D86" stroke-width="0.343808"/>
<path d="M132.537 225.942C132.537 258.433 126.929 287.841 117.868 309.12C113.338 319.759 107.948 328.358 101.972 334.294C95.996 340.23 89.4436 343.496 82.5811 343.496C75.7183 343.496 69.1652 340.23 63.1894 334.294C57.2131 328.358 51.8232 319.759 47.293 309.12C38.2326 287.841 32.624 258.433 32.624 225.942C32.624 193.45 38.2327 164.043 47.293 142.765C51.8233 132.126 57.213 123.526 63.1895 117.589C69.1652 111.653 75.7183 108.388 82.5811 108.388C89.4436 108.388 95.9961 111.654 101.972 117.589C107.948 123.526 113.338 132.126 117.868 142.765C126.928 164.043 132.537 193.45 132.537 225.942Z" stroke="#166D86" stroke-width="0.343808"/>
<path d="M142.398 217.121C142.398 252.81 136.239 285.112 126.286 308.486C121.31 320.173 115.388 329.62 108.821 336.142C102.256 342.664 95.055 346.253 87.5117 346.253C79.9682 346.253 72.7668 342.664 66.2012 336.142C59.6349 329.62 53.7137 320.173 48.7373 308.486C38.7847 285.112 32.6241 252.81 32.624 217.121C32.624 181.432 38.7847 149.129 48.7373 125.755C53.7138 114.068 59.6348 104.621 66.2012 98.0981C72.7668 91.5764 79.9682 87.9868 87.5117 87.9868C95.055 87.9869 102.256 91.5766 108.821 98.0981C115.388 104.621 121.31 114.068 126.286 125.755C136.239 149.129 142.398 181.432 142.398 217.121Z" stroke="#166D86" stroke-width="0.343808"/>
<path d="M110.467 242.209C110.467 268.077 106.002 291.488 98.79 308.426C95.1839 316.895 90.8941 323.737 86.1396 328.46C81.3858 333.182 76.1762 335.776 70.7236 335.776C65.2712 335.776 60.0623 333.182 55.3086 328.46C50.5541 323.737 46.2644 316.895 42.6582 308.426C35.4461 291.488 30.9814 268.077 30.9814 242.209C30.9815 216.341 35.4462 192.931 42.6582 175.993C46.2644 167.524 50.554 160.681 55.3086 155.958C60.0623 151.236 65.2713 148.642 70.7236 148.642C76.1762 148.642 81.3858 151.236 86.1396 155.958C90.8942 160.681 95.1839 167.524 98.79 175.993C106.002 192.931 110.467 216.341 110.467 242.209Z" stroke="#166D86" stroke-width="0.343808"/>
</g>
</g>
<ellipse cx="14.5409" cy="14.5001" rx="14.5409" ry="14.5001" transform="matrix(1 0 0 -1 0 31)" fill="#166D86"/>
<path d="M21.8579 21.0615C22.1451 20.5655 22.1066 19.9748 21.757 19.5201L14.082 9.53283C13.7655 9.12099 13.2443 8.91101 12.7114 9.01302C12.1895 9.11311 11.7757 9.49246 11.6321 10.0027L10.4965 14.0331L10.3782 14.4523L10.0732 14.7641L7.14078 17.76C6.76948 18.1391 6.64692 18.6862 6.82094 19.1869C6.99316 19.6819 7.42512 20.0411 7.95769 20.1107L20.4688 21.7451C21.0384 21.8197 21.5707 21.5576 21.8579 21.0615Z" fill="white"/>
<path d="M10.4958 14.0331L11.6314 10.0026C11.775 9.4924 12.1888 9.11308 12.7107 9.01297C13.2436 8.91093 13.7648 9.12091 14.0813 9.53277L21.7563 19.5201C22.1059 19.9747 22.1444 20.5654 21.8572 21.0615L10.3775 14.4523L10.4958 14.0331Z" fill="white"/>
<path d="M15.0506 17.1419C15.1674 16.9402 15.0983 16.682 14.8957 16.5654L10.4974 14.0332L10.3792 14.4524L10.0742 14.7642L14.4725 17.2964C14.6751 17.413 14.9338 17.3437 15.0506 17.1419Z" fill="#166D86"/>
<path d="M10.4968 14.033L14.8951 16.5652C15.0976 16.6818 15.1668 16.9399 15.05 17.1417L10.3785 14.4522L10.4968 14.033Z" fill="#166D86"/>
<defs>
<linearGradient id="paint0_linear_1058_1286" x1="334.189" y1="6.88983" x2="191.202" y2="122.269" gradientUnits="userSpaceOnUse">
<stop stop-color="#747DEF"/>
<stop offset="1" stop-color="#5E3BE1"/>
</linearGradient>
</defs>
</svg>
