<svg width="356" height="188" viewBox="0 0 356 188" fill="none" xmlns="http://www.w3.org/2000/svg">
<path opacity="0.2" d="M356 5.36972C356 2.40411 353.596 0 350.63 0H34.6346C15.5064 0 0 15.5065 0 34.6347V182.63C0 185.596 2.40411 188 5.36972 188H350.63C353.596 188 356 185.596 356 182.63V5.36972Z" fill="#0FACAC"/>
<circle cx="9.397" cy="9.397" r="9.397" transform="matrix(1 0 0 -1 0.701172 21.9082)" fill="#166D86"/>
<path d="M14.8264 15.4673C15.012 15.1458 14.9871 14.763 14.7612 14.4684L9.80127 7.99593C9.59671 7.72903 9.25991 7.59295 8.91551 7.65906C8.57825 7.72393 8.31084 7.96977 8.21804 8.30042L7.48413 10.9124L7.4077 11.1841L7.21063 11.3861L5.31554 13.3277C5.07558 13.5734 4.99638 13.9279 5.10884 14.2524C5.22014 14.5732 5.49929 14.806 5.84346 14.8511L13.9287 15.9103C14.2968 15.9586 14.6408 15.7888 14.8264 15.4673Z" fill="white"/>
<path d="M7.48417 10.9129L8.21806 8.30086C8.31086 7.97021 8.57826 7.72438 8.91553 7.6595C9.25994 7.59338 9.59675 7.72945 9.80129 7.99637L14.7612 14.4688C14.9872 14.7634 15.012 15.1462 14.8264 15.4677L7.40774 11.1845L7.48417 10.9129Z" fill="white"/>
<path d="M10.4269 12.9267C10.5024 12.7959 10.4577 12.6287 10.3268 12.5531L7.48444 10.912L7.408 11.1837L7.21094 11.3857L10.0533 13.0268C10.1842 13.1023 10.3514 13.0574 10.4269 12.9267Z" fill="#166D86"/>
<path d="M7.48538 10.9121L10.3278 12.5531C10.4587 12.6287 10.5034 12.796 10.4279 12.9267L7.40895 11.1837L7.48538 10.9121Z" fill="#166D86"/>
</svg>
