<svg width="227" height="144" viewBox="0 0 227 144" fill="none" xmlns="http://www.w3.org/2000/svg">
<g clip-path="url(#clip0_346_953)">
<path d="M199.89 131.195L200.111 126.224C202.415 124.992 204.986 124.341 207.599 124.328C204.003 127.269 204.452 132.937 202.014 136.891C200.454 139.378 197.848 141.02 194.932 141.354L191.922 143.197C191.087 138.537 192.333 133.745 195.333 130.084C196.175 129.077 197.14 128.18 198.206 127.415C198.927 129.315 199.89 131.195 199.89 131.195Z" fill="#F2F2F2"/>
<path d="M47.7428 125.748L40.4796 123.549C39.5271 119.679 39.5336 115.635 40.4987 111.768C43.4896 118.191 52.0357 119.661 56.9611 124.754C60.0482 127.996 61.4936 132.465 60.889 136.9L62.4788 142.042C55.278 141.523 48.6659 137.876 44.3845 132.063C43.2136 130.44 42.2518 128.676 41.5218 126.812C44.6022 126.463 47.7428 125.748 47.7428 125.748Z" fill="#F2F2F2"/>
<path d="M174.723 142.384C174.722 142.534 174.662 142.678 174.556 142.785C174.45 142.891 174.307 142.95 174.157 142.949H171.883C171.572 142.95 171.319 142.699 171.317 142.388V73.6171C171.317 72.1011 170.808 70.8709 170.183 70.868H28.6314C28.0035 70.8708 27.4972 72.1011 27.4944 73.6171V141.962C27.4934 142.253 27.2723 142.497 26.9825 142.525C26.5243 142.57 26.0661 142.61 25.6108 142.647C25.5995 142.647 25.5882 142.649 25.5768 142.649C25.328 142.672 25.0791 142.689 24.8302 142.709H24.8273C24.6972 142.474 24.5728 142.234 24.4455 141.993C24.4047 141.912 24.3834 141.822 24.3833 141.73V70.0506C24.3833 69.6321 24.4003 69.2106 24.4286 68.7949C24.4689 68.224 24.5397 67.6556 24.6407 67.0923C25.1187 64.4648 26.1991 62.6858 27.4265 62.6802H171.385C171.565 62.6814 171.742 62.7189 171.906 62.7905C172.147 62.8972 172.365 63.05 172.548 63.2402C172.796 63.4981 173.008 63.7882 173.178 64.1028C173.784 65.169 174.216 66.7585 174.369 68.6082C174.369 68.6252 174.372 68.6422 174.372 68.6591C174.412 69.1173 174.431 69.584 174.429 70.0506L174.468 76.1116L174.494 79.7261L174.57 91.0675L174.598 95.0949L174.723 142.384Z" fill="#E6E6E6"/>
<path d="M122.188 41.7134H107.762C107.337 41.714 106.993 42.0589 106.994 42.4839V65.2723H122.958V42.4839C122.959 42.0586 122.614 41.7136 122.189 41.7134H122.188ZM115.024 54.6615C114.085 54.6571 113.325 53.897 113.32 52.9581V50.3296C113.32 49.3888 114.083 48.6262 115.024 48.6262C115.964 48.6262 116.727 49.3888 116.727 50.3296V52.9581C116.723 53.897 115.963 54.6571 115.024 54.6615Z" fill="#CCCCCC"/>
<path d="M106.944 64.5437V66.7423C106.945 66.9795 107.137 67.1717 107.374 67.1721H122.578C122.815 67.171 123.007 66.9792 123.008 66.7423V64.5437H106.944Z" fill="#3F3D56"/>
<path d="M146.075 6.14917H84.4109C83.3079 6.15093 82.4141 7.04468 82.4124 8.14773V49.7592C82.4134 50.8625 83.3076 51.7567 84.4109 51.7577H146.075C147.179 51.7567 148.073 50.8625 148.074 49.7592V8.14773C148.072 7.04468 147.178 6.15093 146.075 6.14917Z" fill="#E6E6E6"/>
<path d="M145.561 7.59302H84.9263C84.3356 7.5943 83.8575 8.07344 83.8574 8.66408V49.2441C83.8584 49.834 84.3364 50.312 84.9263 50.313H145.561C146.151 50.312 146.629 49.834 146.63 49.2441V8.66407C146.63 8.07344 146.151 7.5943 145.561 7.59302Z" fill="white"/>
<path d="M133.75 67.9368H97.6761C97.3096 67.9368 97.0125 67.6397 97.0125 67.2732C97.0125 67.2273 97.0172 67.1815 97.0267 67.1365L97.5864 64.4781C97.6521 64.1716 97.9223 63.9523 98.2357 63.9512H133.191C133.504 63.9523 133.774 64.1716 133.84 64.4781L134.4 67.1365C134.475 67.4952 134.246 67.8471 133.887 67.9226C133.842 67.9321 133.796 67.9368 133.75 67.9368Z" fill="#CCCCCC"/>
<path d="M99.4647 64.4299H98.6298C98.5535 64.4299 98.4917 64.4917 98.4917 64.568V64.9585C98.4917 65.0347 98.5535 65.0966 98.6298 65.0966H99.4647C99.5409 65.0966 99.6028 65.0347 99.6028 64.9585V64.568C99.6028 64.4917 99.5409 64.4299 99.4647 64.4299Z" fill="#E6E6E6"/>
<path d="M101.687 64.4299H100.852C100.776 64.4299 100.714 64.4917 100.714 64.568V64.9585C100.714 65.0347 100.776 65.0966 100.852 65.0966H101.687C101.763 65.0966 101.825 65.0347 101.825 64.9585V64.568C101.825 64.4917 101.763 64.4299 101.687 64.4299Z" fill="#E6E6E6"/>
<path d="M103.909 64.4299H103.074C102.998 64.4299 102.936 64.4917 102.936 64.568V64.9585C102.936 65.0347 102.998 65.0966 103.074 65.0966H103.909C103.986 65.0966 104.047 65.0347 104.047 64.9585V64.568C104.047 64.4917 103.986 64.4299 103.909 64.4299Z" fill="#E6E6E6"/>
<path d="M106.131 64.4299H105.296C105.22 64.4299 105.158 64.4917 105.158 64.568V64.9585C105.158 65.0347 105.22 65.0966 105.296 65.0966H106.131C106.207 65.0966 106.269 65.0347 106.269 64.9585V64.568C106.269 64.4917 106.207 64.4299 106.131 64.4299Z" fill="#E6E6E6"/>
<path d="M108.353 64.4299H107.518C107.442 64.4299 107.38 64.4917 107.38 64.568V64.9585C107.38 65.0347 107.442 65.0966 107.518 65.0966H108.353C108.43 65.0966 108.491 65.0347 108.491 64.9585V64.568C108.491 64.4917 108.43 64.4299 108.353 64.4299Z" fill="#E6E6E6"/>
<path d="M110.576 64.4299H109.741C109.664 64.4299 109.603 64.4917 109.603 64.568V64.9585C109.603 65.0347 109.664 65.0966 109.741 65.0966H110.576C110.652 65.0966 110.714 65.0347 110.714 64.9585V64.568C110.714 64.4917 110.652 64.4299 110.576 64.4299Z" fill="#E6E6E6"/>
<path d="M112.797 64.4299H111.963C111.886 64.4299 111.824 64.4917 111.824 64.568V64.9585C111.824 65.0347 111.886 65.0966 111.963 65.0966H112.797C112.874 65.0966 112.936 65.0347 112.936 64.9585V64.568C112.936 64.4917 112.874 64.4299 112.797 64.4299Z" fill="#E6E6E6"/>
<path d="M115.02 64.4299H114.185C114.108 64.4299 114.047 64.4917 114.047 64.568V64.9585C114.047 65.0347 114.108 65.0966 114.185 65.0966H115.02C115.096 65.0966 115.158 65.0347 115.158 64.9585V64.568C115.158 64.4917 115.096 64.4299 115.02 64.4299Z" fill="#E6E6E6"/>
<path d="M117.242 64.4299H116.407C116.33 64.4299 116.269 64.4917 116.269 64.568V64.9585C116.269 65.0347 116.33 65.0966 116.407 65.0966H117.242C117.318 65.0966 117.38 65.0347 117.38 64.9585V64.568C117.38 64.4917 117.318 64.4299 117.242 64.4299Z" fill="#E6E6E6"/>
<path d="M119.464 64.4299H118.629C118.553 64.4299 118.491 64.4917 118.491 64.568V64.9585C118.491 65.0347 118.553 65.0966 118.629 65.0966H119.464C119.54 65.0966 119.602 65.0347 119.602 64.9585V64.568C119.602 64.4917 119.54 64.4299 119.464 64.4299Z" fill="#E6E6E6"/>
<path d="M121.686 64.4299H120.851C120.775 64.4299 120.713 64.4917 120.713 64.568V64.9585C120.713 65.0347 120.775 65.0966 120.851 65.0966H121.686C121.762 65.0966 121.824 65.0347 121.824 64.9585V64.568C121.824 64.4917 121.762 64.4299 121.686 64.4299Z" fill="#E6E6E6"/>
<path d="M123.908 64.4299H123.073C122.997 64.4299 122.935 64.4917 122.935 64.568V64.9585C122.935 65.0347 122.997 65.0966 123.073 65.0966H123.908C123.984 65.0966 124.046 65.0347 124.046 64.9585V64.568C124.046 64.4917 123.984 64.4299 123.908 64.4299Z" fill="#E6E6E6"/>
<path d="M126.13 64.4299H125.295C125.219 64.4299 125.157 64.4917 125.157 64.568V64.9585C125.157 65.0347 125.219 65.0966 125.295 65.0966H126.13C126.206 65.0966 126.268 65.0347 126.268 64.9585V64.568C126.268 64.4917 126.206 64.4299 126.13 64.4299Z" fill="#E6E6E6"/>
<path d="M128.352 64.4299H127.517C127.441 64.4299 127.379 64.4917 127.379 64.568V64.9585C127.379 65.0347 127.441 65.0966 127.517 65.0966H128.352C128.428 65.0966 128.49 65.0347 128.49 64.9585V64.568C128.49 64.4917 128.428 64.4299 128.352 64.4299Z" fill="#E6E6E6"/>
<path d="M130.574 64.4299H129.739C129.663 64.4299 129.601 64.4917 129.601 64.568V64.9585C129.601 65.0347 129.663 65.0966 129.739 65.0966H130.574C130.651 65.0966 130.712 65.0347 130.712 64.9585V64.568C130.712 64.4917 130.651 64.4299 130.574 64.4299Z" fill="#E6E6E6"/>
<path d="M132.796 64.4299H131.962C131.885 64.4299 131.823 64.4917 131.823 64.568V64.9585C131.823 65.0347 131.885 65.0966 131.962 65.0966H132.796C132.873 65.0966 132.935 65.0347 132.935 64.9585V64.568C132.935 64.4917 132.873 64.4299 132.796 64.4299Z" fill="#E6E6E6"/>
<path d="M99.4386 65.541H98.6036C98.5274 65.541 98.4656 65.6028 98.4656 65.6791V66.0696C98.4656 66.1458 98.5274 66.2076 98.6036 66.2076H99.4386C99.5148 66.2076 99.5766 66.1458 99.5766 66.0696V65.6791C99.5766 65.6028 99.5148 65.541 99.4386 65.541Z" fill="#E6E6E6"/>
<path d="M101.661 65.541H100.826C100.75 65.541 100.688 65.6028 100.688 65.6791V66.0696C100.688 66.1458 100.75 66.2076 100.826 66.2076H101.661C101.737 66.2076 101.799 66.1458 101.799 66.0696V65.6791C101.799 65.6028 101.737 65.541 101.661 65.541Z" fill="#E6E6E6"/>
<path d="M103.883 65.541H103.048C102.972 65.541 102.91 65.6028 102.91 65.6791V66.0696C102.91 66.1458 102.972 66.2076 103.048 66.2076H103.883C103.959 66.2076 104.021 66.1458 104.021 66.0696V65.6791C104.021 65.6028 103.959 65.541 103.883 65.541Z" fill="#E6E6E6"/>
<path d="M106.105 65.541H105.27C105.194 65.541 105.132 65.6028 105.132 65.6791V66.0696C105.132 66.1458 105.194 66.2076 105.27 66.2076H106.105C106.181 66.2076 106.243 66.1458 106.243 66.0696V65.6791C106.243 65.6028 106.181 65.541 106.105 65.541Z" fill="#E6E6E6"/>
<path d="M108.327 65.541H107.492C107.416 65.541 107.354 65.6028 107.354 65.6791V66.0696C107.354 66.1458 107.416 66.2076 107.492 66.2076H108.327C108.403 66.2076 108.465 66.1458 108.465 66.0696V65.6791C108.465 65.6028 108.403 65.541 108.327 65.541Z" fill="#E6E6E6"/>
<path d="M110.549 65.541H109.714C109.638 65.541 109.576 65.6028 109.576 65.6791V66.0696C109.576 66.1458 109.638 66.2076 109.714 66.2076H110.549C110.625 66.2076 110.687 66.1458 110.687 66.0696V65.6791C110.687 65.6028 110.625 65.541 110.549 65.541Z" fill="#E6E6E6"/>
<path d="M112.771 65.541H111.936C111.86 65.541 111.798 65.6028 111.798 65.6791V66.0696C111.798 66.1458 111.86 66.2076 111.936 66.2076H112.771C112.848 66.2076 112.909 66.1458 112.909 66.0696V65.6791C112.909 65.6028 112.848 65.541 112.771 65.541Z" fill="#E6E6E6"/>
<path d="M114.993 65.541H114.158C114.082 65.541 114.02 65.6028 114.02 65.6791V66.0696C114.02 66.1458 114.082 66.2076 114.158 66.2076H114.993C115.07 66.2076 115.131 66.1458 115.131 66.0696V65.6791C115.131 65.6028 115.07 65.541 114.993 65.541Z" fill="#E6E6E6"/>
<path d="M117.215 65.541H116.381C116.304 65.541 116.242 65.6028 116.242 65.6791V66.0696C116.242 66.1458 116.304 66.2076 116.381 66.2076H117.215C117.292 66.2076 117.353 66.1458 117.353 66.0696V65.6791C117.353 65.6028 117.292 65.541 117.215 65.541Z" fill="#E6E6E6"/>
<path d="M119.438 65.541H118.603C118.526 65.541 118.465 65.6028 118.465 65.6791V66.0696C118.465 66.1458 118.526 66.2076 118.603 66.2076H119.438C119.514 66.2076 119.576 66.1458 119.576 66.0696V65.6791C119.576 65.6028 119.514 65.541 119.438 65.541Z" fill="#E6E6E6"/>
<path d="M121.66 65.541H120.825C120.748 65.541 120.687 65.6028 120.687 65.6791V66.0696C120.687 66.1458 120.748 66.2076 120.825 66.2076H121.66C121.736 66.2076 121.798 66.1458 121.798 66.0696V65.6791C121.798 65.6028 121.736 65.541 121.66 65.541Z" fill="#E6E6E6"/>
<path d="M123.882 65.541H123.047C122.971 65.541 122.909 65.6028 122.909 65.6791V66.0696C122.909 66.1458 122.971 66.2076 123.047 66.2076H123.882C123.958 66.2076 124.02 66.1458 124.02 66.0696V65.6791C124.02 65.6028 123.958 65.541 123.882 65.541Z" fill="#E6E6E6"/>
<path d="M126.104 65.541H125.269C125.193 65.541 125.131 65.6028 125.131 65.6791V66.0696C125.131 66.1458 125.193 66.2076 125.269 66.2076H126.104C126.18 66.2076 126.242 66.1458 126.242 66.0696V65.6791C126.242 65.6028 126.18 65.541 126.104 65.541Z" fill="#E6E6E6"/>
<path d="M128.326 65.541H127.491C127.415 65.541 127.353 65.6028 127.353 65.6791V66.0696C127.353 66.1458 127.415 66.2076 127.491 66.2076H128.326C128.402 66.2076 128.464 66.1458 128.464 66.0696V65.6791C128.464 65.6028 128.402 65.541 128.326 65.541Z" fill="#E6E6E6"/>
<path d="M130.548 65.541H129.713C129.637 65.541 129.575 65.6028 129.575 65.6791V66.0696C129.575 66.1458 129.637 66.2076 129.713 66.2076H130.548C130.624 66.2076 130.686 66.1458 130.686 66.0696V65.6791C130.686 65.6028 130.624 65.541 130.548 65.541Z" fill="#E6E6E6"/>
<path d="M132.77 65.541H131.935C131.859 65.541 131.797 65.6028 131.797 65.6791V66.0696C131.797 66.1458 131.859 66.2076 131.935 66.2076H132.77C132.846 66.2076 132.908 66.1458 132.908 66.0696V65.6791C132.908 65.6028 132.846 65.541 132.77 65.541Z" fill="#E6E6E6"/>
<path d="M117.882 66.8743H109.27C109.193 66.8743 109.132 66.9361 109.132 67.0123V67.4028C109.132 67.4791 109.193 67.5409 109.27 67.5409H117.882C117.958 67.5409 118.02 67.4791 118.02 67.4028V67.0123C118.02 66.9361 117.958 66.8743 117.882 66.8743Z" fill="#E6E6E6"/>
<path d="M142.513 13.1842H85.7774C85.6527 13.1814 85.554 13.0782 85.5567 12.9536C85.5593 12.8328 85.6566 12.7356 85.7774 12.7329H142.513C142.637 12.7357 142.736 12.8389 142.733 12.9635C142.731 13.0842 142.634 13.1815 142.513 13.1842Z" fill="#CACACA"/>
<path d="M89.6394 11.5804C90.3696 11.5804 90.9616 10.9752 90.9616 10.2287C90.9616 9.48214 90.3696 8.87695 89.6394 8.87695C88.9091 8.87695 88.3171 9.48214 88.3171 10.2287C88.3171 10.9752 88.9091 11.5804 89.6394 11.5804Z" fill="#CCCCCC"/>
<path d="M94.2073 11.5804C94.9375 11.5804 95.5295 10.9752 95.5295 10.2287C95.5295 9.48214 94.9375 8.87695 94.2073 8.87695C93.477 8.87695 92.885 9.48214 92.885 10.2287C92.885 10.9752 93.477 11.5804 94.2073 11.5804Z" fill="#CCCCCC"/>
<path d="M98.7751 11.5804C99.5054 11.5804 100.097 10.9752 100.097 10.2287C100.097 9.48214 99.5054 8.87695 98.7751 8.87695C98.0449 8.87695 97.4529 9.48214 97.4529 10.2287C97.4529 10.9752 98.0449 11.5804 98.7751 11.5804Z" fill="#CCCCCC"/>
<path d="M114.087 16.6047L113.904 16.0693L137.338 3.89307L137.521 4.42846L114.087 16.6047Z" fill="#3F3D56"/>
<path d="M184.794 39.1581L184.61 38.6227L198.712 26.5081L198.895 27.0432L184.794 39.1581Z" fill="#3F3D56"/>
<path d="M157.702 41.9785L134.267 29.8022L134.451 29.2668L157.885 41.4431L157.702 41.9785Z" fill="#3F3D56"/>
<path d="M169.698 33.5056L155.959 10.9512L156.394 10.5884L170.132 33.1427L169.698 33.5056Z" fill="#3F3D56"/>
<path d="M180.419 4.11632L167.04 4.05467V3.48901L180.419 3.55067V4.11632Z" fill="#3F3D56"/>
<path d="M204.657 7.62498H189.667C187.636 7.62498 185.99 5.97885 185.99 3.94823C185.99 1.91762 187.636 0.271484 189.667 0.271484H204.657C206.687 0.271484 208.333 1.91762 208.333 3.94823C208.333 5.97885 206.687 7.62498 204.657 7.62498Z" fill="#166D86"/>
<path d="M223.323 29.1199H208.333C206.303 29.1199 204.657 27.4737 204.657 25.4431C204.657 23.4125 206.303 21.7664 208.333 21.7664H223.323C225.354 21.7664 227 23.4125 227 25.4431C227 27.4737 225.354 29.1199 223.323 29.1199Z" fill="#166D86"/>
<path d="M199.086 44.2777L185.706 44.2163V43.6506L199.086 43.712V44.2777Z" fill="#3F3D56"/>
<path d="M223.323 47.7861H208.333C206.303 47.7861 204.657 46.14 204.657 44.1094C204.657 42.0788 206.303 40.4326 208.333 40.4326H223.323C225.354 40.4326 227 42.0788 227 44.1094C227 46.14 225.354 47.7861 223.323 47.7861Z" fill="#166D86"/>
<path d="M179.485 45.2522H164.495C162.464 45.2522 160.818 43.606 160.818 41.5754C160.818 39.5448 162.464 37.8987 164.495 37.8987H179.485C181.516 37.8987 183.162 39.5448 183.162 41.5754C183.162 43.606 181.516 45.2522 179.485 45.2522Z" fill="#166D86"/>
<path d="M159.121 7.3535H144.132C142.101 7.3535 140.455 5.70736 140.455 3.67675C140.455 1.64614 142.101 0 144.132 0H159.121C161.152 0 162.798 1.64614 162.798 3.67675C162.798 5.70736 161.152 7.3535 159.121 7.3535Z" fill="#166D86"/>
<path d="M87.4734 70.4749H70.5038C69.2542 70.4749 68.2412 71.4879 68.2412 72.7375C68.2412 73.9871 69.2542 75.0001 70.5038 75.0001H76.726V92.5353H81.2512V75.0001H87.4734C88.723 75.0001 89.736 73.9871 89.736 72.7375C89.736 71.4879 88.723 70.4749 87.4734 70.4749Z" fill="#3F3D56"/>
<path d="M98.6736 102.247H53.2848C44.1894 102.214 36.4944 95.5155 35.2075 86.5117L33.6008 80.6018C30.2754 68.3553 25.2101 56.6493 18.5597 45.8415C15.5201 40.9051 13.9556 36.1267 17.5091 31.5262C17.5393 31.487 17.5691 31.4484 17.5983 31.4103C20.4484 27.7007 34.6342 26.8976 39.2587 26.7414C39.4414 26.7352 39.6248 26.7321 39.8089 26.7322H68.0404C68.2246 26.7322 68.4079 26.7353 68.5904 26.7414C73.6695 26.8895 78.2573 29.8137 80.536 34.3554C82.9674 38.9923 82.6572 44.5896 79.7282 48.9294C69.8113 63.8261 66.7751 73.1669 69.8836 79.2159C72.8904 85.0669 82.1074 88.0584 98.8899 88.6298C103.4 88.7834 105.47 92.2953 105.484 95.4931C105.498 98.6083 103.508 102.048 99.1057 102.238C98.9627 102.244 98.8186 102.247 98.6736 102.247Z" fill="#3F3D56"/>
<path d="M60.9955 142.55H77.9651C79.2147 142.55 80.2277 141.537 80.2277 140.287C80.2277 139.037 79.2147 138.024 77.9651 138.024H71.7429V99.8428H67.2177V138.024H60.9955C59.7459 138.024 58.7329 139.037 58.7329 140.287C58.7329 141.537 59.7459 142.55 60.9955 142.55Z" fill="#3F3D56"/>
<path d="M76.3545 127.157L79.2778 128.744L87.0165 118.045L82.7017 115.701L76.3545 127.157Z" fill="#A0616A"/>
<path d="M77.7617 123.344L83.0686 125.006L82.2239 127.229L85.863 132.511C86.3286 133.187 86.1584 134.112 85.4828 134.577C85.0809 134.854 84.5684 134.916 84.1121 134.743L77.934 132.396L77.7047 129.792L76.4534 131.833L74.124 130.948L77.7617 123.344Z" fill="#2F2E41"/>
<path d="M83.7407 19.2539C84.0026 21.0491 82.7595 22.7166 80.9644 22.9785C80.773 23.0064 80.5795 23.0173 80.3861 23.0112L69.1151 46.9936L65.5801 42.064L77.1827 19.3866C77.361 17.5713 78.9771 16.2443 80.7924 16.4225C82.3113 16.5717 83.5302 17.7422 83.7407 19.2539Z" fill="#A0616A"/>
<path d="M46.3369 51.8425C46.3369 51.8425 46.0348 56.0322 50.7731 56.8539C55.5113 57.6757 68.1779 49.6659 70.2582 48.436C72.3385 47.2061 76.215 31.7321 76.215 31.7321L72.8437 26.0298C68.6812 31.2952 65.4125 36.1505 65.214 39.597L46.3369 51.8425Z" fill="#166D86"/>
<path d="M51.8069 66.274L52.8302 70.6708C52.8302 70.6708 52.8403 74.7251 53.5583 75.4726C54.2713 76.2167 69.9496 74.7228 69.9496 74.7228C69.9496 74.7228 68.2873 68.1895 68.3094 63.2461L51.8069 66.274Z" fill="#A0616A"/>
<path d="M84.928 122.515L79.2715 119.404C79.1639 112.044 83.5911 102.083 88.8422 91.6497C77.0984 93.6694 66.0192 94.3165 56.4361 91.8732C53.1626 91.0087 51.1897 87.676 52.0063 84.3902C52.0436 84.2352 52.0867 84.0818 52.1357 83.93C53.2826 80.4308 50.7109 78.2373 53.0762 74.3886C59.2974 72.2639 65.2073 71.6639 70.6115 73.5401L73.9976 81.0269L90.7813 78.855C94.1751 78.4493 97.2552 80.8716 97.6609 84.2654C97.6628 84.2808 97.6646 84.2963 97.6663 84.3118C97.6889 84.494 97.7036 84.6769 97.7105 84.8606C94.3168 100.77 90.5115 115.086 84.928 122.515Z" fill="#2F2E41"/>
<path d="M49.5286 38.4378L55.9943 38.056C56.5533 38.023 57.0716 38.3482 57.2851 38.8658L59.1123 43.2953L66.7063 49.5719C66.7063 49.5719 69.7129 53.3979 69.7199 58.3392C69.7269 63.2805 70.7866 74.7177 70.7866 74.7177C70.7866 74.7177 66.3986 68.5411 63.6902 70.1839C63.2294 70.4634 63.0673 71.0349 62.5847 71.3238C62.3439 71.4678 61.7877 71.3278 61.5446 71.4721C57.8124 73.6876 53.9202 75.8521 53.5565 75.4726C52.8425 74.7274 51.9763 70.9197 51.9763 70.9197L46.0578 49.174C45.4081 46.8573 45.8282 44.3715 47.203 42.397C47.6165 41.8148 48.0497 41.3817 48.4523 41.3101C49.3563 41.1176 48.8754 39.0916 49.5286 38.4378Z" fill="#166D86"/>
<path d="M104.53 136.368L107.259 134.471L101.076 122.806L97.0481 125.606L104.53 136.368Z" fill="#A0616A"/>
<path d="M104.942 128.541L100.665 132.364C93.8636 124.786 88.7219 114.157 84.3647 102.087C72.9481 98.7434 64.3386 93.351 56.8225 86.9483C54.2727 84.7907 52.3613 82.019 54.5359 79.3908C54.6376 79.2679 54.7437 79.1491 54.8544 79.0344C57.422 76.3956 63.9333 76.8985 67.7469 74.481L76.266 83.587L75.7302 86.0282L91.7317 91.4486C94.953 92.5775 96.6491 96.104 95.5202 99.3252C95.5147 99.341 95.5091 99.3568 95.5034 99.3726C95.4435 99.5461 95.3762 99.7168 95.3016 99.8848L104.942 128.541Z" fill="#2F2E41"/>
<path d="M102.938 135.599L107.307 132.158L108.665 134.111L115.079 134.091C115.899 134.089 116.567 134.752 116.569 135.572C116.571 136.06 116.332 136.518 115.932 136.797L110.505 140.569L108.227 139.288L109.204 141.473L107.158 142.895L102.938 135.599Z" fill="#2F2E41"/>
<path d="M59.0764 93.2406C57.4064 92.5318 56.6272 90.6034 57.3361 88.9334C57.4116 88.7554 57.5028 88.5844 57.6084 88.4223L42.9709 66.3331L49.0196 65.8733L62.3697 87.568C63.8282 88.6633 64.1227 90.7336 63.0273 92.1921C62.1108 93.4125 60.4774 93.846 59.0764 93.2406Z" fill="#A0616A"/>
<path d="M50.6601 44.3506C50.6601 44.3506 47.237 41.9161 44.0735 45.5379C40.9099 49.1598 41.1741 64.1442 41.1443 66.5606C41.135 67.3173 42.2277 68.95 43.7331 70.836C44.4089 71.6827 45.168 72.5804 45.9478 73.4728C46.3991 73.9892 46.0102 75.0641 46.4634 75.5661C46.9141 76.0653 48.2068 75.9916 48.6355 76.4549C50.6702 78.654 52.3231 80.328 52.3231 80.328L58.947 80.4094C59.0217 75.4854 55.6497 71.0901 51.3175 66.8421L50.6601 44.3506Z" fill="#166D86"/>
<path d="M43.9835 22.9115C43.3564 23.3642 42.6966 23.8305 41.9314 23.9426C41.1662 24.0548 40.2703 23.6849 40.0585 22.941C39.7996 22.0315 40.6209 21.2034 41.359 20.6123L43.6997 18.738C44.1283 18.3579 44.6122 18.045 45.1348 17.8102C45.6665 17.5762 46.2756 17.5966 46.7905 17.8655C47.302 18.2109 47.5979 18.7969 47.572 19.4136C47.5386 20.0214 47.338 20.6083 46.9923 21.1094C46.1143 22.4779 44.7157 23.4286 43.1201 23.7415" fill="#2F2E41"/>
<path d="M61.7361 71.606H44.7665C43.5169 71.606 42.5039 72.619 42.5039 73.8686C42.5039 75.1182 43.5169 76.1312 44.7665 76.1312H50.9887V93.6664H55.5139V76.1312H61.7361C62.9857 76.1312 63.9987 75.1182 63.9987 73.8686C63.9987 72.619 62.9857 71.606 61.7361 71.606Z" fill="#3F3D56"/>
<path d="M45.0232 18.1645C45.0915 16.4681 43.2837 15.1248 41.5898 15.231C39.8958 15.3372 38.4396 16.5287 37.4789 17.9285C36.5186 19.3271 35.9417 20.9471 35.1851 22.4657C34.4285 23.9843 33.4209 25.4711 31.9175 26.2581C30.4144 27.0438 28.322 26.9036 27.283 25.562C26.6278 26.5556 26.4853 27.802 26.8993 28.9179C27.3247 30.0193 28.1179 30.9397 29.1445 31.5229C29.5531 31.7653 29.9896 31.9572 30.4443 32.0945C30.6319 31.5884 30.8957 31.1139 31.2267 30.6875C31.0772 31.1923 31.0201 31.7199 31.0582 32.245C31.7592 32.3793 32.4803 32.368 33.1767 32.2116C34.5633 31.9014 35.7226 30.956 36.3053 29.6601C36.9406 28.1561 36.617 26.4413 36.7529 24.8144C36.8876 23.1872 37.8681 21.3296 39.5008 21.3031C40.7442 21.2826 40.5797 21.3851 41.3675 22.3472" fill="#2F2E41"/>
<path d="M56.3139 27.0791C56.3139 31.1403 53.0216 34.4326 48.9604 34.4326C44.8992 34.4326 41.0413 29.7262 41.0413 25.6649C41.0413 21.6037 44.8992 19.7256 48.9604 19.7256C53.0216 19.7256 56.3139 23.0179 56.3139 27.0791Z" fill="#2F2E41"/>
<path d="M52.5843 35.8904C56.3802 35.1137 58.8278 31.4068 58.0511 27.6109C57.2744 23.815 53.5675 21.3674 49.7716 22.1442C45.9756 22.9209 43.5281 26.6277 44.3048 30.4237C45.0815 34.2196 48.7884 36.6671 52.5843 35.8904Z" fill="#A0616A"/>
<path d="M59.9907 27.927C57.9139 28.4941 55.817 29.0885 55.0073 27.927C54.8499 27.1569 54.5517 26.4224 54.1277 25.7605C54.0479 26.5018 53.874 27.2298 53.6101 27.927C50.9863 28.4973 48.534 28.6336 46.415 27.927C46.1236 28.454 45.9545 29.0397 45.92 29.6409C45.8153 29.5751 45.7056 29.5174 45.592 29.4684C45.4557 29.3914 45.2928 29.3769 45.1451 29.4288C45.0429 29.4905 44.9751 29.5959 44.9613 29.7145C44.9472 29.8324 44.9529 29.9519 44.9782 30.068C45.0079 30.4725 45.1288 30.8651 45.3318 31.2163C45.4941 31.4609 45.7517 31.6261 46.0417 31.6716C46.3358 33.3262 48.6776 35.5633 48.6776 35.5633C41.6069 35.8462 41.6069 31.0494 41.6069 26.5129L42.4554 24.8159H45.2837V21.1392H53.2028C56.9512 21.1401 59.9897 24.1786 59.9907 27.927Z" fill="#2F2E41"/>
<path d="M124.429 143.368L0.338514 143.455C0.15253 143.456 0.000974776 143.306 4.67954e-06 143.12C-0.000965416 142.934 0.149018 142.782 0.335002 142.781H0.338514L124.429 142.695C124.615 142.695 124.765 142.846 124.764 143.032C124.764 143.218 124.614 143.367 124.429 143.368Z" fill="#CACACA"/>
<path d="M207.297 143.368L143.166 143.455C142.98 143.456 142.828 143.306 142.827 143.12C142.826 142.934 142.976 142.782 143.162 142.781H143.166L207.297 142.695C207.483 142.694 207.634 142.844 207.635 143.03C207.635 143.216 207.485 143.367 207.299 143.368H207.297Z" fill="#CACACA"/>
<path d="M127.265 41.8583H102.955C100.844 41.8559 99.1325 40.1449 99.1301 38.0335V21.9256C99.1325 19.8142 100.844 18.1032 102.955 18.1008H127.265C129.376 18.1032 131.087 19.8142 131.09 21.9256V38.0335C131.087 40.1449 129.376 41.8559 127.265 41.8583ZM102.955 18.6665C101.156 18.6685 99.6978 20.1265 99.6958 21.9256V38.0335C99.6978 39.8326 101.156 41.2906 102.955 41.2926H127.265C129.064 41.2906 130.522 39.8326 130.524 38.0335V21.9256C130.522 20.1265 129.064 18.6685 127.265 18.6665L102.955 18.6665Z" fill="#E6E6E6"/>
<path d="M110.158 23.1917H103.655V23.7573H110.158V23.1917Z" fill="#E6E6E6"/>
<path d="M118.079 25.4543H103.655V26.02H118.079V25.4543Z" fill="#E6E6E6"/>
<path d="M118.079 27.4348H103.655V28.0005H118.079V27.4348Z" fill="#E6E6E6"/>
<path d="M122.039 29.4143H103.655V29.98H122.039V29.4143Z" fill="#E6E6E6"/>
<path d="M113.271 31.394H103.655V31.9597H113.271V31.394Z" fill="#E6E6E6"/>
<path d="M121.191 33.3735H103.655V33.9392H121.191V33.3735Z" fill="#E6E6E6"/>
<path d="M106.766 35.3538H103.655V35.9194H106.766V35.3538Z" fill="#E6E6E6"/>
<path d="M103.444 11.0187C103.416 11.0187 103.389 11.008 103.368 10.9869L102.765 10.37C102.724 10.3289 102.724 10.2632 102.765 10.2221L103.368 9.60524C103.409 9.56352 103.476 9.56285 103.518 9.60359C103.559 9.64444 103.56 9.71142 103.519 9.75314L102.988 10.296L103.519 10.839C103.56 10.8807 103.559 10.9477 103.518 10.9885C103.497 11.0087 103.47 11.0187 103.444 11.0187Z" fill="#CCCCCC"/>
<path d="M104.458 11.0188C104.431 11.0188 104.404 11.0087 104.384 10.9886C104.342 10.9478 104.341 10.8808 104.382 10.8391L104.913 10.2961L104.382 9.75322C104.341 9.7115 104.342 9.64452 104.384 9.60367C104.425 9.56277 104.492 9.56355 104.533 9.60532L105.137 10.2222C105.177 10.2633 105.177 10.329 105.137 10.3701L104.533 10.987C104.512 11.0081 104.485 11.0188 104.458 11.0188Z" fill="#CCCCCC"/>
<path d="M136.028 9.48755H134.905C134.777 9.48755 134.674 9.59119 134.674 9.71916V10.8423C134.674 10.9703 134.777 11.0739 134.905 11.0739H136.028C136.156 11.0739 136.26 10.9703 136.26 10.8423V9.71916C136.26 9.59119 136.156 9.48755 136.028 9.48755Z" fill="#CCCCCC"/>
<path d="M133.278 9.48755H132.156C132.028 9.48755 131.924 9.59119 131.924 9.71916V10.8423C131.924 10.9703 132.028 11.0739 132.156 11.0739H133.278C133.406 11.0739 133.511 10.9703 133.511 10.8423V9.71916C133.511 9.59119 133.406 9.48755 133.278 9.48755Z" fill="#CCCCCC"/>
<path d="M138.619 9.54053H137.497C137.369 9.54053 137.265 9.64417 137.265 9.77214V10.8953C137.265 11.0233 137.369 11.1269 137.497 11.1269H138.619C138.747 11.1269 138.852 11.0233 138.852 10.8953V9.77214C138.852 9.64417 138.747 9.54053 138.619 9.54053Z" fill="#CCCCCC"/>
<path d="M121.706 9.96777H112.736C112.58 9.96777 112.454 10.0947 112.454 10.2502C112.454 10.4056 112.58 10.5325 112.736 10.5325H121.706C121.861 10.5325 121.988 10.4056 121.988 10.2502C121.988 10.0947 121.861 9.96777 121.706 9.96777Z" fill="#CCCCCC"/>
</g>
<defs>
<clipPath id="clip0_346_953">
<rect width="227" height="143.455" fill="white"/>
</clipPath>
</defs>
</svg>
