<svg width="401" height="375" viewBox="0 0 401 375" fill="none" xmlns="http://www.w3.org/2000/svg">
<path d="M172.242 375L0.364014 374.542V373.495L172.242 373.953V375Z" fill="#D6D6E3"/>
<path d="M139.584 180.374L130.972 161.503L121.063 167.093L129.675 185.964C129.209 187.605 129.041 189.333 129.181 191.047C129.322 192.761 129.768 194.427 130.494 195.947C133.178 201.828 138.903 204.594 143.281 202.124C147.659 199.654 149.032 192.884 146.347 187.001C145.672 185.452 144.726 184.069 143.565 182.931C142.404 181.793 141.05 180.923 139.584 180.372V180.374Z" fill="#9F616A"/>
<path d="M81.1377 95.0643L124.644 185.469L141.655 175.352L103.545 82.7175" fill="#166D86"/>
<path d="M104.903 116.251L116.76 177.48L65.0812 179.488C65.0812 179.488 71.8516 136.963 69.4484 129.614L104.903 116.251Z" fill="#9F616A"/>
<path d="M114.776 344.109H126.852V361.806H114.776V344.109Z" fill="#9F616A"/>
<path d="M112.331 372.284C111.875 371.929 111.491 371.47 111.206 370.938C110.92 370.406 110.739 369.814 110.674 369.198C110.598 367.92 111.173 366.548 112.384 365.121C112.413 364.71 112.789 359.623 113.627 358.712C113.556 358.44 113.13 356.637 113.829 355.462C114.008 355.178 114.244 354.945 114.518 354.779C114.791 354.613 115.095 354.519 115.407 354.505L115.438 354.501L115.454 354.532C115.474 354.571 117.512 358.507 120.578 358.852C122.335 359.053 124.094 358.045 125.807 355.864C125.867 355.703 126.352 353.045 126.665 351.287L126.677 351.217L143.38 360.978L153.143 363.982C153.7 364.153 154.198 364.51 154.568 365.004C154.938 365.498 155.164 366.105 155.216 366.746C155.267 367.387 155.142 368.029 154.856 368.588C154.57 369.148 154.137 369.596 153.616 369.875L148.884 372.404C146.893 373.464 144.714 374.016 142.507 374.02H116.837C115.201 374.03 113.611 373.418 112.331 372.285L112.331 372.284Z" fill="#090814"/>
<path d="M35.1278 336.036L46.7236 339.786L42.2776 356.779L30.6817 353.028L35.1278 336.036Z" fill="#9F616A"/>
<path d="M25.7015 362.332C25.3522 361.849 25.099 361.289 24.9583 360.689C24.8177 360.09 24.7928 359.463 24.8853 358.852C25.1333 357.601 26.0289 356.462 27.5516 355.468C27.6828 355.083 29.3217 350.316 30.3545 349.7C30.3545 349.417 30.3997 347.551 31.3657 346.642C31.6092 346.426 31.8942 346.275 32.1986 346.2C32.503 346.126 32.8187 346.131 33.1213 346.214L33.152 346.22L33.1592 346.254C33.1689 346.298 34.1367 350.71 36.9932 351.994C38.6309 352.73 40.5731 352.311 42.7657 350.749C42.865 350.615 43.9977 348.212 44.7392 346.62L44.7687 346.553L58.3554 361.117L66.9754 367.034C67.4675 367.371 67.8554 367.868 68.0871 368.457C68.3188 369.046 68.3834 369.699 68.2722 370.33C68.161 370.961 67.8793 371.539 67.4648 371.988C67.0502 372.436 66.5226 372.733 65.9522 372.839L60.7725 373.798C58.5948 374.198 56.3642 374.051 54.244 373.369L29.5956 365.397C28.022 364.899 26.6489 363.817 25.7045 362.332H25.7015Z" fill="#090814"/>
<path d="M59.499 148.353L111.178 149.691C111.178 149.691 142.582 250.334 141.38 345.871H98.2697L95.7099 234.965L88.2221 350.178L31.412 346.541L59.499 148.353Z" fill="#090814"/>
<path d="M108.927 35.9461C108.927 32.1712 108.047 28.4605 106.373 25.1766C104.698 21.8927 102.286 19.1477 99.3725 17.2098C96.4587 15.2719 93.1427 14.2073 89.7483 14.1199C86.3538 14.0325 82.997 14.9253 80.0057 16.7112C77.0143 18.497 74.4907 21.1149 72.6812 24.3091C70.8716 27.5033 69.8381 31.1647 69.6816 34.9356C69.525 38.7066 70.2507 42.4582 71.7878 45.8242C73.325 49.1902 75.621 52.0554 78.4516 54.1401C76.8272 58.6394 74.6671 62.876 72.029 66.7365L91.3774 84.6628L95.1728 56.7773C99.1608 55.3843 102.645 52.613 105.119 48.8665C107.592 45.12 108.926 40.5937 108.927 35.9461Z" fill="#9F616A"/>
<path d="M95.1277 67.2453L72.894 61.2322L58.6423 81.5206C55.2474 89.2205 54.7117 98.0958 57.1508 106.231L68.9686 145.649C68.9686 145.649 105.024 144.98 112.835 121.597L115.075 116.41C116.577 112.93 117.203 109.062 116.885 105.218C116.567 101.374 115.317 97.6984 113.269 94.5814L95.1277 67.2453Z" fill="#166D86"/>
<path d="M71.4615 197.564L71.8744 176.41L60.7657 176.143L60.3528 197.296C59.2449 198.499 58.3636 199.935 57.7603 201.521C57.1569 203.106 56.8435 204.809 56.8384 206.531C56.7096 213.125 60.5845 218.566 65.4928 218.684C70.401 218.803 74.4859 213.55 74.6123 206.956C74.674 205.237 74.4272 203.52 73.8863 201.908C73.3453 200.295 72.521 198.819 71.4615 197.564Z" fill="#9F616A"/>
<path d="M56.1251 91.6897V194.223H75.4175L81.1196 92.5549" fill="#166D86"/>
<path d="M78.9393 39.1744C78.9393 39.1744 94.4032 33.4704 90.5909 26.9955C90.5909 26.9955 107.003 30.1741 107.427 26.9955C107.851 23.817 107.427 3.45026 85.1909 6.74657C62.9548 10.0429 65.9196 30.7623 65.9196 30.7623C65.9196 30.7623 67.5447 50.7911 79.5081 54.9118C79.5081 54.9118 70.2567 35.0543 78.9393 39.1744Z" fill="#090814"/>
<path d="M74.0665 18.4476C74.0665 18.4476 69.5001 14.7813 64.1736 15.9095C62.3078 16.3043 60.336 17.822 58.5581 19.628C55.0096 23.3041 52.2834 27.8517 50.5971 32.9076C45.9405 46.4783 36.1673 80.4238 53.2652 84.586C74.7009 89.8055 76.0322 39.3899 76.0322 39.3899L74.0665 18.449V18.4476Z" fill="#090814"/>
<path d="M157.796 164.337C157.631 164.216 157.446 164.133 157.252 164.091C157.058 164.05 156.859 164.051 156.665 164.096C156.471 164.14 156.288 164.227 156.124 164.35C155.96 164.473 155.82 164.631 155.712 164.815L152.871 169.615L152.645 169.472L150.721 172.736L150.946 172.868L140.771 190.064C140.424 190.652 140.28 191.361 140.368 192.058C140.456 192.755 140.769 193.393 141.248 193.853L150.209 202.445C150.427 202.654 150.684 202.807 150.961 202.895C151.238 202.982 151.529 203.001 151.814 202.949C152.098 202.898 152.369 202.779 152.608 202.599C152.846 202.419 153.046 202.184 153.194 201.909L166.755 176.708C167.039 176.179 167.153 175.558 167.078 174.948C167.004 174.338 166.745 173.773 166.344 173.348L158.015 164.533C157.948 164.46 157.875 164.395 157.796 164.337Z" fill="#3F3D56"/>
<path d="M163.715 172.616L159.337 167.983C159.258 167.9 159.206 167.79 159.19 167.67C159.173 167.551 159.192 167.428 159.244 167.322C159.303 167.201 159.324 167.063 159.305 166.927C159.286 166.792 159.227 166.667 159.138 166.573L158.216 165.597C158.09 165.463 157.939 165.363 157.775 165.301C157.61 165.24 157.435 165.219 157.262 165.241C157.09 165.263 156.923 165.327 156.775 165.428C156.627 165.529 156.501 165.665 156.406 165.827L141.638 190.743C141.454 191.052 141.38 191.426 141.428 191.792C141.477 192.159 141.645 192.492 141.901 192.73L150.965 201.139C151.081 201.247 151.216 201.325 151.361 201.369C151.506 201.413 151.658 201.421 151.807 201.394C151.956 201.367 152.097 201.304 152.222 201.21C152.347 201.116 152.452 200.994 152.53 200.851L166.114 175.998C166.314 175.632 166.395 175.201 166.344 174.776C166.293 174.352 166.113 173.959 165.834 173.664L164.864 172.637C164.706 172.796 164.499 172.882 164.286 172.878C164.072 172.874 163.868 172.781 163.715 172.616Z" fill="#166D86"/>
<path d="M150.787 186.207C150.59 186.018 150.453 185.763 150.398 185.48L150.395 185.462L149.695 181.725C149.629 181.374 149.692 181.01 149.868 180.711C150.045 180.412 150.321 180.203 150.636 180.13C150.951 180.058 151.279 180.127 151.548 180.323C151.817 180.52 152.004 180.827 152.07 181.177L152.52 183.6L159.233 182.055C159.389 182.018 159.55 182.017 159.707 182.05C159.864 182.083 160.013 182.15 160.146 182.248C160.279 182.345 160.394 182.471 160.483 182.617C160.572 182.764 160.635 182.929 160.667 183.103L160.624 183.114L160.667 183.103C160.732 183.453 160.669 183.817 160.493 184.116C160.316 184.414 160.041 184.623 159.726 184.695L151.826 186.51C151.644 186.552 151.456 186.546 151.276 186.494C151.096 186.441 150.929 186.343 150.789 186.208L150.787 186.207Z" fill="white"/>
<path d="M389.891 0H192.56C189.782 0.00283488 187.119 1.23089 185.155 3.41461C183.191 5.59833 182.087 8.55927 182.084 11.6475V47.2043C182.087 50.2919 183.192 53.2518 185.156 55.4346C187.12 57.6175 189.783 58.845 192.56 58.8478H389.891C392.668 58.8439 395.33 57.6159 397.293 55.4332C399.256 53.2505 400.361 50.2912 400.364 47.2043V11.6468C400.361 8.55941 399.257 5.59923 397.294 3.41577C395.331 1.23232 392.668 0.00389725 389.891 0Z" fill="white"/>
<path d="M389.891 0H192.56C189.782 0.00283488 187.119 1.23089 185.155 3.41461C183.191 5.59833 182.087 8.55927 182.084 11.6475V47.2043C182.087 50.2919 183.192 53.2518 185.156 55.4346C187.12 57.6175 189.783 58.845 192.56 58.8478H389.891C392.668 58.8439 395.33 57.6159 397.293 55.4332C399.256 53.2505 400.361 50.2912 400.364 47.2043V11.6468C400.361 8.55941 399.257 5.59923 397.294 3.41577C395.331 1.23232 392.668 0.00389725 389.891 0ZM399.262 47.2043C399.257 49.9658 398.268 52.6128 396.512 54.5655C394.756 56.5183 392.375 57.6178 389.891 57.6232H192.56C190.076 57.6186 187.694 56.5195 185.937 54.5667C184.181 52.6138 183.191 49.9664 183.187 47.2043V11.6468C183.191 8.88427 184.18 6.23617 185.937 4.28274C187.694 2.32931 190.075 1.22984 192.56 1.22524H389.891C392.376 1.22984 394.758 2.32931 396.515 4.28274C398.272 6.23617 399.261 8.88427 399.265 11.6468L399.262 47.2043Z" fill="#3F3D56"/>
<path d="M232.717 49.6971C229.11 49.6971 225.585 48.5082 222.587 46.2806C219.588 44.0531 217.251 40.887 215.871 37.1827C214.491 33.4784 214.13 29.4023 214.833 25.4698C215.537 21.5373 217.273 17.9252 219.823 15.09C222.373 12.2549 225.622 10.3241 229.159 9.54188C232.696 8.75967 236.363 9.16113 239.694 10.6955C243.026 12.2299 245.874 14.8282 247.877 18.162C249.881 21.4958 250.95 25.4152 250.95 29.4247C250.95 34.8013 249.029 39.9577 245.61 43.7595C242.19 47.5613 237.552 49.6971 232.717 49.6971Z" fill="#166D86"/>
<path d="M362.961 45.9764H268.19C267.029 45.9613 265.921 45.438 265.104 44.52C264.288 43.602 263.831 42.3632 263.831 41.0724C263.831 39.7817 264.288 38.5429 265.104 37.6249C265.921 36.7068 267.029 36.1835 268.19 36.1685H362.961C364.122 36.1835 365.231 36.7068 366.047 37.6249C366.863 38.5429 367.321 39.7817 367.321 41.0724C367.321 42.3632 366.863 43.602 366.047 44.52C365.231 45.438 364.122 45.9613 362.961 45.9764Z" fill="#E6E6E6"/>
<path d="M299.557 25.1339H268.19C267.029 25.1188 265.921 24.5955 265.104 23.6775C264.288 22.7594 263.831 21.5207 263.831 20.2299C263.831 18.9391 264.288 17.7004 265.104 16.7823C265.921 15.8643 267.029 15.341 268.19 15.3259H299.557C300.727 15.3259 301.849 15.8426 302.676 16.7624C303.503 17.6821 303.968 18.9295 303.968 20.2302C303.968 21.5309 303.503 22.7784 302.676 23.6981C301.849 24.6179 300.727 25.1346 299.557 25.1346V25.1339Z" fill="#E6E6E6"/>
<path d="M229 36.6049C228.569 36.4519 228.195 36.1471 227.933 35.7366L227.917 35.7112L224.524 30.2769C224.207 29.7679 224.084 29.1396 224.184 28.5303C224.283 27.9211 224.596 27.3807 225.054 27.0281C225.512 26.6754 226.077 26.5395 226.625 26.6501C227.173 26.7607 227.659 27.1088 227.976 27.6179L230.173 31.1436L239.946 23.6148C240.404 23.2623 240.969 23.1264 241.516 23.2369C242.064 23.3475 242.55 23.6954 242.867 24.2042L242.806 24.2525L242.868 24.2046C243.185 24.7138 243.306 25.3417 243.207 25.9507C243.107 26.5596 242.795 27.0998 242.337 27.4526L230.845 36.3016C230.579 36.5053 230.275 36.6382 229.956 36.69C229.637 36.7419 229.311 36.7113 229.004 36.6006L229 36.6049Z" fill="white"/>
</svg>
