<svg width="400" height="427" viewBox="0 0 400 427" fill="none" xmlns="http://www.w3.org/2000/svg">
<g clip-path="url(#clip0_758_1228)">
<path d="M182.315 132.038L200 137.82V112.516H183.952L182.315 132.038Z" fill="#F3A3A6"/>
<path d="M197.813 119.519C207.547 119.519 215.438 111.676 215.438 102.001C215.438 92.326 207.547 84.483 197.813 84.483C188.079 84.483 180.188 92.326 180.188 102.001C180.188 111.676 188.079 119.519 197.813 119.519Z" fill="#F3A3A6"/>
<path d="M193.326 103.376L195.751 106.305L200.148 98.6587C200.148 98.6587 205.758 98.9471 205.758 94.8061C205.758 90.6651 210.906 90.5542 210.906 90.5542C210.906 90.5542 218.19 77.9095 203.102 81.2444C203.102 81.2444 192.634 74.1161 187.433 80.2092C187.433 80.2092 171.475 88.1953 176.043 102.105L183.632 116.443L185.35 113.196C185.35 113.196 184.309 99.5756 193.333 103.369L193.326 103.376Z" fill="#2F2E43"/>
<path d="M208.556 412.825H224.135V390.855H208.556V412.825Z" fill="#F3A3A6"/>
<path d="M222.409 425.41C219.746 425.647 206.413 426.697 205.744 423.658C205.134 420.87 206.034 417.957 206.16 417.557C207.44 404.883 207.916 404.742 208.206 404.661C208.66 404.528 209.985 405.157 212.135 406.532L212.269 406.621L212.298 406.776C212.336 406.976 213.288 411.627 217.804 410.91C220.899 410.422 221.903 409.741 222.223 409.408C221.963 409.29 221.635 409.083 221.405 408.728C221.07 408.211 221.01 407.545 221.234 406.746C221.814 404.639 223.555 401.526 223.629 401.4L223.83 401.045L241.537 412.921L252.474 416.027C253.3 416.263 253.962 416.847 254.297 417.631C254.758 418.726 254.475 419.997 253.582 420.796C251.596 422.571 247.653 425.61 243.509 425.987C242.408 426.091 240.949 426.128 239.313 426.128C232.475 426.128 222.491 425.425 222.417 425.41H222.409Z" fill="#2F2E43"/>
<path d="M145.409 379.938L157.769 389.365L171.225 371.935L158.865 362.509L145.409 379.938Z" fill="#F3A3A6"/>
<path d="M148.679 398.302C146.417 396.882 135.198 389.643 136.53 386.833C137.75 384.252 140.25 382.477 140.599 382.248C149.379 372.968 149.84 373.145 150.123 373.249C150.569 373.419 151.231 374.713 152.094 377.109L152.146 377.257L152.072 377.397C151.983 377.575 149.892 381.849 153.902 384.008C156.655 385.494 157.868 385.561 158.329 385.494C158.195 385.243 158.061 384.88 158.098 384.459C158.15 383.845 158.507 383.283 159.177 382.78C160.925 381.464 164.214 380.044 164.355 379.985L164.727 379.823L171.505 399.958L178.283 409.039C178.796 409.726 178.96 410.591 178.744 411.42C178.439 412.573 177.435 413.409 176.237 413.497C173.573 413.705 168.581 413.727 165.069 411.523C164.139 410.939 162.956 410.089 161.654 409.098C156.231 404.957 148.739 398.361 148.687 398.309L148.679 398.302Z" fill="#2F2E43"/>
<path d="M0 426.12C0 426.608 0.394316 427 0.885351 427H399.115C399.606 427 400 426.608 400 426.12C400 425.632 399.606 425.24 399.115 425.24H0.885351C0.394316 425.24 0 425.632 0 426.12Z" fill="#CCCCCC"/>
<path d="M233.762 233.048L174.942 239.015C174.942 239.015 166.542 266.456 178.543 279.582L185.745 316.569L153.336 360.715L173.744 373.84L202.552 342.82V395.314L230.161 392.926L243.367 310.602L233.762 233.048Z" fill="#2F2E43"/>
<path d="M207.35 128.052C207.35 128.052 202.552 119.703 182.144 120.894L177.345 131.631C177.345 131.631 162.941 135.21 162.941 156.684C162.941 178.158 170.143 242.587 170.143 242.587L240.369 238.409L207.886 137.495L207.358 128.044L207.35 128.052Z" fill="#166D86"/>
<path d="M271.185 204.231C275.776 206.331 278.343 210.457 276.922 213.452C275.501 216.447 270.62 217.172 266.03 215.079C264.184 214.265 262.57 213.016 261.328 211.419L241.991 202.279L246.753 193.065L265.315 203.055C267.354 202.967 269.378 203.366 271.2 204.231H271.185Z" fill="#F3A3A6"/>
<path d="M259.207 210.967L212.529 195.816L212.477 195.764L176.921 163.065C171.475 158.059 170.657 149.785 175.024 143.817C177.695 140.164 181.832 137.983 186.37 137.828C190.909 137.672 195.186 139.573 198.103 143.033L224.805 174.727L263.262 199.558L259.207 210.967Z" fill="#166D86"/>
</g>
<defs>
<clipPath id="clip0_758_1228">
<rect width="400" height="427" fill="white"/>
</clipPath>
</defs>
</svg>
