<svg width="526" height="427" viewBox="0 0 526 427" fill="none" xmlns="http://www.w3.org/2000/svg">
<g clip-path="url(#clip0_826_1557)">
<path d="M16.6601 261.603C19.2652 235.012 35.0105 208.469 60.0631 199.184C50.8057 226.725 51.5881 256.653 62.272 283.672C66.4302 294.077 72.1384 305.218 68.7609 315.902C66.6595 322.55 61.2298 327.736 55.0958 331.05C48.9613 334.364 42.1014 336.046 35.327 337.696L34.0151 338.84C22.5632 314.701 14.055 288.193 16.6601 261.603Z" fill="#F0F0F0"/>
<path d="M60.3276 199.679C46.1825 216.375 37.2797 237.697 35.7231 259.557C35.3865 264.283 35.4564 269.106 36.6081 273.726C37.7652 278.22 40.1046 282.322 43.3834 285.607C46.3791 288.73 49.805 291.579 51.9891 295.376C54.2913 299.379 54.496 303.99 53.1048 308.342C51.4027 313.666 47.8889 318.062 44.3033 322.241C40.3222 326.88 36.1136 331.637 34.5277 337.692C34.3356 338.425 33.2085 338.084 33.4003 337.352C36.1594 326.817 46.1542 320.614 50.749 311.07C52.893 306.617 53.708 301.491 51.4697 296.907C49.5124 292.899 45.982 289.959 42.9215 286.822C39.708 283.529 37.2149 279.889 35.8638 275.452C34.4818 270.914 34.2231 266.084 34.4374 261.37C35.0029 250.684 37.245 240.154 41.0816 230.165C45.3971 218.74 51.6351 208.138 59.5257 198.816C60.0144 198.24 60.8131 199.106 60.3276 199.679Z" fill="white"/>
<path d="M35.8538 252.425C32.1933 251.637 28.9322 249.573 26.6529 246.602C24.3735 243.631 23.2244 239.947 23.4107 236.207C23.4197 236.055 23.4875 235.912 23.5998 235.808C23.7122 235.705 23.8603 235.649 24.013 235.653C24.1657 235.657 24.311 235.719 24.4183 235.828C24.5256 235.937 24.5865 236.083 24.5882 236.235C24.4083 239.718 25.479 243.149 27.6072 245.911C29.7354 248.673 32.7808 250.584 36.1938 251.297C36.9353 251.453 36.5911 252.58 35.8538 252.425Z" fill="white"/>
<path d="M41.6556 284.223C48.1231 280.129 52.8098 273.748 54.7814 266.352C54.9761 265.619 56.1033 265.959 55.9088 266.692C53.8428 274.384 48.952 281.015 42.2124 285.261C41.5698 285.665 41.0164 284.625 41.6556 284.223Z" fill="white"/>
<path d="M46.518 219.827C47.8707 220.427 49.3514 220.682 50.827 220.568C52.3025 220.454 53.7268 219.976 54.9718 219.176C55.609 218.764 56.1618 219.804 55.5287 220.214C54.149 221.091 52.5754 221.618 50.9454 221.747C49.3154 221.876 47.6786 221.604 46.178 220.954C46.0314 220.905 45.9092 220.801 45.836 220.665C45.7629 220.529 45.7444 220.37 45.7843 220.22C45.83 220.071 45.9327 219.946 46.0701 219.873C46.2075 219.799 46.3685 219.782 46.518 219.827Z" fill="white"/>
<path d="M138.347 244.516C137.957 244.785 137.566 245.053 137.175 245.332C131.943 248.972 127.015 253.03 122.44 257.467C122.081 257.805 121.722 258.152 121.373 258.499C110.465 269.308 101.659 282.047 95.401 296.07C92.9161 301.653 90.8595 307.416 89.249 313.311C87.0253 321.451 85.262 330.455 80.6157 337.187C80.1388 337.895 79.6186 338.573 79.0579 339.216L35.5126 340.352C35.4124 340.305 35.3119 340.267 35.2112 340.22L33.4746 340.345C33.5364 340.035 33.6072 339.715 33.6691 339.406C33.7042 339.226 33.749 339.046 33.7841 338.866C33.8106 338.746 33.8376 338.626 33.8546 338.516C33.8633 338.476 33.8724 338.436 33.8813 338.406C33.8984 338.296 33.9258 338.196 33.9431 338.096C34.3339 336.306 34.7378 334.516 35.1551 332.726C35.1548 332.716 35.1548 332.716 35.1642 332.706C38.3782 319.071 42.7586 305.585 49.0467 293.193C49.236 292.82 49.4246 292.437 49.6338 292.064C52.4992 286.494 55.815 281.167 59.5482 276.137C61.6012 273.39 63.792 270.748 66.1122 268.222C72.1197 261.706 79.1148 256.176 86.8408 251.834C102.244 243.181 120.243 239.55 137.065 244.152C137.496 244.27 137.917 244.388 138.347 244.516Z" fill="#F0F0F0"/>
<path d="M138.263 245.071C116.917 249.886 96.9711 261.551 82.5673 278.067C79.4532 281.638 76.605 285.531 74.7432 289.913C72.9613 294.198 72.3593 298.882 72.9998 303.478C73.511 307.776 74.5315 312.113 73.9891 316.46C73.4173 321.042 70.8047 324.847 67.0738 327.484C62.509 330.711 57.0571 332.104 51.6782 333.282C45.706 334.59 39.482 335.854 34.5702 339.734C33.9751 340.204 33.2805 339.253 33.8747 338.783C42.4203 332.033 54.1356 333.098 63.5501 328.244C67.9431 325.979 71.6802 322.377 72.6525 317.37C73.5028 312.991 72.4542 308.518 71.8991 304.171C71.3161 299.607 71.5174 295.199 73.1095 290.843C74.7382 286.388 77.4402 282.375 80.4493 278.74C87.3343 270.549 95.4644 263.491 104.542 257.825C114.866 251.301 126.23 246.592 138.142 243.9C138.88 243.734 138.996 244.906 138.263 245.071Z" fill="white"/>
<path d="M86.9668 272.451C84.5187 269.618 83.1574 266.007 83.126 262.262C83.0947 258.518 84.3954 254.885 86.7957 252.011C87.2834 251.431 88.2073 252.162 87.719 252.742C85.4788 255.414 84.2676 258.799 84.3039 262.286C84.3402 265.772 85.6217 269.131 87.917 271.756C88.4151 272.327 87.462 273.019 86.9668 272.451Z" fill="white"/>
<path d="M72.4546 301.333C80.0834 301.958 87.6675 299.685 93.6946 294.967C94.2914 294.499 94.9862 295.45 94.3901 295.917C88.109 300.815 80.2118 303.165 72.2745 302.497C71.518 302.433 71.7022 301.27 72.4546 301.333Z" fill="white"/>
<path d="M115.108 252.844C115.827 254.138 116.855 255.233 118.102 256.03C119.348 256.828 120.773 257.304 122.249 257.415C123.006 257.469 122.821 258.632 122.069 258.578C120.439 258.448 118.866 257.921 117.487 257.043C116.108 256.164 114.965 254.962 114.158 253.54C114.07 253.412 114.035 253.256 114.058 253.103C114.082 252.95 114.163 252.812 114.285 252.717C114.411 252.625 114.568 252.587 114.722 252.611C114.877 252.635 115.015 252.719 115.108 252.844Z" fill="white"/>
<path d="M353.158 31.7768C352.508 29.857 344.355 23.3313 349.351 22.2344L353.448 27.6974L372.285 8.86121L374.179 10.7557L353.158 31.7768Z" fill="#166D86"/>
<path d="M353.158 95.8277C352.508 93.908 344.355 87.3822 349.351 86.2853L353.448 91.7483L372.285 72.9121L374.179 74.8066L353.158 95.8277Z" fill="#166D86"/>
<path d="M353.158 160.794C352.508 158.874 344.355 152.348 349.351 151.251L353.448 156.714L372.285 137.878L374.179 139.773L353.158 160.794Z" fill="#166D86"/>
<path d="M335.813 108.27C339.023 108.27 341.625 105.668 341.625 102.458C341.625 99.2476 339.023 96.6453 335.813 96.6453C332.602 96.6453 330 99.2476 330 102.458C330 105.668 332.602 108.27 335.813 108.27Z" fill="#3F3D56"/>
<path d="M335.813 44.9135C339.023 44.9135 341.625 42.3111 341.625 39.1009C341.625 35.8907 339.023 33.2883 335.813 33.2883C332.602 33.2883 330 35.8907 330 39.1009C330 42.3111 332.602 44.9135 335.813 44.9135Z" fill="#3F3D56"/>
<path d="M338.72 175.809C341.93 175.809 344.532 173.206 344.532 169.996C344.532 166.786 341.93 164.184 338.72 164.184C335.51 164.184 332.907 166.786 332.907 169.996C332.907 173.206 335.51 175.809 338.72 175.809Z" fill="#3F3D56"/>
<path d="M367.839 169.455H338.776V139.81H358.539V140.973H339.939V168.292H366.677V154.923H367.839V169.455Z" fill="#3F3D56"/>
<path d="M367.839 104.354H338.776V74.7096H358.539V75.8721H339.939V103.191H366.677V89.8223H367.839V104.354Z" fill="#3F3D56"/>
<path d="M367.839 38.0905H338.776V8.44641H358.539V9.60892H339.939V36.928H366.677V23.5591H367.839V38.0905Z" fill="#3F3D56"/>
<path d="M218.846 105.656C218.846 105.656 211.079 138.451 220.572 138.451C230.066 138.451 252.505 101.341 252.505 101.341L244.737 91.8474L230.796 111.203L230.066 101.341L218.846 105.656Z" fill="#A0616A"/>
<path d="M250.434 102.766C254.608 102.766 257.991 99.3834 257.991 95.2101C257.991 91.0369 254.608 87.6538 250.434 87.6538C246.261 87.6538 242.878 91.0369 242.878 95.2101C242.878 99.3834 246.261 102.766 250.434 102.766Z" fill="#A0616A"/>
<path d="M212.261 329.019L222.318 329.018L227.104 290.222L212.258 290.222L212.261 329.019Z" fill="#A0616A"/>
<path d="M211.906 339.512L242.837 339.511V339.119C242.836 335.926 241.568 332.864 239.31 330.607C237.052 328.349 233.99 327.081 230.798 327.081H230.797L225.147 322.794L214.606 327.081L211.906 327.081L211.906 339.512Z" fill="#2F2E41"/>
<path d="M104.067 316.47L113.067 320.961L134.673 288.385L121.391 281.756L104.067 316.47Z" fill="#A0616A"/>
<path d="M99.064 325.7L126.739 339.512L126.914 339.162C128.34 336.305 128.572 332.999 127.56 329.97C126.548 326.942 124.375 324.44 121.518 323.014L121.518 323.013L118.377 316.655L107.03 315.784L104.614 314.578L99.064 325.7Z" fill="#2F2E41"/>
<path d="M331.229 339.549H0V340.852H331.229V339.549Z" fill="#CCCCCC"/>
<path d="M147.232 165.151C147.232 165.151 143.212 213.482 142.349 223.838C141.757 230.33 140.306 236.715 138.034 242.825C138.034 242.825 136.308 246.277 136.308 249.729L116.746 285.281C116.746 285.281 110.768 289.675 111.631 293.127C112.494 296.579 108.027 298.65 108.027 298.65L128.628 302.62C128.628 302.62 127.764 300.031 130.354 299.168C132.943 298.305 135.004 290.82 135.004 290.82L163.925 243.688L184.637 200.536C184.637 200.536 196.72 239.373 199.309 243.688C199.309 243.688 208.802 292.018 210.528 296.333C212.254 300.648 213.118 300.648 212.254 302.374C211.391 304.1 211.391 305.826 212.254 306.689C213.118 307.552 229.515 306.689 229.515 306.689L225.2 245.414L217.433 172.056L177.733 159.974L147.232 165.151Z" fill="#2F2E41"/>
<path d="M186.1 49.774C196.109 49.774 204.223 41.6598 204.223 31.6504C204.223 21.641 196.109 13.5267 186.1 13.5267C176.09 13.5267 167.976 21.641 167.976 31.6504C167.976 41.6598 176.09 49.774 186.1 49.774Z" fill="#A0616A"/>
<path d="M219.158 76.2597L197.583 63.1881C197.583 63.1881 196.985 55.0709 190.838 54.689C187.752 54.4972 183.12 54.2041 176.17 53.756C174.701 53.6613 173.71 61.6972 172.027 61.5882L149.253 67.6294L152.705 126.316C152.705 126.316 147.527 149.617 149.253 153.933C150.979 158.248 144.938 159.974 146.664 160.837C148.39 161.7 146.664 167.741 146.664 167.741C146.664 167.741 180.322 185.002 217.432 172.056L213.98 160.837C214.45 159.37 214.538 157.808 214.236 156.298C213.934 154.788 213.252 153.38 212.254 152.206C212.254 152.206 215.706 147.028 211.391 142.713C211.391 142.713 213.117 134.946 208.802 131.494L207.939 119.411L210.528 113.37L219.158 76.2597Z" fill="#E6E6E6"/>
<path d="M170.373 42.0038L169.866 40.8271C169.801 40.675 163.392 25.5231 169.073 16.1771C171.703 11.8503 176.485 9.40747 183.285 8.91703C193.927 8.14761 201.21 10.6718 204.938 16.4143C205.563 17.3876 205.914 18.5113 205.955 19.6673C205.996 20.8232 205.724 21.9688 205.169 22.9836C204.614 23.9983 203.795 24.8447 202.8 25.4338C201.804 26.0229 200.669 26.3329 199.512 26.3312H199.369L197.414 23.7924L197.3 24.0393C196.592 25.5708 194.966 26.4092 193.062 26.2256C192.738 26.2023 192.451 26.4819 192.221 27.0802C192.143 27.3419 191.997 27.5779 191.797 27.7634C191.596 27.9489 191.35 28.0771 191.083 28.1345C189.676 28.4084 187.671 26.6363 186.773 25.753C186.738 25.9563 186.66 26.1498 186.545 26.3204C186.429 26.491 186.278 26.6347 186.101 26.7419C185.156 27.2877 183.683 26.5747 183.261 26.3476C179.894 27.0629 177.715 26.8716 176.782 25.7797C176.149 30.2575 174.791 38.3173 173.162 38.764C172.991 38.8032 172.813 38.7866 172.653 38.7166C172.493 38.6466 172.36 38.527 172.273 38.3755C171.881 37.8663 171.53 37.6126 171.311 37.6838C170.781 37.8524 170.469 39.5973 170.424 40.7235L170.373 42.0038Z" fill="#2F2E41"/>
<path d="M209.665 77.1228L218.274 75.7241C224.476 81.6828 228.7 89.4004 230.378 97.8356C232.967 111.644 233.83 114.233 233.83 114.233L213.117 119.411L201.897 97.8356L209.665 77.1228Z" fill="#E6E6E6"/>
<path d="M171.463 95.0834L166.143 162.529L301.916 173.239L307.236 105.794L171.463 95.0834Z" fill="white"/>
<path d="M185.969 100.309C182.646 97.936 178.428 97.7644 176.816 97.7985C177.308 99.3332 178.836 103.269 182.158 105.643C185.489 108.022 189.703 108.188 191.312 108.155C190.82 106.621 189.292 102.683 185.969 100.309Z" fill="#166D86"/>
<path d="M199.077 143.226L177.276 141.506C176.632 141.455 175.984 141.532 175.369 141.731C174.755 141.931 174.185 142.25 173.694 142.669C173.202 143.089 172.798 143.601 172.505 144.177C172.212 144.752 172.034 145.38 171.984 146.024C171.933 146.669 172.009 147.316 172.209 147.931C172.408 148.546 172.727 149.115 173.147 149.606C173.566 150.098 174.078 150.502 174.654 150.795C175.23 151.089 175.858 151.266 176.502 151.317L198.303 153.036C199.604 153.139 200.892 152.721 201.885 151.873C202.877 151.026 203.493 149.819 203.595 148.518C203.698 147.217 203.279 145.929 202.432 144.936C201.585 143.944 200.378 143.328 199.077 143.226Z" fill="#166D86"/>
<path d="M301.884 99.2379L179.652 89.5948C178.23 89.4828 176.8 89.652 175.444 90.0927C174.087 90.5333 172.831 91.2368 171.747 92.163C170.662 93.0891 169.771 94.2198 169.123 95.4905C168.476 96.7612 168.085 98.1469 167.973 99.5687L163.272 159.119C163.046 161.991 163.97 164.835 165.841 167.026C167.711 169.217 170.376 170.576 173.248 170.803L295.48 180.446C296.902 180.558 298.332 180.389 299.688 179.948C301.044 179.507 302.3 178.804 303.385 177.878C304.469 176.952 305.361 175.821 306.008 174.55C306.656 173.28 307.047 171.894 307.158 170.472L311.626 113.872L311.716 112.716L311.858 110.916C311.97 109.495 311.801 108.065 311.36 106.708C310.919 105.352 310.216 104.096 309.29 103.011C308.363 101.927 307.233 101.036 305.962 100.388C304.691 99.7406 303.306 99.3498 301.884 99.2379ZM298.275 151.05L297.5 160.861C297.358 162.593 296.537 164.2 295.214 165.328C293.892 166.457 292.176 167.016 290.443 166.883L274.09 165.594C272.357 165.453 270.751 164.631 269.622 163.308C268.494 161.986 267.935 160.27 268.068 158.537L268.842 148.726C268.984 146.994 269.806 145.388 271.129 144.259C272.451 143.131 274.166 142.572 275.9 142.704L292.247 143.994C293.979 144.136 295.586 144.958 296.715 146.279C297.844 147.601 298.405 149.316 298.275 151.05ZM170.902 145.934C171.029 144.347 171.78 142.874 172.991 141.84C174.202 140.806 175.774 140.294 177.362 140.417L199.162 142.138C199.95 142.199 200.718 142.414 201.422 142.772C202.126 143.13 202.753 143.623 203.267 144.223C203.78 144.823 204.171 145.518 204.415 146.269C204.66 147.02 204.754 147.812 204.693 148.6C204.632 149.387 204.416 150.155 204.057 150.859C203.699 151.563 203.206 152.189 202.605 152.702C202.005 153.215 201.309 153.605 200.558 153.849C199.807 154.093 199.015 154.187 198.227 154.125L198.216 154.128L176.416 152.407C175.628 152.345 174.861 152.128 174.158 151.769C173.454 151.41 172.828 150.915 172.316 150.314C171.804 149.713 171.416 149.017 171.173 148.265C170.93 147.513 170.838 146.721 170.902 145.934ZM175.569 97.4098L175.42 96.7999L176.047 96.7425C176.292 96.7161 182.091 96.1955 186.605 99.42C191.12 102.645 192.504 108.302 192.564 108.539L192.707 109.15L192.082 109.213C191.194 109.279 190.302 109.273 189.414 109.196C186.592 109.03 183.866 108.11 181.522 106.53C177.008 103.305 175.623 97.6478 175.569 97.4098Z" fill="#166D86"/>
<path d="M279.934 157.556L272.849 156.997C272.344 156.958 271.844 157.122 271.458 157.451C271.073 157.781 270.834 158.249 270.795 158.755C270.755 159.26 270.917 159.761 271.246 160.146C271.574 160.532 272.043 160.772 272.548 160.813L279.634 161.371C280.139 161.41 280.639 161.247 281.024 160.918C281.41 160.588 281.648 160.119 281.688 159.614C281.728 159.109 281.566 158.608 281.237 158.222C280.908 157.837 280.44 157.597 279.934 157.556Z" fill="#166D86"/>
<path d="M293.016 158.588L285.93 158.029C285.425 157.991 284.925 158.154 284.54 158.483C284.155 158.813 283.917 159.282 283.877 159.787C283.837 160.292 283.999 160.792 284.328 161.178C284.656 161.564 285.124 161.803 285.629 161.844L292.715 162.403C293.22 162.442 293.72 162.279 294.105 161.949C294.49 161.62 294.728 161.151 294.768 160.646C294.808 160.141 294.646 159.64 294.317 159.255C293.989 158.869 293.521 158.629 293.016 158.588Z" fill="#166D86"/>
<path d="M280.322 152.651L273.237 152.092C272.731 152.053 272.231 152.217 271.847 152.546C271.462 152.876 271.223 153.344 271.183 153.849C271.143 154.355 271.305 154.855 271.634 155.241C271.963 155.626 272.431 155.866 272.936 155.907L280.021 156.466C280.526 156.505 281.027 156.342 281.412 156.012C281.797 155.683 282.036 155.214 282.076 154.709C282.116 154.203 281.953 153.703 281.625 153.317C281.296 152.931 280.827 152.692 280.322 152.651Z" fill="#166D86"/>
<path d="M293.403 153.683L286.317 153.124C285.812 153.085 285.312 153.248 284.927 153.578C284.541 153.907 284.303 154.376 284.263 154.881C284.223 155.387 284.385 155.887 284.714 156.273C285.043 156.659 285.511 156.898 286.016 156.939L293.102 157.498C293.607 157.537 294.108 157.374 294.493 157.044C294.878 156.715 295.117 156.246 295.157 155.741C295.197 155.235 295.034 154.735 294.705 154.349C294.377 153.963 293.908 153.724 293.403 153.683Z" fill="#166D86"/>
<path d="M280.709 147.746L273.624 147.187C273.118 147.148 272.618 147.311 272.233 147.64C271.848 147.97 271.609 148.439 271.569 148.944C271.529 149.45 271.691 149.95 272.02 150.336C272.349 150.722 272.817 150.961 273.323 151.002L280.408 151.561C280.913 151.6 281.413 151.436 281.798 151.107C282.183 150.777 282.422 150.309 282.461 149.803C282.501 149.298 282.339 148.798 282.011 148.412C281.682 148.027 281.214 147.787 280.709 147.746Z" fill="#166D86"/>
<path d="M293.789 148.778L286.704 148.219C286.199 148.18 285.699 148.343 285.314 148.673C284.929 149.002 284.69 149.471 284.65 149.976C284.611 150.481 284.773 150.982 285.101 151.367C285.43 151.753 285.898 151.993 286.403 152.034L293.488 152.593C293.994 152.631 294.493 152.468 294.878 152.139C295.263 151.809 295.502 151.34 295.542 150.835C295.582 150.33 295.419 149.83 295.091 149.444C294.762 149.058 294.294 148.819 293.789 148.778Z" fill="#166D86"/>
<path d="M166.157 118.358L166.065 119.518L309.55 130.789L309.641 129.63L166.157 118.358Z" fill="white"/>
<path d="M311.715 112.715L311.625 113.872L306.631 113.48L253.427 109.301L253.523 108.143L306.721 112.324L311.715 112.715Z" fill="#3F3D56"/>
<path d="M136.307 100.425C136.307 100.425 128.54 133.22 138.033 133.22C147.527 133.22 169.966 96.1094 169.966 96.1094L162.198 86.6161L148.257 105.972L147.527 96.1094L136.307 100.425Z" fill="#A0616A"/>
<path d="M167.896 97.5352C172.069 97.5352 175.453 94.1521 175.453 89.9788C175.453 85.8056 172.069 82.4225 167.896 82.4225C163.723 82.4225 160.34 85.8056 160.34 89.9788C160.34 94.1521 163.723 97.5352 167.896 97.5352Z" fill="#A0616A"/>
<path d="M155.54 72.8077L150.362 67.6295C150.362 67.6295 140.006 73.6707 139.143 79.712C138.28 85.7532 133.964 104.74 133.964 104.74L149.93 106.034L155.109 98.2671L155.54 72.8077Z" fill="#E6E6E6"/>
</g>
<defs>
<clipPath id="clip0_826_1557">
<rect width="525.666" height="340.852" fill="white"/>
</clipPath>
</defs>
</svg>
