<svg width="418" height="435" viewBox="0 0 418 435" fill="none" xmlns="http://www.w3.org/2000/svg">
<g clip-path="url(#clip0_826_1559)">
<path d="M199.814 280.612L129.664 263.447C128.127 263.076 126.696 262.362 125.48 261.36C124.264 260.358 123.294 259.094 122.646 257.663C121.983 256.218 121.661 254.641 121.705 253.053C121.75 251.465 122.159 249.908 122.902 248.5C136.072 223.23 143.059 195.245 143.298 166.811C143.303 165.223 143.674 163.656 144.382 162.231C145.09 160.805 146.117 159.559 147.384 158.585C148.631 157.619 150.083 156.947 151.631 156.621C153.179 156.295 154.781 156.324 156.316 156.704L226.466 173.869C228.886 174.469 231.013 175.901 232.466 177.91C233.92 179.919 234.607 182.376 234.404 184.841C231.597 215.704 224.042 245.962 212.002 274.565C211.021 276.84 209.257 278.697 207.025 279.804C204.793 280.912 202.238 281.198 199.814 280.612Z" fill="#E6E6E6"/>
<path d="M155.008 161.938C154.271 161.755 153.502 161.741 152.759 161.898C152.015 162.054 151.317 162.376 150.718 162.84C150.102 163.314 149.603 163.922 149.26 164.616C148.916 165.311 148.736 166.074 148.734 166.847C148.488 196.131 141.292 224.951 127.729 250.977C127.367 251.661 127.166 252.419 127.144 253.192C127.121 253.965 127.277 254.732 127.599 255.436C127.91 256.123 128.376 256.731 128.96 257.212C129.545 257.693 130.232 258.036 130.97 258.214L201.12 275.379C202.283 275.664 203.511 275.53 204.584 275.002C205.658 274.473 206.508 273.584 206.983 272.493C218.81 244.397 226.231 214.675 228.988 184.36C229.081 183.175 228.748 181.997 228.046 181.034C227.345 180.072 226.322 179.387 225.158 179.103L155.008 161.938Z" fill="white"/>
<path d="M203.567 200.524L166.755 191.516C165.357 191.172 164.153 190.292 163.408 189.069C162.664 187.846 162.439 186.379 162.784 184.991L163.295 182.946C163.643 181.559 164.532 180.365 165.766 179.626C167.001 178.887 168.48 178.663 169.88 179.004L206.691 188.011C208.09 188.355 209.294 189.235 210.039 190.459C210.783 191.682 211.008 193.149 210.663 194.537L210.152 196.582C209.804 197.969 208.915 199.163 207.681 199.902C206.446 200.641 204.967 200.865 203.567 200.524Z" fill="#E6E6E6"/>
<path d="M197.115 226.367L160.303 217.359C158.904 217.015 157.701 216.135 156.956 214.912C156.212 213.688 155.987 212.222 156.332 210.834L156.843 208.789C157.191 207.401 158.079 206.207 159.314 205.468C160.548 204.729 162.028 204.506 163.428 204.847L200.239 213.854C201.638 214.198 202.842 215.078 203.587 216.301C204.331 217.525 204.556 218.991 204.211 220.379L203.7 222.424C203.352 223.812 202.463 225.006 201.229 225.745C199.994 226.484 198.515 226.707 197.115 226.367Z" fill="#E6E6E6"/>
<path d="M190.662 252.209L153.851 243.202C152.452 242.858 151.248 241.978 150.503 240.755C149.759 239.531 149.534 238.065 149.879 236.677L150.39 234.632C150.738 233.244 151.627 232.05 152.861 231.311C154.096 230.572 155.575 230.349 156.975 230.689L193.787 239.697C195.186 240.041 196.389 240.921 197.134 242.144C197.878 243.368 198.103 244.834 197.758 246.222L197.247 248.267C196.899 249.654 196.011 250.849 194.776 251.588C193.542 252.327 192.062 252.55 190.662 252.209Z" fill="#E6E6E6"/>
<path d="M206.727 179.472L169.779 170.432C168.729 170.174 167.826 169.513 167.268 168.596C166.71 167.679 166.541 166.579 166.8 165.538L168.542 158.559C168.803 157.519 169.47 156.623 170.396 156.069C171.322 155.515 172.431 155.347 173.481 155.602L210.429 164.643C211.479 164.901 212.381 165.561 212.94 166.479C213.498 167.396 213.667 168.496 213.408 169.537L211.666 176.516C211.405 177.556 210.738 178.452 209.812 179.006C208.886 179.56 207.777 179.728 206.727 179.472Z" fill="#CCCCCC"/>
<path d="M79.599 423.228H90.614L94.0578 380.742H79.5972L79.599 423.228Z" fill="#FFB8B8"/>
<path d="M76.79 419.632L98.4822 419.631H98.4831C100.299 419.631 102.096 419.988 103.773 420.683C105.451 421.378 106.975 422.396 108.258 423.68C109.542 424.963 110.56 426.487 111.255 428.165C111.95 429.842 112.307 431.639 112.307 433.455V433.904L76.7907 433.905L76.79 419.632Z" fill="#2F2E41"/>
<path d="M20.3011 423.228H31.3162L36.5569 380.742H20.2993L20.3011 423.228Z" fill="#FFB8B8"/>
<path d="M17.4917 419.632L39.1839 419.631H39.1848C41.0002 419.631 42.7978 419.988 44.475 420.683C46.1522 421.378 47.6762 422.396 48.9599 423.68C50.2436 424.963 51.2619 426.487 51.9566 428.165C52.6513 429.842 53.0089 431.639 53.0089 433.455V433.904L17.4924 433.905L17.4917 419.632Z" fill="#2F2E41"/>
<path d="M22.2563 409.807C21.1327 409.806 20.0503 409.384 19.224 408.622C18.7805 408.217 18.4233 407.727 18.1738 407.181C17.9244 406.635 17.7879 406.044 17.7724 405.444L13.355 247.124L76.0773 262.804L95.4297 320.86C97.9252 328.329 99.0055 336.197 98.6151 344.062L96.2121 400.339C96.1573 401.491 95.6605 402.579 94.8249 403.375C93.9892 404.171 92.879 404.615 91.7248 404.614H81.2048C80.119 404.61 79.0711 404.214 78.2534 403.499C77.4358 402.785 76.9031 401.8 76.7531 400.724L69.234 338.603C68.577 333.757 66.8817 329.11 64.264 324.979L49.4669 301.551C49.3679 301.394 49.2231 301.272 49.0521 301.201C48.8811 301.13 48.6924 301.114 48.5117 301.154C48.331 301.194 48.1672 301.29 48.0426 301.427C47.9181 301.564 47.8388 301.736 47.8158 301.919L36.2036 405.321C36.079 406.37 35.5883 407.341 34.818 408.064C34.0477 408.786 33.0472 409.214 31.9926 409.271L22.5121 409.799C22.4268 409.804 22.3417 409.807 22.2563 409.807Z" fill="#2F2E41"/>
<path d="M65.6398 144.622C77.8271 144.622 87.7068 134.742 87.7068 122.555C87.7068 110.368 77.8271 100.488 65.6398 100.488C53.4525 100.488 43.5728 110.368 43.5728 122.555C43.5728 134.742 53.4525 144.622 65.6398 144.622Z" fill="#FFB8B8"/>
<path d="M75.7762 269.243C75.3965 269.242 75.0184 269.194 74.6505 269.1L12.4189 253.143C11.3062 252.858 10.3451 252.158 9.73296 251.186C9.12086 250.214 8.90433 249.045 9.12794 247.918L23.4198 170.929C24.3102 166.478 26.2675 162.311 29.1234 158.783C31.9794 155.256 35.6487 152.475 39.8164 150.678C43.8774 148.881 48.3183 148.111 52.7472 148.436C57.1762 148.761 61.457 150.171 65.2119 152.542C66.0831 153.086 66.9608 153.679 67.8197 154.304C71.2778 156.855 74.0978 160.173 76.0587 163.996C78.0195 167.82 79.0678 172.046 79.1213 176.343L80.2578 264.687C80.2654 265.281 80.1552 265.871 79.9336 266.422C79.712 266.973 79.3834 267.475 78.9667 267.899C78.55 268.323 78.0535 268.659 77.5059 268.89C76.9583 269.121 76.3704 269.241 75.7762 269.243Z" fill="#166D86"/>
<path d="M18.8228 270.148C18.0804 269.056 17.5866 267.814 17.3762 266.51C17.1657 265.206 17.2437 263.872 17.6047 262.601C17.9657 261.331 18.6008 260.155 19.4654 259.156C20.33 258.158 21.403 257.361 22.6089 256.822L19.8409 224.835L34.5091 232.785L34.8888 261.942C35.66 264.027 35.6392 266.324 34.8305 268.395C34.0218 270.467 32.4813 272.169 30.501 273.181C28.5206 274.193 26.238 274.443 24.0856 273.884C21.9333 273.325 20.0607 271.996 18.8228 270.148Z" fill="#FFB8B8"/>
<path d="M24.0624 252.591C23.6485 252.591 23.2363 252.539 22.8354 252.436C21.973 252.216 21.1861 251.767 20.5579 251.137C19.9297 250.506 19.4836 249.718 19.2668 248.855L12.0583 220.208C9.53911 210.203 10.74 199.624 15.4376 190.438L30.5396 160.895C31.4943 157.358 33.8009 154.338 36.9621 152.486C40.1232 150.634 43.8856 150.099 47.4379 150.996C49.2084 151.443 50.8726 152.237 52.3338 153.332C53.7951 154.427 55.0245 155.801 55.9506 157.375C56.8958 158.972 57.514 160.74 57.7691 162.578C58.0243 164.415 57.9113 166.285 57.4367 168.079L35.9389 216.151L36.1942 244.934C36.2008 245.949 35.8955 246.942 35.3196 247.779C34.7436 248.615 33.9248 249.254 32.9737 249.61L25.7795 252.282C25.2301 252.486 24.6487 252.591 24.0624 252.591Z" fill="#166D86"/>
<path d="M126.968 258.382C125.656 258.232 124.392 257.797 123.267 257.105C122.141 256.414 121.181 255.485 120.453 254.382C119.726 253.28 119.249 252.032 119.056 250.725C118.863 249.418 118.959 248.085 119.337 246.82L93.2881 228.052L108.882 222.12L131.228 240.852C133.312 241.628 135.039 243.142 136.082 245.106C137.124 247.07 137.41 249.349 136.885 251.509C136.359 253.67 135.06 255.564 133.232 256.83C131.405 258.097 129.176 258.649 126.968 258.382Z" fill="#FFB8B8"/>
<path d="M113.331 244.677C112.563 244.677 111.806 244.498 111.119 244.155L84.7048 230.932C75.4789 226.314 68.2439 218.503 64.3452 208.951L51.8052 178.232C49.7473 175.201 48.963 171.482 49.6215 167.878C50.2799 164.274 52.3283 161.073 55.3251 158.965C56.8224 157.913 58.5142 157.168 60.3021 156.776C62.0899 156.384 63.938 156.351 65.7385 156.68C67.5602 157.008 69.2988 157.694 70.8535 158.698C72.4082 159.702 73.7481 161.005 74.7957 162.531L97.2077 210.185L119.189 228.767C119.963 229.425 120.517 230.304 120.775 231.286C121.033 232.268 120.983 233.306 120.633 234.259L117.965 241.454C117.616 242.397 116.987 243.211 116.161 243.786C115.332 244.366 114.344 244.677 113.331 244.677Z" fill="#166D86"/>
<path d="M61.0058 144.96C62.1783 145.473 64.5793 136.13 63.5038 134.262C61.9043 131.483 61.9989 131.503 60.9371 129.664C59.8753 127.826 59.6377 125.309 61.0127 123.692C62.3877 122.074 65.5697 122.289 66.1972 124.317C65.7935 120.464 69.604 117.368 73.3785 116.498C77.1531 115.627 81.1344 116.168 84.9297 115.393C89.3343 114.494 93.9171 110.802 92.1598 105.959C91.8582 105.152 91.4067 104.41 90.8291 103.772C88.7986 101.489 85.9584 100.514 83.1814 99.5716C77.4043 97.6107 71.4691 95.6252 65.3721 95.8417C60.3485 96.1043 55.5104 97.8258 51.4499 100.795C47.3893 103.765 44.2825 107.854 42.5097 112.561C42.0895 113.739 41.764 114.948 41.5362 116.178C39.4435 127.43 45.9779 138.53 56.591 142.815L61.0058 144.96Z" fill="#2F2E41"/>
<path opacity="0.2" d="M34.9502 245.587L35.4506 216.002L51.1224 184.492L38.544 216.836L34.9502 245.587Z" fill="black"/>
<path d="M177.065 319.835L110.904 292.346C109.454 291.749 108.159 290.828 107.118 289.655C106.077 288.482 105.318 287.087 104.897 285.576C104.465 284.047 104.387 282.44 104.669 280.877C104.952 279.314 105.587 277.836 106.527 276.555C123.237 253.548 134.296 226.931 138.809 198.857C139.054 197.287 139.653 195.794 140.561 194.491C141.47 193.188 142.663 192.11 144.051 191.337C145.419 190.569 146.944 190.123 148.509 190.033C150.075 189.943 151.641 190.211 153.088 190.817L219.249 218.306C221.53 219.262 223.399 220.996 224.521 223.201C225.643 225.405 225.946 227.936 225.377 230.343C217.981 260.433 206.023 289.213 189.919 315.684C188.615 317.786 186.607 319.357 184.253 320.117C181.899 320.878 179.352 320.777 177.065 319.835Z" fill="#E6E6E6"/>
<path d="M151.019 195.796C150.325 195.504 149.573 195.375 148.821 195.418C148.069 195.461 147.336 195.675 146.68 196.044C146.004 196.421 145.424 196.946 144.983 197.581C144.541 198.216 144.25 198.943 144.132 199.707C139.484 228.62 128.094 256.033 110.886 279.728C110.427 280.35 110.117 281.069 109.979 281.83C109.84 282.59 109.877 283.373 110.086 284.117C110.289 284.842 110.654 285.513 111.154 286.076C111.654 286.64 112.276 287.081 112.972 287.368L179.133 314.857C180.23 315.313 181.453 315.365 182.585 315.004C183.717 314.642 184.683 313.891 185.313 312.884C201.131 286.882 212.877 258.612 220.142 229.055C220.412 227.899 220.262 226.683 219.72 225.627C219.177 224.57 218.277 223.74 217.18 223.284L151.019 195.796Z" fill="white"/>
<path d="M186.248 256.987L151.529 242.562C150.21 242.012 149.163 240.962 148.618 239.641C148.072 238.32 148.073 236.836 148.62 235.516L149.428 233.57C149.978 232.251 151.028 231.204 152.349 230.659C153.67 230.113 155.154 230.114 156.474 230.661L191.193 245.086C192.512 245.636 193.559 246.686 194.105 248.007C194.65 249.328 194.649 250.812 194.102 252.132L193.294 254.077C192.744 255.396 191.694 256.444 190.373 256.989C189.052 257.535 187.568 257.534 186.248 256.987Z" fill="#166D86"/>
<path d="M176.035 281.567L141.316 267.142C139.997 266.593 138.95 265.542 138.404 264.221C137.859 262.9 137.859 261.417 138.406 260.096L139.215 258.151C139.764 256.832 140.815 255.784 142.136 255.239C143.457 254.693 144.94 254.694 146.261 255.241L180.979 269.666C182.299 270.216 183.346 271.266 183.891 272.587C184.437 273.908 184.436 275.392 183.889 276.712L183.081 278.658C182.531 279.977 181.48 281.024 180.159 281.57C178.838 282.115 177.355 282.114 176.035 281.567Z" fill="#166D86"/>
<path d="M200.159 222.442C199.639 222.441 199.125 222.34 198.643 222.145L163.659 208.001C162.666 207.598 161.873 206.817 161.454 205.83C161.036 204.844 161.026 203.731 161.426 202.737L164.12 196.073C164.522 195.079 165.303 194.286 166.29 193.867C167.277 193.448 168.39 193.439 169.384 193.841L204.368 207.985C205.361 208.388 206.154 209.168 206.573 210.155C206.992 211.142 207.002 212.254 206.601 213.248L203.907 219.912C203.604 220.658 203.086 221.298 202.419 221.748C201.751 222.199 200.964 222.44 200.159 222.442Z" fill="#CCCCCC"/>
<path d="M126.682 434.404H0.898457C0.660171 434.404 0.431658 434.309 0.263165 434.141C0.0946716 433.972 0 433.744 0 433.505C0 433.267 0.0946716 433.039 0.263165 432.87C0.431658 432.702 0.660171 432.607 0.898457 432.607H126.682C126.921 432.607 127.149 432.702 127.318 432.87C127.486 433.039 127.581 433.267 127.581 433.505C127.581 433.744 127.486 433.972 127.318 434.141C127.149 434.309 126.921 434.404 126.682 434.404Z" fill="#CCCCCC"/>
</g>
<defs>
<clipPath id="clip0_826_1559">
<rect width="436.501" height="434.404" fill="white"/>
</clipPath>
</defs>
</svg>
