<svg width="181" height="349" viewBox="0 0 181 349" fill="none" xmlns="http://www.w3.org/2000/svg">
<path d="M86.166 54.3297L103.82 60.1163V34.7944H87.8L86.166 54.3297Z" fill="#F3A3A6"/>
<path d="M101.638 41.8019C111.355 41.8019 119.232 33.9534 119.232 24.2719C119.232 14.5904 111.355 6.74194 101.638 6.74194C91.9204 6.74194 84.043 14.5904 84.043 24.2719C84.043 33.9534 91.9204 41.8019 101.638 41.8019Z" fill="#F3A3A6"/>
<path d="M97.1578 25.6485L99.579 28.5788L103.968 20.9275C103.968 20.9275 109.568 21.2161 109.568 17.0723C109.568 12.9284 114.708 12.8174 114.708 12.8174C114.708 12.8174 121.979 0.163868 106.917 3.50115C106.917 3.50115 96.467 -3.63219 91.2755 2.46518C91.2755 2.46518 75.3445 10.4569 79.9047 24.3758L87.4803 38.7239L89.1959 35.4754C89.1959 35.4754 88.1561 21.8451 97.1652 25.6411L97.1578 25.6485Z" fill="#2F2E43"/>
<path d="M112.362 335.312H127.914V313.328H112.362V335.312Z" fill="#F3A3A6"/>
<path d="M126.19 347.907C123.531 348.143 110.222 349.194 109.553 346.153C108.944 343.363 109.843 340.448 109.969 340.048C111.247 327.365 111.722 327.224 112.012 327.143C112.465 327.01 113.787 327.639 115.933 329.015L116.067 329.104L116.097 329.259C116.134 329.459 117.084 334.114 121.593 333.396C124.682 332.907 125.685 332.227 126.004 331.894C125.744 331.775 125.418 331.568 125.187 331.213C124.853 330.695 124.794 330.029 125.017 329.23C125.596 327.121 127.334 324.006 127.408 323.88L127.609 323.525L145.285 335.408L156.203 338.516C157.027 338.753 157.688 339.338 158.022 340.122C158.483 341.217 158.201 342.49 157.309 343.289C155.326 345.065 151.39 348.106 147.253 348.484C146.154 348.587 144.698 348.624 143.064 348.624C136.239 348.624 126.272 347.921 126.198 347.907H126.19Z" fill="#2F2E43"/>
<path d="M49.3237 302.403L61.6621 311.836L75.0949 294.394L62.7565 284.961L49.3237 302.403Z" fill="#F3A3A6"/>
<path d="M52.5873 320.779C50.3294 319.358 39.1294 312.114 40.4589 309.302C41.6769 306.72 44.1724 304.944 44.5215 304.714C53.2854 295.428 53.7459 295.605 54.0281 295.709C54.4737 295.879 55.1347 297.174 55.9963 299.571L56.0483 299.719L55.974 299.86C55.8849 300.038 53.7979 304.315 57.8011 306.475C60.5491 307.963 61.7597 308.029 62.2202 307.963C62.0865 307.711 61.9528 307.349 61.9899 306.927C62.0419 306.313 62.3984 305.75 63.0668 305.247C64.8122 303.93 68.095 302.509 68.2361 302.45L68.6074 302.287L75.3735 322.437L82.1395 331.523C82.652 332.212 82.8154 333.077 82.6 333.906C82.2955 335.061 81.2929 335.897 80.0971 335.985C77.4382 336.193 72.4547 336.215 68.9491 334.01C68.0207 333.425 66.8398 332.574 65.5401 331.583C60.1257 327.439 52.6467 320.838 52.5947 320.786L52.5873 320.779Z" fill="#2F2E43"/>
<path d="M0 348.617C0 348.829 0.171231 349 0.384462 349H173.315C173.528 349 173.699 348.829 173.699 348.617C173.699 348.404 173.528 348.234 173.315 348.234H0.384462C0.171231 348.234 0 348.404 0 348.617Z" fill="#CCCCCC"/>
<path d="M137.525 155.41L78.8065 161.382C78.8065 161.382 70.4213 188.842 82.4012 201.977L89.5906 238.99L57.2383 283.166L77.6107 296.301L106.368 265.259V317.79L133.93 315.4L147.113 233.018L137.525 155.41Z" fill="#2F2E43"/>
<path d="M111.158 50.3411C111.158 50.3411 106.368 41.9868 85.9954 43.1782L81.205 53.9226C81.205 53.9226 66.8262 57.5041 66.8262 78.9929C66.8262 100.482 74.0156 164.956 74.0156 164.956L144.12 160.775L111.693 59.7906L111.166 50.3337L111.158 50.3411Z" fill="#166D86"/>
<path d="M174.882 126.573C179.465 128.675 182.027 132.804 180.608 135.801C179.19 138.798 174.318 139.523 169.735 137.429C167.893 136.615 166.282 135.364 165.041 133.766L145.738 124.62L150.492 115.4L169.022 125.397C171.057 125.308 173.077 125.708 174.897 126.573H174.882Z" fill="#F3A3A6"/>
<path d="M162.926 133.315L116.328 118.152L116.276 118.101L80.7825 85.3791C75.3459 80.3695 74.5289 72.0892 78.8886 66.1176C81.5549 62.4621 85.6844 60.2792 90.2149 60.1238C94.7454 59.9684 99.0159 61.8702 101.927 65.3332L128.583 97.0485L166.974 121.897L162.926 133.315Z" fill="#166D86"/>
</svg>
