<svg width="164" height="234" viewBox="0 0 164 234" fill="none" xmlns="http://www.w3.org/2000/svg">
<path d="M162.961 104.762C163.179 104.823 163.363 104.968 163.474 105.166C163.585 105.363 163.613 105.596 163.553 105.814L149.282 156.778C149.221 156.996 149.076 157.18 148.879 157.291C148.681 157.402 148.448 157.431 148.23 157.37L95.6226 142.639C95.4047 142.578 95.2201 142.433 95.1091 142.235C94.9982 142.038 94.97 141.805 95.0308 141.587L109.301 90.6232C109.362 90.4054 109.508 90.2207 109.705 90.1098C109.902 89.9988 110.135 89.9706 110.353 90.0314L162.961 104.762Z" fill="#E6E6E6"/>
<path d="M147.569 154.963L97.4378 140.926L111.015 92.438L161.146 106.475L147.569 154.963Z" fill="white"/>
<path d="M154.517 112.95C154.852 113.043 154.99 113.599 154.825 114.188C154.66 114.777 154.253 115.18 153.919 115.087L131.055 108.685C130.72 108.591 130.582 108.035 130.747 107.446C130.912 106.857 131.319 106.454 131.653 106.547L154.517 112.95Z" fill="#E6E6E6"/>
<path d="M152.678 119.526C153.012 119.619 153.15 120.175 152.985 120.764C152.82 121.353 152.414 121.757 152.079 121.663L129.215 115.261C128.88 115.167 128.742 114.612 128.907 114.022C129.072 113.433 129.479 113.03 129.813 113.124L152.678 119.526Z" fill="#E6E6E6"/>
<path d="M150.857 126.026C151.192 126.119 151.33 126.675 151.165 127.264C151 127.853 150.593 128.257 150.259 128.163L127.395 121.761C127.06 121.667 126.922 121.112 127.087 120.522C127.252 119.933 127.658 119.53 127.993 119.624L150.857 126.026Z" fill="#E6E6E6"/>
<path d="M149.015 132.602C149.35 132.695 149.488 133.251 149.323 133.84C149.158 134.429 148.752 134.833 148.417 134.739L125.553 128.337C125.218 128.243 125.08 127.687 125.245 127.098C125.41 126.509 125.817 126.106 126.151 126.2L149.015 132.602Z" fill="#E6E6E6"/>
<path d="M120.05 103.374C120.19 103.414 120.321 103.48 120.436 103.57C120.551 103.66 120.647 103.772 120.719 103.899C120.79 104.026 120.836 104.166 120.853 104.311C120.871 104.455 120.86 104.602 120.82 104.743C120.781 104.883 120.714 105.014 120.624 105.129C120.534 105.244 120.422 105.339 120.295 105.411C120.168 105.482 120.028 105.528 119.883 105.545C119.738 105.563 119.592 105.551 119.451 105.512L115.177 104.315C114.893 104.235 114.653 104.047 114.509 103.79C114.365 103.534 114.328 103.23 114.407 102.947C114.487 102.664 114.675 102.423 114.932 102.279C115.189 102.135 115.492 102.098 115.775 102.178L120.05 103.374Z" fill="#E6E6E6"/>
<path d="M118.245 109.823C118.385 109.862 118.517 109.929 118.632 110.019C118.746 110.108 118.842 110.22 118.914 110.347C118.985 110.474 119.031 110.614 119.049 110.759C119.066 110.904 119.055 111.051 119.016 111.191C118.976 111.332 118.91 111.463 118.819 111.577C118.729 111.692 118.618 111.788 118.49 111.859C118.363 111.931 118.223 111.976 118.078 111.994C117.934 112.011 117.787 112 117.646 111.96L113.372 110.763C113.089 110.684 112.848 110.495 112.704 110.239C112.56 109.982 112.523 109.679 112.603 109.395C112.682 109.112 112.871 108.872 113.127 108.727C113.384 108.583 113.687 108.547 113.971 108.626L118.245 109.823Z" fill="#E6E6E6"/>
<path d="M116.44 116.271C116.58 116.31 116.711 116.377 116.826 116.467C116.94 116.557 117.036 116.669 117.108 116.796C117.179 116.923 117.225 117.063 117.242 117.207C117.259 117.352 117.248 117.499 117.209 117.639C117.17 117.779 117.103 117.911 117.013 118.025C116.923 118.14 116.811 118.235 116.684 118.307C116.557 118.378 116.417 118.424 116.273 118.442C116.128 118.459 115.981 118.448 115.841 118.408L111.567 117.211C111.283 117.132 111.043 116.943 110.899 116.687C110.754 116.43 110.718 116.127 110.797 115.844C110.877 115.56 111.065 115.32 111.322 115.176C111.578 115.031 111.882 114.995 112.165 115.074L116.44 116.271Z" fill="#E6E6E6"/>
<path d="M114.634 122.72C114.917 122.799 115.157 122.988 115.301 123.245C115.445 123.501 115.482 123.804 115.402 124.087C115.323 124.37 115.134 124.611 114.878 124.755C114.622 124.899 114.319 124.936 114.036 124.857L109.761 123.66C109.478 123.581 109.238 123.392 109.094 123.135C108.95 122.879 108.914 122.576 108.993 122.293C109.072 122.009 109.261 121.769 109.517 121.625C109.773 121.481 110.076 121.444 110.36 121.523L114.634 122.72Z" fill="#E6E6E6"/>
<path d="M112.909 133.897C113.088 133.947 113.255 134.032 113.402 134.146C113.548 134.261 113.67 134.403 113.761 134.565C113.853 134.727 113.911 134.906 113.933 135.09C113.955 135.275 113.941 135.462 113.891 135.641C113.841 135.82 113.756 135.987 113.641 136.133C113.526 136.279 113.384 136.401 113.222 136.492C113.06 136.583 112.882 136.641 112.697 136.663C112.512 136.685 112.325 136.671 112.147 136.62L106.7 135.095C106.339 134.994 106.033 134.754 105.849 134.427C105.665 134.1 105.619 133.714 105.72 133.353C105.821 132.991 106.061 132.685 106.388 132.501C106.715 132.318 107.102 132.271 107.463 132.372L112.909 133.897Z" fill="#166D86"/>
<path d="M107.304 128.397L147.607 139.683L147.507 140.041L107.204 128.756L107.304 128.397Z" fill="#E6E6E6"/>
<path d="M34.1407 220.75L41.652 222.566L52.2305 194.459L41.1445 191.779L34.1407 220.75Z" fill="#A0616A"/>
<path d="M54.6122 233.304L54.6631 233.094C55.2584 230.619 54.8478 228.01 53.5214 225.838C52.195 223.666 50.0612 222.108 47.588 221.507L32.8921 217.955L30.5855 227.496L54.6122 233.304Z" fill="#2F2E41"/>
<path d="M67.3932 225.868L75.1206 225.867L78.7969 196.061L67.3919 196.061L67.3932 225.868Z" fill="#A0616A"/>
<path d="M65.5214 233.259L90.2402 233.258V233.042C90.2402 230.496 89.2287 228.055 87.4285 226.254C85.6282 224.454 83.1866 223.443 80.6407 223.443H80.6402L65.5209 223.444L65.5214 233.259Z" fill="#2F2E41"/>
<path d="M78.8016 214.231L86.3047 124.811L55.2448 119.086L55.1221 119.063L46.0311 124.907L49.1954 157.816L34.6266 209.124L47.2061 212.435L61.7981 164.85L65.1374 150.379L66.8488 169.183L65.5783 215.553L78.8016 214.231Z" fill="#2F2E41"/>
<path d="M87.2674 126.839L87.3496 126.735L76.6166 45.9225L76.6026 45.8167L76.5271 45.7409C76.3689 45.5827 72.6083 41.8667 68.7404 41.8667C68.1812 41.8667 67.6495 41.8525 67.1395 41.8396C64.1797 41.7627 61.8415 41.7011 59.0628 44.4803C56.2316 47.3112 46.9944 57.6487 46.9944 71.8069C46.9944 85.5108 45.7465 128.098 45.7339 128.526L45.7162 129.128L46.2206 128.8C46.3451 128.72 58.7692 120.809 69.189 128.163C72.4452 130.461 75.3705 131.267 77.8717 131.267C83.6933 131.267 87.2177 126.903 87.2674 126.839Z" fill="#166D86"/>
<path d="M62.9569 35.1983C55.4546 31.0972 52.6974 21.6907 56.7985 14.1884C60.8997 6.68611 70.3061 3.9289 77.8084 8.03004C85.3107 12.1312 88.0679 21.5376 83.9668 29.0399C79.8657 36.5423 70.4592 39.2995 62.9569 35.1983Z" fill="#A0616A"/>
<path d="M94.0817 144.206C93.3493 143.639 92.7502 142.918 92.3267 142.093C91.9032 141.269 91.6655 140.362 91.6305 139.436C91.5954 138.51 91.7638 137.588 92.1238 136.734C92.4838 135.88 93.0266 135.116 93.714 134.494L84.9222 113.757L96.4337 115.875L103.018 135.243C103.985 136.467 104.47 138.004 104.38 139.561C104.29 141.119 103.632 142.589 102.531 143.694C101.429 144.799 99.961 145.461 98.4037 145.556C96.8465 145.65 95.3087 145.17 94.0817 144.206Z" fill="#A0616A"/>
<path d="M102.576 128.075L99.7451 122.098C99.9201 121.993 100.064 121.843 100.163 121.665C102.808 117.081 86.8314 79.0136 85.7665 76.4886C85.9289 75.1154 87.6061 60.5626 86.3797 55.6573C84.9361 49.8829 81.972 47.1917 76.4684 46.6586C70.3989 46.0886 68.7614 54.3308 68.7457 54.4145L68.7402 75.6035L75.7059 99.9945L91.5919 132.402L102.576 128.075Z" fill="#166D86"/>
<path d="M68.4033 27.4471C70.2592 27.6886 71.659 25.7898 72.3083 24.0345C72.9576 22.2793 73.4523 20.2359 75.0659 19.2877C77.2703 17.9924 80.0907 19.5503 82.6115 19.123C85.4583 18.6403 87.3093 15.6233 87.4543 12.7395C87.5994 9.85567 86.4518 7.0821 85.3258 4.42328L84.9327 7.72759C84.9852 6.60767 84.7496 5.493 84.2482 4.49019C83.7469 3.48738 82.9966 2.62998 82.0692 2L82.5759 6.84857C82.2582 4.13228 79.3319 2.02752 76.6556 2.59042L76.7354 5.47937C73.4473 5.08839 70.1306 4.69686 66.8328 4.99473C63.535 5.2926 60.2141 6.33601 57.7147 8.50786C53.9759 11.7566 52.6104 17.1061 53.0688 22.0379C53.5272 26.9697 55.5631 31.6028 57.6849 36.0784C58.2188 37.2045 58.9571 38.4752 60.1951 38.6186C61.3073 38.7475 62.3251 37.8177 62.6709 36.7527C63.0167 35.6877 62.8479 34.5307 62.6409 33.4303C62.328 31.7679 61.9337 30.0688 62.2278 28.4031C62.5219 26.7373 63.7203 25.0912 65.3994 24.8871C67.0786 24.683 68.7968 26.6023 67.9895 28.0887L68.4033 27.4471Z" fill="#2F2E41"/>
<path d="M0.629372 233.294H112.037V232.384H0.464249L0.629372 233.294Z" fill="#CCCCCC"/>
</svg>
