<svg width="181" height="349" viewBox="0 0 181 349" fill="none" xmlns="http://www.w3.org/2000/svg">
<path d="M180.536 184.897C180.698 184.942 180.836 185.047 180.918 185.191C181.001 185.334 181.022 185.504 180.977 185.662L170.354 222.735C170.308 222.893 170.2 223.028 170.054 223.108C169.907 223.189 169.733 223.21 169.571 223.165L130.411 212.45C130.248 212.405 130.111 212.3 130.028 212.156C129.946 212.013 129.925 211.843 129.97 211.685L140.593 174.612C140.638 174.454 140.746 174.319 140.893 174.239C141.04 174.158 141.214 174.137 141.376 174.182L180.536 184.897Z" fill="#E6E6E6"/>
<path d="M169.079 221.415L131.762 211.204L141.868 175.932L179.186 186.143L169.079 221.415Z" fill="white"/>
<path d="M148.595 183.888C148.7 183.916 148.797 183.965 148.883 184.03C148.968 184.096 149.04 184.177 149.093 184.269C149.146 184.362 149.18 184.463 149.193 184.569C149.206 184.674 149.198 184.781 149.169 184.883C149.139 184.985 149.09 185.081 149.023 185.164C148.956 185.248 148.872 185.317 148.778 185.369C148.683 185.421 148.579 185.454 148.471 185.467C148.363 185.48 148.254 185.471 148.15 185.442L144.968 184.572C144.757 184.514 144.578 184.377 144.471 184.19C144.363 184.004 144.336 183.783 144.395 183.577C144.454 183.371 144.595 183.196 144.786 183.091C144.976 182.986 145.202 182.959 145.413 183.017L148.595 183.888Z" fill="#E6E6E6"/>
<path d="M147.249 188.579C147.354 188.607 147.452 188.656 147.537 188.721C147.623 188.786 147.694 188.868 147.747 188.96C147.8 189.053 147.835 189.154 147.848 189.26C147.861 189.365 147.852 189.472 147.823 189.574C147.794 189.676 147.744 189.772 147.677 189.855C147.61 189.938 147.527 190.008 147.432 190.06C147.337 190.112 147.233 190.145 147.125 190.158C147.018 190.17 146.908 190.162 146.804 190.133L143.622 189.263C143.411 189.205 143.232 189.068 143.125 188.881C143.017 188.695 142.99 188.474 143.049 188.268C143.108 188.062 143.249 187.887 143.44 187.782C143.631 187.677 143.857 187.65 144.068 187.708L147.249 188.579Z" fill="#E6E6E6"/>
<path d="M145.906 193.269C146.011 193.298 146.109 193.346 146.194 193.412C146.279 193.477 146.351 193.558 146.404 193.651C146.457 193.743 146.491 193.845 146.504 193.95C146.517 194.055 146.508 194.162 146.479 194.264C146.45 194.366 146.4 194.462 146.333 194.545C146.266 194.628 146.183 194.698 146.089 194.75C145.994 194.802 145.89 194.835 145.782 194.848C145.675 194.861 145.565 194.852 145.461 194.824L142.279 193.953C142.068 193.895 141.889 193.758 141.782 193.572C141.675 193.385 141.647 193.164 141.707 192.958C141.766 192.752 141.906 192.577 142.097 192.472C142.288 192.367 142.514 192.341 142.725 192.399L145.906 193.269Z" fill="#E6E6E6"/>
<path d="M144.562 197.96C144.772 198.018 144.951 198.156 145.058 198.342C145.165 198.529 145.192 198.749 145.133 198.955C145.074 199.161 144.934 199.336 144.743 199.441C144.553 199.546 144.327 199.572 144.116 199.515L140.934 198.644C140.724 198.586 140.545 198.449 140.438 198.263C140.331 198.076 140.304 197.856 140.363 197.65C140.422 197.444 140.562 197.269 140.753 197.164C140.943 197.059 141.169 197.032 141.38 197.09L144.562 197.96Z" fill="#E6E6E6"/>
<path d="M143.279 206.091C143.412 206.127 143.537 206.189 143.646 206.272C143.755 206.356 143.845 206.459 143.913 206.577C143.981 206.695 144.025 206.824 144.041 206.959C144.058 207.093 144.047 207.229 144.01 207.359C143.973 207.489 143.909 207.611 143.824 207.717C143.738 207.823 143.632 207.912 143.512 207.978C143.391 208.045 143.258 208.087 143.121 208.103C142.984 208.119 142.844 208.108 142.711 208.072L138.657 206.962C138.388 206.889 138.16 206.714 138.023 206.476C137.887 206.238 137.852 205.957 137.927 205.695C138.003 205.432 138.182 205.209 138.425 205.075C138.668 204.942 138.956 204.908 139.225 204.981L143.279 206.091Z" fill="#166D86"/>
<path d="M139.107 202.09L169.107 210.299L169.033 210.56L139.032 202.351L139.107 202.09Z" fill="#E6E6E6"/>
<path d="M30.854 330.173L42.3819 332.896L58.6172 290.741L41.6031 286.721L30.854 330.173Z" fill="#A0616A"/>
<path d="M62.2706 349L62.3486 348.685C63.2623 344.974 62.6321 341.06 60.5965 337.802C58.5608 334.544 55.2859 332.209 51.4902 331.307L28.9357 325.979L25.3957 340.288L62.2706 349Z" fill="#2F2E41"/>
<path d="M81.887 337.847L93.7465 337.846L99.3887 293.143L81.885 293.144L81.887 337.847Z" fill="#A0616A"/>
<path d="M79.014 348.933L116.951 348.931V348.607C116.951 344.789 115.399 341.127 112.636 338.427C109.873 335.727 106.126 334.21 102.218 334.21H102.218L79.0134 334.211L79.014 348.933Z" fill="#2F2E41"/>
<path d="M99.3969 320.395L110.912 186.283L63.2431 177.697L63.0549 177.664L49.1025 186.428L53.9588 235.785L31.5995 312.736L50.9058 317.7L73.3008 246.333L78.4258 224.631L81.0523 252.832L79.1024 322.378L99.3969 320.395Z" fill="#2F2E41"/>
<path d="M112.388 189.325L112.514 189.169L96.0413 67.9674L96.0198 67.8086L95.9038 67.6951C95.661 67.4578 89.8896 61.8845 83.9533 61.8845C83.095 61.8845 82.279 61.8633 81.4964 61.8439C76.9537 61.7285 73.3653 61.6362 69.1006 65.8044C64.7555 70.0501 50.5787 85.5542 50.5787 106.788C50.5787 127.341 48.6635 191.213 48.6442 191.856L48.617 192.758L49.3912 192.266C49.5823 192.146 68.65 180.281 84.6418 191.31C89.6393 194.757 94.1287 195.966 97.9676 195.966C106.902 195.966 112.311 189.42 112.388 189.325Z" fill="#166D86"/>
<path d="M75.0792 51.8838C63.5651 45.7329 59.3335 31.6252 65.6277 20.3734C71.9219 9.12147 86.3584 4.98624 97.8725 11.1371C109.387 17.2879 113.618 31.3956 107.324 42.6475C101.03 53.8994 86.5934 58.0346 75.0792 51.8838Z" fill="#A0616A"/>
<path d="M122.848 215.372C121.724 214.521 120.805 213.439 120.155 212.203C119.505 210.967 119.14 209.607 119.086 208.218C119.033 206.829 119.291 205.446 119.843 204.165C120.396 202.885 121.229 201.738 122.284 200.806L108.791 169.704L126.458 172.882L136.563 201.93C138.047 203.765 138.791 206.07 138.654 208.405C138.516 210.741 137.506 212.947 135.816 214.604C134.125 216.261 131.872 217.254 129.482 217.396C127.092 217.538 124.731 216.818 122.848 215.372Z" fill="#A0616A"/>
<path d="M135.885 191.179L131.54 182.215C131.808 182.057 132.03 181.833 132.182 181.565C136.241 174.69 111.721 117.597 110.086 113.81C110.335 111.751 112.909 89.9245 111.027 82.5676C108.812 73.9071 104.263 69.8709 95.816 69.0714C86.5009 68.2166 83.9878 80.5781 83.9637 80.7036L83.9552 112.483L94.6457 149.064L119.027 197.668L135.885 191.179Z" fill="#166D86"/>
<path d="M83.4378 40.2583C86.286 40.6204 88.4345 37.7726 89.4309 35.1402C90.4274 32.5077 91.1867 29.443 93.663 28.021C97.0462 26.0782 101.375 28.4148 105.244 27.7739C109.613 27.05 112.454 22.525 112.676 18.2C112.899 13.8749 111.138 9.71509 109.409 5.72742L108.806 10.6832C108.887 9.00356 108.525 7.33178 107.756 5.82778C106.986 4.32378 105.835 3.03786 104.411 2.09302L105.189 9.36486C104.701 5.29099 100.21 2.13429 96.1029 2.97853L96.2254 7.31134C91.179 6.72495 86.0886 6.13774 81.0274 6.58448C75.9661 7.03122 70.8694 8.59612 67.0334 11.8534C61.2953 16.7259 59.1996 24.7489 59.9032 32.1456C60.6068 39.5423 63.7313 46.491 66.9877 53.2034C67.8071 54.8923 68.9403 56.7981 70.8402 57.0132C72.5473 57.2065 74.1093 55.812 74.6399 54.2147C75.1706 52.6175 74.9117 50.8822 74.5939 49.2318C74.1138 46.7386 73.5086 44.1903 73.9599 41.692C74.4113 39.1938 76.2505 36.725 78.8275 36.4188C81.4046 36.1127 84.0416 38.9913 82.8026 41.2206L83.4378 40.2583Z" fill="#2F2E41"/>
<path d="M0.222214 348.903H150.404V347.704H-0.00038147L0.222214 348.903Z" fill="#CCCCCC"/>
</svg>
