<svg width="156" height="349" viewBox="0 0 156 349" fill="none" xmlns="http://www.w3.org/2000/svg">
<path d="M155.268 349L0.000808716 348.566V347.575L155.268 348.009V349Z" fill="#D6D6E3"/>
<path d="M125.765 164.729L117.986 146.863L109.035 152.156L116.814 170.022C116.393 171.576 116.241 173.212 116.368 174.835C116.495 176.457 116.898 178.035 117.553 179.474C119.978 185.042 125.15 187.661 129.105 185.323C133.06 182.984 134.3 176.574 131.875 171.004C131.265 169.538 130.411 168.228 129.362 167.15C128.313 166.073 127.09 165.249 125.765 164.728V164.729Z" fill="#9F616A"/>
<path d="M72.968 83.9591L112.27 169.553L127.637 159.975L93.2095 72.2693" fill="#166D86"/>
<path d="M94.4375 104.019L105.148 161.99L58.464 163.891C58.464 163.891 64.5801 123.629 62.4091 116.671L94.4375 104.019Z" fill="#9F616A"/>
<path d="M103.354 319.752H114.264V336.508H103.354V319.752Z" fill="#9F616A"/>
<path d="M101.146 346.428C100.734 346.092 100.388 345.658 100.13 345.154C99.8719 344.651 99.7082 344.089 99.6496 343.507C99.5806 342.296 100.1 340.997 101.194 339.647C101.22 339.258 101.56 334.441 102.317 333.578C102.253 333.321 101.868 331.614 102.499 330.501C102.661 330.233 102.874 330.012 103.121 329.855C103.369 329.698 103.643 329.609 103.925 329.595L103.953 329.592L103.967 329.621C103.986 329.658 105.826 333.385 108.596 333.712C110.183 333.902 111.773 332.947 113.32 330.882C113.374 330.729 113.813 328.213 114.095 326.548L114.106 326.482L129.194 335.724L138.014 338.568C138.517 338.73 138.967 339.068 139.301 339.535C139.636 340.003 139.84 340.579 139.886 341.185C139.933 341.792 139.819 342.4 139.561 342.93C139.303 343.459 138.912 343.884 138.441 344.148L134.166 346.542C132.368 347.546 130.4 348.069 128.406 348.072H105.217C103.739 348.082 102.302 347.502 101.146 346.43L101.146 346.428Z" fill="#090814"/>
<path d="M31.4057 312.109L41.8809 315.66L37.8645 331.748L27.3893 328.197L31.4057 312.109Z" fill="#9F616A"/>
<path d="M22.8902 337.006C22.5748 336.549 22.346 336.019 22.2189 335.451C22.0918 334.883 22.0694 334.29 22.153 333.711C22.377 332.527 23.186 331.448 24.5616 330.508C24.6801 330.143 26.1606 325.629 27.0936 325.046C27.0936 324.778 27.1344 323.011 28.007 322.151C28.227 321.946 28.4845 321.803 28.7595 321.733C29.0345 321.663 29.3196 321.667 29.593 321.745L29.6207 321.751L29.6272 321.783C29.6359 321.825 30.5102 326.002 33.0906 327.218C34.57 327.915 36.3246 327.518 38.3053 326.039C38.395 325.912 39.4182 323.637 40.0881 322.13L40.1147 322.067L52.3883 335.856L60.1752 341.457C60.6198 341.777 60.9701 342.247 61.1794 342.805C61.3887 343.363 61.4471 343.981 61.3466 344.579C61.2462 345.176 60.9917 345.724 60.6173 346.148C60.2428 346.572 59.7661 346.854 59.2509 346.954L54.5718 347.862C52.6045 348.241 50.5895 348.102 48.6742 347.456L26.408 339.908C24.9865 339.436 23.7461 338.412 22.8929 337.006H22.8902Z" fill="#090814"/>
<path d="M53.4201 134.412L100.105 135.679C100.105 135.679 128.473 230.967 127.388 321.42H88.4438L86.1314 216.416L79.3672 325.499L28.0477 322.055L53.4201 134.412Z" fill="#090814"/>
<path d="M98.0723 27.9864C98.0728 24.4123 97.2779 20.8991 95.7652 17.7899C94.2524 14.6807 92.0736 12.0818 89.4414 10.247C86.8092 8.4122 83.8137 7.40421 80.7473 7.32146C77.6809 7.23871 74.6486 8.08403 71.9463 9.77488C69.2441 11.4657 66.9643 13.9443 65.3297 16.9686C63.695 19.9928 62.7614 23.4593 62.62 27.0297C62.4785 30.6 63.1341 34.152 64.5227 37.3389C65.9112 40.5258 67.9853 43.2385 70.5424 45.2123C69.075 49.4722 67.1237 53.4834 64.7406 57.1385L82.219 74.1109L85.6476 47.7092C89.2502 46.3903 92.3977 43.7664 94.6323 40.2193C96.8669 36.6721 98.072 32.3867 98.0723 27.9864Z" fill="#9F616A"/>
<path d="M85.6069 57.6202L65.522 51.927L52.6476 71.136C49.5809 78.4262 49.097 86.8292 51.3003 94.5315L61.9759 131.852C61.9759 131.852 94.5464 131.218 101.603 109.08L103.626 104.169C104.983 100.874 105.548 97.2119 105.261 93.5726C104.974 89.9333 103.845 86.4529 101.995 83.5018L85.6069 57.6202Z" fill="#166D86"/>
<path d="M64.2274 181.005L64.6004 160.977L54.5652 160.723L54.1923 180.752C53.1915 181.89 52.3954 183.25 51.8503 184.751C51.3052 186.252 51.0221 187.865 51.0176 189.495C50.9012 195.738 54.4016 200.889 58.8355 201.001C63.2694 201.114 66.9595 196.141 67.0737 189.898C67.1294 188.269 66.9064 186.645 66.4178 185.118C65.9291 183.591 65.1845 182.193 64.2274 181.005Z" fill="#9F616A"/>
<path d="M50.3723 80.7639V177.841H67.8001L72.9512 81.5831" fill="#166D86"/>
<path d="M70.9831 31.0429C70.9831 31.0429 84.9525 25.6424 81.5086 19.512C81.5086 19.512 96.3349 22.5215 96.7176 19.512C97.1004 16.5026 96.7176 -2.78045 76.6305 0.340476C56.5435 3.4614 59.2217 23.0784 59.2217 23.0784C59.2217 23.0784 60.6897 42.0415 71.4969 45.943C71.4969 45.943 63.1397 27.142 70.9831 31.0429Z" fill="#090814"/>
<path d="M66.5797 11.419C66.5797 11.419 62.4547 7.94774 57.6429 9.01592C55.9574 9.38973 54.1763 10.8266 52.5702 12.5366C49.3646 16.0171 46.9019 20.3227 45.3786 25.1097C41.172 37.9583 32.3433 70.0976 47.7888 74.0383C67.1528 78.9801 68.3555 31.247 68.3555 31.247L66.5797 11.4203V11.419Z" fill="#090814"/>
</svg>
