<svg width="244" height="262" viewBox="0 0 244 262" fill="none" xmlns="http://www.w3.org/2000/svg">
<path d="M88.0845 -0.00716957L86.5273 0.925659L168.726 138.071L170.283 137.138L88.0845 -0.00716957Z" fill="#000019"/>
<path d="M111.213 81.016L122.001 84.5641V69.0378H112.211L111.213 81.016Z" fill="#F3A3A6"/>
<path d="M120.665 73.3345C126.603 73.3345 131.417 68.5222 131.417 62.5859C131.417 56.6496 126.603 51.8373 120.665 51.8373C114.728 51.8373 109.914 56.6496 109.914 62.5859C109.914 68.5222 114.728 73.3345 120.665 73.3345Z" fill="#F3A3A6"/>
<path d="M117.929 63.4299L119.408 65.2266L122.091 60.5352C122.091 60.5352 125.512 60.7122 125.512 58.1713C125.512 55.6305 128.653 55.5624 128.653 55.5624C128.653 55.5624 133.096 47.8038 123.892 49.8501C123.892 49.8501 117.507 45.4763 114.334 49.2149C114.334 49.2149 104.6 54.1151 107.386 62.6495L112.015 71.4471L113.064 69.4553C113.064 69.4553 112.428 61.0978 117.933 63.4254L117.929 63.4299Z" fill="#2F2E43"/>
<path d="M127.219 253.302H136.723V239.822H127.219V253.302Z" fill="#F3A3A6"/>
<path d="M135.669 261.025C134.044 261.17 125.912 261.814 125.503 259.949C125.131 258.239 125.68 256.451 125.757 256.206C126.538 248.429 126.828 248.343 127.005 248.293C127.282 248.211 128.09 248.597 129.402 249.441L129.483 249.496L129.501 249.591C129.524 249.713 130.105 252.567 132.86 252.127C134.748 251.828 135.36 251.41 135.556 251.206C135.397 251.133 135.197 251.006 135.056 250.789C134.852 250.471 134.816 250.063 134.952 249.573C135.306 248.28 136.368 246.369 136.413 246.292L136.536 246.074L147.337 253.361L154.009 255.267C154.512 255.412 154.916 255.77 155.12 256.251C155.402 256.923 155.229 257.703 154.685 258.193C153.473 259.282 151.068 261.147 148.54 261.378C147.868 261.442 146.979 261.465 145.98 261.465C141.809 261.465 135.719 261.034 135.674 261.025H135.669Z" fill="#2F2E43"/>
<path d="M88.6988 233.124L96.2383 238.907L104.446 228.213L96.907 222.429L88.6988 233.124Z" fill="#F3A3A6"/>
<path d="M90.6966 244.391C89.317 243.52 82.4731 239.078 83.2855 237.354C84.0298 235.77 85.5547 234.682 85.768 234.541C91.1232 228.847 91.4046 228.956 91.5771 229.019C91.8494 229.123 92.2533 229.917 92.7797 231.388L92.8115 231.478L92.7661 231.564C92.7117 231.673 91.4364 234.296 93.8826 235.621C95.5617 236.533 96.3015 236.574 96.5829 236.533C96.5012 236.378 96.4195 236.156 96.4422 235.897C96.474 235.521 96.6918 235.176 97.1002 234.868C98.1668 234.06 100.173 233.189 100.259 233.152L100.486 233.053L104.62 245.407L108.755 250.979C109.068 251.401 109.168 251.932 109.036 252.44C108.85 253.148 108.237 253.661 107.507 253.715C105.882 253.842 102.837 253.856 100.695 252.504C100.127 252.145 99.4057 251.623 98.6115 251.015C95.3031 248.475 90.7329 244.427 90.7012 244.396L90.6966 244.391Z" fill="#2F2E43"/>
<path d="M0 261.46C0 261.759 0.240533 262 0.540064 262H243.46C243.759 262 244 261.759 244 261.46C244 261.161 243.759 260.92 243.46 260.92H0.540064C0.240533 260.92 0 261.161 0 261.46Z" fill="#CCCCCC"/>
<path d="M142.595 142.994L106.715 146.655C106.715 146.655 101.591 163.493 108.911 171.546L113.304 194.241L93.5352 221.328L105.984 229.382L123.556 210.348V242.558L140.398 241.092L148.454 190.58L142.595 142.994Z" fill="#2F2E43"/>
<path d="M126.484 78.5705C126.484 78.5705 123.557 73.448 111.108 74.1785L108.181 80.7665C108.181 80.7665 99.3945 82.9625 99.3945 96.1385C99.3945 109.314 103.788 148.847 103.788 148.847L146.625 146.283L126.811 84.3645L126.488 78.5659L126.484 78.5705Z" fill="#CCCCCC"/>
<path d="M83.0656 21.5244C81.5498 31.5516 82.2441 41.8919 85.0352 51.6332L132.152 26.8284C131.331 25.8529 130.491 24.8956 129.615 23.97C122.549 16.5154 113.749 10.7441 104.092 7.26404C100.543 8.78853 96.8576 10.6125 93.0409 12.7949C89.5917 14.764 86.433 16.7649 83.5376 18.7794C83.3606 19.6914 83.2017 20.6034 83.0656 21.5199V21.5244Z" fill="#166D86"/>
<path d="M109.78 8.12151C115.226 10.617 120.318 13.8565 124.916 17.695C127.993 20.263 130.824 23.1124 133.384 26.1886L164.517 9.80027C164.517 9.80027 142.892 -8.4846 105.918 6.51081C107.22 7.0099 108.509 7.54529 109.776 8.12605L109.78 8.12151Z" fill="#166D86"/>
<path d="M82.7464 48.2304C80.627 38.9518 80.3638 29.2694 81.9613 19.9001C48.9312 43.7113 52.0808 68.9835 52.0808 68.9835L83.8084 52.2821C83.4181 50.9436 83.0551 49.596 82.7419 48.2349L82.7464 48.2304Z" fill="#166D86"/>
<path d="M165.424 125.313C168.224 126.601 169.79 129.133 168.923 130.971C168.056 132.808 165.079 133.253 162.279 131.969C161.153 131.47 160.168 130.703 159.41 129.723L147.615 124.115L150.52 118.462L161.843 124.591C163.086 124.537 164.321 124.782 165.433 125.313H165.424Z" fill="#F3A3A6"/>
<path d="M158.115 129.446L129.642 120.149L129.61 120.118L107.921 100.054C104.599 96.9824 104.1 91.9053 106.764 88.2438C108.393 86.0024 110.916 84.6639 113.685 84.5686C116.453 84.4734 119.063 85.6394 120.842 87.7628L137.13 107.209L160.589 122.445L158.115 129.446Z" fill="#CCCCCC"/>
</svg>
