<svg width="182" height="205" viewBox="0 0 182 205" fill="none" xmlns="http://www.w3.org/2000/svg">
<path d="M100.986 204.059L-0.000160217 203.809V203.24L100.986 203.489V204.059Z" fill="#D6D6E3"/>
<path d="M81.7975 98.2751L76.7378 88.0186L70.916 91.057L75.9757 101.313C75.7017 102.205 75.6031 103.145 75.6857 104.076C75.7683 105.008 76.0303 105.913 76.4566 106.74C78.0338 109.936 81.3975 111.439 83.9698 110.097C86.5421 108.755 87.3487 105.075 85.7715 101.877C85.3748 101.035 84.819 100.283 84.1367 99.6648C83.4544 99.0463 82.6592 98.5736 81.7975 98.2743V98.2751Z" fill="#9F616A"/>
<path d="M47.4587 51.9075L73.0207 101.044L83.0156 95.5457L60.6239 45.1968" fill="#166D86"/>
<path d="M61.4222 63.4231L68.3887 96.7022L38.0248 97.7933C38.0248 97.7933 42.0027 74.6805 40.5907 70.6859L61.4222 63.4231Z" fill="#9F616A"/>
<path d="M67.2209 187.268H74.3164V196.887H67.2209V187.268Z" fill="#9F616A"/>
<path d="M65.785 202.582C65.5169 202.389 65.2916 202.14 65.1238 201.851C64.956 201.562 64.8496 201.239 64.8115 200.905C64.7666 200.21 65.1046 199.464 65.8161 198.689C65.8331 198.466 66.0541 195.701 66.546 195.205C66.5047 195.057 66.2543 194.078 66.6648 193.439C66.7703 193.285 66.9088 193.158 67.0695 193.068C67.2303 192.978 67.4091 192.927 67.5921 192.919L67.6104 192.917L67.6196 192.933C67.6317 192.955 68.8287 195.094 70.6301 195.282C71.6627 195.391 72.6963 194.843 73.7027 193.658C73.7381 193.57 74.0231 192.126 74.2067 191.17L74.2141 191.132L84.0276 196.437L89.7638 198.07C90.0913 198.163 90.3834 198.357 90.6011 198.625C90.8187 198.894 90.9515 199.224 90.9817 199.572C91.0119 199.92 90.9381 200.27 90.7701 200.574C90.6022 200.877 90.3481 201.121 90.0417 201.273L87.2612 202.648C86.0916 203.224 84.8116 203.524 83.5148 203.526H68.4323C67.471 203.531 66.5368 203.199 65.7847 202.583L65.785 202.582Z" fill="#090814"/>
<path d="M20.4271 182.881L27.2402 184.919L24.628 194.155L17.8149 192.116L20.4271 182.881Z" fill="#9F616A"/>
<path d="M14.8862 197.173C14.6811 196.911 14.5323 196.606 14.4496 196.28C14.367 195.954 14.3524 195.614 14.4067 195.282C14.5524 194.602 15.0786 193.983 15.9733 193.443C16.0504 193.233 17.0133 190.642 17.6201 190.308C17.6201 190.154 17.6467 189.139 18.2142 188.645C18.3573 188.528 18.5248 188.446 18.7036 188.405C18.8825 188.365 19.068 188.368 19.2458 188.413L19.2638 188.416L19.268 188.435C19.2737 188.459 19.8423 190.856 21.5206 191.554C22.4829 191.954 23.624 191.727 24.9123 190.878C24.9706 190.805 25.6362 189.499 26.0718 188.633L26.0892 188.597L34.072 196.513L39.1366 199.729C39.4258 199.912 39.6536 200.182 39.7898 200.502C39.9259 200.822 39.9639 201.178 39.8985 201.521C39.8332 201.864 39.6677 202.178 39.4241 202.421C39.1806 202.665 38.8706 202.827 38.5354 202.884L35.4921 203.405C34.2126 203.623 32.902 203.543 31.6563 203.172L17.1742 198.839C16.2497 198.568 15.4429 197.981 14.888 197.173H14.8862Z" fill="#090814"/>
<path d="M34.7444 80.8708L65.1082 81.5983C65.1082 81.5983 83.5595 136.3 82.8533 188.226H57.524L56.02 127.946L51.6205 190.567L18.242 188.59L34.7444 80.8708Z" fill="#090814"/>
<path d="M63.7852 19.7752C63.7855 17.7234 63.2685 15.7066 62.2846 13.9217C61.3007 12.1368 59.8836 10.6449 58.1716 9.59158C56.4596 8.53828 54.5113 7.95962 52.5169 7.91212C50.5225 7.86461 48.5502 8.34988 46.7927 9.32054C45.0351 10.2912 43.5523 11.7141 42.4892 13.4502C41.426 15.1863 40.8188 17.1763 40.7268 19.2259C40.6348 21.2755 41.0612 23.3146 41.9643 25.1441C42.8674 26.9736 44.2164 28.5309 45.8796 29.664C44.9252 32.1094 43.656 34.4121 42.106 36.5104L53.4741 46.2537L55.7041 31.0973C58.0472 30.3402 60.0944 28.8339 61.5478 26.7976C63.0011 24.7613 63.785 22.3012 63.7852 19.7752Z" fill="#9F616A"/>
<path d="M55.6791 36.7868L42.6158 33.5186L34.2422 44.5458C32.2476 48.7308 31.9329 53.5547 33.3659 57.9763L40.3094 79.4008C40.3094 79.4008 61.4935 79.0371 66.0832 66.3281L67.3991 63.5087C68.2817 61.6172 68.6492 59.515 68.4624 57.4259C68.2755 55.3367 67.5414 53.3387 66.3382 51.6446L55.6791 36.7868Z" fill="#166D86"/>
<path d="M41.7722 107.618L42.0148 96.1206L35.4879 95.9751L35.2453 107.473C34.5944 108.126 34.0766 108.907 33.7221 109.769C33.3676 110.63 33.1835 111.556 33.1805 112.492C33.1048 116.076 35.3815 119.033 38.2653 119.097C41.1491 119.162 43.5492 116.307 43.6235 112.723C43.6597 111.788 43.5147 110.856 43.1969 109.979C42.879 109.103 42.3947 108.3 41.7722 107.618Z" fill="#9F616A"/>
<path d="M32.7618 50.0732V105.802H44.097L47.4473 50.5435" fill="#166D86"/>
<path d="M46.1656 21.5296C46.1656 21.5296 55.2513 18.4294 53.0114 14.9102C53.0114 14.9102 62.6545 16.6378 62.9034 14.9102C63.1524 13.1826 62.9034 2.11282 49.8387 3.90444C36.7739 5.69606 38.5159 16.9575 38.5159 16.9575C38.5159 16.9575 39.4707 27.8436 46.4997 30.0833C46.4997 30.0833 41.0641 19.2903 46.1656 21.5296Z" fill="#090814"/>
<path d="M43.304 10.2646C43.304 10.2646 40.6211 8.27181 37.4915 8.88502C36.3952 9.09961 35.2367 9.92449 34.1921 10.9061C32.1072 12.9041 30.5055 15.3758 29.5147 18.1239C26.7787 25.4998 21.0365 43.9499 31.0823 46.2122C43.6768 49.0491 44.459 21.6471 44.459 21.6471L43.304 10.2653V10.2646Z" fill="#090814"/>
<path d="M92.4571 89.5626C92.3596 89.4964 92.2505 89.4505 92.136 89.4274C92.0216 89.4044 91.9041 89.4047 91.7901 89.4283C91.6762 89.4519 91.5682 89.4984 91.4721 89.565C91.3761 89.6317 91.294 89.7172 91.2305 89.8168L89.5691 92.4193L89.4357 92.3411L88.3104 94.1108L88.4435 94.1831L82.4925 103.506C82.2893 103.825 82.2067 104.21 82.2601 104.59C82.3135 104.969 82.4992 105.317 82.7827 105.568L88.0812 110.266C88.2102 110.38 88.3618 110.464 88.5252 110.512C88.6887 110.561 88.8602 110.572 89.0276 110.545C89.195 110.518 89.3543 110.453 89.4943 110.356C89.6343 110.259 89.7516 110.132 89.838 109.982L97.7633 96.3153C97.9294 96.0284 97.9951 95.6913 97.9496 95.3591C97.9041 95.0269 97.7502 94.7194 97.513 94.487L92.5866 89.6698C92.5467 89.6299 92.5035 89.5942 92.4571 89.5626Z" fill="#3F3D56"/>
<path d="M95.9614 94.0802L93.3715 91.5478C93.3249 91.5022 93.294 91.4423 93.2838 91.3772C93.2735 91.3122 93.2844 91.2457 93.3148 91.188C93.3492 91.1227 93.3615 91.0473 93.3499 90.9736C93.3383 90.8999 93.3033 90.832 93.2505 90.7803L92.7051 90.2468C92.6307 90.174 92.5417 90.1186 92.4445 90.0847C92.3473 90.0508 92.2443 90.0392 92.1426 90.0506C92.0409 90.0621 91.9432 90.0963 91.8562 90.1509C91.7693 90.2055 91.6952 90.2792 91.6393 90.3667L83.0006 103.878C82.8934 104.046 82.8505 104.249 82.88 104.448C82.9095 104.647 83.0094 104.829 83.1606 104.959L88.5205 109.559C88.5888 109.617 88.6686 109.66 88.7543 109.685C88.84 109.709 88.9297 109.714 89.0171 109.699C89.1045 109.685 89.1877 109.651 89.261 109.601C89.3343 109.55 89.3959 109.484 89.4416 109.406L97.3829 95.926C97.4997 95.7274 97.5464 95.4932 97.5155 95.2622C97.4845 95.0312 97.3776 94.8173 97.2126 94.656L96.6385 94.0944C96.5456 94.1805 96.4241 94.2269 96.2984 94.2242C96.1728 94.2216 96.0523 94.1701 95.9614 94.0802Z" fill="#166D86"/>
<path d="M88.5632 101.663C88.437 101.573 88.3423 101.444 88.2934 101.294L88.2905 101.285L87.6632 99.309C87.6046 99.1238 87.6198 98.923 87.7054 98.7508C87.7911 98.5785 87.9402 98.4488 88.12 98.3904C88.2998 98.3319 88.4955 98.3493 88.664 98.4389C88.8326 98.5284 88.9603 98.6827 89.0189 98.8679L89.4235 100.149L93.2557 98.9038C93.3447 98.8748 93.4387 98.8641 93.5321 98.8724C93.6255 98.8807 93.7166 98.9079 93.8001 98.9523C93.8836 98.9967 93.9579 99.0576 94.0187 99.1314C94.0795 99.2051 94.1256 99.2904 94.1544 99.3822L94.1299 99.3911L94.1547 99.3824C94.2131 99.5674 94.1977 99.768 94.112 99.94C94.0263 100.112 93.8773 100.242 93.6977 100.3L89.1883 101.764C89.0842 101.797 88.9738 101.805 88.8657 101.788C88.7575 101.771 88.6544 101.728 88.5644 101.663L88.5632 101.663Z" fill="white"/>
<path d="M178.404 0H110.602C109.647 0.00134884 108.732 0.585663 108.057 1.62468C107.382 2.6637 107.003 4.07253 107.002 5.54193V22.46C107.003 23.9291 107.383 25.3374 108.058 26.376C108.732 27.4146 109.647 27.9987 110.602 28H178.404C179.358 27.9981 180.272 27.4139 180.947 26.3753C181.621 25.3368 182.001 23.9287 182.002 22.46V5.54161C182.001 4.0726 181.622 2.66413 180.947 1.62524C180.272 0.586341 179.358 0.00185433 178.404 0Z" fill="white"/>
<path d="M178.404 0H110.602C109.647 0.00134884 108.732 0.585663 108.057 1.62468C107.382 2.6637 107.003 4.07253 107.002 5.54193V22.46C107.003 23.9291 107.383 25.3374 108.058 26.376C108.732 27.4146 109.647 27.9987 110.602 28H178.404C179.358 27.9981 180.272 27.4139 180.947 26.3753C181.621 25.3368 182.001 23.9287 182.002 22.46V5.54161C182.001 4.0726 181.622 2.66413 180.947 1.62524C180.272 0.586341 179.358 0.00185433 178.404 0ZM181.623 22.46C181.622 23.7739 181.282 25.0333 180.678 25.9625C180.075 26.8916 179.257 27.4147 178.404 27.4173H110.602C109.748 27.4152 108.93 26.8922 108.326 25.963C107.722 25.0338 107.382 23.7742 107.381 22.46V5.54161C107.382 4.22717 107.722 2.96719 108.326 2.03774C108.929 1.10829 109.748 0.585162 110.602 0.582973H178.404C179.257 0.585162 180.076 1.10829 180.679 2.03774C181.283 2.96719 181.623 4.22717 181.624 5.54161L181.623 22.46Z" fill="#3F3D56"/>
<path d="M123.191 23.7876C121.769 23.7876 120.379 23.354 119.197 22.5415C118.015 21.7291 117.093 20.5743 116.549 19.2233C116.005 17.8722 115.863 16.3856 116.14 14.9513C116.417 13.5171 117.102 12.1996 118.108 11.1656C119.113 10.1316 120.394 9.42736 121.788 9.14207C123.183 8.85678 124.628 9.00321 125.942 9.56282C127.256 10.1224 128.378 11.0701 129.168 12.286C129.958 13.5019 130.38 14.9314 130.38 16.3938C130.38 18.3548 129.622 20.2354 128.274 21.622C126.926 23.0086 125.097 23.7876 123.191 23.7876Z" fill="#166D86"/>
<path d="M168.78 21H142.224C141.898 20.9923 141.588 20.7255 141.359 20.2575C141.13 19.7895 141.002 19.158 141.002 18.5C141.002 17.842 141.13 17.2105 141.359 16.7425C141.588 16.2745 141.898 16.0077 142.224 16H168.78C169.106 16.0077 169.416 16.2745 169.645 16.7425C169.874 17.2105 170.002 17.842 170.002 18.5C170.002 19.158 169.874 19.7895 169.645 20.2575C169.416 20.7255 169.106 20.9923 168.78 21Z" fill="#E6E6E6"/>
<path d="M153.463 13.9997H142.523C142.118 13.992 141.731 13.7252 141.446 13.2572C141.162 12.7893 141.002 12.1578 141.002 11.4998C141.002 10.8418 141.162 10.2104 141.446 9.74241C141.731 9.27444 142.118 9.00769 142.523 9H153.463C153.871 9 154.263 9.26339 154.551 9.73223C154.84 10.2011 155.002 10.837 155.002 11.5C155.002 12.163 154.84 12.7989 154.551 13.2678C154.263 13.7366 153.871 14 153.463 14V13.9997Z" fill="#E6E6E6"/>
<path d="M122.824 18.9949C122.645 18.9953 122.472 18.9359 122.329 18.8258L122.32 18.819L120.457 17.3529C120.283 17.2155 120.169 17.0125 120.14 16.7886C120.111 16.5647 120.17 16.3382 120.304 16.159C120.437 15.9797 120.635 15.8624 120.852 15.8329C121.07 15.8033 121.29 15.8639 121.465 16.0013L122.671 16.9531L125.523 13.1265C125.657 12.9474 125.854 12.8301 126.072 12.8005C126.289 12.771 126.509 12.8315 126.684 12.9689L126.666 12.9933L126.684 12.9689C126.858 13.1064 126.972 13.3094 127.001 13.5332C127.029 13.757 126.971 13.9833 126.837 14.1626L123.483 18.6608C123.406 18.7645 123.306 18.8484 123.192 18.906C123.078 18.9636 122.952 18.9934 122.825 18.993L122.824 18.9949Z" fill="white"/>
</svg>
