<svg width="181" height="349" viewBox="0 0 181 349" fill="none" xmlns="http://www.w3.org/2000/svg">
<path d="M160 161.97L123.332 152.317C122.529 152.109 121.781 151.707 121.145 151.144C120.51 150.58 120.003 149.869 119.664 149.065C119.317 148.252 119.149 147.365 119.172 146.472C119.196 145.579 119.41 144.703 119.798 143.912C126.682 129.701 130.334 113.964 130.459 97.9734C130.462 97.0802 130.656 96.1993 131.026 95.3976C131.396 94.596 131.932 93.8949 132.594 93.3475C133.246 92.8042 134.006 92.4264 134.815 92.2431C135.624 92.0598 136.461 92.0758 137.263 92.2897L173.931 101.943C175.196 102.28 176.307 103.085 177.067 104.215C177.827 105.345 178.186 106.726 178.08 108.113C176.613 125.468 172.664 142.484 166.37 158.57C165.857 159.849 164.936 160.893 163.769 161.516C162.602 162.139 161.267 162.3 160 161.97Z" fill="#E6E6E6"/>
<path d="M136.579 95.2327C136.194 95.1299 135.792 95.1221 135.403 95.21C135.015 95.2979 134.65 95.4791 134.337 95.7399C134.015 96.0068 133.754 96.3485 133.574 96.7389C133.395 97.1294 133.301 97.5584 133.3 97.9932C133.171 114.461 129.41 130.669 122.32 145.304C122.131 145.689 122.026 146.115 122.015 146.55C122.003 146.984 122.084 147.416 122.252 147.812C122.415 148.198 122.659 148.54 122.964 148.811C123.269 149.081 123.629 149.274 124.014 149.374L160.682 159.027C161.29 159.187 161.931 159.112 162.493 158.815C163.054 158.518 163.498 158.018 163.746 157.404C169.928 141.604 173.807 124.89 175.248 107.842C175.297 107.176 175.123 106.513 174.756 105.972C174.39 105.43 173.855 105.045 173.247 104.886L136.579 95.2327Z" fill="white"/>
<path d="M161.961 116.932L142.72 111.867C141.988 111.673 141.359 111.178 140.97 110.49C140.581 109.802 140.463 108.978 140.644 108.197L140.911 107.047C141.093 106.267 141.557 105.595 142.202 105.18C142.848 104.764 143.621 104.638 144.353 104.83L163.594 109.895C164.325 110.089 164.955 110.584 165.344 111.272C165.733 111.96 165.85 112.784 165.67 113.565L165.403 114.715C165.221 115.495 164.757 116.167 164.111 116.582C163.466 116.998 162.693 117.124 161.961 116.932Z" fill="#E6E6E6"/>
<path d="M158.588 131.465L139.347 126.399C138.615 126.206 137.986 125.711 137.597 125.023C137.208 124.335 137.09 123.51 137.271 122.73L137.538 121.58C137.72 120.8 138.184 120.128 138.829 119.712C139.475 119.297 140.248 119.171 140.98 119.363L160.221 124.428C160.952 124.622 161.582 125.117 161.971 125.804C162.36 126.492 162.477 127.317 162.297 128.098L162.03 129.248C161.848 130.028 161.384 130.699 160.738 131.115C160.093 131.531 159.32 131.656 158.588 131.465Z" fill="#E6E6E6"/>
<path d="M155.215 145.998L135.974 140.932C135.242 140.739 134.613 140.244 134.224 139.556C133.835 138.868 133.717 138.043 133.898 137.263L134.165 136.113C134.347 135.332 134.811 134.661 135.456 134.245C136.102 133.83 136.875 133.704 137.607 133.896L156.848 138.961C157.579 139.155 158.208 139.649 158.598 140.337C158.987 141.025 159.104 141.85 158.924 142.631L158.657 143.781C158.475 144.561 158.01 145.232 157.365 145.648C156.72 146.064 155.947 146.189 155.215 145.998Z" fill="#E6E6E6"/>
<path d="M163.613 105.094L144.3 100.01C143.751 99.8644 143.28 99.4932 142.988 98.9772C142.696 98.4613 142.608 97.8427 142.743 97.2573L143.654 93.3329C143.79 92.7479 144.139 92.2442 144.623 91.9325C145.107 91.6208 145.686 91.5265 146.235 91.6702L165.548 96.7544C166.096 96.8995 166.568 97.2707 166.86 97.7867C167.152 98.3026 167.24 98.9212 167.105 99.5066L166.194 103.431C166.058 104.016 165.709 104.52 165.225 104.831C164.741 105.143 164.161 105.237 163.613 105.094Z" fill="#CCCCCC"/>
<path d="M76.2634 337.48H86.8169L90.1163 293.686H76.2617L76.2634 337.48Z" fill="#FFB8B8"/>
<path d="M73.5723 333.773L94.3553 333.772H94.3562C96.0955 333.772 97.8178 334.141 99.4247 334.857C101.032 335.573 102.492 336.622 103.722 337.946C104.952 339.269 105.927 340.84 106.593 342.569C107.258 344.297 107.601 346.15 107.601 348.022V348.485L73.5729 348.486L73.5723 333.773Z" fill="#2F2E41"/>
<path d="M19.4509 337.48H30.0044L35.0254 293.686H19.4492L19.4509 337.48Z" fill="#FFB8B8"/>
<path d="M16.7578 333.773L37.5409 333.772H37.5417C39.281 333.772 41.0033 334.141 42.6103 334.857C44.2172 335.573 45.6773 336.622 46.9072 337.946C48.1371 339.269 49.1127 340.84 49.7783 342.569C50.4439 344.297 50.7865 346.15 50.7865 348.022V348.485L16.7585 348.486L16.7578 333.773Z" fill="#2F2E41"/>
<path d="M21.3232 323.646C20.2467 323.645 19.2096 323.21 18.418 322.425C17.9931 322.008 17.6508 321.502 17.4118 320.939C17.1728 320.377 17.042 319.768 17.0272 319.149L12.7949 155.956L72.8886 172.118L91.4299 231.961C93.8209 239.66 94.8559 247.771 94.4818 255.878L92.1795 313.886C92.127 315.074 91.651 316.195 90.8504 317.016C90.0498 317.837 88.9862 318.294 87.8803 318.293H77.8012C76.7609 318.289 75.7569 317.881 74.9735 317.144C74.1901 316.408 73.6798 315.392 73.5361 314.284L66.3321 250.251C65.7026 245.255 64.0784 240.465 61.5704 236.207L47.3934 212.058C47.2986 211.896 47.1598 211.771 46.996 211.697C46.8322 211.624 46.6513 211.607 46.4782 211.649C46.3051 211.69 46.1481 211.788 46.0288 211.93C45.9095 212.071 45.8336 212.248 45.8115 212.438L34.686 319.022C34.5666 320.103 34.0965 321.104 33.3584 321.849C32.6204 322.594 31.6618 323.035 30.6514 323.094L21.5682 323.637C21.4865 323.642 21.405 323.646 21.3232 323.646Z" fill="#2F2E41"/>
<path d="M62.8883 50.2987C74.5648 50.2987 84.0305 40.1148 84.0305 27.5524C84.0305 14.99 74.5648 4.80615 62.8883 4.80615C51.2118 4.80615 41.7461 14.99 41.7461 27.5524C41.7461 40.1148 51.2118 50.2987 62.8883 50.2987Z" fill="#FFB8B8"/>
<path d="M72.5995 178.755C72.2357 178.754 71.8734 178.705 71.521 178.608L11.8975 162.16C10.8315 161.866 9.91057 161.144 9.32412 160.143C8.73767 159.141 8.53022 157.936 8.74446 156.774L22.4374 77.415C23.2905 72.8277 25.1657 68.5317 27.9019 64.8958C30.6382 61.26 34.1538 58.3929 38.1468 56.5409C42.0375 54.6882 46.2923 53.8945 50.5357 54.2296C54.779 54.5648 58.8804 56.0186 62.4779 58.4627C63.3127 59.023 64.1535 59.6339 64.9765 60.2788C68.2896 62.9082 70.9915 66.3277 72.8701 70.2691C74.7488 74.2105 75.7531 78.5666 75.8044 82.9956L76.8932 174.059C76.9005 174.671 76.795 175.279 76.5827 175.848C76.3704 176.416 76.0555 176.933 75.6563 177.37C75.2571 177.807 74.7814 178.154 74.2567 178.392C73.7321 178.629 73.1688 178.753 72.5995 178.755Z" fill="#166D86"/>
<path d="M18.0337 179.688C17.3224 178.562 16.8493 177.282 16.6477 175.938C16.4461 174.594 16.5208 173.219 16.8667 171.909C17.2125 170.599 17.821 169.387 18.6494 168.358C19.4778 167.329 20.5058 166.507 21.6611 165.952L19.0091 132.981L33.0626 141.175L33.4264 171.229C34.1652 173.379 34.1454 175.746 33.3705 177.881C32.5957 180.016 31.1198 181.772 29.2224 182.814C27.3251 183.857 25.1381 184.115 23.076 183.539C21.0138 182.963 19.2197 181.593 18.0337 179.688Z" fill="#FFB8B8"/>
<path d="M23.0537 161.591C22.6571 161.591 22.2622 161.537 21.8781 161.431C21.0518 161.204 20.2979 160.742 19.696 160.092C19.0941 159.442 18.6668 158.629 18.459 157.739L11.5526 128.211C9.13904 117.899 10.2896 106.993 14.7903 97.525L29.2594 67.0727C30.1741 63.4267 32.384 60.3136 35.4127 58.4046C38.4414 56.4957 42.0461 55.9439 45.4495 56.8683C47.1458 57.3291 48.7402 58.1477 50.1403 59.2765C51.5403 60.4054 52.7181 61.822 53.6055 63.4442C54.511 65.0897 55.1033 66.9126 55.3477 68.8068C55.5922 70.7009 55.4839 72.6284 55.0293 74.4771L34.4324 124.029L34.677 153.698C34.6834 154.745 34.3909 155.768 33.839 156.63C33.2872 157.492 32.5027 158.151 31.5915 158.518L24.6988 161.272C24.1725 161.483 23.6153 161.591 23.0537 161.591Z" fill="#166D86"/>
<path d="M121.647 167.561C120.39 167.406 119.18 166.957 118.101 166.244C117.023 165.532 116.103 164.574 115.406 163.438C114.709 162.301 114.252 161.014 114.067 159.667C113.882 158.32 113.974 156.946 114.337 155.642L89.3789 136.296L104.319 130.182L125.729 149.491C127.726 150.291 129.38 151.851 130.379 153.876C131.378 155.9 131.651 158.249 131.148 160.476C130.645 162.703 129.4 164.655 127.649 165.961C125.898 167.266 123.762 167.836 121.647 167.561Z" fill="#FFB8B8"/>
<path d="M108.582 153.433C107.846 153.433 107.12 153.248 106.462 152.895L81.1551 139.265C72.3158 134.505 65.3841 126.453 61.6488 116.607L49.6343 84.9432C47.6627 81.8187 46.9113 77.9857 47.5421 74.2706C48.173 70.5555 50.1355 67.256 53.0067 65.0833C54.4412 63.9981 56.0622 63.2309 57.7751 62.8265C59.488 62.4221 61.2586 62.3886 62.9837 62.7278C64.729 63.0655 66.3948 63.7724 67.8843 64.8076C69.3739 65.8429 70.6577 67.1859 71.6613 68.7588L93.1341 117.879L114.194 137.034C114.936 137.711 115.466 138.617 115.714 139.63C115.961 140.642 115.913 141.712 115.577 142.694L113.021 150.111C112.687 151.083 112.084 151.922 111.293 152.515C110.498 153.113 109.552 153.433 108.582 153.433Z" fill="#166D86"/>
<path d="M58.4485 50.6467C59.5718 51.1755 61.8722 41.5455 60.8417 39.6194C59.3093 36.755 59.3999 36.7756 58.3826 34.8805C57.3653 32.9854 57.1377 30.3915 58.455 28.724C59.7724 27.0566 62.821 27.2778 63.4222 29.3684C63.0355 25.3975 66.6863 22.2054 70.3026 21.3084C73.919 20.4113 77.7334 20.9683 81.3697 20.17C85.5897 19.2436 89.9804 15.4379 88.2967 10.4452C88.0078 9.61398 87.5752 8.84911 87.0218 8.19098C85.0765 5.83779 82.3553 4.83297 79.6947 3.86142C74.1597 1.84022 68.4733 -0.206386 62.6317 0.016733C57.8187 0.287481 53.1833 2.0619 49.293 5.12281C45.4026 8.18372 42.426 12.3984 40.7274 17.251C40.3249 18.4649 40.013 19.7116 39.7948 20.9789C37.7898 32.5777 44.0504 44.0186 54.2186 48.4355L58.4485 50.6467Z" fill="#2F2E41"/>
<path opacity="0.2" d="M33.4863 154.371L33.9658 123.875L48.9808 91.3955L36.9295 124.736L33.4863 154.371Z" fill="black"/>
<path d="M148.108 184.027L113.526 168.569C112.768 168.233 112.091 167.715 111.547 167.056C111.003 166.396 110.605 165.611 110.386 164.761C110.16 163.902 110.119 162.998 110.267 162.119C110.414 161.24 110.747 160.409 111.238 159.689C119.972 146.751 125.752 131.782 128.112 115.994C128.239 115.112 128.553 114.272 129.027 113.539C129.502 112.807 130.126 112.2 130.852 111.766C131.566 111.334 132.363 111.083 133.182 111.032C134 110.982 134.819 111.132 135.575 111.473L170.157 126.932C171.35 127.469 172.326 128.445 172.913 129.684C173.499 130.924 173.658 132.347 173.36 133.701C169.495 150.622 163.244 166.807 154.827 181.693C154.145 182.875 153.096 183.759 151.865 184.186C150.635 184.614 149.303 184.557 148.108 184.027Z" fill="#E6E6E6"/>
<path d="M134.495 114.273C134.132 114.109 133.739 114.037 133.346 114.061C132.953 114.085 132.57 114.205 132.226 114.413C131.874 114.624 131.57 114.92 131.339 115.277C131.109 115.634 130.957 116.043 130.895 116.473C128.465 132.732 122.512 148.148 113.517 161.473C113.277 161.823 113.115 162.227 113.043 162.655C112.971 163.083 112.99 163.522 113.099 163.941C113.205 164.349 113.396 164.726 113.657 165.043C113.919 165.36 114.244 165.608 114.608 165.769L149.19 181.228C149.763 181.484 150.403 181.514 150.994 181.31C151.586 181.107 152.091 180.685 152.42 180.118C160.688 165.496 166.828 149.598 170.625 132.977C170.766 132.326 170.688 131.643 170.404 131.049C170.121 130.454 169.651 129.988 169.077 129.731L134.495 114.273Z" fill="white"/>
<path d="M152.908 148.684L134.761 140.572C134.071 140.263 133.524 139.672 133.239 138.93C132.954 138.187 132.954 137.352 133.24 136.61L133.663 135.516C133.95 134.774 134.499 134.185 135.19 133.878C135.88 133.572 136.655 133.572 137.346 133.88L155.493 141.992C156.183 142.301 156.73 142.892 157.015 143.635C157.3 144.377 157.3 145.212 157.014 145.954L156.591 147.048C156.304 147.79 155.755 148.379 155.064 148.686C154.374 148.992 153.599 148.992 152.908 148.684Z" fill="#166D86"/>
<path d="M147.57 162.507L129.423 154.395C128.734 154.086 128.186 153.495 127.901 152.752C127.616 152.009 127.616 151.175 127.902 150.433L128.325 149.339C128.612 148.597 129.161 148.008 129.852 147.701C130.542 147.394 131.318 147.395 132.008 147.702L150.155 155.814C150.845 156.124 151.392 156.714 151.677 157.457C151.962 158.2 151.962 159.034 151.676 159.777L151.254 160.871C150.966 161.613 150.417 162.202 149.727 162.508C149.036 162.815 148.261 162.815 147.57 162.507Z" fill="#166D86"/>
<path d="M160.18 129.258C159.909 129.257 159.64 129.201 159.388 129.091L141.102 121.136C140.583 120.91 140.168 120.471 139.949 119.916C139.73 119.361 139.725 118.736 139.935 118.176L141.343 114.429C141.553 113.87 141.961 113.424 142.477 113.188C142.993 112.953 143.575 112.948 144.094 113.174L162.38 121.128C162.9 121.354 163.314 121.793 163.533 122.348C163.752 122.903 163.757 123.528 163.548 124.088L162.139 127.835C161.981 128.255 161.71 128.614 161.361 128.868C161.012 129.121 160.601 129.257 160.18 129.258Z" fill="#CCCCCC"/>
<path d="M121.373 349H0.860803C0.632504 349 0.413568 348.902 0.252136 348.729C0.090704 348.555 0 348.319 0 348.074C0 347.828 0.090704 347.593 0.252136 347.419C0.413568 347.245 0.632504 347.148 0.860803 347.148H121.373C121.602 347.148 121.82 347.245 121.982 347.419C122.143 347.593 122.234 347.828 122.234 348.074C122.234 348.319 122.143 348.555 121.982 348.729C121.82 348.902 121.602 349 121.373 349Z" fill="#CCCCCC"/>
</svg>
