<svg width="181" height="349" viewBox="0 0 181 349" fill="none" xmlns="http://www.w3.org/2000/svg">
<path d="M15.1521 257.545C15.8309 258.91 16.8026 260.065 17.9799 260.907C19.1571 261.749 20.5031 262.251 21.8969 262.368C22.6118 262.425 22.437 263.653 21.7268 263.596C20.1874 263.458 18.7016 262.902 17.399 261.975C16.0965 261.048 15.0169 259.779 14.2546 258.279C14.1722 258.144 14.1387 257.979 14.1611 257.818C14.1834 257.657 14.2599 257.511 14.3749 257.41C14.4942 257.314 14.6427 257.274 14.7882 257.299C14.9337 257.324 15.0645 257.412 15.1521 257.545Z" fill="white"/>
<path d="M171.273 19.0948C170.972 18.1022 167.2 14.7283 169.512 14.1612L171.407 16.9856L180.124 7.24695L181 8.22644L171.273 19.0948Z" fill="#166D86"/>
<path d="M171.273 52.2105C170.972 51.218 167.2 47.844 169.512 47.2769L171.407 50.1014L180.124 40.3627L181 41.3422L171.273 52.2105Z" fill="#166D86"/>
<path d="M171.273 85.7991C170.972 84.8066 167.2 81.4326 169.512 80.8655L171.407 83.69L180.124 73.9513L181 74.9308L171.273 85.7991Z" fill="#166D86"/>
<path d="M163.246 58.6435C164.732 58.6435 165.936 57.298 165.936 55.6383C165.936 53.9785 164.732 52.6331 163.246 52.6331C161.761 52.6331 160.557 53.9785 160.557 55.6383C160.557 57.298 161.761 58.6435 163.246 58.6435Z" fill="#3F3D56"/>
<path d="M163.246 25.8867C164.732 25.8867 165.936 24.5412 165.936 22.8814C165.936 21.2217 164.732 19.8762 163.246 19.8762C161.761 19.8762 160.557 21.2217 160.557 22.8814C160.557 24.5412 161.761 25.8867 163.246 25.8867Z" fill="#3F3D56"/>
<path d="M164.592 93.5623C166.078 93.5623 167.282 92.2168 167.282 90.5571C167.282 88.8974 166.078 87.5519 164.592 87.5519C163.107 87.5519 161.902 88.8974 161.902 90.5571C161.902 92.2168 163.107 93.5623 164.592 93.5623Z" fill="#3F3D56"/>
<path d="M178.066 90.277H164.617V74.9504H173.762V75.5515H165.155V89.676H177.528V82.764H178.066V90.277Z" fill="#3F3D56"/>
<path d="M178.066 56.6185H164.617V41.2919H173.762V41.8929H165.155V56.0174H177.528V49.1054H178.066V56.6185Z" fill="#3F3D56"/>
<path d="M178.066 22.3591H164.617V7.03247H173.762V7.63351H165.155V21.758H177.528V14.846H178.066V22.3591Z" fill="#3F3D56"/>
<path d="M113.129 102.225C113.129 102.225 105.793 136.832 114.759 136.832C123.725 136.832 144.917 97.6718 144.917 97.6718L137.582 87.6541L124.415 108.079L123.725 97.6718L113.129 102.225Z" fill="#A0616A"/>
<path d="M142.961 99.1763C146.902 99.1763 150.097 95.6063 150.097 91.2025C150.097 86.7987 146.902 83.2288 142.961 83.2288C139.019 83.2288 135.824 86.7987 135.824 91.2025C135.824 95.6063 139.019 99.1763 142.961 99.1763Z" fill="#A0616A"/>
<path d="M106.908 337.927L116.407 337.927L120.927 296.987L106.906 296.988L106.908 337.927Z" fill="#A0616A"/>
<path d="M106.575 349L135.787 348.999V348.586C135.787 345.217 134.589 341.986 132.456 339.603C130.324 337.221 127.432 335.882 124.417 335.882H124.416L119.08 331.359L109.124 335.883L106.574 335.883L106.575 349Z" fill="#2F2E41"/>
<path d="M4.72461 324.686L13.2243 329.424L33.6305 295.048L21.0855 288.053L4.72461 324.686Z" fill="#A0616A"/>
<path d="M0 334.425L26.1381 349L26.3031 348.63C27.6495 345.616 27.869 342.127 26.9134 338.931C25.9577 335.736 23.9051 333.095 21.2071 331.59L21.2064 331.59L18.2398 324.881L7.52385 323.961L5.24217 322.688L0 334.425Z" fill="#2F2E41"/>
<path d="M45.4917 165.007C45.4917 165.007 41.6955 216.008 40.8804 226.936C40.3215 233.787 38.951 240.524 36.805 246.972C36.805 246.972 35.1748 250.615 35.1748 254.258L16.6994 291.773C16.6994 291.773 11.0536 296.41 11.8687 300.053C12.6838 303.696 8.46484 305.881 8.46484 305.881L27.9211 310.071C27.9211 310.071 27.106 307.339 29.5513 306.428C31.9966 305.517 33.9431 297.618 33.9431 297.618L61.2577 247.883L80.8198 202.347C80.8198 202.347 92.2311 243.329 94.6763 247.883C94.6763 247.883 103.642 298.882 105.273 303.436C106.903 307.989 107.718 307.989 106.903 309.811C106.088 311.632 106.088 313.454 106.903 314.364C107.718 315.275 123.204 314.364 123.204 314.364L119.129 249.704L111.793 172.294L74.2991 159.544L45.4917 165.007Z" fill="#2F2E41"/>
<path d="M82.2009 43.2564C91.6543 43.2564 99.3178 34.6939 99.3178 24.1316C99.3178 13.5692 91.6543 5.00671 82.2009 5.00671C72.7475 5.00671 65.084 13.5692 65.084 24.1316C65.084 34.6939 72.7475 43.2564 82.2009 43.2564Z" fill="#A0616A"/>
<path d="M113.424 71.2052L93.0474 57.4114C93.0474 57.4114 92.4826 48.8459 86.6767 48.4429C83.762 48.2405 79.3879 47.9311 72.8238 47.4583C71.4366 47.3583 70.5004 55.8382 68.9106 55.7232L47.4016 62.0981L50.662 124.026C50.662 124.026 45.7715 148.615 47.4016 153.169C49.0318 157.722 43.3262 159.544 44.9563 160.454C46.5865 161.365 44.9563 167.74 44.9563 167.74C44.9563 167.74 76.7449 185.954 111.794 172.294L108.533 160.454C108.977 158.907 109.06 157.258 108.775 155.665C108.49 154.071 107.846 152.585 106.903 151.347C106.903 151.347 110.164 145.883 106.088 141.33C106.088 141.33 107.718 133.133 103.643 129.49L102.828 116.74L105.273 110.366L113.424 71.2052Z" fill="#E6E6E6"/>
<path d="M67.3471 35.0569L66.8686 33.8152C66.807 33.6547 60.7536 17.6658 66.1191 7.80347C68.6029 3.23767 73.1193 0.65991 79.5423 0.142382C89.5923 -0.669549 96.4708 1.99413 99.9919 8.05385C100.582 9.08085 100.914 10.2666 100.953 11.4865C100.991 12.7063 100.734 13.9152 100.21 14.986C99.6857 16.0568 98.9128 16.95 97.9726 17.5716C97.0324 18.1932 95.9598 18.5203 94.8673 18.5185H94.7322L92.8856 15.8395L92.7781 16.1001C92.1096 17.7161 90.5742 18.6009 88.7759 18.4071C88.47 18.3825 88.199 18.6775 87.9813 19.3089C87.9081 19.585 87.7697 19.8341 87.5806 20.0299C87.3915 20.2256 87.1588 20.3609 86.9067 20.4215C85.578 20.7105 83.684 18.8405 82.8361 17.9084C82.8034 18.123 82.7299 18.3271 82.6205 18.5071C82.5111 18.6872 82.3683 18.8388 82.2019 18.9519C81.3085 19.5278 79.9181 18.7755 79.519 18.5359C76.3397 19.2906 74.2816 19.0888 73.3999 17.9366C72.8022 22.6617 71.5193 31.1668 69.981 31.6382C69.8202 31.6795 69.6518 31.662 69.5006 31.5881C69.3494 31.5143 69.2235 31.3881 69.1414 31.2282C68.771 30.6909 68.4399 30.4232 68.2333 30.4983C67.7328 30.6762 67.4374 32.5175 67.3951 33.7059L67.3471 35.0569Z" fill="#2F2E41"/>
<path d="M104.457 72.116L112.588 70.64C118.445 76.9278 122.435 85.0718 124.019 93.973C126.464 108.544 127.279 111.276 127.279 111.276L107.717 116.741L97.1211 93.9729L104.457 72.116Z" fill="#E6E6E6"/>
<path d="M65.4086 88.8412L62.3047 132.805L141.515 139.786L144.619 95.8225L65.4086 88.8412Z" fill="white"/>
<path d="M73.871 92.2473C71.9325 90.7006 69.4714 90.5888 68.5312 90.611C68.8181 91.6114 69.7094 94.177 71.6478 95.7243C73.591 97.2749 76.0491 97.3833 76.9878 97.3617C76.7011 96.3617 75.8097 93.7951 73.871 92.2473Z" fill="#166D86"/>
<path d="M81.5184 120.222L68.7995 119.101C68.4237 119.068 68.0457 119.118 67.6872 119.248C67.3286 119.378 66.9965 119.586 66.7098 119.86C66.4231 120.133 66.1875 120.467 66.0162 120.842C65.845 121.217 65.7417 121.627 65.712 122.047C65.6824 122.466 65.727 122.889 65.8435 123.289C65.9599 123.69 66.1458 124.061 66.3906 124.381C66.6354 124.702 66.9342 124.965 67.2701 125.156C67.6059 125.348 67.9722 125.463 68.348 125.496L81.0669 126.617C81.8259 126.684 82.5776 126.411 83.1566 125.859C83.7356 125.307 84.0945 124.52 84.1544 123.672C84.2143 122.824 83.9702 121.984 83.4758 121.337C82.9815 120.69 82.2774 120.289 81.5184 120.222Z" fill="#166D86"/>
<path d="M141.495 91.5492L70.1847 85.2634C69.3552 85.1904 68.521 85.3007 67.7298 85.588C66.9385 85.8752 66.2056 86.3337 65.5729 86.9375C64.9402 87.5412 64.4202 88.2782 64.0425 89.1065C63.6647 89.9348 63.4367 90.8381 63.3714 91.7648L60.6289 130.582C60.4971 132.454 61.0361 134.308 62.1274 135.736C63.2187 137.165 64.773 138.05 66.4485 138.198L137.759 144.484C138.589 144.557 139.423 144.447 140.214 144.159C141.005 143.872 141.738 143.414 142.371 142.81C143.004 142.206 143.524 141.469 143.901 140.641C144.279 139.813 144.507 138.909 144.573 137.983L147.179 101.088L147.231 100.335L147.314 99.1616C147.379 98.2349 147.281 97.3029 147.024 96.4188C146.767 95.5346 146.356 94.7158 145.816 94.0089C145.276 93.302 144.616 92.721 143.875 92.2989C143.133 91.8769 142.325 91.6221 141.495 91.5492ZM139.39 125.322L138.938 131.717C138.855 132.847 138.376 133.894 137.604 134.629C136.833 135.365 135.832 135.729 134.821 135.643L125.28 134.803C124.269 134.711 123.332 134.175 122.674 133.313C122.016 132.451 121.689 131.333 121.767 130.203L122.219 123.808C122.302 122.678 122.781 121.632 123.553 120.896C124.324 120.161 125.325 119.796 126.336 119.882L135.873 120.723C136.884 120.816 137.821 121.351 138.48 122.213C139.139 123.074 139.466 124.192 139.39 125.322ZM65.08 121.988C65.154 120.953 65.5924 119.993 66.299 119.319C67.0055 118.645 67.9226 118.311 68.8489 118.392L81.5673 119.513C82.0268 119.553 82.4747 119.693 82.8855 119.927C83.2964 120.16 83.6621 120.481 83.9618 120.872C84.2614 121.263 84.4891 121.717 84.6319 122.206C84.7747 122.696 84.8297 123.212 84.7939 123.725C84.7581 124.238 84.632 124.739 84.423 125.198C84.214 125.657 83.9262 126.065 83.5758 126.399C83.2255 126.734 82.8197 126.988 82.3814 127.147C81.9432 127.306 81.4812 127.367 81.0218 127.327L81.0152 127.329L68.2968 126.207C67.8375 126.166 67.3898 126.025 66.9794 125.791C66.5691 125.557 66.204 125.235 65.9052 124.843C65.6064 124.451 65.3798 123.997 65.2382 123.507C65.0965 123.017 65.0428 122.501 65.08 121.988ZM67.8028 90.3576L67.7158 89.96L68.0817 89.9226C68.2247 89.9054 71.608 89.566 74.2415 91.6679C76.8751 93.7698 77.6827 97.4576 77.7178 97.6119L77.8015 98.0103L77.4364 98.0515C76.9183 98.0945 76.3979 98.0907 75.8803 98.04C74.2338 97.9323 72.6435 97.3322 71.2757 96.3024C68.6422 94.2005 67.8346 90.5127 67.8028 90.3576Z" fill="#166D86"/>
<path d="M128.691 129.564L124.558 129.199C124.263 129.174 123.971 129.28 123.746 129.495C123.521 129.71 123.382 130.015 123.359 130.345C123.336 130.674 123.43 131 123.622 131.252C123.814 131.503 124.087 131.66 124.382 131.686L128.516 132.05C128.811 132.076 129.102 131.97 129.327 131.755C129.552 131.54 129.691 131.234 129.714 130.905C129.738 130.576 129.643 130.249 129.451 129.998C129.259 129.746 128.986 129.59 128.691 129.564Z" fill="#166D86"/>
<path d="M136.321 130.236L132.188 129.872C131.893 129.847 131.601 129.953 131.377 130.168C131.152 130.383 131.013 130.688 130.99 131.017C130.967 131.347 131.061 131.673 131.253 131.924C131.444 132.176 131.718 132.332 132.012 132.359L136.146 132.723C136.441 132.748 136.732 132.642 136.957 132.427C137.181 132.212 137.32 131.907 137.344 131.577C137.367 131.248 137.272 130.922 137.081 130.671C136.889 130.419 136.616 130.263 136.321 130.236Z" fill="#166D86"/>
<path d="M128.917 126.366L124.783 126.002C124.489 125.977 124.197 126.083 123.972 126.298C123.748 126.513 123.609 126.818 123.585 127.147C123.562 127.477 123.657 127.803 123.848 128.054C124.04 128.306 124.313 128.462 124.608 128.489L128.741 128.853C129.036 128.878 129.328 128.772 129.553 128.557C129.778 128.342 129.917 128.037 129.94 127.707C129.964 127.378 129.869 127.052 129.677 126.8C129.485 126.549 129.212 126.393 128.917 126.366Z" fill="#166D86"/>
<path d="M136.549 127.039L132.415 126.674C132.12 126.649 131.828 126.755 131.604 126.97C131.379 127.185 131.24 127.49 131.216 127.82C131.193 128.149 131.288 128.476 131.48 128.727C131.671 128.978 131.945 129.135 132.239 129.161L136.373 129.526C136.668 129.551 136.96 129.445 137.185 129.23C137.409 129.015 137.549 128.709 137.572 128.38C137.595 128.051 137.5 127.724 137.309 127.473C137.117 127.221 136.843 127.065 136.549 127.039Z" fill="#166D86"/>
<path d="M129.142 123.169L125.009 122.804C124.714 122.779 124.422 122.885 124.197 123.1C123.973 123.315 123.833 123.62 123.81 123.95C123.787 124.279 123.882 124.605 124.073 124.857C124.265 125.108 124.538 125.265 124.833 125.291L128.967 125.655C129.262 125.681 129.553 125.574 129.778 125.359C130.002 125.145 130.142 124.839 130.165 124.51C130.188 124.181 130.094 123.854 129.902 123.603C129.71 123.352 129.437 123.195 129.142 123.169Z" fill="#166D86"/>
<path d="M136.773 123.841L132.639 123.477C132.344 123.452 132.053 123.558 131.828 123.773C131.603 123.988 131.464 124.293 131.441 124.623C131.418 124.952 131.512 125.278 131.704 125.529C131.896 125.781 132.169 125.937 132.463 125.964L136.597 126.328C136.892 126.353 137.183 126.247 137.408 126.032C137.633 125.817 137.772 125.512 137.795 125.183C137.818 124.853 137.724 124.527 137.532 124.276C137.34 124.024 137.067 123.868 136.773 123.841Z" fill="#166D86"/>
<path d="M62.3129 104.013L62.2598 104.768L145.969 112.116L146.022 111.36L62.3129 104.013Z" fill="white"/>
<path d="M147.232 100.334L147.179 101.088L144.266 100.833L113.227 98.1087L113.283 97.354L144.319 100.079L147.232 100.334Z" fill="#3F3D56"/>
<path d="M35.1738 96.705C35.1738 96.705 27.838 131.312 36.804 131.312C45.77 131.312 66.9624 92.1514 66.9624 92.1514L59.6265 82.1337L46.4595 102.559L45.7699 92.1514L35.1738 96.705Z" fill="#A0616A"/>
<path d="M65.0077 93.6559C68.9491 93.6559 72.1443 90.0859 72.1443 85.6821C72.1443 81.2783 68.9491 77.7084 65.0077 77.7084C61.0663 77.7084 57.8711 81.2783 57.8711 85.6821C57.8711 90.0859 61.0663 93.6559 65.0077 93.6559Z" fill="#A0616A"/>
<path d="M53.3382 67.5625L48.4477 62.0983C48.4477 62.0983 38.6666 68.4732 37.8515 74.8482C37.0364 81.2231 32.9609 101.259 32.9609 101.259L48.0401 102.625L52.9307 94.4284L53.3382 67.5625Z" fill="#E6E6E6"/>
</svg>
