<svg width="155" height="215" viewBox="0 0 155 215" fill="none" xmlns="http://www.w3.org/2000/svg">
<path d="M129.052 117.341L83.7454 106.441C82.7528 106.206 81.8286 105.752 81.0431 105.116C80.2576 104.479 79.6315 103.676 79.2126 102.768C78.7842 101.85 78.5765 100.849 78.6052 99.8408C78.6339 98.8324 78.8982 97.8436 79.3781 96.9495C87.8839 80.9027 92.3966 63.1324 92.5509 45.0765C92.5544 44.0678 92.7939 43.0731 93.2512 42.1679C93.7085 41.2627 94.3715 40.471 95.1897 39.8529C95.9952 39.2394 96.9334 38.8129 97.9331 38.6059C98.9328 38.3989 99.9676 38.4169 100.959 38.6585L146.266 49.5584C147.829 49.9391 149.202 50.8484 150.141 52.1243C151.08 53.4003 151.524 54.96 151.393 56.5257C149.58 76.1236 144.7 95.3378 136.924 113.501C136.29 114.946 135.151 116.125 133.71 116.828C132.268 117.531 130.618 117.713 129.052 117.341Z" fill="#E6E6E6"/>
<path d="M100.113 41.982C99.6366 41.8658 99.1397 41.857 98.6596 41.9563C98.1795 42.0555 97.7288 42.2602 97.3419 42.5547C96.9439 42.856 96.6217 43.2418 96.3996 43.6828C96.1776 44.1237 96.0616 44.6081 96.0605 45.0991C95.9015 63.6946 91.2541 81.9958 82.494 98.5221C82.2599 98.957 82.1306 99.4381 82.116 99.9288C82.1014 100.42 82.2018 100.907 82.4097 101.354C82.611 101.79 82.9119 102.176 83.2892 102.481C83.6666 102.787 84.1105 103.005 84.5872 103.118L129.894 114.018C130.645 114.199 131.438 114.114 132.132 113.778C132.825 113.443 133.374 112.878 133.681 112.185C141.319 94.3441 146.112 75.4705 147.893 56.22C147.953 55.4679 147.738 54.7196 147.285 54.1083C146.832 53.4969 146.171 53.0623 145.419 52.8819L100.113 41.982Z" fill="white"/>
<path d="M131.475 66.4845L107.7 60.7647C106.796 60.5463 106.019 59.9874 105.538 59.2106C105.057 58.4338 104.912 57.5025 105.135 56.6212L105.465 55.3224C105.689 54.4415 106.263 53.6833 107.061 53.214C107.858 52.7447 108.813 52.6027 109.717 52.8191L133.493 58.5389C134.396 58.7573 135.174 59.3163 135.655 60.0931C136.135 60.8698 136.28 61.8011 136.058 62.6824L135.728 63.9812C135.503 64.8621 134.929 65.6204 134.132 66.0897C133.334 66.559 132.379 66.7009 131.475 66.4845Z" fill="#E6E6E6"/>
<path d="M127.307 82.8946L103.532 77.1748C102.628 76.9564 101.851 76.3975 101.37 75.6207C100.889 74.8439 100.744 73.9127 100.967 73.0313L101.297 71.7326C101.521 70.8517 102.095 70.0934 102.893 69.6241C103.69 69.1548 104.645 69.0128 105.55 69.2293L129.325 74.9491C130.228 75.1675 131.006 75.7264 131.487 76.5032C131.967 77.28 132.112 78.2112 131.89 79.0926L131.56 80.3913C131.335 81.2722 130.761 82.0305 129.964 82.4998C129.166 82.9691 128.211 83.1111 127.307 82.8946Z" fill="#E6E6E6"/>
<path d="M123.139 99.3053L99.3638 93.5854C98.4602 93.367 97.6828 92.8081 97.2019 92.0313C96.721 91.2545 96.5761 90.3233 96.7989 89.4419L97.1287 88.1432C97.3534 87.2623 97.9274 86.504 98.7247 86.0347C99.522 85.5654 100.478 85.4235 101.382 85.6399L125.157 91.3597C126.06 91.5781 126.838 92.137 127.319 92.9138C127.799 93.6906 127.944 94.6219 127.722 95.5032L127.392 96.802C127.167 97.6828 126.593 98.4411 125.796 98.9104C124.999 99.3797 124.043 99.5217 123.139 99.3053Z" fill="#E6E6E6"/>
<path d="M133.515 53.1165L109.652 47.3755C108.974 47.2117 108.391 46.7925 108.03 46.2099C107.67 45.6272 107.561 44.9288 107.728 44.2677L108.853 39.8364C109.022 39.1757 109.452 38.607 110.05 38.255C110.648 37.903 111.365 37.7965 112.043 37.9589L135.906 43.6999C136.584 43.8637 137.167 44.2829 137.528 44.8655C137.888 45.4481 137.997 46.1466 137.83 46.8076L136.705 51.239C136.536 51.8996 136.106 52.4683 135.508 52.8203C134.91 53.1723 134.193 53.2788 133.515 53.1165Z" fill="#CCCCCC"/>
<path d="M51.4113 207.903H58.5255L60.7497 180.924H51.4102L51.4113 207.903Z" fill="#FFB8B8"/>
<path d="M49.5957 205.619L63.6058 205.619H63.6063C64.7788 205.619 65.9399 205.846 67.0231 206.287C68.1063 206.728 69.0906 207.375 69.9197 208.19C70.7488 209.005 71.4064 209.973 71.8551 211.038C72.3038 212.103 72.5348 213.244 72.5347 214.397V214.682L49.5961 214.683L49.5957 205.619Z" fill="#2F2E41"/>
<path d="M13.1105 207.903H20.2247L23.6095 180.924H13.1094L13.1105 207.903Z" fill="#FFB8B8"/>
<path d="M11.2969 205.619L25.3069 205.619H25.3075C26.48 205.619 27.641 205.846 28.7243 206.287C29.8075 206.728 30.7918 207.375 31.6209 208.19C32.45 209.005 33.1076 209.973 33.5563 211.038C34.005 212.103 34.2359 213.244 34.2359 214.397V214.682L11.2973 214.683L11.2969 205.619Z" fill="#2F2E41"/>
<path d="M14.374 199.381C13.6483 199.38 12.9492 199.112 12.4156 198.628C12.1291 198.371 11.8984 198.06 11.7373 197.713C11.5762 197.367 11.488 196.991 11.478 196.61L8.625 96.0759L49.1347 106.033L61.6336 142.899C63.2454 147.642 63.9431 152.638 63.6909 157.632L62.1389 193.368C62.1035 194.1 61.7827 194.791 61.243 195.296C60.7033 195.802 59.9863 196.084 59.2408 196.083H52.4464C51.7451 196.08 51.0683 195.829 50.5402 195.375C50.0121 194.922 49.6681 194.296 49.5712 193.613L44.7149 154.166C44.2906 151.089 43.1957 148.138 41.505 145.515L31.9482 130.637C31.8843 130.538 31.7907 130.46 31.6803 130.415C31.5698 130.37 31.4479 130.36 31.3312 130.385C31.2145 130.411 31.1087 130.471 31.0283 130.558C30.9478 130.645 30.8967 130.755 30.8818 130.871L23.382 196.532C23.3015 197.198 22.9846 197.815 22.4871 198.274C21.9896 198.733 21.3434 199.004 20.6623 199.041L14.5392 199.375C14.4841 199.379 14.4291 199.381 14.374 199.381Z" fill="#2F2E41"/>
<path d="M42.3928 30.9864C50.2641 30.9864 56.645 24.7127 56.645 16.9737C56.645 9.23465 50.2641 2.96094 42.3928 2.96094C34.5215 2.96094 28.1406 9.23465 28.1406 16.9737C28.1406 24.7127 34.5215 30.9864 42.3928 30.9864Z" fill="#FFB8B8"/>
<path d="M48.9407 110.121C48.6955 110.121 48.4512 110.09 48.2137 110.03L8.02083 99.8979C7.30223 99.717 6.68145 99.2723 6.28611 98.6552C5.89078 98.038 5.75093 97.2955 5.89535 96.5801L15.1259 47.6912C15.701 44.8652 16.965 42.2186 18.8096 39.9788C20.6541 37.7389 23.024 35.9727 25.7158 34.8317C28.3385 33.6904 31.2067 33.2015 34.0672 33.4079C36.9277 33.6144 39.6925 34.51 42.1176 36.0157C42.6803 36.3609 43.2472 36.7372 43.8019 37.1345C46.0353 38.7543 47.8567 40.8609 49.1231 43.289C50.3895 45.717 51.0666 48.4006 51.1011 51.1291L51.8351 107.228C51.84 107.605 51.7689 107.98 51.6258 108.33C51.4827 108.68 51.2704 108.999 51.0013 109.268C50.7322 109.537 50.4115 109.751 50.0578 109.897C49.7042 110.044 49.3245 110.12 48.9407 110.121Z" fill="#166D86"/>
<path d="M12.1573 110.696C11.6778 110.003 11.3589 109.214 11.223 108.386C11.0871 107.558 11.1375 106.711 11.3706 105.904C11.6037 105.097 12.0139 104.35 12.5723 103.716C13.1308 103.082 13.8238 102.576 14.6026 102.234L12.8149 81.9224L22.2885 86.9707L22.5337 105.485C23.0317 106.81 23.0183 108.268 22.496 109.583C21.9737 110.898 20.9788 111.98 19.6997 112.622C18.4207 113.265 16.9465 113.423 15.5564 113.068C14.1662 112.713 12.9568 111.869 12.1573 110.696Z" fill="#FFB8B8"/>
<path d="M15.542 99.5475C15.2747 99.5472 15.0085 99.5141 14.7495 99.4489C14.1926 99.3092 13.6843 99.0241 13.2786 98.6238C12.8729 98.2234 12.5848 97.7227 12.4447 97.1746L7.78907 78.984C6.16204 72.6308 6.93765 65.9128 9.97162 60.0798L19.7254 41.3198C20.342 39.0737 21.8317 37.1559 23.8734 35.9799C25.915 34.8039 28.345 34.4639 30.6393 35.0334C31.7828 35.3173 32.8576 35.8216 33.8014 36.517C34.7452 37.2124 35.5392 38.0851 36.1373 39.0845C36.7478 40.0982 37.147 41.2212 37.3118 42.388C37.4766 43.5549 37.4036 44.7424 37.0971 45.8812L23.2126 76.4077L23.3775 94.6849C23.3817 95.3297 23.1845 95.9603 22.8126 96.4913C22.4406 97.0224 21.9117 97.4283 21.2975 97.6543L16.651 99.3508C16.2962 99.4808 15.9207 99.5474 15.542 99.5475Z" fill="#166D86"/>
<path d="M82.0025 103.225C81.1549 103.13 80.3389 102.853 79.612 102.414C78.885 101.975 78.2647 101.385 77.7949 100.685C77.325 99.985 77.017 99.1922 76.8924 98.3625C76.7679 97.5327 76.83 96.6862 77.0742 95.8826L60.25 83.9647L70.3216 80.1982L84.754 92.0931C86.0999 92.586 87.2152 93.5471 87.8885 94.7944C88.5618 96.0417 88.7464 97.4885 88.4072 98.8607C88.068 100.233 87.2287 101.435 86.0483 102.239C84.8678 103.044 83.4283 103.394 82.0025 103.225Z" fill="#FFB8B8"/>
<path d="M73.1967 94.5222C72.7007 94.5218 72.2115 94.4082 71.7677 94.1904L54.7081 85.7938C48.7494 82.8615 44.0767 77.9013 41.5587 71.8357L33.4596 52.3292C32.1305 50.4043 31.624 48.043 32.0492 45.7544C32.4745 43.4657 33.7975 41.4331 35.733 40.0946C36.7 39.426 37.7927 38.9534 38.9474 38.7043C40.1021 38.4552 41.2957 38.4345 42.4585 38.6435C43.6351 38.8515 44.758 39.287 45.7621 39.9247C46.7662 40.5625 47.6316 41.3899 48.3082 42.3589L62.7832 72.6193L76.9801 84.4193C77.48 84.8367 77.8376 85.3949 78.0043 86.0185C78.171 86.6422 78.139 87.3011 77.9124 87.9063L76.1892 92.4752C75.9642 93.0744 75.5577 93.5914 75.0246 93.9564C74.4887 94.3247 73.8506 94.5223 73.1967 94.5222Z" fill="#166D86"/>
<path d="M39.4002 31.2006C40.1575 31.5264 41.7082 25.5939 41.0136 24.4073C39.9805 22.6427 40.0416 22.6554 39.3558 21.4879C38.67 20.3205 38.5166 18.7225 39.4047 17.6953C40.2927 16.6681 42.3478 16.8043 42.7531 18.0923C42.4924 15.646 44.9534 13.6795 47.3912 13.1269C49.829 12.5743 52.4004 12.9174 54.8516 12.4256C57.6964 11.8549 60.6562 9.51042 59.5212 6.43472C59.3265 5.92265 59.0348 5.45145 58.6618 5.04601C57.3504 3.59634 55.516 2.97732 53.7225 2.37881C49.9913 1.13366 46.158 -0.127143 42.2202 0.0103083C38.9757 0.177101 35.8509 1.27022 33.2284 3.15588C30.6059 5.04154 28.5994 7.63795 27.4543 10.6274C27.1829 11.3752 26.9727 12.1432 26.8256 12.924C25.474 20.0694 29.6943 27.1175 36.5489 29.8384L39.4002 31.2006Z" fill="#2F2E41"/>
<path opacity="0.2" d="M22.5723 95.0998L22.8955 76.3129L33.0172 56.304L24.8934 76.8429L22.5723 95.0998Z" fill="black"/>
<path d="M114.359 142.248L71.6285 124.792C70.6918 124.413 69.8555 123.828 69.1832 123.083C68.5109 122.338 68.0203 121.452 67.7487 120.493C67.4695 119.522 67.4192 118.502 67.6017 117.509C67.7841 116.517 68.1945 115.578 68.8016 114.765C79.5935 100.155 86.736 83.2531 89.6512 65.4258C89.809 64.4292 90.196 63.4811 90.7827 62.6537C91.3694 61.8263 92.1403 61.1413 93.0367 60.651C93.92 60.1631 94.9047 59.8798 95.9161 59.8226C96.9275 59.7654 97.9387 59.9357 98.873 60.3207L141.604 77.7763C143.077 78.3831 144.284 79.4845 145.009 80.8843C145.733 82.2841 145.929 83.8915 145.561 85.42C140.785 104.527 133.062 122.803 122.661 139.612C121.819 140.947 120.522 141.945 119.002 142.427C117.481 142.91 115.836 142.846 114.359 142.248Z" fill="#E6E6E6"/>
<path d="M97.5361 63.4819C97.0874 63.2969 96.6018 63.2149 96.1161 63.2422C95.6304 63.2695 95.1575 63.4054 94.7332 63.6395C94.2971 63.8787 93.9223 64.2126 93.6372 64.6158C93.3521 65.0189 93.1642 65.4807 93.088 65.9659C90.0857 84.3259 82.7297 101.733 71.6154 116.779C71.3194 117.175 71.1191 117.631 71.0297 118.114C70.9402 118.597 70.964 119.094 71.0993 119.566C71.2298 120.027 71.4656 120.453 71.7886 120.811C72.1116 121.168 72.5133 121.449 72.9632 121.631L115.694 139.087C116.402 139.376 117.192 139.409 117.923 139.18C118.654 138.95 119.278 138.473 119.685 137.834C129.901 121.322 137.487 103.37 142.18 84.6021C142.354 83.8675 142.257 83.0959 141.907 82.4248C141.556 81.7537 140.975 81.2266 140.267 80.9374L97.5361 63.4819Z" fill="white"/>
<path d="M120.29 102.339L97.8672 93.1788C97.0152 92.8297 96.3388 92.1625 95.9865 91.3237C95.6342 90.4849 95.6347 89.5429 95.9879 88.7044L96.51 87.4691C96.865 86.6314 97.5436 85.9664 98.3968 85.62C99.2499 85.2736 100.208 85.2741 101.061 85.6214L123.484 94.7814C124.336 95.1305 125.012 95.7977 125.365 96.6365C125.717 97.4753 125.717 98.4173 125.363 99.2558L124.841 100.491C124.486 101.329 123.808 101.994 122.954 102.34C122.101 102.687 121.143 102.686 120.29 102.339Z" fill="#166D86"/>
<path d="M113.693 117.948L91.2695 108.788C90.4175 108.439 89.7412 107.771 89.3889 106.933C89.0366 106.094 89.0371 105.152 89.3903 104.313L89.9123 103.078C90.2674 102.24 90.946 101.575 91.7991 101.229C92.6523 100.883 93.6104 100.883 94.4632 101.23L116.886 110.39C117.738 110.739 118.415 111.407 118.767 112.245C119.119 113.084 119.119 114.026 118.766 114.865L118.244 116.1C117.889 116.938 117.21 117.603 116.357 117.949C115.504 118.295 114.546 118.295 113.693 117.948Z" fill="#166D86"/>
<path d="M129.276 80.4025C128.94 80.4022 128.608 80.3382 128.297 80.2139L105.702 71.2323C105.06 70.9764 104.548 70.4809 104.278 69.8543C104.008 69.2277 104.001 68.5212 104.26 67.8899L106 63.6583C106.259 63.0271 106.764 62.5231 107.401 62.2573C108.039 61.9914 108.757 61.9854 109.399 62.2406L131.994 71.2222C132.636 71.4781 133.148 71.9736 133.418 72.6002C133.689 73.2268 133.695 73.9333 133.436 74.5646L131.696 78.7962C131.501 79.2701 131.166 79.676 130.735 79.9621C130.304 80.2482 129.796 80.4015 129.276 80.4025Z" fill="#CCCCCC"/>
<path d="M81.8189 215H0.580276C0.426377 215 0.27879 214.94 0.169967 214.833C0.0611444 214.726 0 214.581 0 214.429C0 214.278 0.0611444 214.133 0.169967 214.026C0.27879 213.919 0.426377 213.859 0.580276 213.859H81.8189C81.9728 213.859 82.1204 213.919 82.2292 214.026C82.338 214.133 82.3992 214.278 82.3992 214.429C82.3992 214.581 82.338 214.726 82.2292 214.833C82.1204 214.94 81.9728 215 81.8189 215Z" fill="#CCCCCC"/>
</svg>
