<svg width="170" height="202" viewBox="0 0 170 202" fill="none" xmlns="http://www.w3.org/2000/svg">
<path d="M12.6605 148.287C13.0953 149.069 13.7176 149.731 14.4716 150.214C15.2256 150.697 16.0876 150.984 16.9803 151.051C17.4381 151.084 17.3262 151.788 16.8714 151.755C15.8855 151.677 14.9338 151.358 14.0996 150.826C13.2654 150.295 12.574 149.568 12.0857 148.707C12.0329 148.63 12.0115 148.536 12.0258 148.443C12.0401 148.351 12.0891 148.267 12.1628 148.21C12.2392 148.154 12.3343 148.131 12.4275 148.146C12.5207 148.16 12.6044 148.211 12.6605 148.287Z" fill="white"/>
<path d="M156.653 14.5672C156.26 13.4059 151.328 9.4586 154.35 8.79514L156.828 12.0996L168.222 0.705933L169.368 1.85187L156.653 14.5672Z" fill="#166D86"/>
<path d="M156.653 53.3104C156.26 52.1492 151.328 48.2019 154.35 47.5384L156.828 50.8429L168.222 39.4492L169.368 40.5952L156.653 53.3104Z" fill="#166D86"/>
<path d="M156.653 92.6071C156.26 91.4459 151.328 87.4985 154.35 86.8351L156.828 90.1395L168.222 78.7458L169.368 79.8918L156.653 92.6071Z" fill="#166D86"/>
<path d="M146.16 60.8368C148.102 60.8368 149.676 59.2626 149.676 57.3208C149.676 55.3791 148.102 53.8049 146.16 53.8049C144.219 53.8049 142.645 55.3791 142.645 57.3208C142.645 59.2626 144.219 60.8368 146.16 60.8368Z" fill="#3F3D56"/>
<path d="M146.16 22.5133C148.102 22.5133 149.676 20.9391 149.676 18.9974C149.676 17.0556 148.102 15.4814 146.16 15.4814C144.219 15.4814 142.645 17.0556 142.645 18.9974C142.645 20.9391 144.219 22.5133 146.16 22.5133Z" fill="#3F3D56"/>
<path d="M147.92 101.689C149.862 101.689 151.436 100.115 151.436 98.1735C151.436 96.2317 149.862 94.6576 147.92 94.6576C145.978 94.6576 144.404 96.2317 144.404 98.1735C144.404 100.115 145.978 101.689 147.92 101.689Z" fill="#3F3D56"/>
<path d="M165.533 97.846H147.953V79.9148H159.907V80.618H148.656V97.1428H164.83V89.0562H165.533V97.846Z" fill="#3F3D56"/>
<path d="M165.533 58.4677H147.953V40.5365H159.907V41.2397H148.656V57.7645H164.83V49.6779H165.533V58.4677Z" fill="#3F3D56"/>
<path d="M165.533 18.3862H147.953V0.455078H159.907V1.15826H148.656V17.6831H164.83V9.59645H165.533V18.3862Z" fill="#3F3D56"/>
<path d="M75.4096 59.2553C75.4096 59.2553 70.7114 79.0926 76.4537 79.0926C82.1961 79.0926 95.7689 56.6452 95.7689 56.6452L91.0706 50.9028L82.6377 62.6108L82.196 56.6452L75.4096 59.2553Z" fill="#A0616A"/>
<path d="M94.516 57.5075C97.0403 57.5075 99.0867 55.4611 99.0867 52.9368C99.0867 50.4125 97.0403 48.3661 94.516 48.3661C91.9917 48.3661 89.9453 50.4125 89.9453 52.9368C89.9453 55.4611 91.9917 57.5075 94.516 57.5075Z" fill="#A0616A"/>
<path d="M71.4272 194.363L77.5108 194.363L80.4054 170.896L71.4258 170.896L71.4272 194.363Z" fill="#A0616A"/>
<path d="M71.2132 200.71L89.9224 200.71V200.473C89.9222 198.542 89.155 196.69 87.7893 195.324C86.4237 193.958 84.5715 193.191 82.6402 193.191H82.6398L79.2223 190.598L72.8461 193.191L71.2129 193.192L71.2132 200.71Z" fill="#2F2E41"/>
<path d="M5.98438 186.773L11.4281 189.489L24.4974 169.784L16.4629 165.775L5.98438 186.773Z" fill="#A0616A"/>
<path d="M2.95703 192.356L19.6974 200.71L19.8031 200.499C20.6654 198.771 20.806 196.771 20.1939 194.939C19.5819 193.107 18.2673 191.594 16.5393 190.731L16.5389 190.731L14.6389 186.885L7.77575 186.358L6.31442 185.628L2.95703 192.356Z" fill="#2F2E41"/>
<path d="M143.388 200.845H0V201.409H143.388V200.845Z" fill="#CCCCCC"/>
<path d="M32.0931 95.2429C32.0931 95.2429 29.6618 124.477 29.1397 130.742C28.7818 134.668 27.9041 138.53 26.5296 142.226C26.5296 142.226 25.4855 144.314 25.4855 146.403L13.6528 167.907C13.6528 167.907 10.0369 170.565 10.5589 172.653C11.081 174.741 8.37891 175.994 8.37891 175.994L20.8399 178.396C20.8399 178.396 20.3178 176.829 21.8839 176.307C23.45 175.785 24.6967 171.258 24.6967 171.258L42.1905 142.748L54.7193 116.647C54.7193 116.647 62.0277 140.138 63.5938 142.748C63.5938 142.748 69.3362 171.982 70.3802 174.592C71.4243 177.202 71.9463 177.202 71.4243 178.246C70.9022 179.291 70.9023 180.335 71.4243 180.857C71.9463 181.379 81.8649 180.857 81.8649 180.857L79.2548 143.792L74.5565 99.4197L50.543 92.1112L32.0931 95.2429Z" fill="#2F2E41"/>
<path d="M55.6033 25.4534C61.6578 25.4534 66.566 20.5453 66.566 14.4907C66.566 8.43623 61.6578 3.52808 55.6033 3.52808C49.5488 3.52808 44.6406 8.43623 44.6406 14.4907C44.6406 20.5453 49.5488 25.4534 55.6033 25.4534Z" fill="#A0616A"/>
<path d="M75.599 41.4741L62.5486 33.5673C62.5486 33.5673 62.1869 28.6574 58.4685 28.4263C56.6017 28.3103 53.8003 28.133 49.5963 27.862C48.7078 27.8047 48.1082 32.6655 47.09 32.5995L33.3144 36.2537L35.4025 71.7519C35.4025 71.7519 32.2703 85.8468 33.3144 88.4569C34.3584 91.0671 30.7042 92.1111 31.7483 92.6332C32.7923 93.1552 31.7483 96.8094 31.7483 96.8094C31.7483 96.8094 52.1075 107.25 74.5549 99.4196L72.4668 92.6332C72.751 91.746 72.8042 90.8011 72.6215 89.8876C72.4389 88.9742 72.0262 88.1224 71.4227 87.4129C71.4227 87.4129 73.5108 84.2807 70.9007 81.6705C70.9007 81.6705 71.9447 76.9722 69.3346 74.8841L68.8125 67.5756L70.3786 63.9214L75.599 41.4741Z" fill="#E6E6E6"/>
<path d="M46.089 20.7533L45.7826 20.0415C45.7431 19.9495 41.8661 10.7844 45.3026 5.13116C46.8933 2.51397 49.7859 1.03635 53.8996 0.739697C60.3362 0.274285 64.7416 1.80115 66.9967 5.27468C67.3748 5.86337 67.5874 6.54307 67.6119 7.24231C67.6365 7.94155 67.4723 8.63449 67.1364 9.24829C66.8006 9.86209 66.3056 10.3741 65.7034 10.7304C65.1013 11.0867 64.4143 11.2742 63.7146 11.2732H63.6281L62.4454 9.73755L62.3766 9.8869C61.9484 10.8133 60.965 11.3204 59.8133 11.2093C59.6174 11.1953 59.4438 11.3643 59.3044 11.7262C59.2575 11.8845 59.1689 12.0273 59.0478 12.1395C58.9267 12.2517 58.7776 12.3293 58.6162 12.364C57.7652 12.5297 56.5521 11.4577 56.0091 10.9235C55.9882 11.0465 55.9411 11.1635 55.871 11.2667C55.8009 11.3699 55.7095 11.4568 55.6029 11.5216C55.0307 11.8518 54.1403 11.4205 53.8846 11.2832C51.8484 11.7158 50.5303 11.6001 49.9656 10.9396C49.5828 13.6482 48.7612 18.5234 47.7759 18.7936C47.6729 18.8173 47.5651 18.8072 47.4683 18.7649C47.3714 18.7226 47.2908 18.6503 47.2382 18.5586C47.001 18.2506 46.789 18.0971 46.6566 18.1402C46.3361 18.2422 46.1469 19.2977 46.1198 19.9789L46.089 20.7533Z" fill="#2F2E41"/>
<path d="M69.8565 41.9962L75.064 41.1501C78.8153 44.7544 81.3707 49.4227 82.3853 54.525C83.9514 62.8775 84.4734 64.4436 84.4734 64.4436L71.9446 67.5758L65.1582 54.525L69.8565 41.9962Z" fill="#E6E6E6"/>
<path d="M46.7494 52.8602L43.5312 93.6567L125.658 100.135L128.876 59.3386L46.7494 52.8602Z" fill="white"/>
<path d="M55.5246 56.0209C53.5148 54.5856 50.963 54.4819 49.9883 54.5025C50.2857 55.4307 51.2098 57.8115 53.2196 59.2474C55.2343 60.6863 57.7829 60.7869 58.7562 60.7668C58.4589 59.8388 57.5347 57.4571 55.5246 56.0209Z" fill="#166D86"/>
<path d="M63.4522 81.9806L50.2651 80.9404C49.8754 80.9096 49.4835 80.9559 49.1118 81.0767C48.74 81.1974 48.3957 81.3901 48.0985 81.6439C47.8012 81.8977 47.5568 82.2075 47.3793 82.5558C47.2018 82.904 47.0946 83.2838 47.0639 83.6734C47.0332 84.0631 47.0795 84.455 47.2002 84.8267C47.3209 85.1985 47.5137 85.5428 47.7675 85.84C48.0212 86.1373 48.3311 86.3816 48.6793 86.5592C49.0275 86.7367 49.4073 86.8439 49.797 86.8746L62.9841 87.9148C63.771 87.9769 64.5504 87.7238 65.1507 87.2113C65.751 86.6987 66.1232 85.9687 66.1853 85.1818C66.2473 84.3949 65.9943 83.6155 65.4817 83.0152C64.9692 82.4148 64.2391 82.0427 63.4522 81.9806Z" fill="#166D86"/>
<path d="M125.637 55.3732L51.7013 49.5403C50.8413 49.4726 49.9764 49.5749 49.156 49.8414C48.3355 50.108 47.5757 50.5335 46.9197 51.0937C46.2637 51.6539 45.7245 52.3379 45.3329 53.1065C44.9413 53.8751 44.7049 54.7133 44.6372 55.5733L41.7937 91.5941C41.657 93.3314 42.2159 95.0518 43.3474 96.3771C44.4789 97.7024 46.0904 98.5242 47.8276 98.6616L121.764 104.495C122.624 104.562 123.489 104.46 124.309 104.193C125.129 103.927 125.889 103.501 126.545 102.941C127.201 102.381 127.74 101.697 128.132 100.928C128.524 100.16 128.76 99.3215 128.828 98.4615L131.53 64.2252L131.584 63.5257L131.67 62.4373C131.738 61.5773 131.636 60.7124 131.369 59.892C131.103 59.0716 130.677 58.3117 130.117 57.6557C129.557 56.9998 128.873 56.4606 128.104 56.0689C127.336 55.6773 126.497 55.4409 125.637 55.3732ZM123.454 86.7133L122.986 92.6477C122.9 93.6958 122.403 94.6674 121.603 95.35C120.803 96.0326 119.765 96.3707 118.717 96.2904L108.825 95.511C107.777 95.4254 106.806 94.9283 106.123 94.1283C105.44 93.3284 105.102 92.2907 105.182 91.2422L105.651 85.3078C105.737 84.2598 106.234 83.2885 107.034 82.6059C107.834 81.9234 108.871 81.5851 109.92 81.665L119.808 82.4453C120.856 82.5313 121.828 83.0283 122.511 83.8278C123.194 84.6274 123.533 85.6646 123.454 86.7133ZM46.4087 83.6189C46.4854 82.6586 46.9399 81.768 47.6725 81.1424C48.4051 80.5168 49.3559 80.2074 50.3163 80.282L63.503 81.3229C63.9793 81.3597 64.4438 81.49 64.8697 81.7063C65.2957 81.9227 65.6749 82.2208 65.9856 82.5838C66.2962 82.9468 66.5324 83.3674 66.6804 83.8216C66.8284 84.2759 66.8855 84.7549 66.8483 85.2312C66.8112 85.7075 66.6805 86.1719 66.4638 86.5977C66.2471 87.0235 65.9487 87.4024 65.5854 87.7128C65.2222 88.0232 64.8014 88.2589 64.347 88.4066C63.8927 88.5543 63.4136 88.611 62.9374 88.5734L62.9306 88.5752L49.7439 87.5342C49.2677 87.4966 48.8035 87.3654 48.378 87.1482C47.9525 86.931 47.5741 86.6319 47.2643 86.2683C46.9545 85.9046 46.7194 85.4834 46.5726 85.0288C46.4258 84.5742 46.3701 84.0951 46.4087 83.6189ZM49.2317 54.2674L49.1415 53.8986L49.5209 53.8638C49.6692 53.8479 53.177 53.5329 55.9075 55.4834C58.638 57.4339 59.4753 60.856 59.5117 60.9992L59.5985 61.3689L59.22 61.4071C58.6828 61.447 58.1432 61.4434 57.6066 61.3964C55.8995 61.2965 54.2506 60.7396 52.8325 59.784C50.102 57.8336 49.2646 54.4114 49.2317 54.2674Z" fill="#166D86"/>
<path d="M112.362 90.6489L108.076 90.3108C107.771 90.2872 107.468 90.3859 107.235 90.5852C107.002 90.7845 106.858 91.0681 106.834 91.3738C106.81 91.6795 106.908 91.9822 107.107 92.2156C107.305 92.449 107.589 92.5939 107.894 92.6185L112.18 92.9566C112.486 92.9802 112.789 92.8815 113.022 92.6822C113.255 92.4829 113.399 92.1993 113.423 91.8936C113.447 91.5879 113.349 91.2852 113.15 91.0518C112.951 90.8184 112.668 90.6735 112.362 90.6489Z" fill="#166D86"/>
<path d="M120.274 91.2731L115.988 90.935C115.682 90.9117 115.38 91.0105 115.147 91.2098C114.914 91.409 114.77 91.6926 114.746 91.9981C114.722 92.3036 114.82 92.6062 115.018 92.8396C115.217 93.0729 115.5 93.2179 115.806 93.2428L120.092 93.5808C120.397 93.6042 120.7 93.5054 120.932 93.3061C121.165 93.1068 121.31 92.8233 121.334 92.5178C121.358 92.2122 121.26 91.9096 121.061 91.6763C120.862 91.443 120.579 91.298 120.274 91.2731Z" fill="#166D86"/>
<path d="M112.596 87.6817L108.31 87.3436C108.005 87.3202 107.702 87.419 107.469 87.6183C107.236 87.8176 107.092 88.1011 107.068 88.4067C107.044 88.7122 107.142 89.0148 107.341 89.2481C107.539 89.4815 107.823 89.6265 108.128 89.6513L112.414 89.9894C112.72 90.013 113.022 89.9143 113.255 89.715C113.488 89.5157 113.633 89.2321 113.657 88.9264C113.681 88.6207 113.583 88.318 113.384 88.0846C113.185 87.8512 112.902 87.7063 112.596 87.6817Z" fill="#166D86"/>
<path d="M120.509 88.3059L116.223 87.9678C115.917 87.9442 115.615 88.0429 115.382 88.2422C115.149 88.4415 115.004 88.7251 114.98 89.0308C114.956 89.3365 115.054 89.6392 115.253 89.8726C115.452 90.1059 115.735 90.2509 116.041 90.2755L120.327 90.6136C120.632 90.6372 120.935 90.5385 121.168 90.3392C121.401 90.1399 121.546 89.8563 121.57 89.5506C121.594 89.2449 121.496 88.9422 121.297 88.7088C121.098 88.4754 120.814 88.3305 120.509 88.3059Z" fill="#166D86"/>
<path d="M112.829 84.7147L108.543 84.3766C108.238 84.353 107.935 84.4517 107.702 84.651C107.469 84.8503 107.325 85.1339 107.3 85.4396C107.276 85.7453 107.375 86.0481 107.573 86.2814C107.772 86.5148 108.056 86.6597 108.361 86.6843L112.647 87.0224C112.953 87.0458 113.255 86.947 113.488 86.7477C113.721 86.5484 113.865 86.2649 113.889 85.9594C113.913 85.6538 113.815 85.3512 113.617 85.1179C113.418 84.8845 113.135 84.7395 112.829 84.7147Z" fill="#166D86"/>
<path d="M120.742 85.3388L116.457 85.0007C116.151 84.9773 115.849 85.0761 115.616 85.2754C115.383 85.4747 115.239 85.7582 115.215 86.0638C115.19 86.3693 115.288 86.6719 115.487 86.9052C115.686 87.1386 115.969 87.2836 116.275 87.3084L120.56 87.6465C120.866 87.6699 121.168 87.5711 121.401 87.3718C121.634 87.1725 121.778 86.889 121.802 86.5834C121.827 86.2779 121.728 85.9753 121.53 85.7419C121.331 85.5086 121.048 85.3636 120.742 85.3388Z" fill="#166D86"/>
<path d="M43.5395 66.9387L43.4844 67.64L130.276 74.4579L130.331 73.7566L43.5395 66.9387Z" fill="white"/>
<path d="M131.585 63.5254L131.531 64.2251L128.51 63.9881L96.3281 61.4601L96.3861 60.7598L128.565 63.2884L131.585 63.5254Z" fill="#3F3D56"/>
<path d="M25.4839 56.0909C25.4839 56.0909 20.7856 75.9281 26.5279 75.9281C32.2703 75.9281 45.8431 53.4807 45.8431 53.4807L41.1448 47.7384L32.7119 59.4464L32.2702 53.4808L25.4839 56.0909Z" fill="#A0616A"/>
<path d="M44.5902 54.3432C47.1145 54.3432 49.1609 52.2968 49.1609 49.7725C49.1609 47.2481 47.1145 45.2018 44.5902 45.2018C42.0659 45.2018 40.0195 47.2481 40.0195 49.7725C40.0195 52.2968 42.0659 54.3432 44.5902 54.3432Z" fill="#A0616A"/>
<path d="M37.1172 39.386L33.985 36.2538C33.985 36.2538 27.7206 39.908 27.1986 43.5622C26.6766 47.2165 24.0664 58.7012 24.0664 58.7012L33.724 59.4842L36.8562 54.7859L37.1172 39.386Z" fill="#E6E6E6"/>
</svg>
