<svg width="400" height="375" viewBox="0 0 400 375" fill="none" xmlns="http://www.w3.org/2000/svg">
<g clip-path="url(#clip0_758_1364)">
<path d="M397.758 84.1463C398.542 84.3771 399.206 84.9241 399.604 85.6672C400.003 86.4103 400.105 87.2889 399.886 88.1102L348.581 280.11C348.36 280.931 347.838 281.626 347.129 282.044C346.42 282.462 345.581 282.569 344.798 282.34L155.659 226.844C154.876 226.613 154.212 226.066 153.813 225.323C153.414 224.58 153.313 223.701 153.531 222.88L204.837 30.8804C205.057 30.0596 205.579 29.364 206.288 28.946C206.998 28.528 207.836 28.4218 208.62 28.6507L397.758 84.1463Z" fill="#E6E6E6"/>
<path d="M342.421 273.273L162.184 220.389L210.997 37.717L391.234 90.6008L342.421 273.273Z" fill="white"/>
<path d="M367.405 114.993C368.607 115.345 369.103 117.439 368.51 119.658C367.917 121.878 366.456 123.397 365.253 123.044L283.05 98.9247C281.847 98.5719 281.352 96.4788 281.945 94.259C282.538 92.0393 283.999 90.5204 285.201 90.8732L367.405 114.993Z" fill="#E6E6E6"/>
<path d="M360.785 139.767C361.987 140.119 362.483 142.213 361.89 144.432C361.297 146.652 359.836 148.171 358.633 147.818L276.43 123.699C275.227 123.346 274.731 121.253 275.325 119.033C275.918 116.813 277.379 115.294 278.581 115.647L360.785 139.767Z" fill="#E6E6E6"/>
<path d="M354.24 164.255C355.443 164.608 355.939 166.701 355.346 168.921C354.752 171.141 353.291 172.659 352.089 172.307L269.885 148.187C268.683 147.834 268.187 145.741 268.78 143.522C269.373 141.302 270.834 139.783 272.037 140.136L354.24 164.255Z" fill="#E6E6E6"/>
<path d="M347.62 189.029C348.823 189.382 349.319 191.475 348.725 193.695C348.132 195.914 346.671 197.433 345.469 197.081L263.265 172.961C262.063 172.608 261.567 170.515 262.16 168.295C262.753 166.076 264.214 164.557 265.417 164.91L347.62 189.029Z" fill="#E6E6E6"/>
<path d="M243.484 78.9185C243.989 79.066 244.461 79.3165 244.874 79.6554C245.286 79.9944 245.631 80.4152 245.888 80.8939C246.146 81.3726 246.31 81.8998 246.373 82.4452C246.436 82.9907 246.395 83.5438 246.254 84.0728C246.113 84.6019 245.873 85.0966 245.549 85.5286C245.225 85.9606 244.823 86.3214 244.366 86.5905C243.909 86.8596 243.406 87.0316 242.885 87.0967C242.365 87.1619 241.837 87.1188 241.332 86.9701L225.965 82.4611C224.946 82.1621 224.082 81.4512 223.563 80.4849C223.044 79.5185 222.913 78.3757 223.198 77.308C223.484 76.2403 224.162 75.3351 225.084 74.7915C226.007 74.248 227.097 74.1105 228.116 74.4095L243.484 78.9185Z" fill="#E6E6E6"/>
<path d="M236.992 103.212C237.497 103.36 237.969 103.61 238.382 103.949C238.795 104.288 239.139 104.709 239.397 105.188C239.654 105.667 239.819 106.194 239.881 106.739C239.944 107.285 239.904 107.838 239.762 108.367C239.621 108.896 239.382 109.391 239.058 109.823C238.734 110.255 238.332 110.615 237.874 110.884C237.417 111.154 236.914 111.326 236.393 111.391C235.873 111.456 235.345 111.413 234.84 111.264L219.473 106.755C218.454 106.456 217.59 105.745 217.071 104.779C216.553 103.812 216.421 102.67 216.707 101.602C216.992 100.534 217.67 99.6291 218.593 99.0855C219.515 98.5419 220.605 98.4045 221.624 98.7034L236.992 103.212Z" fill="#E6E6E6"/>
<path d="M230.5 127.506C231.004 127.654 231.476 127.905 231.888 128.244C232.3 128.583 232.644 129.004 232.901 129.482C233.158 129.961 233.322 130.488 233.385 131.033C233.448 131.578 233.407 132.131 233.266 132.659C233.125 133.188 232.885 133.682 232.562 134.114C232.238 134.546 231.837 134.907 231.38 135.176C230.923 135.445 230.42 135.617 229.9 135.683C229.38 135.748 228.853 135.706 228.348 135.558L212.981 131.049C211.962 130.75 211.098 130.039 210.579 129.073C210.06 128.106 209.929 126.963 210.215 125.896C210.5 124.828 211.178 123.923 212.1 123.379C213.023 122.836 214.113 122.698 215.132 122.997L230.5 127.506Z" fill="#E6E6E6"/>
<path d="M224.008 151.8C225.026 152.1 225.889 152.811 226.407 153.777C226.925 154.743 227.055 155.885 226.77 156.952C226.485 158.019 225.808 158.923 224.886 159.467C223.965 160.011 222.875 160.149 221.857 159.852L206.489 155.343C205.472 155.043 204.609 154.332 204.091 153.366C203.573 152.4 203.443 151.258 203.728 150.191C204.013 149.124 204.69 148.219 205.612 147.676C206.533 147.132 207.622 146.993 208.641 147.291L224.008 151.8Z" fill="#E6E6E6"/>
<path d="M217.806 193.91C218.449 194.098 219.051 194.417 219.577 194.849C220.103 195.28 220.542 195.817 220.87 196.427C221.198 197.037 221.408 197.708 221.488 198.403C221.568 199.098 221.516 199.803 221.336 200.477C221.156 201.151 220.851 201.782 220.438 202.332C220.025 202.883 219.513 203.342 218.931 203.685C218.348 204.028 217.707 204.247 217.043 204.33C216.38 204.413 215.708 204.359 215.064 204.169L195.483 198.424C194.185 198.043 193.084 197.137 192.423 195.905C191.762 194.674 191.595 193.218 191.958 191.857C192.322 190.497 193.186 189.344 194.361 188.651C195.537 187.958 196.926 187.783 198.224 188.164L217.806 193.91Z" fill="#166D86"/>
<path d="M197.654 173.19L342.555 215.705L342.194 217.055L197.294 174.539L197.654 173.19Z" fill="#E6E6E6"/>
<path d="M52.1037 354.648L63.7249 357.592L80.0918 312.022L62.9398 307.677L52.1037 354.648Z" fill="#A0616A"/>
<path d="M83.7749 375L83.8536 374.659C84.7747 370.648 84.1394 366.417 82.0872 362.895C80.0351 359.374 76.7337 356.849 72.9072 355.875L50.1699 350.115L46.6013 365.583L83.7749 375Z" fill="#2F2E41"/>
<path d="M103.55 362.944L115.505 362.943L121.193 314.62L103.548 314.62L103.55 362.944Z" fill="#A0616A"/>
<path d="M100.654 374.927L138.898 374.926V374.575C138.898 370.448 137.333 366.489 134.548 363.571C131.763 360.652 127.985 359.013 124.046 359.013H124.045L100.653 359.014L100.654 374.927Z" fill="#2F2E41"/>
<path d="M121.202 344.079L132.811 199.106L84.7557 189.825L84.566 189.789L70.5005 199.263L75.3962 252.617L52.8556 335.799L72.3184 341.166L94.8949 264.019L100.061 240.559L102.709 271.044L100.744 346.222L121.202 344.079Z" fill="#2F2E41"/>
<path d="M134.299 202.395L134.426 202.226L117.82 71.2091L117.798 71.0375L117.681 70.9147C117.437 70.6583 111.618 64.6336 105.634 64.6336C104.769 64.6336 103.946 64.6107 103.157 64.5897C98.5777 64.465 94.9601 64.3652 90.6609 68.8709C86.2805 73.4605 71.9889 90.2201 71.9889 113.174C71.9889 135.391 70.0582 204.436 70.0387 205.13L70.0113 206.105L70.7918 205.573C70.9844 205.443 90.2067 192.618 106.328 204.54C111.366 208.267 115.892 209.573 119.762 209.573C128.769 209.573 134.222 202.498 134.299 202.395Z" fill="#166D86"/>
<path d="M96.6875 53.8231C85.08 47.1741 80.8142 31.924 87.1594 19.7609C93.5046 7.59787 108.058 3.12777 119.665 9.77671C131.273 16.4256 135.539 31.6758 129.194 43.8389C122.848 56.0019 108.295 60.472 96.6875 53.8231Z" fill="#A0616A"/>
<path d="M144.843 230.551C143.71 229.631 142.783 228.462 142.128 227.125C141.473 225.789 141.105 224.319 141.051 222.818C140.996 221.316 141.257 219.821 141.814 218.437C142.371 217.052 143.211 215.813 144.274 214.805L130.672 181.185L148.482 184.619L158.669 216.02C160.165 218.004 160.915 220.495 160.777 223.02C160.638 225.545 159.62 227.929 157.916 229.72C156.212 231.512 153.939 232.585 151.53 232.739C149.121 232.892 146.742 232.113 144.843 230.551Z" fill="#A0616A"/>
<path d="M157.986 204.398L153.606 194.708C153.876 194.538 154.099 194.295 154.253 194.006C158.345 186.574 133.626 124.858 131.978 120.764C132.229 118.538 134.824 94.9442 132.927 86.9915C130.693 77.6298 126.107 73.2667 117.592 72.4025C108.202 71.4784 105.668 84.8409 105.644 84.9767L105.635 119.329L116.413 158.873L140.991 211.413L157.986 204.398Z" fill="#166D86"/>
<path d="M105.114 41.2559C107.985 41.6474 110.151 38.569 111.156 35.7233C112.16 32.8777 112.926 29.5648 115.422 28.0276C118.832 25.9275 123.196 28.4534 127.096 27.7605C131.501 26.978 134.365 22.0866 134.589 17.4113C134.814 12.7359 133.038 8.23931 131.296 3.92872L130.688 9.28581C130.769 7.47015 130.404 5.663 129.629 4.0372C128.853 2.41141 127.692 1.02135 126.257 0L127.041 7.86071C126.55 3.45694 122.022 0.0446197 117.882 0.957217L118.005 5.6409C112.918 5.00703 107.786 4.37227 102.684 4.85518C97.5815 5.3381 92.4435 7.02972 88.5764 10.5508C82.7919 15.8178 80.6792 24.4906 81.3885 32.4863C82.0978 40.482 85.2476 47.9933 88.5304 55.2493C89.3564 57.075 90.4988 59.1351 92.4141 59.3676C94.135 59.5766 95.7097 58.0692 96.2446 56.3425C96.7796 54.6159 96.5186 52.7401 96.1982 50.9561C95.7142 48.261 95.1041 45.5063 95.5591 42.8058C96.0142 40.1052 97.8682 37.4365 100.466 37.1055C103.064 36.7746 105.722 39.8863 104.473 42.2962L105.114 41.2559Z" fill="#2F2E41"/>
<path d="M0.255585 374.984H172.624V373.509H9.15527e-05L0.255585 374.984Z" fill="#CCCCCC"/>
</g>
<defs>
<clipPath id="clip0_758_1364">
<rect width="400" height="375" fill="white" transform="matrix(-1 0 0 1 400 0)"/>
</clipPath>
</defs>
</svg>
