<svg width="1525" height="469" viewBox="0 0 1525 469" fill="none" xmlns="http://www.w3.org/2000/svg">
<path opacity="0.2" d="M1525 23.0081C1525 10.3043 1514.7 0.00585938 1502 0.00585938H148.365C66.425 0.00585938 -0.00012207 66.431 -0.00012207 148.371V445.004C-0.00012207 457.707 10.2983 468.006 23.0022 468.006H1502C1514.7 468.006 1525 457.707 1525 445.004V23.0081Z" fill="#0FACAC"/>
<g opacity="0.1">
<mask id="mask0_366_792" style="mask-type:alpha" maskUnits="userSpaceOnUse" x="1204" y="0" width="321" height="405">
<path d="M1497.07 1.07764C1511.82 1.07782 1523.78 13.0325 1523.78 27.7798V403.567H1261.96C1230.7 403.567 1205.36 378.224 1205.36 346.961V1.07764H1497.07Z" fill="url(#paint0_linear_366_792)" stroke="black" stroke-width="1.8"/>
</mask>
<g mask="url(#mask0_366_792)">
<path d="M1494.37 100.006C1555.75 100.006 1605.43 147.177 1605.43 205.265C1605.43 263.354 1555.75 310.525 1494.37 310.525C1432.99 310.525 1383.31 263.354 1383.31 205.265C1383.31 147.177 1432.99 100.007 1494.37 100.006Z" stroke="#166D86" stroke-width="1.8"/>
<path d="M1485.53 76.2603C1554.24 76.2603 1609.85 129.059 1609.85 194.09C1609.85 259.122 1554.24 311.921 1485.53 311.921C1416.83 311.921 1361.22 259.122 1361.22 194.09C1361.22 129.059 1416.83 76.2603 1485.53 76.2603Z" stroke="#166D86" stroke-width="1.8"/>
<path d="M1478.17 56.0063C1553.38 56.0064 1614.27 113.808 1614.27 185.011C1614.27 256.214 1553.38 314.017 1478.17 314.017C1402.95 314.017 1342.06 256.215 1342.06 185.011C1342.06 113.808 1402.95 56.0063 1478.17 56.0063Z" stroke="#166D86" stroke-width="1.8"/>
<path d="M1470.8 32.9585C1551.71 32.9585 1617.22 95.1382 1617.22 171.742C1617.22 248.345 1551.71 310.525 1470.8 310.525C1389.89 310.525 1324.39 248.345 1324.39 171.742C1324.39 95.1384 1389.89 32.9587 1470.8 32.9585Z" stroke="#166D86" stroke-width="1.8"/>
<path d="M1463.8 10.6094C1550.2 10.6095 1620.16 77.0106 1620.16 158.821C1620.16 240.632 1550.2 307.033 1463.8 307.033C1377.4 307.033 1307.45 240.632 1307.45 158.821C1307.45 77.0105 1377.4 10.6094 1463.8 10.6094Z" stroke="#166D86" stroke-width="1.8"/>
<path d="M1452.02 -18.7241C1546.96 -18.7241 1623.85 54.2438 1623.85 144.155C1623.85 234.066 1546.96 307.033 1452.02 307.033C1357.08 307.033 1280.19 234.066 1280.19 144.155C1280.19 54.2438 1357.08 -18.7241 1452.02 -18.7241Z" stroke="#166D86" stroke-width="1.8"/>
</g>
</g>
<g opacity="0.1">
<mask id="mask1_366_792" style="mask-type:alpha" maskUnits="userSpaceOnUse" x="0" y="53" width="583" height="416">
<rect x="581.466" y="53.8325" width="413.691" height="580.716" transform="rotate(90 581.466 53.8325)" fill="#FF7F50" stroke="#166D86" stroke-width="1.5"/>
</mask>
<g mask="url(#mask1_366_792)">
<path d="M438.998 430.552C438.998 510.274 370.924 574.967 286.868 574.967C202.813 574.967 134.74 510.274 134.739 430.552C134.739 350.83 202.813 286.137 286.868 286.137C370.924 286.137 438.998 350.83 438.998 430.552Z" stroke="#166D86" stroke-width="1.5"/>
<path d="M502.363 409.542C502.363 507.197 418.979 586.429 316.037 586.429C213.094 586.429 129.71 507.197 129.71 409.542C129.711 311.887 213.095 232.656 316.037 232.656C418.979 232.656 502.363 311.887 502.363 409.542Z" stroke="#166D86" stroke-width="1.5"/>
<path d="M535.554 399.992C535.554 505.031 445.866 590.248 335.147 590.248C224.428 590.248 134.74 505.031 134.74 399.992C134.74 294.952 224.428 209.735 335.147 209.735C445.866 209.735 535.554 294.952 535.554 399.992Z" stroke="#166D86" stroke-width="1.5"/>
<path d="M567.739 390.918C567.739 503.078 471.972 594.067 353.754 594.067C235.536 594.067 139.769 503.078 139.769 390.918C139.769 278.758 235.536 187.769 353.754 187.769C471.972 187.769 567.739 278.758 567.739 390.918Z" stroke="#166D86" stroke-width="1.5"/>
<path d="M609.982 375.638C609.982 498.874 504.759 598.843 374.876 598.843C244.993 598.843 139.768 498.874 139.768 375.638C139.768 252.401 244.993 152.433 374.876 152.433C504.759 152.433 609.982 252.401 609.982 375.638Z" stroke="#166D86" stroke-width="1.5"/>
<path d="M473.195 419.092C473.195 508.308 397.016 580.697 302.962 580.697C208.907 580.697 132.728 508.308 132.728 419.092C132.728 329.876 208.907 257.486 302.962 257.486C397.016 257.486 473.195 329.876 473.195 419.092Z" stroke="#166D86" stroke-width="1.5"/>
</g>
</g>
<circle cx="40.254" cy="40.254" r="40.254" transform="matrix(1 0 0 -1 3.00024 94.5137)" fill="#166D86"/>
<path d="M63.5086 66.9221C64.3037 65.5449 64.1971 63.9051 63.2294 62.6429L41.9824 34.917C41.1061 33.7737 39.6634 33.1908 38.188 33.4739C36.7433 33.7518 35.5978 34.8049 35.2003 36.2213L32.0565 47.4104L31.729 48.5742L30.8849 49.4396L22.7668 57.7567C21.7389 58.8092 21.3997 60.3278 21.8814 61.7179C22.3582 63.092 23.554 64.0892 25.0283 64.2824L59.6632 68.8198C61.2401 69.0268 62.7135 68.2992 63.5086 66.9221Z" fill="white"/>
<path d="M32.0564 47.4109L35.2001 36.2219C35.5977 34.8055 36.7431 33.7524 38.1879 33.4745C39.6632 33.1912 41.106 33.7741 41.9822 34.9175L63.2292 62.6435C64.197 63.9056 64.3036 65.5455 63.5084 66.9226L31.7289 48.5747L32.0564 47.4109Z" fill="white"/>
<path d="M44.6611 56.0404C44.9845 55.4804 44.7931 54.7637 44.2323 54.44L32.0564 47.4102L31.7289 48.574L30.8848 49.4395L43.0607 56.4692C43.6215 56.7929 44.3378 56.6004 44.6611 56.0404Z" fill="#166D86"/>
<path d="M32.0563 47.4102L44.2322 54.44C44.7929 54.7637 44.9844 55.4803 44.661 56.0404L31.7288 48.574L32.0563 47.4102Z" fill="#166D86"/>
<defs>
<linearGradient id="paint0_linear_366_792" x1="1431.57" y1="11.5201" x2="1228.61" y2="416.571" gradientUnits="userSpaceOnUse">
<stop stop-color="#747DEF"/>
<stop offset="1" stop-color="#5E3BE1"/>
</linearGradient>
</defs>
</svg>
