<svg width="886" height="490" viewBox="0 0 886 490" fill="none" xmlns="http://www.w3.org/2000/svg">
<path d="M386.267 383.55C377.097 397.111 356.881 407.072 340.894 405.904L83.1305 387.082C80.3069 386.876 77.4814 386.363 74.9736 385.062C68.6964 381.808 64.4399 376.486 63.5474 363.905C63.1352 358.096 65.2135 352.416 68.5409 347.61L203.391 152.854C212.427 139.24 232.672 129.147 248.758 130.238L505.601 140.901C512.592 141.191 519.528 143.697 523.939 149.126C529.629 156.13 531.093 162.454 528.103 172.146C527.405 174.408 526.266 176.51 524.94 178.471L386.267 383.55Z" fill="url(#paint0_linear_40_6519)" fill-opacity="0.2"/>
<rect x="0.21796" y="0.457001" width="311.779" height="296.619" rx="30.5" transform="matrix(-0.992188 -0.074614 0.556269 -0.839388 364.039 389.793)" fill="white" stroke="#15919C"/>
<ellipse cx="49.0188" cy="49.2699" rx="49.0188" ry="49.2699" transform="matrix(0.992188 0.074614 -0.556269 0.839388 338.432 90.3926)" fill="#166D86"/>
<ellipse cx="13.2351" cy="13.3029" rx="13.2351" ry="13.3029" transform="matrix(0.992188 0.0746139 -0.556269 0.839388 212.653 206.247)" fill="#166D86"/>
<ellipse cx="13.2351" cy="13.3029" rx="13.2351" ry="13.3029" transform="matrix(0.992188 0.0746139 -0.556269 0.839388 187.438 244.295)" fill="#166D86"/>
<ellipse cx="13.2351" cy="13.3029" rx="13.2351" ry="13.3029" transform="matrix(0.992188 0.0746139 -0.556269 0.839388 161.93 281.389)" fill="#166D86"/>
<rect width="155.88" height="12.8102" rx="6.40508" transform="matrix(0.992188 0.0746139 -0.556269 0.839388 257.452 215.694)" fill="#98FF98"/>
<rect width="155.88" height="12.8102" rx="6.40508" transform="matrix(0.992188 0.0746139 -0.556269 0.839388 233.117 256.604)" fill="#98FF98"/>
<rect width="155.88" height="12.8102" rx="6.40508" transform="matrix(0.992188 0.0746139 -0.556269 0.839388 207.609 293.698)" fill="#98FF98"/>
<path d="M685.545 353.896C676.297 367.402 656.024 377.24 640.044 375.976L382.394 355.603C379.571 355.379 376.748 354.849 374.247 353.533C367.989 350.241 363.763 344.893 362.943 332.307C362.564 326.496 364.675 320.829 368.03 316.043L503.993 122.103C513.107 108.543 533.409 98.5724 549.489 99.7595L806.265 111.969C813.256 112.302 820.177 114.849 824.557 120.305C830.207 127.342 831.635 133.675 828.589 143.35C827.878 145.607 826.727 147.703 825.39 149.656L685.545 353.896Z" fill="url(#paint1_linear_40_6519)" fill-opacity="0.1"/>
<rect x="0.215363" y="0.458316" width="311.76" height="296.614" rx="30.5" transform="matrix(-0.991804 -0.0805922 0.561078 -0.83604 663.278 360.006)" fill="white" stroke="#0FACAC"/>
<ellipse cx="49.0158" cy="49.2689" rx="49.0158" ry="49.2689" transform="matrix(0.991804 0.0805922 -0.561078 0.83604 639.389 60.4551)" fill="#166D86"/>
<ellipse cx="13.2343" cy="13.3026" rx="13.2343" ry="13.3026" transform="matrix(0.991804 0.0805922 -0.561078 0.83604 512.949 175.55)" fill="#166D86"/>
<ellipse cx="13.2343" cy="13.3026" rx="13.2343" ry="13.3026" transform="matrix(0.991804 0.0805922 -0.561078 0.83604 487.517 213.446)" fill="#166D86"/>
<ellipse cx="13.2343" cy="13.3026" rx="13.2343" ry="13.3026" transform="matrix(0.991804 0.0805922 -0.561078 0.83604 461.797 250.386)" fill="#166D86"/>
<rect width="155.87" height="12.8099" rx="6.40496" transform="matrix(0.991804 0.0805922 -0.561078 0.83604 557.693 185.267)" fill="#98FF98"/>
<rect width="155.87" height="12.8099" rx="6.40496" transform="matrix(0.991804 0.0805922 -0.561078 0.83604 533.125 226.029)" fill="#98FF98"/>
<rect width="155.87" height="12.8099" rx="6.40496" transform="matrix(0.991804 0.0805922 -0.561078 0.83604 507.405 262.969)" fill="#98FF98"/>
<g filter="url(#filter0_d_40_6519)">
<circle cx="36.1491" cy="36.1491" r="36.1491" transform="matrix(0.997037 0.0769196 -0.565133 0.825 518.947 64)" fill="white"/>
</g>
<circle cx="20.3338" cy="20.3338" r="19.0459" transform="matrix(0.997037 0.0769196 -0.565133 0.825 525.583 77.8564)" stroke="#2DD38E" stroke-width="2.57597"/>
<path d="M524.599 96.4307L526.904 101.802L546.936 91.8671" stroke="#2DD38E" stroke-width="2.57597" stroke-linecap="round"/>
<g filter="url(#filter1_d_40_6519)">
<circle cx="38.4289" cy="38.4289" r="38.4289" transform="matrix(0.997037 0.0769196 -0.565133 0.825 220.947 96)" fill="white"/>
</g>
<circle cx="21.6163" cy="21.6163" r="20.247" transform="matrix(0.997037 0.0769196 -0.565133 0.825 228.001 110.73)" stroke="#2DD38E" stroke-width="2.73843"/>
<path d="M226.956 130.476L229.405 136.186L250.701 125.624" stroke="#2DD38E" stroke-width="2.73843" stroke-linecap="round"/>
<defs>
<filter id="filter0_d_40_6519" x="455.343" y="32.3032" width="158.434" height="135.47" filterUnits="userSpaceOnUse" color-interpolation-filters="sRGB">
<feFlood flood-opacity="0" result="BackgroundImageFix"/>
<feColorMatrix in="SourceAlpha" type="matrix" values="0 0 0 0 0 0 0 0 0 0 0 0 0 0 0 0 0 0 127 0" result="hardAlpha"/>
<feOffset dy="3.43463"/>
<feGaussianBlur stdDeviation="18.8904"/>
<feColorMatrix type="matrix" values="0 0 0 0 0.185194 0 0 0 0 0.197453 0 0 0 0 0.491667 0 0 0 0.1 0"/>
<feBlend mode="normal" in2="BackgroundImageFix" result="effect1_dropShadow_40_6519"/>
<feBlend mode="normal" in="SourceGraphic" in2="effect1_dropShadow_40_6519" result="shape"/>
</filter>
<filter id="filter1_d_40_6519" x="153.332" y="62.304" width="168.426" height="144.014" filterUnits="userSpaceOnUse" color-interpolation-filters="sRGB">
<feFlood flood-opacity="0" result="BackgroundImageFix"/>
<feColorMatrix in="SourceAlpha" type="matrix" values="0 0 0 0 0 0 0 0 0 0 0 0 0 0 0 0 0 0 127 0" result="hardAlpha"/>
<feOffset dy="3.65124"/>
<feGaussianBlur stdDeviation="20.0818"/>
<feColorMatrix type="matrix" values="0 0 0 0 0.185194 0 0 0 0 0.197453 0 0 0 0 0.491667 0 0 0 0.1 0"/>
<feBlend mode="normal" in2="BackgroundImageFix" result="effect1_dropShadow_40_6519"/>
<feBlend mode="normal" in="SourceGraphic" in2="effect1_dropShadow_40_6519" result="shape"/>
</filter>
<linearGradient id="paint0_linear_40_6519" x1="382.796" y1="378.5" x2="47.227" y2="359.471" gradientUnits="userSpaceOnUse">
<stop stop-color="#98FF98"/>
<stop offset="1" stop-color="#166D86"/>
</linearGradient>
<linearGradient id="paint1_linear_40_6519" x1="378.407" y1="346.5" x2="838.046" y2="148.001" gradientUnits="userSpaceOnUse">
<stop stop-color="#008955"/>
<stop offset="1" stop-color="#98FF98"/>
</linearGradient>
</defs>
</svg>
