<svg width="20" height="21" viewBox="0 0 20 21" fill="none" xmlns="http://www.w3.org/2000/svg">
<circle cx="9.9871" cy="10.1715" r="9.99686" fill="#155B6F"/>
<path d="M14.9138 7.12279C14.5498 7.27896 14.1537 7.39135 13.7457 7.43512C14.1693 7.18483 14.4865 6.78941 14.6378 6.32304C14.2403 6.55822 13.8048 6.72314 13.3507 6.81046C13.1609 6.60867 12.9314 6.4479 12.6764 6.3382C12.4214 6.22849 12.1464 6.17219 11.8686 6.1728C10.7445 6.1728 9.8404 7.07902 9.8404 8.1911C9.8404 8.34726 9.85944 8.50342 9.89036 8.65367C8.20716 8.56613 6.70596 7.76638 5.70794 6.54191C5.52609 6.85083 5.43079 7.20256 5.43196 7.56052C5.43196 8.2609 5.79002 8.87845 6.33602 9.24165C6.01425 9.22905 5.70002 9.14109 5.41888 8.98493V9.00977C5.41888 9.99053 6.11595 10.8033 7.04498 10.9902C6.87055 11.0353 6.6911 11.0583 6.51088 11.0588C6.37884 11.0588 6.25394 11.0458 6.12785 11.0281C6.38479 11.8278 7.13301 12.4087 8.02397 12.4276C7.3269 12.9707 6.45378 13.2901 5.50572 13.2901C5.33561 13.2901 5.17859 13.2842 5.01562 13.2652C5.91492 13.839 6.98194 14.1703 8.13103 14.1703C11.8614 14.1703 13.9027 11.0967 13.9027 8.42889C13.9027 8.34134 13.9027 8.2538 13.8967 8.16625C14.2917 7.87877 14.6378 7.52267 14.9138 7.12279Z" fill="white"/>
</svg>
