<svg width="826" height="700" viewBox="0 0 826 700" fill="none" xmlns="http://www.w3.org/2000/svg">
<g clip-path="url(#clip0_358_786)">
<path d="M323.064 119.837H308.11L306.414 136.733H323.064V119.837Z" fill="#ED9DA0"/>
<path d="M319.136 93.3691C310.429 92.7573 302.875 99.3316 302.265 108.053C301.654 116.775 308.217 124.341 316.925 124.952C325.632 125.564 333.186 118.99 333.797 110.268C334.407 101.547 327.844 93.9808 319.136 93.3691Z" fill="#ED9DA0"/>
<path d="M312.651 85.5359C312.588 85.3737 312.478 85.234 312.335 85.1348C312.192 85.0356 312.023 84.9815 311.849 84.9794C319.097 85.0536 326.637 86.4326 332.401 90.8395C333.723 91.9986 335.14 93.045 336.636 93.9677C336.709 94.0068 336.771 94.064 336.815 94.1339C336.859 94.2039 336.884 94.2841 336.889 94.3667C336.893 94.4494 336.875 94.5317 336.838 94.6057C336.801 94.6797 336.746 94.7428 336.677 94.7888L336.492 94.9136C336.419 94.9627 336.36 95.0313 336.322 95.1117C336.285 95.1922 336.271 95.2814 336.281 95.3695C336.291 95.4577 336.325 95.5413 336.38 95.6112C336.434 95.6811 336.507 95.7345 336.59 95.7656C336.675 95.7985 336.75 95.8551 336.804 95.9289C336.859 96.0027 336.891 96.0905 336.897 96.182C336.904 96.2735 336.884 96.365 336.84 96.4455C336.796 96.5261 336.73 96.5924 336.65 96.6367L335.251 97.4106C335.181 97.4492 335.122 97.5048 335.079 97.5723C335.036 97.6399 335.01 97.7172 335.004 97.7972C334.999 97.8771 335.013 97.9572 335.047 98.0301C335.08 98.1031 335.131 98.1664 335.195 98.2145C335.304 98.2928 335.418 98.3618 335.538 98.4209C335.613 98.4553 335.678 98.5084 335.726 98.5752C335.775 98.6419 335.805 98.72 335.815 98.8019C335.824 98.8839 335.813 98.9669 335.781 99.043C335.749 99.1191 335.698 99.1857 335.633 99.2365C335.017 99.7131 334.526 100.334 334.204 101.044C333.734 102.203 333.444 103.428 333.345 104.676C333.008 102.849 331.127 101.655 329.288 101.417C327.433 101.33 325.575 101.519 323.775 101.977C319.793 102.655 315.715 102.526 311.783 101.597C312.943 104.407 311.577 107.565 310.235 110.292L306.636 108.438C301.741 105.194 304.44 117.637 306.226 119.444C302.235 120.517 293.103 104.808 296.777 99.3507C298.688 96.5114 297.745 92.6109 301.292 90.0357C303.06 88.4198 306.279 89.4197 308.054 88.0985C308.752 87.579 307.854 85.9933 308.782 85.7261C310.065 85.5682 311.358 85.5046 312.651 85.5359Z" fill="#2F2E41"/>
<path d="M327.118 128.238L330.62 133.94L352.611 141.964L350.807 196.692L348.843 202.484L350.458 207.281L347.637 211.104C350.92 213.683 351.515 216.582 350.049 219.727L340.386 222.67C340.386 222.67 286.125 231.369 290.133 222.573C294.513 212.963 293.879 185.532 281.757 171.702C271.464 159.959 277.572 143.356 277.572 143.356L299.454 135.095L307.335 129.628L327.118 128.238Z" fill="#3F3D56"/>
<path d="M227.884 176.575C228.487 177.44 229.272 178.162 230.184 178.69C231.096 179.218 232.112 179.54 233.161 179.632C234.211 179.725 235.267 179.586 236.257 179.225C237.247 178.864 238.145 178.29 238.89 177.544L261.946 188.718L260.193 175.504L238.568 166.918C237.232 165.749 235.515 165.111 233.741 165.125C231.968 165.14 230.261 165.805 228.944 166.995C227.627 168.186 226.792 169.818 226.597 171.584C226.401 173.35 226.86 175.126 227.884 176.576L227.884 176.575Z" fill="#ED9DA0"/>
<path d="M296.48 136.831C294.488 149.899 289.172 180.458 282.083 187.269C281.637 187.754 281.089 188.132 280.477 188.377C254.469 196.693 244.837 180.819 244.837 180.819C244.837 180.819 251.686 176.86 251.392 170.081L266.006 173.52L276.502 144.545L278.217 142.703L278.226 142.692L296.48 136.831Z" fill="#3F3D56"/>
<path d="M350.394 408.149C356.3 408.907 362.427 409.389 368.083 407.551C368.974 407.275 369.954 406.659 369.865 405.767C369.801 405.442 369.664 405.137 369.464 404.875C367.332 401.672 365.541 398.254 364.12 394.677C364.064 394.491 363.948 394.328 363.79 394.214C363.606 394.147 363.404 394.147 363.22 394.214C360.61 394.9 358.357 396.589 355.765 397.312C354.443 397.675 353.064 397.778 351.703 397.615C350.528 397.481 348.919 396.509 347.855 396.634C348.461 400.531 349.939 404.17 350.394 408.149Z" fill="#166D86"/>
<path d="M462.077 398.27C465.969 395.593 470.004 392.783 472.302 388.652C472.465 388.406 472.561 388.121 472.578 387.826C472.539 387.534 472.425 387.258 472.248 387.023C470.059 383.537 467.241 380.49 463.938 378.038C462.215 379.258 460.658 380.697 459.306 382.321C458.327 383.353 455.619 384.998 455.595 386.577C455.595 387.469 456.626 388.504 457.109 389.253C457.76 390.217 458.374 391.198 458.965 392.198C459.298 392.688 462.388 398.077 462.077 398.27Z" fill="#166D86"/>
<path d="M373.543 420.096C373.612 421.015 373.36 421.93 372.83 422.683C372.414 423.102 371.9 423.409 371.334 423.575C363.078 426.537 353.52 422.844 345.282 425.761C343.59 426.359 341.983 427.225 340.286 427.796C338.257 428.407 336.165 428.778 334.051 428.902C331.138 429.179 328.208 429.357 325.287 429.437C323.067 429.594 320.837 429.398 318.678 428.857C317.599 428.579 316.589 428.077 315.716 427.383C314.843 426.689 314.126 425.819 313.611 424.829C313.163 423.942 313.073 422.916 313.361 421.965C313.49 421.639 313.674 421.337 313.904 421.073C314.463 420.446 315.118 419.912 315.846 419.494L318.883 417.532C320.307 416.523 321.855 415.701 323.488 415.087C324.69 414.695 325.962 414.525 327.184 414.195C331.451 412.946 334.711 409.556 337.739 406.3L341.871 401.884C342.258 401.398 342.748 401.005 343.305 400.734C343.879 400.542 344.488 400.484 345.087 400.564C349.102 400.851 352.978 402.153 356.354 404.347C357.219 404.996 358.152 405.547 359.138 405.989C361.561 406.935 364.67 406.221 366.905 405.025C367.965 404.454 367.73 404.133 368.178 403.116C368.627 402.099 369.71 401.448 370.653 402.376C370.938 402.697 371.139 403.083 371.24 403.5C372.131 406.444 371.793 409.612 371.793 412.699C371.767 413.181 371.827 413.665 371.971 414.126C372.199 414.591 372.47 415.033 372.782 415.447C372.845 415.556 372.902 415.669 372.951 415.785C373.496 417.152 373.701 418.631 373.548 420.095L373.543 420.096Z" fill="#514E7F"/>
<path d="M373.543 420.095C373.612 421.014 373.36 421.929 372.83 422.682C372.414 423.101 371.9 423.408 371.334 423.574C363.078 426.536 353.52 422.843 345.282 425.761C343.59 426.359 341.983 427.224 340.286 427.795C338.257 428.406 336.165 428.777 334.051 428.901C331.138 429.178 328.208 429.356 325.287 429.436C323.067 429.593 320.837 429.397 318.678 428.856C317.598 428.578 316.589 428.076 315.716 427.382C314.843 426.688 314.126 425.818 313.611 424.828C313.161 423.943 313.069 422.918 313.354 421.966C313.483 421.64 313.667 421.338 313.897 421.074C314.378 422.082 314.722 423.42 315.031 423.902C315.441 424.615 315.997 425.232 316.664 425.713C317.33 426.194 318.092 426.527 318.897 426.69C320.102 426.764 321.311 426.609 322.459 426.235C329.941 424.376 337.895 424.352 345.082 421.542C347.549 420.569 349.901 419.276 352.492 418.688C355.083 418.099 357.836 418.259 360.508 418.036C364.73 417.697 368.818 416.421 372.978 415.751C373.515 417.13 373.708 418.619 373.539 420.089L373.543 420.095Z" fill="#464353"/>
<path d="M480.986 397.729C480.594 400.87 478.608 403.572 476.426 405.866C474.244 408.16 471.777 410.22 470.04 412.861C467.902 416.135 466.94 420.193 464.163 422.96C463.096 423.965 461.898 424.821 460.601 425.502C459.147 426.361 457.61 427.069 456.014 427.616C451.863 428.945 447.392 428.643 443.054 428.321C441.646 428.307 440.252 428.038 438.94 427.526C438.342 427.223 437.77 426.871 437.229 426.474C436.142 425.803 435.226 424.887 434.557 423.797C434.228 423.205 434.135 422.51 434.298 421.853C434.546 421.128 434.971 420.478 435.535 419.962C436.511 418.945 437.559 418 438.67 417.134C440.197 416.149 441.572 414.946 442.753 413.565C443.478 412.474 444.011 411.267 444.33 409.996C444.961 407.77 445.346 405.481 445.478 403.171C445.474 401.636 445.632 400.105 445.951 398.603C446.609 396.247 448.356 394.143 448.159 391.707C448.08 391.358 448.111 390.993 448.248 390.662C448.455 390.405 448.744 390.225 449.067 390.154C450.428 389.611 451.864 389.277 453.325 389.164C454.057 389.113 454.792 389.225 455.476 389.493C456.16 389.761 456.776 390.178 457.28 390.713C457.885 391.444 458.286 392.498 459.177 392.779C459.618 392.899 460.081 392.918 460.53 392.832C462.721 392.609 465.037 392.332 466.765 390.914C467.563 390.197 468.205 389.322 468.649 388.345C469.094 387.368 469.332 386.308 469.348 385.234C469.348 384.423 468.983 383.575 470.239 383.45C471.183 383.325 471.931 384.342 472.412 384.967C474.149 387.296 475.93 389.731 476.581 392.568C476.834 392.469 477.102 392.418 477.373 392.416C477.929 392.411 478.478 392.541 478.972 392.794C479.467 393.047 479.893 393.416 480.215 393.87C480.924 395.021 481.199 396.388 480.989 397.724L480.986 397.729Z" fill="#514E7F"/>
<path d="M480.986 397.73C480.594 400.871 478.607 403.573 476.426 405.867C474.244 408.16 471.777 410.221 470.04 412.861C467.902 416.135 466.94 420.194 464.163 422.96C463.096 423.966 461.898 424.821 460.6 425.503C459.147 426.362 457.61 427.07 456.013 427.617C451.862 428.946 447.392 428.643 443.054 428.321C441.646 428.308 440.252 428.039 438.939 427.527C438.342 427.223 437.77 426.871 437.229 426.475C436.141 425.804 435.226 424.887 434.556 423.798C435.391 423.396 436.303 423.177 437.229 423.156C439.153 423.259 440.56 425.083 442.404 425.644C445.031 426.439 447.65 424.583 450.313 423.95C452.05 423.537 453.876 423.646 455.595 423.057C457.027 422.502 458.351 421.698 459.504 420.682C461.086 419.551 462.493 418.194 463.682 416.655C464.669 415.113 465.49 413.471 466.132 411.756C467.537 408.47 469.192 405.297 471.081 402.264C471.36 401.783 471.698 401.34 472.087 400.943C472.521 400.586 472.976 400.255 473.45 399.952C475.232 398.61 475.971 396.383 476.594 394.207C476.763 393.546 476.998 392.903 477.297 392.29C477.853 392.285 478.401 392.414 478.896 392.668C479.391 392.921 479.817 393.29 480.139 393.744C480.905 394.921 481.207 396.342 480.986 397.73Z" fill="#464353"/>
<path d="M335.786 254.95C336.962 259.41 335.26 264.103 333.872 268.52C331.78 275.172 330.354 282.015 329.614 288.95C329.524 290.714 329.169 292.455 328.564 294.114C327.905 295.604 326.782 296.862 326.016 298.28C323.914 302.009 323.967 306.559 324.422 310.823C324.725 313.633 325.179 316.435 325.741 319.2C326.426 322.581 327.273 326.12 326.284 329.415C327.941 329.049 329.068 331.2 328.957 332.886C328.845 334.572 328.306 336.455 329.117 337.909C331.166 338.659 331.179 341.478 331.122 343.663C331.156 347.453 331.634 351.226 332.547 354.905C335.646 369.833 338.936 384.72 342.416 399.566C349.942 401.903 358.733 404.339 365.912 401.1C366.606 400.867 367.236 400.475 367.753 399.955C368.269 399.435 368.657 398.802 368.887 398.105C368.965 397.326 368.868 396.54 368.602 395.803L365.2 383.402C364.375 380.408 363.543 377.309 363.979 374.231C364.309 371.938 365.306 369.467 364.185 367.442C363.803 366.746 363.196 366.202 362.751 365.542C360.969 362.928 361.904 359.43 362.048 356.264C362.103 355.553 362.055 354.837 361.905 354.14C361.661 353.326 361.32 352.544 360.89 351.812C358.078 346.343 356.728 340.239 356.972 334.093C357.079 333.309 356.972 332.511 356.663 331.783C356.446 331.483 356.253 331.166 356.083 330.837C355.95 330.264 356.016 329.663 356.27 329.133C355.249 328.357 354.327 327.458 353.526 326.456C354.02 326.149 354.438 325.733 354.748 325.24C355.058 324.746 355.252 324.189 355.316 323.61C355.379 323.031 355.31 322.445 355.115 321.896C354.919 321.347 354.601 320.85 354.185 320.443C354.548 320.369 354.884 320.196 355.155 319.944C355.426 319.691 355.622 319.367 355.72 319.01C355.819 318.652 355.817 318.274 355.714 317.918C355.611 317.561 355.412 317.24 355.138 316.99C354.702 316.687 354.122 316.553 353.811 316.098C353.33 315.438 353.722 314.519 354.114 313.814L356.189 310.058C357.736 307.269 358.086 303.813 359.752 301.136C362.004 297.154 363.842 292.951 365.238 288.593L371.232 272.026L375.267 275.537C376.611 276.565 377.737 277.851 378.58 279.32C379.154 280.771 379.517 282.297 379.658 283.851C381.136 292.844 386.783 300.641 388.876 309.5C389.339 311.471 389.652 313.541 390.783 315.227C391.188 315.745 391.551 316.294 391.869 316.87C392.164 317.747 392.318 318.665 392.324 319.591C392.511 321.403 393.085 323.153 394.007 324.724C394.929 326.294 396.178 327.647 397.668 328.691C399.654 330.056 402.121 330.993 403.199 333.151C403.415 333.82 403.714 334.458 404.09 335.052C405.052 336.211 407.128 336.346 407.537 337.8C407.769 338.611 407.341 339.584 407.795 340.298C408.053 340.628 408.394 340.884 408.784 341.038L414.582 343.938C421.066 347.186 424.377 354.644 429.163 360.077C430.815 361.848 432.278 363.786 433.527 365.861C435.59 369.563 436.547 374.211 440.038 376.567C440.976 377.052 441.829 377.684 442.567 378.44C443.663 379.886 443.261 381.911 443.359 383.731C443.457 385.55 444.847 387.718 446.575 387.166C445.97 389.37 445.97 391.697 446.575 393.901C454.158 393.509 461.389 390.574 467.105 385.568C468.797 384.087 470.427 382.196 470.446 379.948C470.472 379.56 470.385 379.173 470.196 378.833C469.854 378.393 469.402 378.052 468.887 377.842C463.463 374.898 461.833 368.074 459.092 362.533C456.696 357.644 453.151 353.433 450.185 348.892C443.737 339.124 439.336 327.302 429.584 320.852C427.437 319.433 424.944 318.175 423.866 315.829C423.269 314.517 423.197 313.019 422.725 311.663C422.253 310.307 421.122 308.986 419.68 308.986C420.482 307.024 420.321 304.632 420.375 302.509C420.429 301.567 420.32 300.624 420.054 299.72C419.683 298.746 419.202 297.818 418.62 296.955C416.075 292.639 414.803 287.69 414.95 282.68C415.021 280.099 415.476 277.443 414.701 274.981C414.309 273.742 413.623 272.606 413.154 271.412C412.442 269.245 412.067 266.981 412.041 264.7L411.507 256.128C411.426 253.273 411.056 250.433 410.402 247.653C408.621 240.997 406.839 213.117 400.738 209.977C394.638 206.836 384.154 228.292 377.286 228.711C374.248 228.838 371.246 229.418 368.379 230.433C363.81 232.146 359.98 235.339 356.248 238.462L343.618 249.088C340.943 251.292 338.734 253.398 335.786 254.95Z" fill="#464353"/>
<path d="M535.033 278.209V267.131C535.031 258.974 531.794 251.152 526.035 245.385C520.276 239.618 512.466 236.378 504.322 236.378H67.4483C59.3048 236.378 51.4947 239.618 45.7356 245.385C39.9765 251.152 36.74 258.974 36.7378 267.131V287.561L535.033 278.209Z" fill="#33323D"/>
<path d="M188.983 223.385C188.983 223.385 187.736 300.876 201.452 326.374C215.168 351.871 221.047 462.796 221.047 462.796C221.047 462.796 364.84 477.695 465.042 444.954C565.244 412.212 778.459 398.816 778.459 398.816L742.528 156.252C742.528 156.252 565.023 144.851 464.045 193.088C363.067 241.325 188.983 223.385 188.983 223.385Z" fill="#8DD070"/>
<path d="M188.983 223.385C188.983 223.385 187.736 300.876 201.452 326.374C215.168 351.871 221.047 462.796 221.047 462.796C221.047 462.796 364.84 477.695 465.042 444.954C565.244 412.212 778.459 398.816 778.459 398.816L742.528 156.252C742.528 156.252 565.023 144.851 464.045 193.088C363.067 241.325 188.983 223.385 188.983 223.385Z" fill="#D6D6E3"/>
<path d="M220.808 251.694C220.808 251.694 216.31 315.633 227.596 336.067C238.881 356.5 239.406 447.704 239.406 447.704C239.406 447.704 368.815 453.717 460.867 422.331C552.919 390.944 746.361 370.592 746.361 370.592L724.376 172.215C724.376 172.215 564.319 170.562 470.904 214.743C377.489 258.924 220.808 251.694 220.808 251.694Z" fill="#E6E6E6"/>
<path opacity="0.1" d="M469.48 386.007C487.893 383.71 498.832 349.782 493.913 310.227C488.994 270.672 470.08 240.468 451.668 242.765C433.255 245.062 422.316 278.99 427.235 318.546C432.154 358.101 451.068 388.305 469.48 386.007Z" fill="black"/>
<path d="M136.343 261.036C136.343 261.036 158.887 335.173 179.728 355.228C200.57 375.283 240.152 479.051 240.152 479.051C240.152 479.051 381.585 449.031 466.922 387.044C552.258 325.057 751.104 246.801 751.104 246.801L642.61 27C642.61 27 470.173 70.715 388.855 147.662C307.536 224.609 136.343 261.036 136.343 261.036Z" fill="#8DD070"/>
<path d="M136.343 261.036C136.343 261.036 158.887 335.173 179.728 355.228C200.57 375.283 240.152 479.051 240.152 479.051C240.152 479.051 381.585 449.031 466.922 387.044C552.258 325.057 751.104 246.801 751.104 246.801L642.61 27C642.61 27 470.173 70.715 388.855 147.662C307.536 224.609 136.343 261.036 136.343 261.036Z" fill="#D6D6E3"/>
<path d="M175.275 278.199C175.275 278.199 190.586 340.444 207.589 356.413C224.592 372.382 253.016 459.01 253.016 459.01C253.016 459.01 378.014 424.948 456.012 366.78C534.01 308.612 711.897 229.863 711.897 229.863L630.212 47.7593C630.212 47.7593 477.38 95.3728 402.001 166.138C326.621 236.903 175.275 278.199 175.275 278.199Z" fill="#E6E6E6"/>
<path d="M453.126 329.598C469.947 321.753 469.963 286.1 453.164 249.964C436.364 213.829 409.11 190.896 392.289 198.742C375.469 206.587 375.452 242.241 392.252 278.376C409.051 314.511 436.306 337.444 453.126 329.598Z" fill="#D6D6E3"/>
<path d="M546.829 293.001V600.79C546.827 607.849 544.026 614.618 539.041 619.608C534.057 624.599 527.299 627.402 520.251 627.402H63.3254C56.2804 627.4 49.5246 624.595 44.5438 619.605C39.563 614.614 36.7649 607.847 36.7649 600.79V261.963C49.8591 266.825 49.8591 266.825 63.3254 266.424H520.248C527.29 266.423 534.044 269.221 539.028 274.204C544.012 279.187 546.818 285.947 546.829 293.001Z" fill="#166D86"/>
<path d="M546.826 404.17V502.618H451.522C438.49 502.618 425.992 497.433 416.777 488.203C407.562 478.973 402.385 466.454 402.385 453.401C402.385 440.348 407.562 427.829 416.777 418.599C425.992 409.369 438.49 404.184 451.522 404.184L546.826 404.17Z" fill="#33323D"/>
<path d="M457.393 472.598C467.974 472.598 476.552 464.006 476.552 453.408C476.552 442.809 467.974 434.218 457.393 434.218C446.812 434.218 438.234 442.809 438.234 453.408C438.234 464.006 446.812 472.598 457.393 472.598Z" fill="#166D86"/>
<path d="M361.172 251.689C361.879 250.907 362.406 249.978 362.715 248.969C363.025 247.961 363.11 246.896 362.964 245.851C362.818 244.806 362.446 243.805 361.873 242.92C361.299 242.035 360.539 241.286 359.646 240.727L365.348 215.718L352.886 220.395L349.381 243.427C348.544 244.993 348.309 246.811 348.721 248.539C349.132 250.266 350.162 251.782 351.615 252.8C353.067 253.818 354.842 254.268 356.604 254.063C358.365 253.859 359.99 253.014 361.171 251.69L361.172 251.689Z" fill="#ED9DA0"/>
<path d="M346.597 141.019L352.575 141.975C352.575 141.975 380.192 187.627 374.968 197.062C369.744 206.496 364.662 236.877 364.662 236.877C364.662 236.877 353.904 235.51 349.47 230.38L354.413 194.426L344.67 165.183L346.597 141.019Z" fill="#3F3D56"/>
<path d="M822.717 629.608H2.83652C1.39307 629.608 0.223877 629.114 0.223877 628.505C0.223877 627.895 1.38998 627.402 2.8324 627.402H822.713C824.156 627.402 825.326 627.895 825.326 628.505C825.326 629.114 824.163 629.608 822.717 629.608Z" fill="#E6E6E6"/>
<path d="M727.734 624.602C727.754 624.609 727.773 624.619 727.79 624.63C727.119 623.178 726.493 621.71 725.923 620.218C725.855 620.043 725.793 619.862 725.726 619.688C725.731 619.733 725.731 619.777 725.738 619.829C725.754 620.112 725.777 620.394 725.8 620.682C725.834 621.128 725.861 621.58 725.868 622.032C725.873 622.173 725.873 622.309 725.873 622.445C725.871 622.995 725.814 623.544 725.704 624.083H725.726C725.868 624.094 725.997 624.099 726.133 624.122C726.664 624.193 727.183 624.342 727.672 624.563C727.694 624.574 727.715 624.587 727.734 624.602Z" fill="url(#paint0_linear_358_786)"/>
<path d="M717.054 402.712C716.993 405.071 716.196 407.359 716.07 409.711C723.006 410.057 729.847 406.686 736.715 407.719C734.795 406.48 733.769 404.232 733.165 402.024C732.395 399.176 732.166 396.208 732.488 393.275C732.506 393.112 732.535 392.95 732.574 392.791C732.829 391.637 733.489 390.003 733.311 389.097C733.078 387.896 731.948 388.133 730.931 388.203C727.826 388.439 724.737 388.839 721.674 389.399C720.876 389.538 713.103 391.481 712.987 391.279C714.349 393.468 715.477 395.795 716.351 398.222C716.836 399.668 717.074 401.186 717.054 402.712Z" fill="#ED9DA0"/>
<path d="M648.461 395.422C649.057 396.237 649.771 396.957 650.579 397.561C651.105 397.993 651.644 398.434 652.209 398.831C653.215 399.609 654.415 400.098 655.677 400.244C657.327 400.356 660.833 399.384 661.864 397.972C662.297 397.259 662.503 396.43 662.454 395.597C662.437 394.468 662.245 393.348 661.885 392.279C661.242 390.537 660.34 388.903 659.211 387.431C658.104 385.702 656.637 384.233 654.91 383.124C654.319 382.806 651.92 384.696 652.546 386.333C652.023 386.349 651.518 386.53 651.104 386.852C650.69 387.173 650.388 387.618 650.243 388.122C650.219 388.39 650.111 388.643 649.934 388.845C649.649 389.074 649.205 388.948 648.881 389.117C648.308 389.427 648.557 390.279 648.497 390.928C648.356 391.489 648.158 392.035 647.906 392.556C647.785 393.046 647.772 393.557 647.868 394.053C647.964 394.548 648.167 395.017 648.463 395.425L648.461 395.422Z" fill="#ED9DA0"/>
<path d="M744.072 631.94C743.762 631.724 743.407 631.583 743.034 631.526C742.661 631.47 742.279 631.5 741.92 631.615C737.918 632.249 733.873 632.576 729.822 632.595C729.314 630.117 730.787 627.702 731.265 625.215C731.334 624.573 731.495 623.945 731.745 623.349C732.091 622.836 732.545 622.405 733.074 622.085C733.603 621.765 734.195 621.564 734.81 621.495C736.99 621.035 740.398 620.222 741.615 622.425C743.074 625.079 743.541 628.992 744.072 631.94Z" fill="#ED9DA0"/>
<path d="M699.744 622.568C701.47 623.58 703.408 624.172 705.404 624.296C707.397 624.415 709.358 624.863 711.205 625.622C712.752 626.386 714.052 627.64 715.687 628.188C717.207 628.606 718.809 628.631 720.341 628.262C722.179 627.916 724.138 627.247 725.129 625.656C726.014 624.243 725.919 622.455 725.797 620.787C725.655 618.907 725.516 617.025 725.379 615.14C725.386 614.662 725.265 614.191 725.029 613.775C723.7 611.835 720.47 614.587 718.74 614.582C715.879 614.419 713.167 613.249 711.084 611.278C710.911 611.097 710.71 610.945 710.489 610.828C709.708 610.478 708.928 611.127 708.233 611.693C708.155 611.758 708.077 611.823 708 611.883C706.4 613.153 704.251 613.412 702.275 613.927C700.3 614.441 698.178 615.476 697.566 617.431C697.526 617.554 697.494 617.679 697.471 617.806C697.362 618.734 697.518 619.674 697.921 620.516C698.323 621.359 698.955 622.071 699.744 622.568Z" fill="#090814"/>
<path d="M743.321 500.115C744.601 506.408 743.387 512.953 739.936 518.365C738.908 519.766 737.989 521.243 737.185 522.783C736.722 523.915 736.363 525.087 736.112 526.284L733.063 538.924C732.239 542.332 731.414 545.814 731.659 549.316C731.831 551.755 732.446 554.499 730.944 556.428C730.581 556.797 730.276 557.217 730.036 557.675C729.886 558.211 729.881 558.778 730.021 559.317C731.567 568.494 732.707 578.086 729.918 586.964C727.393 595.01 727.248 603.925 725.102 612.081C724.927 613.117 724.465 614.083 723.768 614.869C723.194 615.353 722.505 615.681 721.768 615.821C718.604 616.575 715.263 615.692 712.313 614.321C710.238 613.359 708.006 611.671 708.189 609.388C708.403 608.32 708.791 607.293 709.336 606.35C710.024 604.326 710.406 602.21 710.47 600.072C711.041 594.739 712.683 589.59 713.923 584.375C715.163 579.159 716.007 573.705 714.954 568.445C712.808 557.566 709.373 546.982 704.722 536.918C704.52 536.383 704.199 535.9 703.785 535.506C703.319 535.242 702.875 534.938 702.459 534.6C702.137 534.101 701.929 533.536 701.852 532.947C701.39 531.283 700.02 530.056 699.101 528.592C696.781 524.9 697.516 520.169 697.602 515.806C697.685 511.565 697.076 507.284 697.77 503.104C698.464 498.923 700.858 494.641 704.884 493.33C706.922 492.803 709.046 492.703 711.124 493.035C722.193 494.119 732.941 496.132 743.321 500.115Z" fill="#090814"/>
<path d="M698.269 526.714C698.301 528.362 698.488 530.003 698.825 531.617C700.775 542.569 702.853 553.499 705.058 564.405C705.252 565.351 705.442 566.297 705.696 567.226C706.519 570.262 707.958 573.094 709.923 575.548C719.115 587.023 719.909 603.687 724.895 617.526C725.231 618.463 725.568 619.401 725.926 620.325C726.827 622.67 727.854 624.965 729.002 627.199C729.136 627.525 729.355 627.809 729.636 628.02C729.945 628.176 730.292 628.243 730.637 628.214C735.124 628.24 739.556 627.231 743.59 625.264C744.166 625.051 744.652 624.647 744.966 624.119C745.121 623.698 745.171 623.245 745.113 622.801C744.975 620.057 744.803 617.215 743.499 614.804C742.631 613.361 741.554 612.054 740.303 610.928C740.014 602.303 738.968 593.721 737.176 585.281C736.206 580.982 735.011 576.636 732.513 573.002C730.676 570.317 728.04 567.67 728.364 564.431C728.506 563.01 729.101 561.237 727.945 560.403C727.441 560.035 726.694 559.99 726.353 559.465C726.216 559.219 726.138 558.944 726.128 558.662C725.892 556.441 726.031 554.196 726.541 552.021C726.961 550.601 727.291 549.155 727.528 547.692C727.641 546.958 727.603 546.208 727.416 545.489C727.229 544.769 726.898 544.096 726.442 543.51C726.381 540.554 726.463 537.487 726.403 534.536C726.286 532.855 726.425 531.165 726.815 529.525C727.039 528.751 727.38 528.013 727.552 527.222C728.171 524.383 726.624 520.983 728.463 518.732C729.338 517.901 730.328 517.203 731.404 516.658C733.364 515.229 734.786 513.18 735.442 510.843C736.089 508.52 736.472 506.131 736.585 503.722C736.645 503.212 736.651 502.696 736.603 502.184C736.571 501.92 736.501 501.66 736.396 501.415C735.827 500.131 734.296 499.635 732.933 499.306C724.27 497.225 715.391 496.185 706.483 496.208C703.184 493.961 701.328 494.762 699.935 497.146C699.163 498.599 698.539 500.126 698.072 501.704C697.433 503.635 697.394 514.446 696.774 516.385C695.965 518.916 698.303 524.066 698.269 526.714Z" fill="#090814"/>
<path d="M720.171 398.25C729.017 398.25 736.188 391.067 736.188 382.206C736.188 373.346 729.017 366.163 720.171 366.163C711.325 366.163 704.154 373.346 704.154 382.206C704.154 391.067 711.325 398.25 720.171 398.25Z" fill="#ED9DA0"/>
<path d="M710.854 408.471C711.552 409.28 712.489 410.172 713.525 409.911C713.899 409.783 714.25 409.595 714.564 409.354C716.411 408.162 718.677 407.882 720.854 407.555C725.229 406.895 729.552 405.922 733.789 404.644C735.02 404.196 736.31 403.933 737.617 403.865C740.332 403.879 742.738 405.686 744.44 407.806C746.141 409.925 747.346 412.404 749.015 414.548C750.205 416.076 751.622 417.422 752.727 419.009C755.532 423.012 744.17 470.631 744.325 471.435C745.388 479.012 745.948 500.104 745.48 503.99C740.469 502.05 735.219 500.799 729.872 500.272C726.431 499.934 722.924 499.891 719.603 498.923C717.529 498.319 715.562 497.362 713.456 496.881C711.748 496.545 710.013 496.368 708.273 496.351C704.439 496.076 700.588 496.162 696.77 496.609C696.46 496.655 696.087 496.679 695.904 496.428C695.822 496.292 695.781 496.134 695.788 495.975C695.73 494.549 696.07 493.134 696.771 491.891C697.378 491.114 697.769 490.19 697.905 489.213C697.87 488.754 698.86 428.799 700.276 426.241C702.083 423.349 703.432 420.195 704.275 416.889C704.717 414.679 704.701 412.403 705.017 410.172C705.05 409.605 705.247 409.06 705.583 408.603C705.892 408.332 706.255 408.131 706.649 408.014C707.042 407.897 707.456 407.866 707.863 407.924C708.881 407.954 709.89 408.138 710.854 408.471Z" fill="#166D86"/>
<path d="M705.499 433.529C704.607 434.814 703.458 435.9 702.126 436.717C700.467 437.42 698.66 437.698 696.867 437.525C689.487 437.367 682.135 436.558 674.896 435.107C674.071 434.965 665.231 429.465 663.418 427.155C661.262 424.367 655.839 406.437 655.65 405.415C655.317 403.655 654.426 402.049 653.108 400.836C652.829 400.637 652.618 400.356 652.504 400.032C652.469 399.762 652.519 399.488 652.648 399.248C653.066 398.446 653.658 397.749 654.38 397.206C655.102 396.663 655.936 396.289 656.821 396.111C658.592 395.768 660.405 395.696 662.198 395.897C662.795 396.01 663.384 396.167 663.959 396.366C665.379 400.222 675.28 418.078 675.799 418.053C677.215 418.141 680.271 418.659 681.554 418.053C683.011 417.369 687.79 417.341 688.045 417.202C688.622 416.864 693.819 414.611 694.495 414.683C694.068 414.303 703.905 411.823 704.584 410.64C704.824 410.221 704.871 409.652 705.281 409.395C705.558 409.259 705.874 409.222 706.174 409.292C707.114 409.419 708.027 409.698 708.877 410.118C710.264 415.553 709.536 421.195 708.479 426.704C708.093 429.202 707.067 431.558 705.501 433.54L705.499 433.529Z" fill="#166D86"/>
<path d="M713.554 404.445C715.33 403.461 717.274 402.82 719.286 402.555C720.482 402.283 721.712 402.194 722.934 402.293C724.062 402.434 725.144 402.87 726.279 402.933C727.874 402.859 729.446 402.528 730.936 401.953C732.474 401.532 734.251 401.371 735.547 402.302C735.822 402.574 736.171 402.76 736.55 402.836C736.943 402.789 737.309 402.609 737.587 402.327C738.677 401.546 739.999 401.159 741.337 401.229C742.676 401.3 743.95 401.824 744.952 402.715C747.888 405.474 747.556 410.862 750.998 412.955C751.947 413.531 753.163 413.837 753.714 414.799C753.848 415.106 754.004 415.403 754.182 415.686C754.412 415.94 754.693 416.141 755.007 416.277C756.005 416.724 756.956 417.271 757.844 417.911C758.287 418.234 758.66 418.643 758.941 419.114C759.221 419.586 759.404 420.109 759.477 420.653C759.49 421.45 759.319 422.239 758.976 422.959C757.292 427.096 754.37 430.61 750.612 433.017C746.854 435.424 742.443 436.606 737.987 436.402C737.196 436.442 736.416 436.199 735.788 435.714C735.457 435.34 735.196 434.909 735.018 434.443C733.4 431.045 730.361 428.536 728.432 425.305C727.282 423.38 726.544 421.226 725.346 419.33C723.531 416.455 720.771 414.331 718.07 412.27C716.546 411.108 714.851 409.889 712.936 409.969C711.231 410.041 709.989 410.133 710.615 408.038C711.137 406.528 712.179 405.254 713.554 404.445Z" fill="#166D86"/>
<path opacity="0.05" d="M713.554 404.445C715.33 403.461 717.274 402.82 719.286 402.555C720.482 402.283 721.712 402.194 722.934 402.293C724.062 402.434 725.144 402.87 726.279 402.933C727.874 402.859 729.446 402.528 730.936 401.953C732.474 401.532 734.251 401.371 735.547 402.302C735.822 402.574 736.171 402.76 736.55 402.836C736.943 402.789 737.309 402.609 737.587 402.327C738.677 401.546 739.999 401.159 741.337 401.229C742.676 401.3 743.95 401.824 744.952 402.715C747.888 405.474 747.556 410.862 750.998 412.955C751.947 413.531 753.163 413.837 753.714 414.799C753.848 415.106 754.004 415.403 754.182 415.686C754.412 415.94 754.693 416.141 755.007 416.277C756.005 416.724 756.956 417.271 757.844 417.911C758.287 418.234 758.66 418.643 758.941 419.114C759.221 419.586 759.404 420.109 759.477 420.653C759.49 421.45 759.319 422.239 758.976 422.959C757.292 427.096 754.37 430.61 750.612 433.017C746.854 435.424 742.443 436.606 737.987 436.402C737.196 436.442 736.416 436.199 735.788 435.714C735.457 435.34 735.196 434.909 735.018 434.443C733.4 431.045 730.361 428.536 728.432 425.305C727.282 423.38 726.544 421.226 725.346 419.33C723.531 416.455 720.771 414.331 718.07 412.27C716.546 411.108 714.851 409.889 712.936 409.969C711.231 410.041 709.989 410.133 710.615 408.038C711.137 406.528 712.179 405.254 713.554 404.445Z" fill="black"/>
<path d="M705.218 636.972C706.458 637.978 707.944 638.633 709.522 638.869C713.059 639.56 716.639 640.003 720.237 640.195C721.402 640.282 722.57 640.373 723.735 640.463C727.151 640.722 730.572 640.985 734.001 640.999C738.234 641.013 742.459 640.648 746.626 639.906C746.793 639.922 746.961 639.899 747.118 639.838C747.274 639.777 747.413 639.68 747.525 639.555C747.637 639.431 747.719 639.281 747.763 639.119C747.806 638.957 747.812 638.787 747.778 638.623C747.704 634.349 744.853 631.028 743.894 626.863C743.497 625.152 742.765 628.055 742.627 628.215C742.311 628.662 741.894 629.03 741.411 629.287C740.927 629.544 740.391 629.685 739.843 629.697C736.319 629.891 732.372 627.744 729.573 625.834C728.974 625.388 728.337 624.993 727.671 624.655C727.181 624.435 726.662 624.286 726.13 624.214C724.317 624.047 722.495 624.416 720.89 625.277C718.784 626.322 716.939 627.826 714.855 628.902C713.161 629.774 711.332 630.353 709.446 630.617C707.54 630.88 705.262 631.005 704.283 632.661C704.282 632.663 704.281 632.665 704.281 632.667C704.281 632.67 704.282 632.672 704.283 632.674C703.948 633.394 703.858 634.205 704.027 634.981C704.196 635.758 704.614 636.457 705.218 636.972Z" fill="#090814"/>
<path opacity="0.1" d="M738.334 384.434C737.997 384.645 737.62 384.785 737.228 384.847C736.733 384.99 736.213 385.025 735.703 384.949C735.194 384.873 734.707 384.687 734.276 384.404L738.334 384.434Z" fill="black"/>
<path d="M707.029 362.115C709.12 361.105 711.476 360.785 713.759 361.201C716.019 361.514 718.367 362.211 720.521 361.506C722.977 360.68 724.864 358.099 727.433 358.308C728.524 358.474 729.546 358.942 730.386 359.658C733.709 362.146 736.22 365.567 737.598 369.487C737.867 370.566 738.34 371.585 738.992 372.486C739.429 372.893 739.844 373.323 740.235 373.774C740.619 374.395 740.842 375.102 740.883 375.831C741.328 379.85 740.298 383.893 737.984 387.205C736.615 389.161 734.83 390.783 733.414 392.74C731.999 394.698 727.615 397.794 727.317 396.519C726.889 395.269 726.637 393.965 726.567 392.646C726.699 390.046 728.202 387.928 726.965 385.638C726.2 384.221 724.401 382.803 723.161 383.82C722.675 384.211 722.462 384.853 722.013 385.281C721.525 385.643 720.914 385.798 720.313 385.714C719.711 385.629 719.167 385.312 718.797 384.829C718.087 383.828 717.78 382.595 717.938 381.376C718.279 375.827 716.905 371.755 710.774 371.95C708.489 372.024 705.944 371.709 704.526 369.637C702.657 366.908 704.472 363.515 707.029 362.115Z" fill="#090814"/>
</g>
<g filter="url(#filter0_d_358_786)">
<ellipse cx="649.497" cy="328" rx="41.0533" ry="40" fill="white"/>
</g>
<path d="M643.339 318L655.655 328L643.339 338" stroke="#1EA4CE" stroke-width="4"/>
<defs>
<filter id="filter0_d_358_786" x="548.444" y="232" width="202.107" height="200" filterUnits="userSpaceOnUse" color-interpolation-filters="sRGB">
<feFlood flood-opacity="0" result="BackgroundImageFix"/>
<feColorMatrix in="SourceAlpha" type="matrix" values="0 0 0 0 0 0 0 0 0 0 0 0 0 0 0 0 0 0 127 0" result="hardAlpha"/>
<feOffset dy="4"/>
<feGaussianBlur stdDeviation="30"/>
<feColorMatrix type="matrix" values="0 0 0 0 0.15925 0 0 0 0 0.17238 0 0 0 0 0.4875 0 0 0 0.15 0"/>
<feBlend mode="normal" in2="BackgroundImageFix" result="effect1_dropShadow_358_786"/>
<feBlend mode="normal" in="SourceGraphic" in2="effect1_dropShadow_358_786" result="shape"/>
</filter>
<linearGradient id="paint0_linear_358_786" x1="421.875" y1="624.63" x2="421.875" y2="619.688" gradientUnits="userSpaceOnUse">
<stop stop-color="#808080" stop-opacity="0.251"/>
<stop offset="0.535" stop-color="#808080" stop-opacity="0.122"/>
<stop offset="1" stop-color="#808080" stop-opacity="0.102"/>
</linearGradient>
<clipPath id="clip0_358_786">
<rect width="825.11" height="613" fill="white" transform="translate(0.219727 27)"/>
</clipPath>
</defs>
</svg>
