<svg width="212" height="168" viewBox="0 0 212 168" fill="none" xmlns="http://www.w3.org/2000/svg">
<g clip-path="url(#clip0_346_867)">
<path d="M211.909 3.53394H84.8259V63.837H211.909V3.53394Z" fill="#E6E6E6"/>
<path d="M208.275 8.70483H88.46V59.0176H208.275V8.70483Z" fill="white"/>
<path d="M211.855 0.0498047H84.772V5.44867H211.855V0.0498047Z" fill="#166D86"/>
<path d="M88.7839 4.2252C89.3365 4.2252 89.7845 3.77719 89.7845 3.22454C89.7845 2.67189 89.3365 2.22388 88.7839 2.22388C88.2312 2.22388 87.7832 2.67189 87.7832 3.22454C87.7832 3.77719 88.2312 4.2252 88.7839 4.2252Z" fill="white"/>
<path d="M92.582 4.2252C93.1346 4.2252 93.5826 3.77719 93.5826 3.22454C93.5826 2.67189 93.1346 2.22388 92.582 2.22388C92.0293 2.22388 91.5813 2.67189 91.5813 3.22454C91.5813 3.77719 92.0293 4.2252 92.582 4.2252Z" fill="white"/>
<path d="M96.3805 4.2252C96.9332 4.2252 97.3812 3.77719 97.3812 3.22454C97.3812 2.67189 96.9332 2.22388 96.3805 2.22388C95.8279 2.22388 95.3799 2.67189 95.3799 3.22454C95.3799 3.77719 95.8279 4.2252 96.3805 4.2252Z" fill="white"/>
<path d="M180.068 16.8462H160.147V50.8768H180.068V16.8462Z" fill="#F2F2F2"/>
<path d="M156.847 16.8457H116.667V26.213H156.847V16.8457Z" fill="#166D86"/>
<path d="M156.847 28.8215H116.667V38.9003H156.847V28.8215Z" fill="#F2F2F2"/>
<path d="M156.847 41.5088H116.667V50.8761H156.847V41.5088Z" fill="#F2F2F2"/>
<path d="M60.6312 100.672C60.635 99.9816 60.4931 99.2987 60.2146 98.6676C59.9361 98.0364 59.5275 97.4711 59.0153 97.0089C58.5032 96.5466 57.8992 96.1978 57.2429 95.9853C56.5866 95.7727 55.8927 95.7012 55.2069 95.7755C54.9899 95.8001 54.7748 95.8397 54.5633 95.8941L37.9902 81.6883L38.9806 76.3501L30.812 73.7029L28.3491 82.2577C28.0578 83.2844 28.1052 84.3777 28.4844 85.3753C28.8637 86.3729 29.5544 87.2216 30.4542 87.7956L50.842 100.69C50.8421 100.851 50.8505 101.011 50.8671 101.171C50.9415 101.857 51.16 102.519 51.5084 103.115C51.8567 103.71 52.3269 104.225 52.8883 104.627C53.4496 105.028 54.0894 105.306 54.7656 105.442C55.4419 105.579 56.1394 105.571 56.8125 105.42C57.0082 105.376 57.2009 105.321 57.3895 105.253C58.3331 104.912 59.1496 104.29 59.7291 103.471C60.3087 102.652 60.6235 101.675 60.6312 100.672Z" fill="#9F616A"/>
<path d="M19.4285 117.147H40.7966C40.7966 117.761 62.8191 118.26 62.8191 118.26C63.1647 118.52 63.4798 118.819 63.7581 119.15C64.5946 120.147 65.0518 121.409 65.049 122.71V123.601C65.0485 125.076 64.4622 126.491 63.4189 127.534C62.3757 128.577 60.9609 129.164 59.4856 129.164H19.4285C17.9533 129.163 16.539 128.576 15.4959 127.533C14.4528 126.49 13.8663 125.076 13.865 123.601V122.71C13.867 121.236 14.4538 119.822 15.4968 118.779C16.5397 117.736 17.9536 117.149 19.4285 117.147Z" fill="#3F3D56"/>
<path d="M42.6723 128.943H36.8862V166.329H42.6723V128.943Z" fill="#3F3D56"/>
<path d="M59.1401 166.794C59.1401 167.494 50.3723 167.065 39.5566 167.065C28.741 167.065 19.9731 167.495 19.9731 166.794C19.9731 166.094 28.741 160.543 39.5566 160.543C50.3723 160.543 59.1401 166.094 59.1401 166.794Z" fill="#3F3D56"/>
<path d="M53.9169 161.745L59.3731 161.744L61.969 147.592L53.9158 147.592L53.9169 161.745Z" fill="#9F616A"/>
<path d="M52.5252 167.034L70.1194 167.033V166.81C70.1194 165.911 69.9423 165.021 69.5982 164.19C69.254 163.359 68.7496 162.604 68.1137 161.968C67.4779 161.332 66.7229 160.828 65.8921 160.484C65.0613 160.14 64.1708 159.962 63.2715 159.962H63.2708L52.5249 159.963L52.5252 167.034Z" fill="#2F2E41"/>
<path d="M62.0779 152.968L72.9561 128.575C73.8643 126.519 73.9647 124.196 73.2374 122.069C72.51 119.942 71.0082 118.168 69.0311 117.099L45.4359 104.446L34.669 103.53L24.7372 102.627L24.6655 102.749C24.5739 102.903 22.4385 106.592 23.882 110.636C24.9769 113.704 27.8249 116.1 32.3469 117.758C42.9016 121.628 55.0944 124.936 59.8467 126.178C60.0567 126.232 60.253 126.33 60.4226 126.465C60.5922 126.6 60.7313 126.769 60.8308 126.962C60.9306 127.152 60.9898 127.361 61.0049 127.575C61.0199 127.79 60.9904 128.005 60.9182 128.207L50.812 150.913C50.7064 151.201 50.6684 151.509 50.7009 151.814C50.7334 152.119 50.8355 152.413 50.9993 152.672C51.1631 152.931 51.3843 153.149 51.6458 153.31C51.9073 153.47 52.2021 153.568 52.5075 153.596L60.0589 154.146C60.123 154.152 60.1868 154.155 60.2504 154.155C60.6371 154.155 61.0155 154.043 61.3399 153.832C61.6642 153.622 61.9206 153.322 62.0779 152.968Z" fill="#CBCBCB"/>
<path d="M50.356 161.745L55.8122 161.744L58.4085 147.592L50.3552 147.592L50.356 161.745Z" fill="#9F616A"/>
<path d="M48.9644 167.034L66.5586 167.033V166.81C66.5586 165.911 66.3815 165.021 66.0374 164.19C65.6933 163.359 65.1889 162.604 64.553 161.968C63.9171 161.332 63.1622 160.828 62.3313 160.484C61.5005 160.14 60.61 159.962 59.7107 159.962H59.71L48.9641 159.963L48.9644 167.034Z" fill="#2F2E41"/>
<path d="M58.0723 154.304L68.9504 129.91C69.8586 127.854 69.9591 125.531 69.2317 123.404C68.5043 121.278 67.0025 119.503 65.0254 118.434L41.4303 105.781L30.6633 104.865L22.8842 104.191L22.8853 104.084C22.7937 104.239 20.6583 107.927 22.1017 111.972C23.1966 115.039 23.8192 117.435 28.3412 119.094C38.8959 122.964 51.0888 126.271 55.841 127.514C56.051 127.567 56.2473 127.665 56.4169 127.8C56.5865 127.935 56.7257 128.104 56.8251 128.297C56.9249 128.487 56.9841 128.696 56.9992 128.911C57.0142 129.125 56.9847 129.34 56.9125 129.543L46.8063 152.248C46.7008 152.536 46.6628 152.844 46.6953 153.149C46.7277 153.454 46.8298 153.748 46.9936 154.007C47.1574 154.266 47.3786 154.485 47.6401 154.645C47.9016 154.805 48.1964 154.903 48.5018 154.932L56.0532 155.481C56.1174 155.488 56.1812 155.491 56.2447 155.491C56.6314 155.49 57.0099 155.378 57.3342 155.168C57.6585 154.957 57.9149 154.657 58.0723 154.304Z" fill="#CBCBCB"/>
<path d="M37.5718 104.636C38.0933 104.267 45.5832 108.197 46.9184 105.081C40.6873 89.5033 44.9812 82.7765 41.1643 73.8434C40.4921 72.3026 39.4793 70.9343 38.2022 69.8412C36.9251 68.7481 35.4168 67.9587 33.7908 67.5323L23.888 67.0325L23.8367 67.0572C21.602 68.1518 19.7796 69.9373 18.6397 72.1491C17.4997 74.3609 17.1028 76.8812 17.508 79.3362C17.5432 89.0582 23.3601 96.4731 21.3261 103.525C21.2408 103.819 21.216 104.128 21.253 104.433C21.29 104.738 21.3881 105.032 21.5415 105.297C21.6902 105.554 21.89 105.778 22.1285 105.955C22.367 106.132 22.6392 106.258 22.9282 106.325L36.004 104.581C36.3094 104.654 36.6269 104.66 36.9351 104.601C37.2434 104.541 37.5354 104.416 37.7917 104.235L37.5718 104.636Z" fill="#2F2E41"/>
<path d="M27.1928 63.3334C33.2302 63.3334 38.1244 58.4392 38.1244 52.4018C38.1244 46.3645 33.2302 41.4702 27.1928 41.4702C21.1555 41.4702 16.2612 46.3645 16.2612 52.4018C16.2612 58.4392 21.1555 63.3334 27.1928 63.3334Z" fill="#9F616A"/>
<path d="M23.711 62.4357C24.2918 62.6898 25.4812 58.0617 24.9484 57.1361C24.1561 55.7595 24.2029 55.7694 23.6769 54.8586C23.1509 53.9479 23.0332 52.7013 23.7144 51.8999C24.3955 51.0986 25.9718 51.2049 26.2827 52.2096C26.0827 50.3012 27.9704 48.7671 29.8402 48.336C31.71 47.9049 33.6823 48.1726 35.5624 47.789C37.7444 47.3437 40.0146 45.5147 39.1441 43.1153C38.9946 42.7158 38.771 42.3482 38.4849 42.032C37.479 40.901 36.072 40.4181 34.6963 39.9512C31.8344 38.9798 28.8943 37.9963 25.8739 38.1035C20.9113 38.2797 16.2203 41.7103 14.5483 46.3861C14.3402 46.9695 14.1789 47.5686 14.0661 48.1777C13.0294 53.7519 16.2664 59.2503 21.524 61.373L23.711 62.4357Z" fill="#2F2E41"/>
<path d="M81.0382 80.0147L82.2918 87.4581C82.3057 87.5411 82.2966 87.6263 82.2653 87.7044L72.4306 112.278C72.3916 112.376 72.3205 112.457 72.229 112.508C72.1376 112.559 72.0313 112.577 71.928 112.56C71.8247 112.542 71.7305 112.489 71.6613 112.411C71.592 112.332 71.5518 112.232 71.5474 112.127L71.1308 102.252C71.128 102.187 71.1394 102.121 71.1641 102.06L80.1619 79.9183C80.1994 79.8259 80.2661 79.7483 80.3517 79.6972C80.4374 79.6461 80.5373 79.6244 80.6364 79.6353C80.7356 79.6462 80.8284 79.6892 80.9009 79.7576C80.9734 79.8261 81.0216 79.9163 81.0382 80.0147Z" fill="#3F3D56"/>
<path d="M80.3418 80.5859L81.533 86.9806L72.8055 109.405L71.6724 102.191L80.3418 80.5859Z" fill="#166D86"/>
<path d="M42.1575 112.164C42.3722 113.002 70.565 113.909 70.8574 113.656C71.1197 113.331 71.347 112.979 71.5355 112.607C71.831 112.079 72.1045 111.55 72.1045 111.55L71.6412 102.634L43.8692 99.6658C43.8692 99.6658 42.6405 107.106 42.2548 110.525C42.1677 111.066 42.1351 111.616 42.1575 112.164Z" fill="#3F3D56"/>
<path opacity="0.1" d="M68.0075 103.577L68.01 111.259L55.7266 110.385L56.2701 102.742L68.0075 103.577Z" fill="black"/>
<path opacity="0.1" d="M52.0011 104.908L52.0753 104.898L51.4954 108.164L44.6711 107.679L44.9041 104.403L52.0011 104.908Z" fill="black"/>
<path opacity="0.1" d="M42.1575 112.164C42.3722 113.002 70.565 113.91 70.8574 113.656C71.1197 113.331 71.347 112.98 71.5355 112.607L42.2548 110.525C42.1677 111.067 42.1351 111.616 42.1575 112.164Z" fill="black"/>
<path d="M30.8371 98.8494L54.6189 103.288C54.6784 103.436 54.7455 103.582 54.82 103.724C55.1431 104.332 55.5906 104.865 56.1332 105.289C56.6759 105.713 57.3016 106.018 57.9698 106.184C58.6406 106.352 59.3397 106.376 60.0203 106.253C60.701 106.129 61.3474 105.862 61.9164 105.469C62.9471 104.761 63.668 103.686 63.9315 102.464C64.195 101.242 63.981 99.9653 63.3335 98.8958C62.686 97.8264 61.6539 97.0452 60.4489 96.7123C59.2438 96.3794 57.9571 96.5201 56.8525 97.1054C56.66 97.2087 56.475 97.3251 56.2988 97.4541L35.6425 90.3977L34.5852 85.0723L26.0171 85.6391L26.9049 94.5664C27.0126 95.6083 27.4534 96.5876 28.1617 97.3591C28.87 98.1306 29.8082 98.6532 30.8371 98.8494Z" fill="#9F616A"/>
<path d="M25.7267 89.6209L38.1768 85.5289L35.2726 77.1901C34.887 76.0828 34.1223 75.1475 33.1138 74.5495C32.1053 73.9514 30.9178 73.7291 29.7612 73.9219C28.5913 74.1169 27.5296 74.7238 26.7679 75.633C26.0063 76.5423 25.5949 77.6939 25.608 78.8799L25.7267 89.6209Z" fill="#2F2E41"/>
<path d="M104.705 167.47H0.274098C0.201403 167.47 0.131685 167.441 0.0802812 167.39C0.0288779 167.338 0 167.268 0 167.196C0 167.123 0.0288779 167.053 0.0802812 167.002C0.131685 166.951 0.201403 166.922 0.274098 166.922H104.705C104.778 166.922 104.848 166.951 104.899 167.002C104.951 167.053 104.979 167.123 104.979 167.196C104.979 167.268 104.951 167.338 104.899 167.39C104.848 167.441 104.778 167.47 104.705 167.47Z" fill="#CBCBCB"/>
<path d="M145.329 158.834C150.337 161.426 152.564 167.07 152.564 167.07C152.564 167.07 146.671 168.512 141.662 165.919C136.653 163.327 134.426 157.683 134.426 157.683C134.426 157.683 140.32 156.242 145.329 158.834Z" fill="#F1F1F1"/>
<path d="M143.727 160.701C146.716 165.484 152.521 167.247 152.521 167.247C152.521 167.247 153.481 161.256 150.492 156.473C147.503 151.69 141.698 149.927 141.698 149.927C141.698 149.927 140.738 155.918 143.727 160.701Z" fill="#F1F1F1"/>
<path d="M161.718 167.361H130.471C130.398 167.361 130.328 167.332 130.277 167.281C130.225 167.229 130.197 167.16 130.197 167.087C130.197 167.014 130.225 166.944 130.277 166.893C130.328 166.842 130.398 166.813 130.471 166.813H161.718C161.79 166.813 161.86 166.842 161.912 166.893C161.963 166.944 161.992 167.014 161.992 167.087C161.992 167.16 161.963 167.229 161.912 167.281C161.86 167.332 161.79 167.361 161.718 167.361Z" fill="#CBCBCB"/>
</g>
<defs>
<clipPath id="clip0_346_867">
<rect width="211.909" height="167.42" fill="white" transform="translate(0 0.0498047)"/>
</clipPath>
</defs>
</svg>
