<svg width="197" height="197" viewBox="0 0 197 197" fill="none" xmlns="http://www.w3.org/2000/svg">
<g filter="url(#filter0_d_557_849)">
<circle cx="98.8664" cy="87.4148" r="54.4148" fill="#166D86"/>
</g>
<g clip-path="url(#clip0_557_849)">
<path fill-rule="evenodd" clip-rule="evenodd" d="M98 66C86.45 66 77 75.45 77 87C77 98.55 86.45 108 98 108C109.55 108 119 98.55 119 87C119 75.45 109.55 66 98 66ZM112.49 78.6H106.4C105.77 75.87 104.72 73.56 103.46 71.04C107.24 72.51 110.6 75.03 112.49 78.6ZM98 70.2C99.68 72.72 101.15 75.45 101.99 78.6H94.01C94.85 75.66 96.32 72.72 98 70.2ZM81.83 91.2C81.41 89.94 81.2 88.47 81.2 87C81.2 85.53 81.41 84.06 81.83 82.8H88.97C88.76 84.27 88.76 85.53 88.76 87C88.76 88.47 88.97 89.73 88.97 91.2H81.83ZM83.51 95.4H89.6C90.23 98.13 91.28 100.44 92.54 102.96C88.76 101.49 85.4 98.97 83.51 95.4ZM89.6 78.6H83.51C85.61 75.03 88.76 72.51 92.54 71.04C91.28 73.56 90.23 75.87 89.6 78.6ZM98 103.8C96.32 101.28 94.85 98.55 94.01 95.4H101.99C101.15 98.34 99.68 101.28 98 103.8ZM102.83 91.2H93.17C92.96 89.73 92.75 88.47 92.75 87C92.75 85.53 92.96 84.27 93.17 82.8H103.04C103.25 84.27 103.46 85.53 103.46 87C103.46 88.47 103.04 89.73 102.83 91.2ZM103.46 102.96C104.72 100.65 105.77 98.13 106.4 95.4H112.49C110.6 98.97 107.24 101.49 103.46 102.96ZM107.24 91.2C107.45 89.73 107.45 88.47 107.45 87C107.45 85.53 107.24 84.27 107.24 82.8H114.38C114.8 84.06 115.01 85.53 115.01 87C115.01 88.47 114.8 89.94 114.38 91.2H107.24Z" fill="#98FF98"/>
</g>
<defs>
<filter id="filter0_d_557_849" x="0.91983" y="0.351128" width="195.893" height="195.893" filterUnits="userSpaceOnUse" color-interpolation-filters="sRGB">
<feFlood flood-opacity="0" result="BackgroundImageFix"/>
<feColorMatrix in="SourceAlpha" type="matrix" values="0 0 0 0 0 0 0 0 0 0 0 0 0 0 0 0 0 0 127 0" result="hardAlpha"/>
<feOffset dy="10.883"/>
<feGaussianBlur stdDeviation="21.7659"/>
<feColorMatrix type="matrix" values="0 0 0 0 0.212 0 0 0 0 0.238778 0 0 0 0 0.533333 0 0 0 0.06 0"/>
<feBlend mode="normal" in2="BackgroundImageFix" result="effect1_dropShadow_557_849"/>
<feBlend mode="normal" in="SourceGraphic" in2="effect1_dropShadow_557_849" result="shape"/>
</filter>
<clipPath id="clip0_557_849">
<rect width="42" height="42" fill="white" transform="translate(77 66)"/>
</clipPath>
</defs>
</svg>
